%TF.GenerationSoftware,KiCad,Pcbnew,7.0.1*%
%TF.CreationDate,2024-04-15T22:24:00+03:00*%
%TF.ProjectId,ESP32 STEPPER CONTROL PCB,45535033-3220-4535-9445-505045522043,rev?*%
%TF.SameCoordinates,PX68e7780PY7bfa480*%
%TF.FileFunction,Drillmap*%
%TF.FilePolarity,Positive*%
%FSLAX45Y45*%
G04 Gerber Fmt 4.5, Leading zero omitted, Abs format (unit mm)*
G04 Created by KiCad (PCBNEW 7.0.1) date 2024-04-15 22:24:00*
%MOMM*%
%LPD*%
G01*
G04 APERTURE LIST*
%ADD10C,0.008000*%
%ADD11C,0.200000*%
%ADD12C,0.025000*%
%ADD13C,0.030000*%
%ADD14C,0.080000*%
%ADD15C,0.095000*%
%ADD16C,0.100000*%
%ADD17C,0.102000*%
%ADD18C,0.110000*%
%ADD19C,0.120000*%
G04 APERTURE END LIST*
D10*
X7581119Y3172756D02*
X7581889Y3117763D01*
X7578821Y3227368D02*
X7581119Y3172756D01*
X7575016Y3281577D02*
X7578821Y3227368D01*
X7569726Y3335363D02*
X7575016Y3281577D01*
X7562969Y3388706D02*
X7569726Y3335363D01*
X7554767Y3441585D02*
X7562969Y3388706D01*
X7545141Y3493979D02*
X7554767Y3441585D01*
X7534111Y3545868D02*
X7545141Y3493979D01*
X7521697Y3597232D02*
X7534111Y3545868D01*
X7507919Y3648049D02*
X7521697Y3597232D01*
X7492800Y3698300D02*
X7507919Y3648049D01*
X7476358Y3747963D02*
X7492800Y3698300D01*
X7458615Y3797019D02*
X7476358Y3747963D01*
X7439590Y3845446D02*
X7458615Y3797019D01*
X7419306Y3893225D02*
X7439590Y3845446D01*
X7397781Y3940334D02*
X7419306Y3893225D01*
X7375037Y3986753D02*
X7397781Y3940334D01*
X7351094Y4032462D02*
X7375037Y3986753D01*
X7325973Y4077439D02*
X7351094Y4032462D01*
X7299694Y4121665D02*
X7325973Y4077439D01*
X7272277Y4165120D02*
X7299694Y4121665D01*
X7243744Y4207781D02*
X7272277Y4165120D01*
X7214115Y4249629D02*
X7243744Y4207781D01*
X7183410Y4290644D02*
X7214115Y4249629D01*
X7151649Y4330804D02*
X7183410Y4290644D01*
X7118854Y4370090D02*
X7151649Y4330804D01*
X7085045Y4408480D02*
X7118854Y4370090D01*
X7050242Y4445955D02*
X7085045Y4408480D01*
X7014466Y4482493D02*
X7050242Y4445955D01*
X6977738Y4518074D02*
X7014466Y4482493D01*
X6940077Y4552677D02*
X6977738Y4518074D01*
X6901505Y4586283D02*
X6940077Y4552677D01*
X6968536Y4653560D02*
X6901505Y4586283D01*
X7032198Y4724064D02*
X6968536Y4653560D01*
X7092360Y4797664D02*
X7032198Y4724064D01*
X7148889Y4874228D02*
X7092360Y4797664D01*
X7201653Y4953624D02*
X7148889Y4874228D01*
X7250521Y5035719D02*
X7201653Y4953624D01*
X7295361Y5120382D02*
X7250521Y5035719D01*
X7316229Y5163635D02*
X7295361Y5120382D01*
X7336040Y5207481D02*
X7316229Y5163635D01*
X7354779Y5251902D02*
X7336040Y5207481D01*
X7372428Y5296884D02*
X7354779Y5251902D01*
X7388971Y5342408D02*
X7372428Y5296884D01*
X7404392Y5388458D02*
X7388971Y5342408D01*
X7418673Y5435018D02*
X7404392Y5388458D01*
X7431800Y5482072D02*
X7418673Y5435018D01*
X7443754Y5529603D02*
X7431800Y5482072D01*
X7454520Y5577595D02*
X7443754Y5529603D01*
X7464081Y5626030D02*
X7454520Y5577595D01*
X7472421Y5674893D02*
X7464081Y5626030D01*
X7479523Y5724166D02*
X7472421Y5674893D01*
X7485371Y5773835D02*
X7479523Y5724166D01*
X7489948Y5823881D02*
X7485371Y5773835D01*
X7493238Y5874289D02*
X7489948Y5823881D01*
X7495224Y5925042D02*
X7493238Y5874289D01*
X7495889Y5976123D02*
X7495224Y5925042D01*
X7495889Y9179467D02*
X7495889Y5976123D01*
X5781705Y9179467D02*
X7495889Y9179467D01*
X5781705Y7648283D02*
X5781705Y9179467D01*
X5780633Y7627035D02*
X5781705Y7648283D01*
X5777485Y7606404D02*
X5780633Y7627035D01*
X5772367Y7586494D02*
X5777485Y7606404D01*
X5765383Y7567410D02*
X5772367Y7586494D01*
X5756638Y7549254D02*
X5765383Y7567410D01*
X5746237Y7532132D02*
X5756638Y7549254D01*
X5734285Y7516147D02*
X5746237Y7532132D01*
X5720885Y7501403D02*
X5734285Y7516147D01*
X5706144Y7488004D02*
X5720885Y7501403D01*
X5690165Y7476054D02*
X5706144Y7488004D01*
X5673053Y7465658D02*
X5690165Y7476054D01*
X5654913Y7456918D02*
X5673053Y7465658D01*
X5635850Y7449940D02*
X5654913Y7456918D01*
X5615969Y7444826D02*
X5635850Y7449940D01*
X5595374Y7441682D02*
X5615969Y7444826D01*
X5574169Y7440611D02*
X5595374Y7441682D01*
X5552963Y7441682D02*
X5574169Y7440611D01*
X5532367Y7444826D02*
X5552963Y7441682D01*
X5512484Y7449940D02*
X5532367Y7444826D01*
X5493421Y7456918D02*
X5512484Y7449940D01*
X5475280Y7465658D02*
X5493421Y7456918D01*
X5458168Y7476054D02*
X5475280Y7465658D01*
X5442188Y7488004D02*
X5458168Y7476054D01*
X5427446Y7501403D02*
X5442188Y7488004D01*
X5414046Y7516147D02*
X5427446Y7501403D01*
X5402094Y7532132D02*
X5414046Y7516147D01*
X5391692Y7549254D02*
X5402094Y7532132D01*
X5382947Y7567410D02*
X5391692Y7549254D01*
X5375964Y7586494D02*
X5382947Y7567410D01*
X5370845Y7606404D02*
X5375964Y7586494D01*
X5367698Y7627035D02*
X5370845Y7606404D01*
X5366625Y7648283D02*
X5367698Y7627035D01*
X5366625Y7835627D02*
X5366625Y7648283D01*
X5364788Y7908290D02*
X5366625Y7835627D01*
X5359336Y7980001D02*
X5364788Y7908290D01*
X5350357Y8050670D02*
X5359336Y7980001D01*
X5337940Y8120208D02*
X5350357Y8050670D01*
X5322175Y8188528D02*
X5337940Y8120208D01*
X5303148Y8255540D02*
X5322175Y8188528D01*
X5280950Y8321155D02*
X5303148Y8255540D01*
X5255669Y8385284D02*
X5280950Y8321155D01*
X5227393Y8447840D02*
X5255669Y8385284D01*
X5196212Y8508732D02*
X5227393Y8447840D01*
X5162213Y8567872D02*
X5196212Y8508732D01*
X5125486Y8625172D02*
X5162213Y8567872D01*
X5086119Y8680542D02*
X5125486Y8625172D01*
X5044201Y8733893D02*
X5086119Y8680542D01*
X4999821Y8785138D02*
X5044201Y8733893D01*
X4953066Y8834187D02*
X4999821Y8785138D01*
X4904027Y8880951D02*
X4953066Y8834187D01*
X4852791Y8925342D02*
X4904027Y8880951D01*
X4799447Y8967270D02*
X4852791Y8925342D01*
X4744084Y9006647D02*
X4799447Y8967270D01*
X4686791Y9043385D02*
X4744084Y9006647D01*
X4627656Y9077393D02*
X4686791Y9043385D01*
X4566768Y9108584D02*
X4627656Y9077393D01*
X4504215Y9136869D02*
X4566768Y9108584D01*
X4440086Y9162159D02*
X4504215Y9136869D01*
X4374471Y9184365D02*
X4440086Y9162159D01*
X4307457Y9203398D02*
X4374471Y9184365D01*
X4239133Y9219170D02*
X4307457Y9203398D01*
X4169588Y9231592D02*
X4239133Y9219170D01*
X4098911Y9240574D02*
X4169588Y9231592D01*
X4027189Y9246029D02*
X4098911Y9240574D01*
X3954513Y9247867D02*
X4027189Y9246029D01*
X3897824Y9246749D02*
X3954513Y9247867D01*
X3841701Y9243423D02*
X3897824Y9246749D01*
X3786186Y9237932D02*
X3841701Y9243423D01*
X3731322Y9230317D02*
X3786186Y9237932D01*
X3677152Y9220621D02*
X3731322Y9230317D01*
X3623717Y9208886D02*
X3677152Y9220621D01*
X3571061Y9195154D02*
X3623717Y9208886D01*
X3519225Y9179467D02*
X3571061Y9195154D01*
X1810153Y9179467D02*
X3519225Y9179467D01*
X1722217Y9179467D02*
X1810153Y9179467D01*
X8038Y9179467D02*
X1722217Y9179467D01*
X8038Y5815723D02*
X8038Y9179467D01*
X8784Y5764003D02*
X8038Y5815723D01*
X11009Y5712653D02*
X8784Y5764003D01*
X14691Y5661695D02*
X11009Y5712653D01*
X19812Y5611147D02*
X14691Y5661695D01*
X26349Y5561032D02*
X19812Y5611147D01*
X34283Y5511369D02*
X26349Y5561032D01*
X43593Y5462179D02*
X34283Y5511369D01*
X54259Y5413482D02*
X43593Y5462179D01*
X66260Y5365298D02*
X54259Y5413482D01*
X79576Y5317649D02*
X66260Y5365298D01*
X94186Y5270554D02*
X79576Y5317649D01*
X110071Y5224035D02*
X94186Y5270554D01*
X127208Y5178110D02*
X110071Y5224035D01*
X145579Y5132802D02*
X127208Y5178110D01*
X165162Y5088130D02*
X145579Y5132802D01*
X185937Y5044115D02*
X165162Y5088130D01*
X0Y5044115D02*
X185937Y5044115D01*
X0Y3329851D02*
X0Y5044115D01*
X0Y1714243D02*
X0Y3329851D01*
X0Y0D02*
X0Y1714243D01*
X2597313Y0D02*
X0Y0D01*
X2681831Y1390D02*
X2597313Y0D01*
X2765652Y5530D02*
X2681831Y1390D01*
X2848734Y12378D02*
X2765652Y5530D01*
X2931033Y21889D02*
X2848734Y12378D01*
X3012505Y34020D02*
X2931033Y21889D01*
X3093107Y48728D02*
X3012505Y34020D01*
X3172795Y65969D02*
X3093107Y48728D01*
X3251527Y85700D02*
X3172795Y65969D01*
X3329258Y107877D02*
X3251527Y85700D01*
X3405945Y132456D02*
X3329258Y107877D01*
X3481544Y159395D02*
X3405945Y132456D01*
X3556013Y188649D02*
X3481544Y159395D01*
X3629307Y220176D02*
X3556013Y188649D01*
X3701383Y253931D02*
X3629307Y220176D01*
X3772197Y289871D02*
X3701383Y253931D01*
X3841707Y327953D02*
X3772197Y289871D01*
X3909869Y368133D02*
X3841707Y327953D01*
X3976638Y410368D02*
X3909869Y368133D01*
X4041973Y454613D02*
X3976638Y410368D01*
X4105828Y500827D02*
X4041973Y454613D01*
X4168161Y548965D02*
X4105828Y500827D01*
X4228929Y598983D02*
X4168161Y548965D01*
X4288087Y650839D02*
X4228929Y598983D01*
X4345592Y704488D02*
X4288087Y650839D01*
X4401402Y759887D02*
X4345592Y704488D01*
X4455471Y816994D02*
X4401402Y759887D01*
X4507758Y875763D02*
X4455471Y816994D01*
X4558218Y936152D02*
X4507758Y875763D01*
X4606808Y998117D02*
X4558218Y936152D01*
X4653484Y1061615D02*
X4606808Y998117D01*
X4698203Y1126602D02*
X4653484Y1061615D01*
X4740921Y1193035D02*
X4698203Y1126602D01*
X4782601Y1193035D02*
X4740921Y1193035D01*
X4782601Y1189795D02*
X4782601Y1193035D01*
X5398545Y1189795D02*
X4782601Y1189795D01*
X5422597Y1189187D02*
X5398545Y1189795D01*
X5446334Y1187381D02*
X5422597Y1189187D01*
X5492746Y1180296D02*
X5446334Y1187381D01*
X5537546Y1168775D02*
X5492746Y1180296D01*
X5580498Y1153052D02*
X5537546Y1168775D01*
X5621367Y1133362D02*
X5580498Y1153052D01*
X5659917Y1109939D02*
X5621367Y1133362D01*
X5695913Y1083019D02*
X5659917Y1109939D01*
X5729119Y1052836D02*
X5695913Y1083019D01*
X5759301Y1019624D02*
X5729119Y1052836D01*
X5786222Y983618D02*
X5759301Y1019624D01*
X5809647Y945054D02*
X5786222Y983618D01*
X5829341Y904164D02*
X5809647Y945054D01*
X5845069Y861186D02*
X5829341Y904164D01*
X5856594Y816352D02*
X5845069Y861186D01*
X5863682Y769897D02*
X5856594Y816352D01*
X5865489Y746136D02*
X5863682Y769897D01*
X5866097Y722057D02*
X5865489Y746136D01*
X5866097Y-2413D02*
X5866097Y722057D01*
X7580273Y-2413D02*
X5866097Y-2413D01*
X7580273Y722057D02*
X7580273Y-2413D01*
X7578613Y807902D02*
X7580273Y722057D01*
X7573674Y892905D02*
X7578613Y807902D01*
X7565518Y977007D02*
X7573674Y892905D01*
X7554208Y1060146D02*
X7565518Y977007D01*
X7539805Y1142259D02*
X7554208Y1060146D01*
X7522371Y1223287D02*
X7539805Y1142259D01*
X7501970Y1303167D02*
X7522371Y1223287D01*
X7478662Y1381839D02*
X7501970Y1303167D01*
X7452511Y1459240D02*
X7478662Y1381839D01*
X7423577Y1535310D02*
X7452511Y1459240D01*
X7391925Y1609987D02*
X7423577Y1535310D01*
X7357614Y1683209D02*
X7391925Y1609987D01*
X7320709Y1754916D02*
X7357614Y1683209D01*
X7281270Y1825047D02*
X7320709Y1754916D01*
X7239360Y1893538D02*
X7281270Y1825047D01*
X7195041Y1960331D02*
X7239360Y1893538D01*
X7239364Y2021597D02*
X7195041Y1960331D01*
X7281314Y2084648D02*
X7239364Y2021597D01*
X7320825Y2149416D02*
X7281314Y2084648D01*
X7357830Y2215837D02*
X7320825Y2149416D01*
X7392260Y2283844D02*
X7357830Y2215837D01*
X7424050Y2353371D02*
X7392260Y2283844D01*
X7453131Y2424353D02*
X7424050Y2353371D01*
X7479437Y2496723D02*
X7453131Y2424353D01*
X7502900Y2570416D02*
X7479437Y2496723D01*
X7523453Y2645365D02*
X7502900Y2570416D01*
X7541028Y2721506D02*
X7523453Y2645365D01*
X7555559Y2798771D02*
X7541028Y2721506D01*
X7566977Y2877095D02*
X7555559Y2798771D01*
X7575217Y2956412D02*
X7566977Y2877095D01*
X7580210Y3036657D02*
X7575217Y2956412D01*
X7581889Y3117763D02*
X7580210Y3036657D01*
D11*
D12*
X112500Y8287500D02*
X137500Y8262500D01*
X137500Y8287500D02*
X112500Y8262500D01*
X112500Y8062500D02*
X137500Y8037500D01*
X137500Y8062500D02*
X112500Y8037500D01*
X112500Y7912500D02*
X137500Y7887500D01*
X137500Y7912500D02*
X112500Y7887500D01*
X112500Y7762500D02*
X137500Y7737500D01*
X137500Y7762500D02*
X112500Y7737500D01*
X112500Y7612500D02*
X137500Y7587500D01*
X137500Y7612500D02*
X112500Y7587500D01*
X112500Y7462500D02*
X137500Y7437500D01*
X137500Y7462500D02*
X112500Y7437500D01*
X112500Y7312500D02*
X137500Y7287500D01*
X137500Y7312500D02*
X112500Y7287500D01*
X112500Y7187500D02*
X137500Y7162500D01*
X137500Y7187500D02*
X112500Y7162500D01*
X112500Y7037500D02*
X137500Y7012500D01*
X137500Y7037500D02*
X112500Y7012500D01*
X137500Y6962500D02*
X162500Y6937500D01*
X162500Y6962500D02*
X137500Y6937500D01*
X137500Y5687500D02*
X162500Y5662500D01*
X162500Y5687500D02*
X137500Y5662500D01*
X137500Y5387500D02*
X162500Y5362500D01*
X162500Y5387500D02*
X137500Y5362500D01*
X137500Y4862500D02*
X162500Y4837500D01*
X162500Y4862500D02*
X137500Y4837500D01*
X137500Y4612500D02*
X162500Y4587500D01*
X162500Y4612500D02*
X137500Y4587500D01*
X137500Y4312500D02*
X162500Y4287500D01*
X162500Y4312500D02*
X137500Y4287500D01*
X212500Y7162500D02*
X237500Y7137500D01*
X237500Y7162500D02*
X212500Y7137500D01*
X262500Y2987500D02*
X287500Y2962500D01*
X287500Y2987500D02*
X262500Y2962500D01*
X262500Y2437500D02*
X287500Y2412500D01*
X287500Y2437500D02*
X262500Y2412500D01*
X262500Y1837500D02*
X287500Y1812500D01*
X287500Y1837500D02*
X262500Y1812500D01*
X287500Y3762500D02*
X312500Y3737500D01*
X312500Y3762500D02*
X287500Y3737500D01*
X287500Y337500D02*
X312500Y312500D01*
X312500Y337500D02*
X287500Y312500D01*
X312500Y6662500D02*
X337500Y6637500D01*
X337500Y6662500D02*
X312500Y6637500D01*
X312500Y6587500D02*
X337500Y6562500D01*
X337500Y6587500D02*
X312500Y6562500D01*
X312500Y5962500D02*
X337500Y5937500D01*
X337500Y5962500D02*
X312500Y5937500D01*
X337500Y8487500D02*
X362500Y8462500D01*
X362500Y8487500D02*
X337500Y8462500D01*
X362500Y6137500D02*
X387500Y6112500D01*
X387500Y6137500D02*
X362500Y6112500D01*
X387500Y8837500D02*
X412500Y8812500D01*
X412500Y8837500D02*
X387500Y8812500D01*
X412500Y5512500D02*
X437500Y5487500D01*
X437500Y5512500D02*
X412500Y5487500D01*
X437500Y6487500D02*
X462500Y6462500D01*
X462500Y6487500D02*
X437500Y6462500D01*
X437500Y5262500D02*
X462500Y5237500D01*
X462500Y5262500D02*
X437500Y5237500D01*
X462500Y4587500D02*
X487500Y4562500D01*
X487500Y4587500D02*
X462500Y4562500D01*
X462500Y3362500D02*
X487500Y3337500D01*
X487500Y3362500D02*
X462500Y3337500D01*
X487500Y6137500D02*
X512500Y6112500D01*
X512500Y6137500D02*
X487500Y6112500D01*
X487500Y5762500D02*
X512500Y5737500D01*
X512500Y5762500D02*
X487500Y5737500D01*
X512500Y762500D02*
X537500Y737500D01*
X537500Y762500D02*
X512500Y737500D01*
X537500Y6487500D02*
X562500Y6462500D01*
X562500Y6487500D02*
X537500Y6462500D01*
X537500Y1087500D02*
X562500Y1062500D01*
X562500Y1087500D02*
X537500Y1062500D01*
X562500Y4412500D02*
X587500Y4387500D01*
X587500Y4412500D02*
X562500Y4387500D01*
X562500Y2037500D02*
X587500Y2012500D01*
X587500Y2037500D02*
X562500Y2012500D01*
X612500Y6137500D02*
X637500Y6112500D01*
X637500Y6137500D02*
X612500Y6112500D01*
X612500Y5337500D02*
X637500Y5312500D01*
X637500Y5337500D02*
X612500Y5312500D01*
X612500Y487500D02*
X637500Y462500D01*
X637500Y487500D02*
X612500Y462500D01*
X637500Y5587500D02*
X662500Y5562500D01*
X662500Y5587500D02*
X637500Y5562500D01*
X687500Y2712500D02*
X712500Y2687500D01*
X712500Y2712500D02*
X687500Y2687500D01*
X697500Y8012500D02*
X722500Y7987500D01*
X722500Y8012500D02*
X697500Y7987500D01*
X697500Y7942500D02*
X722500Y7917500D01*
X722500Y7942500D02*
X697500Y7917500D01*
X697500Y7857500D02*
X722500Y7832500D01*
X722500Y7857500D02*
X697500Y7832500D01*
X712500Y8962500D02*
X737500Y8937500D01*
X737500Y8962500D02*
X712500Y8937500D01*
X712500Y5887500D02*
X737500Y5862500D01*
X737500Y5887500D02*
X712500Y5862500D01*
X837500Y5862500D02*
X862500Y5837500D01*
X862500Y5862500D02*
X837500Y5837500D01*
X837500Y5762500D02*
X862500Y5737500D01*
X862500Y5762500D02*
X837500Y5737500D01*
X837500Y5662500D02*
X862500Y5637500D01*
X862500Y5662500D02*
X837500Y5637500D01*
X837500Y5562500D02*
X862500Y5537500D01*
X862500Y5562500D02*
X837500Y5537500D01*
X837500Y5462500D02*
X862500Y5437500D01*
X862500Y5462500D02*
X837500Y5437500D01*
X962500Y6762500D02*
X987500Y6737500D01*
X987500Y6762500D02*
X962500Y6737500D01*
X987500Y5912500D02*
X1012500Y5887500D01*
X1012500Y5912500D02*
X987500Y5887500D01*
X987500Y1137500D02*
X1012500Y1112500D01*
X1012500Y1137500D02*
X987500Y1112500D01*
X1012500Y1812500D02*
X1037500Y1787500D01*
X1037500Y1812500D02*
X1012500Y1787500D01*
X1087500Y812500D02*
X1112500Y787500D01*
X1112500Y812500D02*
X1087500Y787500D01*
X1112500Y8587500D02*
X1137500Y8562500D01*
X1137500Y8587500D02*
X1112500Y8562500D01*
X1162500Y8962500D02*
X1187500Y8937500D01*
X1187500Y8962500D02*
X1162500Y8937500D01*
X1162500Y2287500D02*
X1187500Y2262500D01*
X1187500Y2287500D02*
X1162500Y2262500D01*
X1212500Y8212500D02*
X1237500Y8187500D01*
X1237500Y8212500D02*
X1212500Y8187500D01*
X1212500Y6737500D02*
X1237500Y6712500D01*
X1237500Y6737500D02*
X1212500Y6712500D01*
X1412500Y137500D02*
X1437500Y112500D01*
X1437500Y137500D02*
X1412500Y112500D01*
X1487500Y1887500D02*
X1512500Y1862500D01*
X1512500Y1887500D02*
X1487500Y1862500D01*
X1537500Y9037500D02*
X1562500Y9012500D01*
X1562500Y9037500D02*
X1537500Y9012500D01*
X1537500Y6762500D02*
X1562500Y6737500D01*
X1562500Y6762500D02*
X1537500Y6737500D01*
X1612500Y8562500D02*
X1637500Y8537500D01*
X1637500Y8562500D02*
X1612500Y8537500D01*
X1662500Y8312500D02*
X1687500Y8287500D01*
X1687500Y8312500D02*
X1662500Y8287500D01*
X1662500Y5562500D02*
X1687500Y5537500D01*
X1687500Y5562500D02*
X1662500Y5537500D01*
X1662500Y4462500D02*
X1687500Y4437500D01*
X1687500Y4462500D02*
X1662500Y4437500D01*
X1712500Y287500D02*
X1737500Y262500D01*
X1737500Y287500D02*
X1712500Y262500D01*
X1737500Y6762500D02*
X1762500Y6737500D01*
X1762500Y6762500D02*
X1737500Y6737500D01*
X1862500Y8712500D02*
X1887500Y8687500D01*
X1887500Y8712500D02*
X1862500Y8687500D01*
X1862500Y5287500D02*
X1887500Y5262500D01*
X1887500Y5287500D02*
X1862500Y5262500D01*
X1887500Y5662500D02*
X1912500Y5637500D01*
X1912500Y5662500D02*
X1887500Y5637500D01*
X1887500Y4787500D02*
X1912500Y4762500D01*
X1912500Y4787500D02*
X1887500Y4762500D01*
X1887500Y3837500D02*
X1912500Y3812500D01*
X1912500Y3837500D02*
X1887500Y3812500D01*
X1937500Y187500D02*
X1962500Y162500D01*
X1962500Y187500D02*
X1937500Y162500D01*
X1962500Y8187500D02*
X1987500Y8162500D01*
X1987500Y8187500D02*
X1962500Y8162500D01*
X2037500Y5162500D02*
X2062500Y5137500D01*
X2062500Y5162500D02*
X2037500Y5137500D01*
X2037500Y3412500D02*
X2062500Y3387500D01*
X2062500Y3412500D02*
X2037500Y3387500D01*
X2062500Y5612500D02*
X2087500Y5587500D01*
X2087500Y5612500D02*
X2062500Y5587500D01*
X2137500Y8362500D02*
X2162500Y8337500D01*
X2162500Y8362500D02*
X2137500Y8337500D01*
X2162500Y6237500D02*
X2187500Y6212500D01*
X2187500Y6237500D02*
X2162500Y6212500D01*
X2237500Y7862500D02*
X2262500Y7837500D01*
X2262500Y7862500D02*
X2237500Y7837500D01*
X2237500Y2062500D02*
X2262500Y2037500D01*
X2262500Y2062500D02*
X2237500Y2037500D01*
X2237500Y1787500D02*
X2262500Y1762500D01*
X2262500Y1787500D02*
X2237500Y1762500D01*
X2262500Y237500D02*
X2287500Y212500D01*
X2287500Y237500D02*
X2262500Y212500D01*
X2287500Y6412500D02*
X2312500Y6387500D01*
X2312500Y6412500D02*
X2287500Y6387500D01*
X2337500Y7312500D02*
X2362500Y7287500D01*
X2362500Y7312500D02*
X2337500Y7287500D01*
X2337500Y6887500D02*
X2362500Y6862500D01*
X2362500Y6887500D02*
X2337500Y6862500D01*
X2362500Y3237500D02*
X2387500Y3212500D01*
X2387500Y3237500D02*
X2362500Y3212500D01*
X2412500Y6662500D02*
X2437500Y6637500D01*
X2437500Y6662500D02*
X2412500Y6637500D01*
X2437500Y7087500D02*
X2462500Y7062500D01*
X2462500Y7087500D02*
X2437500Y7062500D01*
X2462500Y3787500D02*
X2487500Y3762500D01*
X2487500Y3787500D02*
X2462500Y3762500D01*
X2512500Y7312500D02*
X2537500Y7287500D01*
X2537500Y7312500D02*
X2512500Y7287500D01*
X2562500Y6887500D02*
X2587500Y6862500D01*
X2587500Y6887500D02*
X2562500Y6862500D01*
X2637500Y7762500D02*
X2662500Y7737500D01*
X2662500Y7762500D02*
X2637500Y7737500D01*
X2687500Y412500D02*
X2712500Y387500D01*
X2712500Y412500D02*
X2687500Y387500D01*
X2737500Y3112500D02*
X2762500Y3087500D01*
X2762500Y3112500D02*
X2737500Y3087500D01*
X2737500Y187500D02*
X2762500Y162500D01*
X2762500Y187500D02*
X2737500Y162500D01*
X2762500Y737500D02*
X2787500Y712500D01*
X2787500Y737500D02*
X2762500Y712500D01*
X2812500Y8337500D02*
X2837500Y8312500D01*
X2837500Y8337500D02*
X2812500Y8312500D01*
X2812500Y3587500D02*
X2837500Y3562500D01*
X2837500Y3587500D02*
X2812500Y3562500D01*
X2812500Y412500D02*
X2837500Y387500D01*
X2837500Y412500D02*
X2812500Y387500D01*
X2837500Y7937500D02*
X2862500Y7912500D01*
X2862500Y7937500D02*
X2837500Y7912500D01*
X2962500Y8162500D02*
X2987500Y8137500D01*
X2987500Y8162500D02*
X2962500Y8137500D01*
X2987500Y412500D02*
X3012500Y387500D01*
X3012500Y412500D02*
X2987500Y387500D01*
X3012500Y737500D02*
X3037500Y712500D01*
X3037500Y737500D02*
X3012500Y712500D01*
X3012500Y587500D02*
X3037500Y562500D01*
X3037500Y587500D02*
X3012500Y562500D01*
X3162500Y3262500D02*
X3187500Y3237500D01*
X3187500Y3262500D02*
X3162500Y3237500D01*
X3237500Y6712500D02*
X3262500Y6687500D01*
X3262500Y6712500D02*
X3237500Y6687500D01*
X3287500Y4787500D02*
X3312500Y4762500D01*
X3312500Y4787500D02*
X3287500Y4762500D01*
X3287500Y587500D02*
X3312500Y562500D01*
X3312500Y587500D02*
X3287500Y562500D01*
X3287500Y287500D02*
X3312500Y262500D01*
X3312500Y287500D02*
X3287500Y262500D01*
X3437500Y3762500D02*
X3462500Y3737500D01*
X3462500Y3762500D02*
X3437500Y3737500D01*
X3487500Y7537500D02*
X3512500Y7512500D01*
X3512500Y7537500D02*
X3487500Y7512500D01*
X3487500Y6737500D02*
X3512500Y6712500D01*
X3512500Y6737500D02*
X3487500Y6712500D01*
X3512500Y8037500D02*
X3537500Y8012500D01*
X3537500Y8037500D02*
X3512500Y8012500D01*
X3537500Y4837500D02*
X3562500Y4812500D01*
X3562500Y4837500D02*
X3537500Y4812500D01*
X3562500Y8387500D02*
X3587500Y8362500D01*
X3587500Y8387500D02*
X3562500Y8362500D01*
X3612500Y862500D02*
X3637500Y837500D01*
X3637500Y862500D02*
X3612500Y837500D01*
X3687500Y6037500D02*
X3712500Y6012500D01*
X3712500Y6037500D02*
X3687500Y6012500D01*
X3687500Y1812500D02*
X3712500Y1787500D01*
X3712500Y1812500D02*
X3687500Y1787500D01*
X3712500Y3512500D02*
X3737500Y3487500D01*
X3737500Y3512500D02*
X3712500Y3487500D01*
X3712500Y1112500D02*
X3737500Y1087500D01*
X3737500Y1112500D02*
X3712500Y1087500D01*
X3712500Y637500D02*
X3737500Y612500D01*
X3737500Y637500D02*
X3712500Y612500D01*
X3737500Y8037500D02*
X3762500Y8012500D01*
X3762500Y8037500D02*
X3737500Y8012500D01*
X3737500Y6737500D02*
X3762500Y6712500D01*
X3762500Y6737500D02*
X3737500Y6712500D01*
X3737500Y2387500D02*
X3762500Y2362500D01*
X3762500Y2387500D02*
X3737500Y2362500D01*
X3762500Y4912500D02*
X3787500Y4887500D01*
X3787500Y4912500D02*
X3762500Y4887500D01*
X3812500Y8987500D02*
X3837500Y8962500D01*
X3837500Y8987500D02*
X3812500Y8962500D01*
X3887500Y2762500D02*
X3912500Y2737500D01*
X3912500Y2762500D02*
X3887500Y2737500D01*
X3937500Y962500D02*
X3962500Y937500D01*
X3962500Y962500D02*
X3937500Y937500D01*
X3962500Y1287500D02*
X3987500Y1262500D01*
X3987500Y1287500D02*
X3962500Y1262500D01*
X4112500Y8962500D02*
X4137500Y8937500D01*
X4137500Y8962500D02*
X4112500Y8937500D01*
X4137500Y3812500D02*
X4162500Y3787500D01*
X4162500Y3812500D02*
X4137500Y3787500D01*
X4137500Y1937500D02*
X4162500Y1912500D01*
X4162500Y1937500D02*
X4137500Y1912500D01*
X4162500Y6162500D02*
X4187500Y6137500D01*
X4187500Y6162500D02*
X4162500Y6137500D01*
X4187500Y837500D02*
X4212500Y812500D01*
X4212500Y837500D02*
X4187500Y812500D01*
X4262500Y3637500D02*
X4287500Y3612500D01*
X4287500Y3637500D02*
X4262500Y3612500D01*
X4337500Y8512500D02*
X4362500Y8487500D01*
X4362500Y8512500D02*
X4337500Y8487500D01*
X4337500Y3112500D02*
X4362500Y3087500D01*
X4362500Y3112500D02*
X4337500Y3087500D01*
X4387500Y2787500D02*
X4412500Y2762500D01*
X4412500Y2787500D02*
X4387500Y2762500D01*
X4387500Y1312500D02*
X4412500Y1287500D01*
X4412500Y1312500D02*
X4387500Y1287500D01*
X4437500Y8512500D02*
X4462500Y8487500D01*
X4462500Y8512500D02*
X4437500Y8487500D01*
X4487500Y8837500D02*
X4512500Y8812500D01*
X4512500Y8837500D02*
X4487500Y8812500D01*
X4487500Y2362500D02*
X4512500Y2337500D01*
X4512500Y2362500D02*
X4487500Y2337500D01*
X4487500Y1112500D02*
X4512500Y1087500D01*
X4512500Y1112500D02*
X4487500Y1087500D01*
X4512500Y1812500D02*
X4537500Y1787500D01*
X4537500Y1812500D02*
X4512500Y1787500D01*
X4537500Y8337500D02*
X4562500Y8312500D01*
X4562500Y8337500D02*
X4537500Y8312500D01*
X4562500Y8512500D02*
X4587500Y8487500D01*
X4587500Y8512500D02*
X4562500Y8487500D01*
X4612500Y3812500D02*
X4637500Y3787500D01*
X4637500Y3812500D02*
X4612500Y3787500D01*
X4687500Y8512500D02*
X4712500Y8487500D01*
X4712500Y8512500D02*
X4687500Y8487500D01*
X4787500Y7512500D02*
X4812500Y7487500D01*
X4812500Y7512500D02*
X4787500Y7487500D01*
X4787500Y3637500D02*
X4812500Y3612500D01*
X4812500Y3637500D02*
X4787500Y3612500D01*
X4862500Y1912500D02*
X4887500Y1887500D01*
X4887500Y1912500D02*
X4862500Y1887500D01*
X4887500Y8687500D02*
X4912500Y8662500D01*
X4912500Y8687500D02*
X4887500Y8662500D01*
X4887500Y4862500D02*
X4912500Y4837500D01*
X4912500Y4862500D02*
X4887500Y4837500D01*
X4887500Y2537500D02*
X4912500Y2512500D01*
X4912500Y2537500D02*
X4887500Y2512500D01*
X4912500Y5637500D02*
X4937500Y5612500D01*
X4937500Y5637500D02*
X4912500Y5612500D01*
X4937500Y2987500D02*
X4962500Y2962500D01*
X4962500Y2987500D02*
X4937500Y2962500D01*
X4962500Y1287500D02*
X4987500Y1262500D01*
X4987500Y1287500D02*
X4962500Y1262500D01*
X5062500Y7537500D02*
X5087500Y7512500D01*
X5087500Y7537500D02*
X5062500Y7512500D01*
X5187500Y3687500D02*
X5212500Y3662500D01*
X5212500Y3687500D02*
X5187500Y3662500D01*
X5237500Y2512500D02*
X5262500Y2487500D01*
X5262500Y2512500D02*
X5237500Y2487500D01*
X5437500Y3862500D02*
X5462500Y3837500D01*
X5462500Y3862500D02*
X5437500Y3837500D01*
X5437500Y1812500D02*
X5462500Y1787500D01*
X5462500Y1812500D02*
X5437500Y1787500D01*
X5487500Y1287500D02*
X5512500Y1262500D01*
X5512500Y1287500D02*
X5487500Y1262500D01*
X5512500Y3212500D02*
X5537500Y3187500D01*
X5537500Y3212500D02*
X5512500Y3187500D01*
X5562500Y2537500D02*
X5587500Y2512500D01*
X5587500Y2537500D02*
X5562500Y2512500D01*
X5562500Y1987500D02*
X5587500Y1962500D01*
X5587500Y1987500D02*
X5562500Y1962500D01*
X5812500Y6562500D02*
X5837500Y6537500D01*
X5837500Y6562500D02*
X5812500Y6537500D01*
X5837500Y4887500D02*
X5862500Y4862500D01*
X5862500Y4887500D02*
X5837500Y4862500D01*
X5837500Y1237500D02*
X5862500Y1212500D01*
X5862500Y1237500D02*
X5837500Y1212500D01*
X5912500Y8662500D02*
X5937500Y8637500D01*
X5937500Y8662500D02*
X5912500Y8637500D01*
X5912500Y6212500D02*
X5937500Y6187500D01*
X5937500Y6212500D02*
X5912500Y6187500D01*
X5937500Y7687500D02*
X5962500Y7662500D01*
X5962500Y7687500D02*
X5937500Y7662500D01*
X5937500Y6737500D02*
X5962500Y6712500D01*
X5962500Y6737500D02*
X5937500Y6712500D01*
X5962500Y4562500D02*
X5987500Y4537500D01*
X5987500Y4562500D02*
X5962500Y4537500D01*
X5987500Y5012500D02*
X6012500Y4987500D01*
X6012500Y5012500D02*
X5987500Y4987500D01*
X6012500Y637500D02*
X6037500Y612500D01*
X6037500Y637500D02*
X6012500Y612500D01*
X6037500Y8112500D02*
X6062500Y8087500D01*
X6062500Y8112500D02*
X6037500Y8087500D01*
X6137500Y8887500D02*
X6162500Y8862500D01*
X6162500Y8887500D02*
X6137500Y8862500D01*
X6137500Y6212500D02*
X6162500Y6187500D01*
X6162500Y6212500D02*
X6137500Y6187500D01*
X6187500Y4562500D02*
X6212500Y4537500D01*
X6212500Y4562500D02*
X6187500Y4537500D01*
X6212500Y6737500D02*
X6237500Y6712500D01*
X6237500Y6737500D02*
X6212500Y6712500D01*
X6237500Y5037500D02*
X6262500Y5012500D01*
X6262500Y5037500D02*
X6237500Y5012500D01*
X6262500Y262500D02*
X6287500Y237500D01*
X6287500Y262500D02*
X6262500Y237500D01*
X6337500Y1237500D02*
X6362500Y1212500D01*
X6362500Y1237500D02*
X6337500Y1212500D01*
X6362500Y8312500D02*
X6387500Y8287500D01*
X6387500Y8312500D02*
X6362500Y8287500D01*
X6362500Y6287500D02*
X6387500Y6262500D01*
X6387500Y6287500D02*
X6362500Y6262500D01*
X6387500Y6612500D02*
X6412500Y6587500D01*
X6412500Y6612500D02*
X6387500Y6587500D01*
X6387500Y4887500D02*
X6412500Y4862500D01*
X6412500Y4887500D02*
X6387500Y4862500D01*
X6387500Y4637500D02*
X6412500Y4612500D01*
X6412500Y4637500D02*
X6387500Y4612500D01*
X6387500Y4112500D02*
X6412500Y4087500D01*
X6412500Y4112500D02*
X6387500Y4087500D01*
X6537500Y9037500D02*
X6562500Y9012500D01*
X6562500Y9037500D02*
X6537500Y9012500D01*
X6662500Y1787500D02*
X6687500Y1762500D01*
X6687500Y1787500D02*
X6662500Y1762500D01*
X6787500Y4412500D02*
X6812500Y4387500D01*
X6812500Y4412500D02*
X6787500Y4387500D01*
X6812500Y4862500D02*
X6837500Y4837500D01*
X6837500Y4862500D02*
X6812500Y4837500D01*
X6812500Y3787500D02*
X6837500Y3762500D01*
X6837500Y3787500D02*
X6812500Y3762500D01*
X6887500Y3062500D02*
X6912500Y3037500D01*
X6912500Y3062500D02*
X6887500Y3037500D01*
X6912500Y1137500D02*
X6937500Y1112500D01*
X6937500Y1137500D02*
X6912500Y1112500D01*
X6937500Y162500D02*
X6962500Y137500D01*
X6962500Y162500D02*
X6937500Y137500D01*
X7012500Y1537500D02*
X7037500Y1512500D01*
X7037500Y1537500D02*
X7012500Y1512500D01*
X7112500Y4112500D02*
X7137500Y4087500D01*
X7137500Y4112500D02*
X7112500Y4087500D01*
X7137500Y2312500D02*
X7162500Y2287500D01*
X7162500Y2312500D02*
X7137500Y2287500D01*
X7162500Y8987500D02*
X7187500Y8962500D01*
X7187500Y8987500D02*
X7162500Y8962500D01*
X7262500Y8512500D02*
X7287500Y8487500D01*
X7287500Y8512500D02*
X7262500Y8487500D01*
X7337500Y2687500D02*
X7362500Y2662500D01*
X7362500Y2687500D02*
X7337500Y2662500D01*
X7362500Y1012500D02*
X7387500Y987500D01*
X7387500Y1012500D02*
X7362500Y987500D01*
X7362500Y437500D02*
X7387500Y412500D01*
X7387500Y437500D02*
X7362500Y412500D01*
X7387500Y3287500D02*
X7412500Y3262500D01*
X7412500Y3287500D02*
X7387500Y3262500D01*
D13*
X935000Y6360000D02*
G75*
G03*
X935000Y6360000I-15000J0D01*
G01*
X935000Y6240000D02*
G75*
G03*
X935000Y6240000I-15000J0D01*
G01*
X1045000Y6360000D02*
G75*
G03*
X1045000Y6360000I-15000J0D01*
G01*
X1045000Y6240000D02*
G75*
G03*
X1045000Y6240000I-15000J0D01*
G01*
X1175000Y6360000D02*
G75*
G03*
X1175000Y6360000I-15000J0D01*
G01*
X1175000Y6240000D02*
G75*
G03*
X1175000Y6240000I-15000J0D01*
G01*
X1295000Y6360000D02*
G75*
G03*
X1295000Y6360000I-15000J0D01*
G01*
X1295000Y6240000D02*
G75*
G03*
X1295000Y6240000I-15000J0D01*
G01*
D14*
X800000Y840000D02*
X800000Y760000D01*
X760000Y800000D02*
X840000Y800000D01*
D11*
X760000Y910000D02*
X760000Y690000D01*
X760000Y690000D02*
G75*
G03*
X840000Y690000I40000J0D01*
G01*
X840000Y690000D02*
X840000Y910000D01*
X840000Y910000D02*
G75*
G03*
X760000Y910000I-40000J0D01*
G01*
D14*
X1080000Y360000D02*
X1080000Y280000D01*
X1040000Y320000D02*
X1120000Y320000D01*
D11*
X970000Y280000D02*
X1190000Y280000D01*
X1190000Y280000D02*
G75*
G03*
X1190000Y360000I0J40000D01*
G01*
X1190000Y360000D02*
X970000Y360000D01*
X970000Y360000D02*
G75*
G03*
X970000Y280000I0J-40000D01*
G01*
D14*
X1380000Y840000D02*
X1380000Y760000D01*
X1340000Y800000D02*
X1420000Y800000D01*
D11*
X1340000Y930000D02*
X1340000Y670000D01*
X1340000Y670000D02*
G75*
G03*
X1420000Y670000I40000J0D01*
G01*
X1420000Y670000D02*
X1420000Y930000D01*
X1420000Y930000D02*
G75*
G03*
X1340000Y930000I-40000J0D01*
G01*
D15*
X6916088Y7741412D02*
X6916088Y7808588D01*
X6848912Y7808588D01*
X6848912Y7741412D01*
X6916088Y7741412D01*
X6916088Y7491412D02*
X6916088Y7558588D01*
X6848912Y7558588D01*
X6848912Y7491412D01*
X6916088Y7491412D01*
X6916088Y7241412D02*
X6916088Y7308588D01*
X6848912Y7308588D01*
X6848912Y7241412D01*
X6916088Y7241412D01*
X6916088Y6991412D02*
X6916088Y7058588D01*
X6848912Y7058588D01*
X6848912Y6991412D01*
X6916088Y6991412D01*
X6916088Y6141412D02*
X6916088Y6208588D01*
X6848912Y6208588D01*
X6848912Y6141412D01*
X6916088Y6141412D01*
X6916088Y5891412D02*
X6916088Y5958588D01*
X6848912Y5958588D01*
X6848912Y5891412D01*
X6916088Y5891412D01*
X6916088Y5641412D02*
X6916088Y5708588D01*
X6848912Y5708588D01*
X6848912Y5641412D01*
X6916088Y5641412D01*
X6916088Y5391412D02*
X6916088Y5458588D01*
X6848912Y5458588D01*
X6848912Y5391412D01*
X6916088Y5391412D01*
D16*
X3422500Y7201500D02*
X3472500Y7251500D01*
X3422500Y7301500D01*
X3372500Y7251500D01*
X3422500Y7201500D01*
X3422500Y6947500D02*
X3472500Y6997500D01*
X3422500Y7047500D01*
X3372500Y6997500D01*
X3422500Y6947500D01*
X3422500Y5276500D02*
X3472500Y5326500D01*
X3422500Y5376500D01*
X3372500Y5326500D01*
X3422500Y5276500D01*
X3422500Y5022500D02*
X3472500Y5072500D01*
X3422500Y5122500D01*
X3372500Y5072500D01*
X3422500Y5022500D01*
X3676500Y7201500D02*
X3726500Y7251500D01*
X3676500Y7301500D01*
X3626500Y7251500D01*
X3676500Y7201500D01*
X3676500Y6947500D02*
X3726500Y6997500D01*
X3676500Y7047500D01*
X3626500Y6997500D01*
X3676500Y6947500D01*
X3676500Y5276500D02*
X3726500Y5326500D01*
X3676500Y5376500D01*
X3626500Y5326500D01*
X3676500Y5276500D01*
X3676500Y5022500D02*
X3726500Y5072500D01*
X3676500Y5122500D01*
X3626500Y5072500D01*
X3676500Y5022500D01*
X3930500Y7201500D02*
X3980500Y7251500D01*
X3930500Y7301500D01*
X3880500Y7251500D01*
X3930500Y7201500D01*
X3930500Y6947500D02*
X3980500Y6997500D01*
X3930500Y7047500D01*
X3880500Y6997500D01*
X3930500Y6947500D01*
X3930500Y5276500D02*
X3980500Y5326500D01*
X3930500Y5376500D01*
X3880500Y5326500D01*
X3930500Y5276500D01*
X3930500Y5022500D02*
X3980500Y5072500D01*
X3930500Y5122500D01*
X3880500Y5072500D01*
X3930500Y5022500D01*
D17*
X212200Y4121000D02*
X314200Y4019000D01*
X314200Y4121000D02*
X212200Y4019000D01*
X314200Y4070000D02*
G75*
G03*
X314200Y4070000I-51000J0D01*
G01*
X212200Y1581000D02*
X314200Y1479000D01*
X314200Y1581000D02*
X212200Y1479000D01*
X314200Y1530000D02*
G75*
G03*
X314200Y1530000I-51000J0D01*
G01*
X466200Y4121000D02*
X568200Y4019000D01*
X568200Y4121000D02*
X466200Y4019000D01*
X568200Y4070000D02*
G75*
G03*
X568200Y4070000I-51000J0D01*
G01*
X466200Y1581000D02*
X568200Y1479000D01*
X568200Y1581000D02*
X466200Y1479000D01*
X568200Y1530000D02*
G75*
G03*
X568200Y1530000I-51000J0D01*
G01*
X720200Y4121000D02*
X822200Y4019000D01*
X822200Y4121000D02*
X720200Y4019000D01*
X822200Y4070000D02*
G75*
G03*
X822200Y4070000I-51000J0D01*
G01*
X720200Y1581000D02*
X822200Y1479000D01*
X822200Y1581000D02*
X720200Y1479000D01*
X822200Y1530000D02*
G75*
G03*
X822200Y1530000I-51000J0D01*
G01*
X974200Y4121000D02*
X1076200Y4019000D01*
X1076200Y4121000D02*
X974200Y4019000D01*
X1076200Y4070000D02*
G75*
G03*
X1076200Y4070000I-51000J0D01*
G01*
X974200Y1581000D02*
X1076200Y1479000D01*
X1076200Y1581000D02*
X974200Y1479000D01*
X1076200Y1530000D02*
G75*
G03*
X1076200Y1530000I-51000J0D01*
G01*
X1228200Y4121000D02*
X1330200Y4019000D01*
X1330200Y4121000D02*
X1228200Y4019000D01*
X1330200Y4070000D02*
G75*
G03*
X1330200Y4070000I-51000J0D01*
G01*
X1228200Y1581000D02*
X1330200Y1479000D01*
X1330200Y1581000D02*
X1228200Y1479000D01*
X1330200Y1530000D02*
G75*
G03*
X1330200Y1530000I-51000J0D01*
G01*
X1482200Y4121000D02*
X1584200Y4019000D01*
X1584200Y4121000D02*
X1482200Y4019000D01*
X1584200Y4070000D02*
G75*
G03*
X1584200Y4070000I-51000J0D01*
G01*
X1482200Y1581000D02*
X1584200Y1479000D01*
X1584200Y1581000D02*
X1482200Y1479000D01*
X1584200Y1530000D02*
G75*
G03*
X1584200Y1530000I-51000J0D01*
G01*
X1736200Y4121000D02*
X1838200Y4019000D01*
X1838200Y4121000D02*
X1736200Y4019000D01*
X1838200Y4070000D02*
G75*
G03*
X1838200Y4070000I-51000J0D01*
G01*
X1736200Y1581000D02*
X1838200Y1479000D01*
X1838200Y1581000D02*
X1736200Y1479000D01*
X1838200Y1530000D02*
G75*
G03*
X1838200Y1530000I-51000J0D01*
G01*
X1990200Y4121000D02*
X2092200Y4019000D01*
X2092200Y4121000D02*
X1990200Y4019000D01*
X2092200Y4070000D02*
G75*
G03*
X2092200Y4070000I-51000J0D01*
G01*
X1990200Y1581000D02*
X2092200Y1479000D01*
X2092200Y1581000D02*
X1990200Y1479000D01*
X2092200Y1530000D02*
G75*
G03*
X2092200Y1530000I-51000J0D01*
G01*
X2244200Y4121000D02*
X2346200Y4019000D01*
X2346200Y4121000D02*
X2244200Y4019000D01*
X2346200Y4070000D02*
G75*
G03*
X2346200Y4070000I-51000J0D01*
G01*
X2244200Y1581000D02*
X2346200Y1479000D01*
X2346200Y1581000D02*
X2244200Y1479000D01*
X2346200Y1530000D02*
G75*
G03*
X2346200Y1530000I-51000J0D01*
G01*
X2498200Y4121000D02*
X2600200Y4019000D01*
X2600200Y4121000D02*
X2498200Y4019000D01*
X2600200Y4070000D02*
G75*
G03*
X2600200Y4070000I-51000J0D01*
G01*
X2498200Y1581000D02*
X2600200Y1479000D01*
X2600200Y1581000D02*
X2498200Y1479000D01*
X2600200Y1530000D02*
G75*
G03*
X2600200Y1530000I-51000J0D01*
G01*
X2752200Y4121000D02*
X2854200Y4019000D01*
X2854200Y4121000D02*
X2752200Y4019000D01*
X2854200Y4070000D02*
G75*
G03*
X2854200Y4070000I-51000J0D01*
G01*
X2752200Y1581000D02*
X2854200Y1479000D01*
X2854200Y1581000D02*
X2752200Y1479000D01*
X2854200Y1530000D02*
G75*
G03*
X2854200Y1530000I-51000J0D01*
G01*
X3006200Y4121000D02*
X3108200Y4019000D01*
X3108200Y4121000D02*
X3006200Y4019000D01*
X3108200Y4070000D02*
G75*
G03*
X3108200Y4070000I-51000J0D01*
G01*
X3006200Y1581000D02*
X3108200Y1479000D01*
X3108200Y1581000D02*
X3006200Y1479000D01*
X3108200Y1530000D02*
G75*
G03*
X3108200Y1530000I-51000J0D01*
G01*
X3260200Y4121000D02*
X3362200Y4019000D01*
X3362200Y4121000D02*
X3260200Y4019000D01*
X3362200Y4070000D02*
G75*
G03*
X3362200Y4070000I-51000J0D01*
G01*
X3260200Y1581000D02*
X3362200Y1479000D01*
X3362200Y1581000D02*
X3260200Y1479000D01*
X3362200Y1530000D02*
G75*
G03*
X3362200Y1530000I-51000J0D01*
G01*
X3514200Y4121000D02*
X3616200Y4019000D01*
X3616200Y4121000D02*
X3514200Y4019000D01*
X3616200Y4070000D02*
G75*
G03*
X3616200Y4070000I-51000J0D01*
G01*
X3514200Y1581000D02*
X3616200Y1479000D01*
X3616200Y1581000D02*
X3514200Y1479000D01*
X3616200Y1530000D02*
G75*
G03*
X3616200Y1530000I-51000J0D01*
G01*
X3768200Y4121000D02*
X3870200Y4019000D01*
X3870200Y4121000D02*
X3768200Y4019000D01*
X3870200Y4070000D02*
G75*
G03*
X3870200Y4070000I-51000J0D01*
G01*
X3768200Y1581000D02*
X3870200Y1479000D01*
X3870200Y1581000D02*
X3768200Y1479000D01*
X3870200Y1530000D02*
G75*
G03*
X3870200Y1530000I-51000J0D01*
G01*
X4022200Y4121000D02*
X4124200Y4019000D01*
X4124200Y4121000D02*
X4022200Y4019000D01*
X4124200Y4070000D02*
G75*
G03*
X4124200Y4070000I-51000J0D01*
G01*
X4022200Y1581000D02*
X4124200Y1479000D01*
X4124200Y1581000D02*
X4022200Y1479000D01*
X4124200Y1530000D02*
G75*
G03*
X4124200Y1530000I-51000J0D01*
G01*
X4276200Y4121000D02*
X4378200Y4019000D01*
X4378200Y4121000D02*
X4276200Y4019000D01*
X4378200Y4070000D02*
G75*
G03*
X4378200Y4070000I-51000J0D01*
G01*
X4276200Y1581000D02*
X4378200Y1479000D01*
X4378200Y1581000D02*
X4276200Y1479000D01*
X4378200Y1530000D02*
G75*
G03*
X4378200Y1530000I-51000J0D01*
G01*
X4530200Y4121000D02*
X4632200Y4019000D01*
X4632200Y4121000D02*
X4530200Y4019000D01*
X4632200Y4070000D02*
G75*
G03*
X4632200Y4070000I-51000J0D01*
G01*
X4530200Y1581000D02*
X4632200Y1479000D01*
X4632200Y1581000D02*
X4530200Y1479000D01*
X4632200Y1530000D02*
G75*
G03*
X4632200Y1530000I-51000J0D01*
G01*
X4784200Y4121000D02*
X4886200Y4019000D01*
X4886200Y4121000D02*
X4784200Y4019000D01*
X4886200Y4070000D02*
G75*
G03*
X4886200Y4070000I-51000J0D01*
G01*
X4784200Y1581000D02*
X4886200Y1479000D01*
X4886200Y1581000D02*
X4784200Y1479000D01*
X4886200Y1530000D02*
G75*
G03*
X4886200Y1530000I-51000J0D01*
G01*
X5038200Y4121000D02*
X5140200Y4019000D01*
X5140200Y4121000D02*
X5038200Y4019000D01*
X5140200Y4070000D02*
G75*
G03*
X5140200Y4070000I-51000J0D01*
G01*
X5038200Y1581000D02*
X5140200Y1479000D01*
X5140200Y1581000D02*
X5038200Y1479000D01*
X5140200Y1530000D02*
G75*
G03*
X5140200Y1530000I-51000J0D01*
G01*
X5292200Y4121000D02*
X5394200Y4019000D01*
X5394200Y4121000D02*
X5292200Y4019000D01*
X5394200Y4070000D02*
G75*
G03*
X5394200Y4070000I-51000J0D01*
G01*
X5292200Y1581000D02*
X5394200Y1479000D01*
X5394200Y1581000D02*
X5292200Y1479000D01*
X5394200Y1530000D02*
G75*
G03*
X5394200Y1530000I-51000J0D01*
G01*
X5546200Y4121000D02*
X5648200Y4019000D01*
X5648200Y4121000D02*
X5546200Y4019000D01*
X5648200Y4070000D02*
G75*
G03*
X5648200Y4070000I-51000J0D01*
G01*
X5546200Y1581000D02*
X5648200Y1479000D01*
X5648200Y1581000D02*
X5546200Y1479000D01*
X5648200Y1530000D02*
G75*
G03*
X5648200Y1530000I-51000J0D01*
G01*
D18*
X3256000Y7815000D02*
X3366000Y7705000D01*
X3366000Y7815000D02*
X3256000Y7705000D01*
X3311000Y7815000D02*
X3311000Y7705000D01*
X3256000Y7760000D02*
X3366000Y7760000D01*
X3256000Y6545000D02*
X3366000Y6435000D01*
X3366000Y6545000D02*
X3256000Y6435000D01*
X3311000Y6545000D02*
X3311000Y6435000D01*
X3256000Y6490000D02*
X3366000Y6490000D01*
X3256000Y5890000D02*
X3366000Y5780000D01*
X3366000Y5890000D02*
X3256000Y5780000D01*
X3311000Y5890000D02*
X3311000Y5780000D01*
X3256000Y5835000D02*
X3366000Y5835000D01*
X3256000Y4620000D02*
X3366000Y4510000D01*
X3366000Y4620000D02*
X3256000Y4510000D01*
X3311000Y4620000D02*
X3311000Y4510000D01*
X3256000Y4565000D02*
X3366000Y4565000D01*
X3510000Y7815000D02*
X3620000Y7705000D01*
X3620000Y7815000D02*
X3510000Y7705000D01*
X3565000Y7815000D02*
X3565000Y7705000D01*
X3510000Y7760000D02*
X3620000Y7760000D01*
X3510000Y6545000D02*
X3620000Y6435000D01*
X3620000Y6545000D02*
X3510000Y6435000D01*
X3565000Y6545000D02*
X3565000Y6435000D01*
X3510000Y6490000D02*
X3620000Y6490000D01*
X3510000Y5890000D02*
X3620000Y5780000D01*
X3620000Y5890000D02*
X3510000Y5780000D01*
X3565000Y5890000D02*
X3565000Y5780000D01*
X3510000Y5835000D02*
X3620000Y5835000D01*
X3510000Y4620000D02*
X3620000Y4510000D01*
X3620000Y4620000D02*
X3510000Y4510000D01*
X3565000Y4620000D02*
X3565000Y4510000D01*
X3510000Y4565000D02*
X3620000Y4565000D01*
X3764000Y7815000D02*
X3874000Y7705000D01*
X3874000Y7815000D02*
X3764000Y7705000D01*
X3819000Y7815000D02*
X3819000Y7705000D01*
X3764000Y7760000D02*
X3874000Y7760000D01*
X3764000Y6545000D02*
X3874000Y6435000D01*
X3874000Y6545000D02*
X3764000Y6435000D01*
X3819000Y6545000D02*
X3819000Y6435000D01*
X3764000Y6490000D02*
X3874000Y6490000D01*
X3764000Y5890000D02*
X3874000Y5780000D01*
X3874000Y5890000D02*
X3764000Y5780000D01*
X3819000Y5890000D02*
X3819000Y5780000D01*
X3764000Y5835000D02*
X3874000Y5835000D01*
X3764000Y4620000D02*
X3874000Y4510000D01*
X3874000Y4620000D02*
X3764000Y4510000D01*
X3819000Y4620000D02*
X3819000Y4510000D01*
X3764000Y4565000D02*
X3874000Y4565000D01*
X4018000Y7815000D02*
X4128000Y7705000D01*
X4128000Y7815000D02*
X4018000Y7705000D01*
X4073000Y7815000D02*
X4073000Y7705000D01*
X4018000Y7760000D02*
X4128000Y7760000D01*
X4018000Y6545000D02*
X4128000Y6435000D01*
X4128000Y6545000D02*
X4018000Y6435000D01*
X4073000Y6545000D02*
X4073000Y6435000D01*
X4018000Y6490000D02*
X4128000Y6490000D01*
X4018000Y5890000D02*
X4128000Y5780000D01*
X4128000Y5890000D02*
X4018000Y5780000D01*
X4073000Y5890000D02*
X4073000Y5780000D01*
X4018000Y5835000D02*
X4128000Y5835000D01*
X4018000Y4620000D02*
X4128000Y4510000D01*
X4128000Y4620000D02*
X4018000Y4510000D01*
X4073000Y4620000D02*
X4073000Y4510000D01*
X4018000Y4565000D02*
X4128000Y4565000D01*
X4272000Y7815000D02*
X4382000Y7705000D01*
X4382000Y7815000D02*
X4272000Y7705000D01*
X4327000Y7815000D02*
X4327000Y7705000D01*
X4272000Y7760000D02*
X4382000Y7760000D01*
X4272000Y6545000D02*
X4382000Y6435000D01*
X4382000Y6545000D02*
X4272000Y6435000D01*
X4327000Y6545000D02*
X4327000Y6435000D01*
X4272000Y6490000D02*
X4382000Y6490000D01*
X4272000Y5890000D02*
X4382000Y5780000D01*
X4382000Y5890000D02*
X4272000Y5780000D01*
X4327000Y5890000D02*
X4327000Y5780000D01*
X4272000Y5835000D02*
X4382000Y5835000D01*
X4272000Y4620000D02*
X4382000Y4510000D01*
X4382000Y4620000D02*
X4272000Y4510000D01*
X4327000Y4620000D02*
X4327000Y4510000D01*
X4272000Y4565000D02*
X4382000Y4565000D01*
X4526000Y7815000D02*
X4636000Y7705000D01*
X4636000Y7815000D02*
X4526000Y7705000D01*
X4581000Y7815000D02*
X4581000Y7705000D01*
X4526000Y7760000D02*
X4636000Y7760000D01*
X4526000Y6545000D02*
X4636000Y6435000D01*
X4636000Y6545000D02*
X4526000Y6435000D01*
X4581000Y6545000D02*
X4581000Y6435000D01*
X4526000Y6490000D02*
X4636000Y6490000D01*
X4526000Y5890000D02*
X4636000Y5780000D01*
X4636000Y5890000D02*
X4526000Y5780000D01*
X4581000Y5890000D02*
X4581000Y5780000D01*
X4526000Y5835000D02*
X4636000Y5835000D01*
X4526000Y4620000D02*
X4636000Y4510000D01*
X4636000Y4620000D02*
X4526000Y4510000D01*
X4581000Y4620000D02*
X4581000Y4510000D01*
X4526000Y4565000D02*
X4636000Y4565000D01*
X4780000Y7815000D02*
X4890000Y7705000D01*
X4890000Y7815000D02*
X4780000Y7705000D01*
X4835000Y7815000D02*
X4835000Y7705000D01*
X4780000Y7760000D02*
X4890000Y7760000D01*
X4780000Y6545000D02*
X4890000Y6435000D01*
X4890000Y6545000D02*
X4780000Y6435000D01*
X4835000Y6545000D02*
X4835000Y6435000D01*
X4780000Y6490000D02*
X4890000Y6490000D01*
X4780000Y5890000D02*
X4890000Y5780000D01*
X4890000Y5890000D02*
X4780000Y5780000D01*
X4835000Y5890000D02*
X4835000Y5780000D01*
X4780000Y5835000D02*
X4890000Y5835000D01*
X4780000Y4620000D02*
X4890000Y4510000D01*
X4890000Y4620000D02*
X4780000Y4510000D01*
X4835000Y4620000D02*
X4835000Y4510000D01*
X4780000Y4565000D02*
X4890000Y4565000D01*
X5034000Y7815000D02*
X5144000Y7705000D01*
X5144000Y7815000D02*
X5034000Y7705000D01*
X5089000Y7815000D02*
X5089000Y7705000D01*
X5034000Y7760000D02*
X5144000Y7760000D01*
X5034000Y6545000D02*
X5144000Y6435000D01*
X5144000Y6545000D02*
X5034000Y6435000D01*
X5089000Y6545000D02*
X5089000Y6435000D01*
X5034000Y6490000D02*
X5144000Y6490000D01*
X5034000Y5890000D02*
X5144000Y5780000D01*
X5144000Y5890000D02*
X5034000Y5780000D01*
X5089000Y5890000D02*
X5089000Y5780000D01*
X5034000Y5835000D02*
X5144000Y5835000D01*
X5034000Y4620000D02*
X5144000Y4510000D01*
X5144000Y4620000D02*
X5034000Y4510000D01*
X5089000Y4620000D02*
X5089000Y4510000D01*
X5034000Y4565000D02*
X5144000Y4565000D01*
D19*
X2240000Y8760000D02*
X2360000Y8640000D01*
X2360000Y8760000D02*
X2240000Y8640000D01*
X2342427Y8657573D02*
X2342427Y8742427D01*
X2257573Y8742427D01*
X2257573Y8657573D01*
X2342427Y8657573D01*
X2590000Y8760000D02*
X2710000Y8640000D01*
X2710000Y8760000D02*
X2590000Y8640000D01*
X2692427Y8657573D02*
X2692427Y8742427D01*
X2607573Y8742427D01*
X2607573Y8657573D01*
X2692427Y8657573D01*
X2940000Y8760000D02*
X3060000Y8640000D01*
X3060000Y8760000D02*
X2940000Y8640000D01*
X3042427Y8657573D02*
X3042427Y8742427D01*
X2957573Y8742427D01*
X2957573Y8657573D01*
X3042427Y8657573D01*
D11*
X247219Y-315337D02*
X247219Y-115337D01*
X247219Y-115337D02*
X294838Y-115337D01*
X294838Y-115337D02*
X323410Y-124861D01*
X323410Y-124861D02*
X342457Y-143908D01*
X342457Y-143908D02*
X351981Y-162956D01*
X351981Y-162956D02*
X361505Y-201051D01*
X361505Y-201051D02*
X361505Y-229622D01*
X361505Y-229622D02*
X351981Y-267718D01*
X351981Y-267718D02*
X342457Y-286765D01*
X342457Y-286765D02*
X323410Y-305813D01*
X323410Y-305813D02*
X294838Y-315337D01*
X294838Y-315337D02*
X247219Y-315337D01*
X447219Y-315337D02*
X447219Y-182003D01*
X447219Y-220099D02*
X456743Y-201051D01*
X456743Y-201051D02*
X466267Y-191527D01*
X466267Y-191527D02*
X485314Y-182003D01*
X485314Y-182003D02*
X504362Y-182003D01*
X571029Y-315337D02*
X571029Y-182003D01*
X571029Y-115337D02*
X561505Y-124861D01*
X561505Y-124861D02*
X571029Y-134384D01*
X571029Y-134384D02*
X580552Y-124861D01*
X580552Y-124861D02*
X571029Y-115337D01*
X571029Y-115337D02*
X571029Y-134384D01*
X694838Y-315337D02*
X675790Y-305813D01*
X675790Y-305813D02*
X666267Y-286765D01*
X666267Y-286765D02*
X666267Y-115337D01*
X799600Y-315337D02*
X780552Y-305813D01*
X780552Y-305813D02*
X771028Y-286765D01*
X771028Y-286765D02*
X771028Y-115337D01*
X1028171Y-315337D02*
X1028171Y-115337D01*
X1028171Y-115337D02*
X1094838Y-258194D01*
X1094838Y-258194D02*
X1161505Y-115337D01*
X1161505Y-115337D02*
X1161505Y-315337D01*
X1342457Y-315337D02*
X1342457Y-210575D01*
X1342457Y-210575D02*
X1332933Y-191527D01*
X1332933Y-191527D02*
X1313886Y-182003D01*
X1313886Y-182003D02*
X1275790Y-182003D01*
X1275790Y-182003D02*
X1256743Y-191527D01*
X1342457Y-305813D02*
X1323410Y-315337D01*
X1323410Y-315337D02*
X1275790Y-315337D01*
X1275790Y-315337D02*
X1256743Y-305813D01*
X1256743Y-305813D02*
X1247219Y-286765D01*
X1247219Y-286765D02*
X1247219Y-267718D01*
X1247219Y-267718D02*
X1256743Y-248670D01*
X1256743Y-248670D02*
X1275790Y-239146D01*
X1275790Y-239146D02*
X1323410Y-239146D01*
X1323410Y-239146D02*
X1342457Y-229622D01*
X1437695Y-182003D02*
X1437695Y-382003D01*
X1437695Y-191527D02*
X1456743Y-182003D01*
X1456743Y-182003D02*
X1494838Y-182003D01*
X1494838Y-182003D02*
X1513886Y-191527D01*
X1513886Y-191527D02*
X1523409Y-201051D01*
X1523409Y-201051D02*
X1532933Y-220099D01*
X1532933Y-220099D02*
X1532933Y-277242D01*
X1532933Y-277242D02*
X1523409Y-296289D01*
X1523409Y-296289D02*
X1513886Y-305813D01*
X1513886Y-305813D02*
X1494838Y-315337D01*
X1494838Y-315337D02*
X1456743Y-315337D01*
X1456743Y-315337D02*
X1437695Y-305813D01*
X1618648Y-296289D02*
X1628171Y-305813D01*
X1628171Y-305813D02*
X1618648Y-315337D01*
X1618648Y-315337D02*
X1609124Y-305813D01*
X1609124Y-305813D02*
X1618648Y-296289D01*
X1618648Y-296289D02*
X1618648Y-315337D01*
X1618648Y-191527D02*
X1628171Y-201051D01*
X1628171Y-201051D02*
X1618648Y-210575D01*
X1618648Y-210575D02*
X1609124Y-201051D01*
X1609124Y-201051D02*
X1618648Y-191527D01*
X1618648Y-191527D02*
X1618648Y-210575D01*
D12*
X-25400Y-630313D02*
X-400Y-655313D01*
X-400Y-630313D02*
X-25400Y-655313D01*
D11*
X285314Y-535337D02*
X304362Y-535337D01*
X304362Y-535337D02*
X323410Y-544861D01*
X323410Y-544861D02*
X332933Y-554384D01*
X332933Y-554384D02*
X342457Y-573432D01*
X342457Y-573432D02*
X351981Y-611527D01*
X351981Y-611527D02*
X351981Y-659146D01*
X351981Y-659146D02*
X342457Y-697242D01*
X342457Y-697242D02*
X332933Y-716289D01*
X332933Y-716289D02*
X323410Y-725813D01*
X323410Y-725813D02*
X304362Y-735337D01*
X304362Y-735337D02*
X285314Y-735337D01*
X285314Y-735337D02*
X266267Y-725813D01*
X266267Y-725813D02*
X256743Y-716289D01*
X256743Y-716289D02*
X247219Y-697242D01*
X247219Y-697242D02*
X237695Y-659146D01*
X237695Y-659146D02*
X237695Y-611527D01*
X237695Y-611527D02*
X247219Y-573432D01*
X247219Y-573432D02*
X256743Y-554384D01*
X256743Y-554384D02*
X266267Y-544861D01*
X266267Y-544861D02*
X285314Y-535337D01*
X437695Y-716289D02*
X447219Y-725813D01*
X447219Y-725813D02*
X437695Y-735337D01*
X437695Y-735337D02*
X428171Y-725813D01*
X428171Y-725813D02*
X437695Y-716289D01*
X437695Y-716289D02*
X437695Y-735337D01*
X523409Y-554384D02*
X532933Y-544861D01*
X532933Y-544861D02*
X551981Y-535337D01*
X551981Y-535337D02*
X599600Y-535337D01*
X599600Y-535337D02*
X618648Y-544861D01*
X618648Y-544861D02*
X628171Y-554384D01*
X628171Y-554384D02*
X637695Y-573432D01*
X637695Y-573432D02*
X637695Y-592480D01*
X637695Y-592480D02*
X628171Y-621051D01*
X628171Y-621051D02*
X513886Y-735337D01*
X513886Y-735337D02*
X637695Y-735337D01*
X818648Y-535337D02*
X723409Y-535337D01*
X723409Y-535337D02*
X713886Y-630575D01*
X713886Y-630575D02*
X723409Y-621051D01*
X723409Y-621051D02*
X742457Y-611527D01*
X742457Y-611527D02*
X790076Y-611527D01*
X790076Y-611527D02*
X809124Y-621051D01*
X809124Y-621051D02*
X818648Y-630575D01*
X818648Y-630575D02*
X828171Y-649623D01*
X828171Y-649623D02*
X828171Y-697242D01*
X828171Y-697242D02*
X818648Y-716289D01*
X818648Y-716289D02*
X809124Y-725813D01*
X809124Y-725813D02*
X790076Y-735337D01*
X790076Y-735337D02*
X742457Y-735337D01*
X742457Y-735337D02*
X723409Y-725813D01*
X723409Y-725813D02*
X713886Y-716289D01*
X951981Y-535337D02*
X971029Y-535337D01*
X971029Y-535337D02*
X990076Y-544861D01*
X990076Y-544861D02*
X999600Y-554384D01*
X999600Y-554384D02*
X1009124Y-573432D01*
X1009124Y-573432D02*
X1018648Y-611527D01*
X1018648Y-611527D02*
X1018648Y-659146D01*
X1018648Y-659146D02*
X1009124Y-697242D01*
X1009124Y-697242D02*
X999600Y-716289D01*
X999600Y-716289D02*
X990076Y-725813D01*
X990076Y-725813D02*
X971029Y-735337D01*
X971029Y-735337D02*
X951981Y-735337D01*
X951981Y-735337D02*
X932933Y-725813D01*
X932933Y-725813D02*
X923409Y-716289D01*
X923409Y-716289D02*
X913886Y-697242D01*
X913886Y-697242D02*
X904362Y-659146D01*
X904362Y-659146D02*
X904362Y-611527D01*
X904362Y-611527D02*
X913886Y-573432D01*
X913886Y-573432D02*
X923409Y-554384D01*
X923409Y-554384D02*
X932933Y-544861D01*
X932933Y-544861D02*
X951981Y-535337D01*
X1104362Y-735337D02*
X1104362Y-602003D01*
X1104362Y-621051D02*
X1113886Y-611527D01*
X1113886Y-611527D02*
X1132933Y-602003D01*
X1132933Y-602003D02*
X1161505Y-602003D01*
X1161505Y-602003D02*
X1180552Y-611527D01*
X1180552Y-611527D02*
X1190076Y-630575D01*
X1190076Y-630575D02*
X1190076Y-735337D01*
X1190076Y-630575D02*
X1199600Y-611527D01*
X1199600Y-611527D02*
X1218648Y-602003D01*
X1218648Y-602003D02*
X1247219Y-602003D01*
X1247219Y-602003D02*
X1266267Y-611527D01*
X1266267Y-611527D02*
X1275791Y-630575D01*
X1275791Y-630575D02*
X1275791Y-735337D01*
X1371029Y-735337D02*
X1371029Y-602003D01*
X1371029Y-621051D02*
X1380552Y-611527D01*
X1380552Y-611527D02*
X1399600Y-602003D01*
X1399600Y-602003D02*
X1428171Y-602003D01*
X1428171Y-602003D02*
X1447219Y-611527D01*
X1447219Y-611527D02*
X1456743Y-630575D01*
X1456743Y-630575D02*
X1456743Y-735337D01*
X1456743Y-630575D02*
X1466267Y-611527D01*
X1466267Y-611527D02*
X1485314Y-602003D01*
X1485314Y-602003D02*
X1513886Y-602003D01*
X1513886Y-602003D02*
X1532933Y-611527D01*
X1532933Y-611527D02*
X1542457Y-630575D01*
X1542457Y-630575D02*
X1542457Y-735337D01*
X1932933Y-525813D02*
X1761505Y-782956D01*
X2190076Y-535337D02*
X2209124Y-535337D01*
X2209124Y-535337D02*
X2228172Y-544861D01*
X2228172Y-544861D02*
X2237695Y-554384D01*
X2237695Y-554384D02*
X2247219Y-573432D01*
X2247219Y-573432D02*
X2256743Y-611527D01*
X2256743Y-611527D02*
X2256743Y-659146D01*
X2256743Y-659146D02*
X2247219Y-697242D01*
X2247219Y-697242D02*
X2237695Y-716289D01*
X2237695Y-716289D02*
X2228172Y-725813D01*
X2228172Y-725813D02*
X2209124Y-735337D01*
X2209124Y-735337D02*
X2190076Y-735337D01*
X2190076Y-735337D02*
X2171029Y-725813D01*
X2171029Y-725813D02*
X2161505Y-716289D01*
X2161505Y-716289D02*
X2151981Y-697242D01*
X2151981Y-697242D02*
X2142457Y-659146D01*
X2142457Y-659146D02*
X2142457Y-611527D01*
X2142457Y-611527D02*
X2151981Y-573432D01*
X2151981Y-573432D02*
X2161505Y-554384D01*
X2161505Y-554384D02*
X2171029Y-544861D01*
X2171029Y-544861D02*
X2190076Y-535337D01*
X2342457Y-716289D02*
X2351981Y-725813D01*
X2351981Y-725813D02*
X2342457Y-735337D01*
X2342457Y-735337D02*
X2332934Y-725813D01*
X2332934Y-725813D02*
X2342457Y-716289D01*
X2342457Y-716289D02*
X2342457Y-735337D01*
X2475791Y-535337D02*
X2494838Y-535337D01*
X2494838Y-535337D02*
X2513886Y-544861D01*
X2513886Y-544861D02*
X2523410Y-554384D01*
X2523410Y-554384D02*
X2532934Y-573432D01*
X2532934Y-573432D02*
X2542457Y-611527D01*
X2542457Y-611527D02*
X2542457Y-659146D01*
X2542457Y-659146D02*
X2532934Y-697242D01*
X2532934Y-697242D02*
X2523410Y-716289D01*
X2523410Y-716289D02*
X2513886Y-725813D01*
X2513886Y-725813D02*
X2494838Y-735337D01*
X2494838Y-735337D02*
X2475791Y-735337D01*
X2475791Y-735337D02*
X2456743Y-725813D01*
X2456743Y-725813D02*
X2447219Y-716289D01*
X2447219Y-716289D02*
X2437695Y-697242D01*
X2437695Y-697242D02*
X2428172Y-659146D01*
X2428172Y-659146D02*
X2428172Y-611527D01*
X2428172Y-611527D02*
X2437695Y-573432D01*
X2437695Y-573432D02*
X2447219Y-554384D01*
X2447219Y-554384D02*
X2456743Y-544861D01*
X2456743Y-544861D02*
X2475791Y-535337D01*
X2666267Y-535337D02*
X2685315Y-535337D01*
X2685315Y-535337D02*
X2704362Y-544861D01*
X2704362Y-544861D02*
X2713886Y-554384D01*
X2713886Y-554384D02*
X2723410Y-573432D01*
X2723410Y-573432D02*
X2732934Y-611527D01*
X2732934Y-611527D02*
X2732934Y-659146D01*
X2732934Y-659146D02*
X2723410Y-697242D01*
X2723410Y-697242D02*
X2713886Y-716289D01*
X2713886Y-716289D02*
X2704362Y-725813D01*
X2704362Y-725813D02*
X2685315Y-735337D01*
X2685315Y-735337D02*
X2666267Y-735337D01*
X2666267Y-735337D02*
X2647219Y-725813D01*
X2647219Y-725813D02*
X2637695Y-716289D01*
X2637695Y-716289D02*
X2628172Y-697242D01*
X2628172Y-697242D02*
X2618648Y-659146D01*
X2618648Y-659146D02*
X2618648Y-611527D01*
X2618648Y-611527D02*
X2628172Y-573432D01*
X2628172Y-573432D02*
X2637695Y-554384D01*
X2637695Y-554384D02*
X2647219Y-544861D01*
X2647219Y-544861D02*
X2666267Y-535337D01*
X2828172Y-735337D02*
X2866267Y-735337D01*
X2866267Y-735337D02*
X2885314Y-725813D01*
X2885314Y-725813D02*
X2894838Y-716289D01*
X2894838Y-716289D02*
X2913886Y-687718D01*
X2913886Y-687718D02*
X2923410Y-649623D01*
X2923410Y-649623D02*
X2923410Y-573432D01*
X2923410Y-573432D02*
X2913886Y-554384D01*
X2913886Y-554384D02*
X2904362Y-544861D01*
X2904362Y-544861D02*
X2885314Y-535337D01*
X2885314Y-535337D02*
X2847219Y-535337D01*
X2847219Y-535337D02*
X2828172Y-544861D01*
X2828172Y-544861D02*
X2818648Y-554384D01*
X2818648Y-554384D02*
X2809124Y-573432D01*
X2809124Y-573432D02*
X2809124Y-621051D01*
X2809124Y-621051D02*
X2818648Y-640099D01*
X2818648Y-640099D02*
X2828172Y-649623D01*
X2828172Y-649623D02*
X2847219Y-659146D01*
X2847219Y-659146D02*
X2885314Y-659146D01*
X2885314Y-659146D02*
X2904362Y-649623D01*
X2904362Y-649623D02*
X2913886Y-640099D01*
X2913886Y-640099D02*
X2923410Y-621051D01*
X3037695Y-621051D02*
X3018648Y-611527D01*
X3018648Y-611527D02*
X3009124Y-602003D01*
X3009124Y-602003D02*
X2999600Y-582956D01*
X2999600Y-582956D02*
X2999600Y-573432D01*
X2999600Y-573432D02*
X3009124Y-554384D01*
X3009124Y-554384D02*
X3018648Y-544861D01*
X3018648Y-544861D02*
X3037695Y-535337D01*
X3037695Y-535337D02*
X3075791Y-535337D01*
X3075791Y-535337D02*
X3094838Y-544861D01*
X3094838Y-544861D02*
X3104362Y-554384D01*
X3104362Y-554384D02*
X3113886Y-573432D01*
X3113886Y-573432D02*
X3113886Y-582956D01*
X3113886Y-582956D02*
X3104362Y-602003D01*
X3104362Y-602003D02*
X3094838Y-611527D01*
X3094838Y-611527D02*
X3075791Y-621051D01*
X3075791Y-621051D02*
X3037695Y-621051D01*
X3037695Y-621051D02*
X3018648Y-630575D01*
X3018648Y-630575D02*
X3009124Y-640099D01*
X3009124Y-640099D02*
X2999600Y-659146D01*
X2999600Y-659146D02*
X2999600Y-697242D01*
X2999600Y-697242D02*
X3009124Y-716289D01*
X3009124Y-716289D02*
X3018648Y-725813D01*
X3018648Y-725813D02*
X3037695Y-735337D01*
X3037695Y-735337D02*
X3075791Y-735337D01*
X3075791Y-735337D02*
X3094838Y-725813D01*
X3094838Y-725813D02*
X3104362Y-716289D01*
X3104362Y-716289D02*
X3113886Y-697242D01*
X3113886Y-697242D02*
X3113886Y-659146D01*
X3113886Y-659146D02*
X3104362Y-640099D01*
X3104362Y-640099D02*
X3094838Y-630575D01*
X3094838Y-630575D02*
X3075791Y-621051D01*
X3190076Y-535337D02*
X3190076Y-573432D01*
X3266267Y-535337D02*
X3266267Y-573432D01*
X3561505Y-811527D02*
X3551981Y-802003D01*
X3551981Y-802003D02*
X3532934Y-773432D01*
X3532934Y-773432D02*
X3523410Y-754384D01*
X3523410Y-754384D02*
X3513886Y-725813D01*
X3513886Y-725813D02*
X3504362Y-678194D01*
X3504362Y-678194D02*
X3504362Y-640099D01*
X3504362Y-640099D02*
X3513886Y-592480D01*
X3513886Y-592480D02*
X3523410Y-563908D01*
X3523410Y-563908D02*
X3532934Y-544861D01*
X3532934Y-544861D02*
X3551981Y-516289D01*
X3551981Y-516289D02*
X3561505Y-506765D01*
X3628172Y-554384D02*
X3637695Y-544861D01*
X3637695Y-544861D02*
X3656743Y-535337D01*
X3656743Y-535337D02*
X3704362Y-535337D01*
X3704362Y-535337D02*
X3723410Y-544861D01*
X3723410Y-544861D02*
X3732934Y-554384D01*
X3732934Y-554384D02*
X3742457Y-573432D01*
X3742457Y-573432D02*
X3742457Y-592480D01*
X3742457Y-592480D02*
X3732934Y-621051D01*
X3732934Y-621051D02*
X3618648Y-735337D01*
X3618648Y-735337D02*
X3742457Y-735337D01*
X3932934Y-735337D02*
X3818648Y-735337D01*
X3875791Y-735337D02*
X3875791Y-535337D01*
X3875791Y-535337D02*
X3856743Y-563908D01*
X3856743Y-563908D02*
X3837695Y-582956D01*
X3837695Y-582956D02*
X3818648Y-592480D01*
X4113886Y-535337D02*
X4018648Y-535337D01*
X4018648Y-535337D02*
X4009124Y-630575D01*
X4009124Y-630575D02*
X4018648Y-621051D01*
X4018648Y-621051D02*
X4037695Y-611527D01*
X4037695Y-611527D02*
X4085315Y-611527D01*
X4085315Y-611527D02*
X4104362Y-621051D01*
X4104362Y-621051D02*
X4113886Y-630575D01*
X4113886Y-630575D02*
X4123410Y-649623D01*
X4123410Y-649623D02*
X4123410Y-697242D01*
X4123410Y-697242D02*
X4113886Y-716289D01*
X4113886Y-716289D02*
X4104362Y-725813D01*
X4104362Y-725813D02*
X4085315Y-735337D01*
X4085315Y-735337D02*
X4037695Y-735337D01*
X4037695Y-735337D02*
X4018648Y-725813D01*
X4018648Y-725813D02*
X4009124Y-716289D01*
X4361505Y-735337D02*
X4361505Y-535337D01*
X4447219Y-735337D02*
X4447219Y-630575D01*
X4447219Y-630575D02*
X4437696Y-611527D01*
X4437696Y-611527D02*
X4418648Y-602003D01*
X4418648Y-602003D02*
X4390077Y-602003D01*
X4390077Y-602003D02*
X4371029Y-611527D01*
X4371029Y-611527D02*
X4361505Y-621051D01*
X4571029Y-735337D02*
X4551981Y-725813D01*
X4551981Y-725813D02*
X4542458Y-716289D01*
X4542458Y-716289D02*
X4532934Y-697242D01*
X4532934Y-697242D02*
X4532934Y-640099D01*
X4532934Y-640099D02*
X4542458Y-621051D01*
X4542458Y-621051D02*
X4551981Y-611527D01*
X4551981Y-611527D02*
X4571029Y-602003D01*
X4571029Y-602003D02*
X4599600Y-602003D01*
X4599600Y-602003D02*
X4618648Y-611527D01*
X4618648Y-611527D02*
X4628172Y-621051D01*
X4628172Y-621051D02*
X4637696Y-640099D01*
X4637696Y-640099D02*
X4637696Y-697242D01*
X4637696Y-697242D02*
X4628172Y-716289D01*
X4628172Y-716289D02*
X4618648Y-725813D01*
X4618648Y-725813D02*
X4599600Y-735337D01*
X4599600Y-735337D02*
X4571029Y-735337D01*
X4751981Y-735337D02*
X4732934Y-725813D01*
X4732934Y-725813D02*
X4723410Y-706765D01*
X4723410Y-706765D02*
X4723410Y-535337D01*
X4904362Y-725813D02*
X4885315Y-735337D01*
X4885315Y-735337D02*
X4847219Y-735337D01*
X4847219Y-735337D02*
X4828172Y-725813D01*
X4828172Y-725813D02*
X4818648Y-706765D01*
X4818648Y-706765D02*
X4818648Y-630575D01*
X4818648Y-630575D02*
X4828172Y-611527D01*
X4828172Y-611527D02*
X4847219Y-602003D01*
X4847219Y-602003D02*
X4885315Y-602003D01*
X4885315Y-602003D02*
X4904362Y-611527D01*
X4904362Y-611527D02*
X4913886Y-630575D01*
X4913886Y-630575D02*
X4913886Y-649623D01*
X4913886Y-649623D02*
X4818648Y-668670D01*
X4990077Y-725813D02*
X5009124Y-735337D01*
X5009124Y-735337D02*
X5047219Y-735337D01*
X5047219Y-735337D02*
X5066267Y-725813D01*
X5066267Y-725813D02*
X5075791Y-706765D01*
X5075791Y-706765D02*
X5075791Y-697242D01*
X5075791Y-697242D02*
X5066267Y-678194D01*
X5066267Y-678194D02*
X5047219Y-668670D01*
X5047219Y-668670D02*
X5018648Y-668670D01*
X5018648Y-668670D02*
X4999600Y-659146D01*
X4999600Y-659146D02*
X4990077Y-640099D01*
X4990077Y-640099D02*
X4990077Y-630575D01*
X4990077Y-630575D02*
X4999600Y-611527D01*
X4999600Y-611527D02*
X5018648Y-602003D01*
X5018648Y-602003D02*
X5047219Y-602003D01*
X5047219Y-602003D02*
X5066267Y-611527D01*
X5142458Y-811527D02*
X5151981Y-802003D01*
X5151981Y-802003D02*
X5171029Y-773432D01*
X5171029Y-773432D02*
X5180553Y-754384D01*
X5180553Y-754384D02*
X5190077Y-725813D01*
X5190077Y-725813D02*
X5199600Y-678194D01*
X5199600Y-678194D02*
X5199600Y-640099D01*
X5199600Y-640099D02*
X5190077Y-592480D01*
X5190077Y-592480D02*
X5180553Y-563908D01*
X5180553Y-563908D02*
X5171029Y-544861D01*
X5171029Y-544861D02*
X5151981Y-516289D01*
X5151981Y-516289D02*
X5142458Y-506765D01*
D13*
X-400Y-906813D02*
G75*
G03*
X-400Y-906813I-15000J0D01*
G01*
D11*
X285314Y-799337D02*
X304362Y-799337D01*
X304362Y-799337D02*
X323410Y-808861D01*
X323410Y-808861D02*
X332933Y-818384D01*
X332933Y-818384D02*
X342457Y-837432D01*
X342457Y-837432D02*
X351981Y-875527D01*
X351981Y-875527D02*
X351981Y-923146D01*
X351981Y-923146D02*
X342457Y-961241D01*
X342457Y-961241D02*
X332933Y-980289D01*
X332933Y-980289D02*
X323410Y-989813D01*
X323410Y-989813D02*
X304362Y-999337D01*
X304362Y-999337D02*
X285314Y-999337D01*
X285314Y-999337D02*
X266267Y-989813D01*
X266267Y-989813D02*
X256743Y-980289D01*
X256743Y-980289D02*
X247219Y-961241D01*
X247219Y-961241D02*
X237695Y-923146D01*
X237695Y-923146D02*
X237695Y-875527D01*
X237695Y-875527D02*
X247219Y-837432D01*
X247219Y-837432D02*
X256743Y-818384D01*
X256743Y-818384D02*
X266267Y-808861D01*
X266267Y-808861D02*
X285314Y-799337D01*
X437695Y-980289D02*
X447219Y-989813D01*
X447219Y-989813D02*
X437695Y-999337D01*
X437695Y-999337D02*
X428171Y-989813D01*
X428171Y-989813D02*
X437695Y-980289D01*
X437695Y-980289D02*
X437695Y-999337D01*
X513886Y-799337D02*
X637695Y-799337D01*
X637695Y-799337D02*
X571029Y-875527D01*
X571029Y-875527D02*
X599600Y-875527D01*
X599600Y-875527D02*
X618648Y-885051D01*
X618648Y-885051D02*
X628171Y-894575D01*
X628171Y-894575D02*
X637695Y-913622D01*
X637695Y-913622D02*
X637695Y-961241D01*
X637695Y-961241D02*
X628171Y-980289D01*
X628171Y-980289D02*
X618648Y-989813D01*
X618648Y-989813D02*
X599600Y-999337D01*
X599600Y-999337D02*
X542457Y-999337D01*
X542457Y-999337D02*
X523409Y-989813D01*
X523409Y-989813D02*
X513886Y-980289D01*
X761505Y-799337D02*
X780552Y-799337D01*
X780552Y-799337D02*
X799600Y-808861D01*
X799600Y-808861D02*
X809124Y-818384D01*
X809124Y-818384D02*
X818648Y-837432D01*
X818648Y-837432D02*
X828171Y-875527D01*
X828171Y-875527D02*
X828171Y-923146D01*
X828171Y-923146D02*
X818648Y-961241D01*
X818648Y-961241D02*
X809124Y-980289D01*
X809124Y-980289D02*
X799600Y-989813D01*
X799600Y-989813D02*
X780552Y-999337D01*
X780552Y-999337D02*
X761505Y-999337D01*
X761505Y-999337D02*
X742457Y-989813D01*
X742457Y-989813D02*
X732933Y-980289D01*
X732933Y-980289D02*
X723409Y-961241D01*
X723409Y-961241D02*
X713886Y-923146D01*
X713886Y-923146D02*
X713886Y-875527D01*
X713886Y-875527D02*
X723409Y-837432D01*
X723409Y-837432D02*
X732933Y-818384D01*
X732933Y-818384D02*
X742457Y-808861D01*
X742457Y-808861D02*
X761505Y-799337D01*
X951981Y-799337D02*
X971029Y-799337D01*
X971029Y-799337D02*
X990076Y-808861D01*
X990076Y-808861D02*
X999600Y-818384D01*
X999600Y-818384D02*
X1009124Y-837432D01*
X1009124Y-837432D02*
X1018648Y-875527D01*
X1018648Y-875527D02*
X1018648Y-923146D01*
X1018648Y-923146D02*
X1009124Y-961241D01*
X1009124Y-961241D02*
X999600Y-980289D01*
X999600Y-980289D02*
X990076Y-989813D01*
X990076Y-989813D02*
X971029Y-999337D01*
X971029Y-999337D02*
X951981Y-999337D01*
X951981Y-999337D02*
X932933Y-989813D01*
X932933Y-989813D02*
X923409Y-980289D01*
X923409Y-980289D02*
X913886Y-961241D01*
X913886Y-961241D02*
X904362Y-923146D01*
X904362Y-923146D02*
X904362Y-875527D01*
X904362Y-875527D02*
X913886Y-837432D01*
X913886Y-837432D02*
X923409Y-818384D01*
X923409Y-818384D02*
X932933Y-808861D01*
X932933Y-808861D02*
X951981Y-799337D01*
X1104362Y-999337D02*
X1104362Y-866003D01*
X1104362Y-885051D02*
X1113886Y-875527D01*
X1113886Y-875527D02*
X1132933Y-866003D01*
X1132933Y-866003D02*
X1161505Y-866003D01*
X1161505Y-866003D02*
X1180552Y-875527D01*
X1180552Y-875527D02*
X1190076Y-894575D01*
X1190076Y-894575D02*
X1190076Y-999337D01*
X1190076Y-894575D02*
X1199600Y-875527D01*
X1199600Y-875527D02*
X1218648Y-866003D01*
X1218648Y-866003D02*
X1247219Y-866003D01*
X1247219Y-866003D02*
X1266267Y-875527D01*
X1266267Y-875527D02*
X1275791Y-894575D01*
X1275791Y-894575D02*
X1275791Y-999337D01*
X1371029Y-999337D02*
X1371029Y-866003D01*
X1371029Y-885051D02*
X1380552Y-875527D01*
X1380552Y-875527D02*
X1399600Y-866003D01*
X1399600Y-866003D02*
X1428171Y-866003D01*
X1428171Y-866003D02*
X1447219Y-875527D01*
X1447219Y-875527D02*
X1456743Y-894575D01*
X1456743Y-894575D02*
X1456743Y-999337D01*
X1456743Y-894575D02*
X1466267Y-875527D01*
X1466267Y-875527D02*
X1485314Y-866003D01*
X1485314Y-866003D02*
X1513886Y-866003D01*
X1513886Y-866003D02*
X1532933Y-875527D01*
X1532933Y-875527D02*
X1542457Y-894575D01*
X1542457Y-894575D02*
X1542457Y-999337D01*
X1932933Y-789813D02*
X1761505Y-1046956D01*
X2190076Y-799337D02*
X2209124Y-799337D01*
X2209124Y-799337D02*
X2228172Y-808861D01*
X2228172Y-808861D02*
X2237695Y-818384D01*
X2237695Y-818384D02*
X2247219Y-837432D01*
X2247219Y-837432D02*
X2256743Y-875527D01*
X2256743Y-875527D02*
X2256743Y-923146D01*
X2256743Y-923146D02*
X2247219Y-961241D01*
X2247219Y-961241D02*
X2237695Y-980289D01*
X2237695Y-980289D02*
X2228172Y-989813D01*
X2228172Y-989813D02*
X2209124Y-999337D01*
X2209124Y-999337D02*
X2190076Y-999337D01*
X2190076Y-999337D02*
X2171029Y-989813D01*
X2171029Y-989813D02*
X2161505Y-980289D01*
X2161505Y-980289D02*
X2151981Y-961241D01*
X2151981Y-961241D02*
X2142457Y-923146D01*
X2142457Y-923146D02*
X2142457Y-875527D01*
X2142457Y-875527D02*
X2151981Y-837432D01*
X2151981Y-837432D02*
X2161505Y-818384D01*
X2161505Y-818384D02*
X2171029Y-808861D01*
X2171029Y-808861D02*
X2190076Y-799337D01*
X2342457Y-980289D02*
X2351981Y-989813D01*
X2351981Y-989813D02*
X2342457Y-999337D01*
X2342457Y-999337D02*
X2332934Y-989813D01*
X2332934Y-989813D02*
X2342457Y-980289D01*
X2342457Y-980289D02*
X2342457Y-999337D01*
X2475791Y-799337D02*
X2494838Y-799337D01*
X2494838Y-799337D02*
X2513886Y-808861D01*
X2513886Y-808861D02*
X2523410Y-818384D01*
X2523410Y-818384D02*
X2532934Y-837432D01*
X2532934Y-837432D02*
X2542457Y-875527D01*
X2542457Y-875527D02*
X2542457Y-923146D01*
X2542457Y-923146D02*
X2532934Y-961241D01*
X2532934Y-961241D02*
X2523410Y-980289D01*
X2523410Y-980289D02*
X2513886Y-989813D01*
X2513886Y-989813D02*
X2494838Y-999337D01*
X2494838Y-999337D02*
X2475791Y-999337D01*
X2475791Y-999337D02*
X2456743Y-989813D01*
X2456743Y-989813D02*
X2447219Y-980289D01*
X2447219Y-980289D02*
X2437695Y-961241D01*
X2437695Y-961241D02*
X2428172Y-923146D01*
X2428172Y-923146D02*
X2428172Y-875527D01*
X2428172Y-875527D02*
X2437695Y-837432D01*
X2437695Y-837432D02*
X2447219Y-818384D01*
X2447219Y-818384D02*
X2456743Y-808861D01*
X2456743Y-808861D02*
X2475791Y-799337D01*
X2732934Y-999337D02*
X2618648Y-999337D01*
X2675791Y-999337D02*
X2675791Y-799337D01*
X2675791Y-799337D02*
X2656743Y-827908D01*
X2656743Y-827908D02*
X2637695Y-846956D01*
X2637695Y-846956D02*
X2618648Y-856480D01*
X2923410Y-999337D02*
X2809124Y-999337D01*
X2866267Y-999337D02*
X2866267Y-799337D01*
X2866267Y-799337D02*
X2847219Y-827908D01*
X2847219Y-827908D02*
X2828172Y-846956D01*
X2828172Y-846956D02*
X2809124Y-856480D01*
X3037695Y-885051D02*
X3018648Y-875527D01*
X3018648Y-875527D02*
X3009124Y-866003D01*
X3009124Y-866003D02*
X2999600Y-846956D01*
X2999600Y-846956D02*
X2999600Y-837432D01*
X2999600Y-837432D02*
X3009124Y-818384D01*
X3009124Y-818384D02*
X3018648Y-808861D01*
X3018648Y-808861D02*
X3037695Y-799337D01*
X3037695Y-799337D02*
X3075791Y-799337D01*
X3075791Y-799337D02*
X3094838Y-808861D01*
X3094838Y-808861D02*
X3104362Y-818384D01*
X3104362Y-818384D02*
X3113886Y-837432D01*
X3113886Y-837432D02*
X3113886Y-846956D01*
X3113886Y-846956D02*
X3104362Y-866003D01*
X3104362Y-866003D02*
X3094838Y-875527D01*
X3094838Y-875527D02*
X3075791Y-885051D01*
X3075791Y-885051D02*
X3037695Y-885051D01*
X3037695Y-885051D02*
X3018648Y-894575D01*
X3018648Y-894575D02*
X3009124Y-904099D01*
X3009124Y-904099D02*
X2999600Y-923146D01*
X2999600Y-923146D02*
X2999600Y-961241D01*
X2999600Y-961241D02*
X3009124Y-980289D01*
X3009124Y-980289D02*
X3018648Y-989813D01*
X3018648Y-989813D02*
X3037695Y-999337D01*
X3037695Y-999337D02*
X3075791Y-999337D01*
X3075791Y-999337D02*
X3094838Y-989813D01*
X3094838Y-989813D02*
X3104362Y-980289D01*
X3104362Y-980289D02*
X3113886Y-961241D01*
X3113886Y-961241D02*
X3113886Y-923146D01*
X3113886Y-923146D02*
X3104362Y-904099D01*
X3104362Y-904099D02*
X3094838Y-894575D01*
X3094838Y-894575D02*
X3075791Y-885051D01*
X3190076Y-799337D02*
X3190076Y-837432D01*
X3266267Y-799337D02*
X3266267Y-837432D01*
X3561505Y-1075527D02*
X3551981Y-1066003D01*
X3551981Y-1066003D02*
X3532934Y-1037432D01*
X3532934Y-1037432D02*
X3523410Y-1018384D01*
X3523410Y-1018384D02*
X3513886Y-989813D01*
X3513886Y-989813D02*
X3504362Y-942194D01*
X3504362Y-942194D02*
X3504362Y-904099D01*
X3504362Y-904099D02*
X3513886Y-856480D01*
X3513886Y-856480D02*
X3523410Y-827908D01*
X3523410Y-827908D02*
X3532934Y-808861D01*
X3532934Y-808861D02*
X3551981Y-780289D01*
X3551981Y-780289D02*
X3561505Y-770765D01*
X3666267Y-885051D02*
X3647219Y-875527D01*
X3647219Y-875527D02*
X3637695Y-866003D01*
X3637695Y-866003D02*
X3628172Y-846956D01*
X3628172Y-846956D02*
X3628172Y-837432D01*
X3628172Y-837432D02*
X3637695Y-818384D01*
X3637695Y-818384D02*
X3647219Y-808861D01*
X3647219Y-808861D02*
X3666267Y-799337D01*
X3666267Y-799337D02*
X3704362Y-799337D01*
X3704362Y-799337D02*
X3723410Y-808861D01*
X3723410Y-808861D02*
X3732934Y-818384D01*
X3732934Y-818384D02*
X3742457Y-837432D01*
X3742457Y-837432D02*
X3742457Y-846956D01*
X3742457Y-846956D02*
X3732934Y-866003D01*
X3732934Y-866003D02*
X3723410Y-875527D01*
X3723410Y-875527D02*
X3704362Y-885051D01*
X3704362Y-885051D02*
X3666267Y-885051D01*
X3666267Y-885051D02*
X3647219Y-894575D01*
X3647219Y-894575D02*
X3637695Y-904099D01*
X3637695Y-904099D02*
X3628172Y-923146D01*
X3628172Y-923146D02*
X3628172Y-961241D01*
X3628172Y-961241D02*
X3637695Y-980289D01*
X3637695Y-980289D02*
X3647219Y-989813D01*
X3647219Y-989813D02*
X3666267Y-999337D01*
X3666267Y-999337D02*
X3704362Y-999337D01*
X3704362Y-999337D02*
X3723410Y-989813D01*
X3723410Y-989813D02*
X3732934Y-980289D01*
X3732934Y-980289D02*
X3742457Y-961241D01*
X3742457Y-961241D02*
X3742457Y-923146D01*
X3742457Y-923146D02*
X3732934Y-904099D01*
X3732934Y-904099D02*
X3723410Y-894575D01*
X3723410Y-894575D02*
X3704362Y-885051D01*
X3980553Y-999337D02*
X3980553Y-799337D01*
X4066267Y-999337D02*
X4066267Y-894575D01*
X4066267Y-894575D02*
X4056743Y-875527D01*
X4056743Y-875527D02*
X4037696Y-866003D01*
X4037696Y-866003D02*
X4009124Y-866003D01*
X4009124Y-866003D02*
X3990076Y-875527D01*
X3990076Y-875527D02*
X3980553Y-885051D01*
X4190076Y-999337D02*
X4171029Y-989813D01*
X4171029Y-989813D02*
X4161505Y-980289D01*
X4161505Y-980289D02*
X4151981Y-961241D01*
X4151981Y-961241D02*
X4151981Y-904099D01*
X4151981Y-904099D02*
X4161505Y-885051D01*
X4161505Y-885051D02*
X4171029Y-875527D01*
X4171029Y-875527D02*
X4190076Y-866003D01*
X4190076Y-866003D02*
X4218648Y-866003D01*
X4218648Y-866003D02*
X4237696Y-875527D01*
X4237696Y-875527D02*
X4247219Y-885051D01*
X4247219Y-885051D02*
X4256743Y-904099D01*
X4256743Y-904099D02*
X4256743Y-961241D01*
X4256743Y-961241D02*
X4247219Y-980289D01*
X4247219Y-980289D02*
X4237696Y-989813D01*
X4237696Y-989813D02*
X4218648Y-999337D01*
X4218648Y-999337D02*
X4190076Y-999337D01*
X4371029Y-999337D02*
X4351981Y-989813D01*
X4351981Y-989813D02*
X4342458Y-970765D01*
X4342458Y-970765D02*
X4342458Y-799337D01*
X4523410Y-989813D02*
X4504362Y-999337D01*
X4504362Y-999337D02*
X4466267Y-999337D01*
X4466267Y-999337D02*
X4447219Y-989813D01*
X4447219Y-989813D02*
X4437696Y-970765D01*
X4437696Y-970765D02*
X4437696Y-894575D01*
X4437696Y-894575D02*
X4447219Y-875527D01*
X4447219Y-875527D02*
X4466267Y-866003D01*
X4466267Y-866003D02*
X4504362Y-866003D01*
X4504362Y-866003D02*
X4523410Y-875527D01*
X4523410Y-875527D02*
X4532934Y-894575D01*
X4532934Y-894575D02*
X4532934Y-913622D01*
X4532934Y-913622D02*
X4437696Y-932670D01*
X4609124Y-989813D02*
X4628172Y-999337D01*
X4628172Y-999337D02*
X4666267Y-999337D01*
X4666267Y-999337D02*
X4685315Y-989813D01*
X4685315Y-989813D02*
X4694839Y-970765D01*
X4694839Y-970765D02*
X4694839Y-961241D01*
X4694839Y-961241D02*
X4685315Y-942194D01*
X4685315Y-942194D02*
X4666267Y-932670D01*
X4666267Y-932670D02*
X4637696Y-932670D01*
X4637696Y-932670D02*
X4618648Y-923146D01*
X4618648Y-923146D02*
X4609124Y-904099D01*
X4609124Y-904099D02*
X4609124Y-894575D01*
X4609124Y-894575D02*
X4618648Y-875527D01*
X4618648Y-875527D02*
X4637696Y-866003D01*
X4637696Y-866003D02*
X4666267Y-866003D01*
X4666267Y-866003D02*
X4685315Y-875527D01*
X4761505Y-1075527D02*
X4771029Y-1066003D01*
X4771029Y-1066003D02*
X4790077Y-1037432D01*
X4790077Y-1037432D02*
X4799600Y-1018384D01*
X4799600Y-1018384D02*
X4809124Y-989813D01*
X4809124Y-989813D02*
X4818648Y-942194D01*
X4818648Y-942194D02*
X4818648Y-904099D01*
X4818648Y-904099D02*
X4809124Y-856480D01*
X4809124Y-856480D02*
X4799600Y-827908D01*
X4799600Y-827908D02*
X4790077Y-808861D01*
X4790077Y-808861D02*
X4771029Y-780289D01*
X4771029Y-780289D02*
X4761505Y-770765D01*
D14*
X-40400Y-1130813D02*
X-40400Y-1210813D01*
X-80400Y-1170813D02*
X-400Y-1170813D01*
D11*
X285314Y-1063337D02*
X304362Y-1063337D01*
X304362Y-1063337D02*
X323410Y-1072861D01*
X323410Y-1072861D02*
X332933Y-1082384D01*
X332933Y-1082384D02*
X342457Y-1101432D01*
X342457Y-1101432D02*
X351981Y-1139527D01*
X351981Y-1139527D02*
X351981Y-1187146D01*
X351981Y-1187146D02*
X342457Y-1225242D01*
X342457Y-1225242D02*
X332933Y-1244289D01*
X332933Y-1244289D02*
X323410Y-1253813D01*
X323410Y-1253813D02*
X304362Y-1263337D01*
X304362Y-1263337D02*
X285314Y-1263337D01*
X285314Y-1263337D02*
X266267Y-1253813D01*
X266267Y-1253813D02*
X256743Y-1244289D01*
X256743Y-1244289D02*
X247219Y-1225242D01*
X247219Y-1225242D02*
X237695Y-1187146D01*
X237695Y-1187146D02*
X237695Y-1139527D01*
X237695Y-1139527D02*
X247219Y-1101432D01*
X247219Y-1101432D02*
X256743Y-1082384D01*
X256743Y-1082384D02*
X266267Y-1072861D01*
X266267Y-1072861D02*
X285314Y-1063337D01*
X437695Y-1244289D02*
X447219Y-1253813D01*
X447219Y-1253813D02*
X437695Y-1263337D01*
X437695Y-1263337D02*
X428171Y-1253813D01*
X428171Y-1253813D02*
X437695Y-1244289D01*
X437695Y-1244289D02*
X437695Y-1263337D01*
X561505Y-1149051D02*
X542457Y-1139527D01*
X542457Y-1139527D02*
X532933Y-1130003D01*
X532933Y-1130003D02*
X523409Y-1110956D01*
X523409Y-1110956D02*
X523409Y-1101432D01*
X523409Y-1101432D02*
X532933Y-1082384D01*
X532933Y-1082384D02*
X542457Y-1072861D01*
X542457Y-1072861D02*
X561505Y-1063337D01*
X561505Y-1063337D02*
X599600Y-1063337D01*
X599600Y-1063337D02*
X618648Y-1072861D01*
X618648Y-1072861D02*
X628171Y-1082384D01*
X628171Y-1082384D02*
X637695Y-1101432D01*
X637695Y-1101432D02*
X637695Y-1110956D01*
X637695Y-1110956D02*
X628171Y-1130003D01*
X628171Y-1130003D02*
X618648Y-1139527D01*
X618648Y-1139527D02*
X599600Y-1149051D01*
X599600Y-1149051D02*
X561505Y-1149051D01*
X561505Y-1149051D02*
X542457Y-1158575D01*
X542457Y-1158575D02*
X532933Y-1168099D01*
X532933Y-1168099D02*
X523409Y-1187146D01*
X523409Y-1187146D02*
X523409Y-1225242D01*
X523409Y-1225242D02*
X532933Y-1244289D01*
X532933Y-1244289D02*
X542457Y-1253813D01*
X542457Y-1253813D02*
X561505Y-1263337D01*
X561505Y-1263337D02*
X599600Y-1263337D01*
X599600Y-1263337D02*
X618648Y-1253813D01*
X618648Y-1253813D02*
X628171Y-1244289D01*
X628171Y-1244289D02*
X637695Y-1225242D01*
X637695Y-1225242D02*
X637695Y-1187146D01*
X637695Y-1187146D02*
X628171Y-1168099D01*
X628171Y-1168099D02*
X618648Y-1158575D01*
X618648Y-1158575D02*
X599600Y-1149051D01*
X761505Y-1063337D02*
X780552Y-1063337D01*
X780552Y-1063337D02*
X799600Y-1072861D01*
X799600Y-1072861D02*
X809124Y-1082384D01*
X809124Y-1082384D02*
X818648Y-1101432D01*
X818648Y-1101432D02*
X828171Y-1139527D01*
X828171Y-1139527D02*
X828171Y-1187146D01*
X828171Y-1187146D02*
X818648Y-1225242D01*
X818648Y-1225242D02*
X809124Y-1244289D01*
X809124Y-1244289D02*
X799600Y-1253813D01*
X799600Y-1253813D02*
X780552Y-1263337D01*
X780552Y-1263337D02*
X761505Y-1263337D01*
X761505Y-1263337D02*
X742457Y-1253813D01*
X742457Y-1253813D02*
X732933Y-1244289D01*
X732933Y-1244289D02*
X723409Y-1225242D01*
X723409Y-1225242D02*
X713886Y-1187146D01*
X713886Y-1187146D02*
X713886Y-1139527D01*
X713886Y-1139527D02*
X723409Y-1101432D01*
X723409Y-1101432D02*
X732933Y-1082384D01*
X732933Y-1082384D02*
X742457Y-1072861D01*
X742457Y-1072861D02*
X761505Y-1063337D01*
X951981Y-1063337D02*
X971029Y-1063337D01*
X971029Y-1063337D02*
X990076Y-1072861D01*
X990076Y-1072861D02*
X999600Y-1082384D01*
X999600Y-1082384D02*
X1009124Y-1101432D01*
X1009124Y-1101432D02*
X1018648Y-1139527D01*
X1018648Y-1139527D02*
X1018648Y-1187146D01*
X1018648Y-1187146D02*
X1009124Y-1225242D01*
X1009124Y-1225242D02*
X999600Y-1244289D01*
X999600Y-1244289D02*
X990076Y-1253813D01*
X990076Y-1253813D02*
X971029Y-1263337D01*
X971029Y-1263337D02*
X951981Y-1263337D01*
X951981Y-1263337D02*
X932933Y-1253813D01*
X932933Y-1253813D02*
X923409Y-1244289D01*
X923409Y-1244289D02*
X913886Y-1225242D01*
X913886Y-1225242D02*
X904362Y-1187146D01*
X904362Y-1187146D02*
X904362Y-1139527D01*
X904362Y-1139527D02*
X913886Y-1101432D01*
X913886Y-1101432D02*
X923409Y-1082384D01*
X923409Y-1082384D02*
X932933Y-1072861D01*
X932933Y-1072861D02*
X951981Y-1063337D01*
X1104362Y-1263337D02*
X1104362Y-1130003D01*
X1104362Y-1149051D02*
X1113886Y-1139527D01*
X1113886Y-1139527D02*
X1132933Y-1130003D01*
X1132933Y-1130003D02*
X1161505Y-1130003D01*
X1161505Y-1130003D02*
X1180552Y-1139527D01*
X1180552Y-1139527D02*
X1190076Y-1158575D01*
X1190076Y-1158575D02*
X1190076Y-1263337D01*
X1190076Y-1158575D02*
X1199600Y-1139527D01*
X1199600Y-1139527D02*
X1218648Y-1130003D01*
X1218648Y-1130003D02*
X1247219Y-1130003D01*
X1247219Y-1130003D02*
X1266267Y-1139527D01*
X1266267Y-1139527D02*
X1275791Y-1158575D01*
X1275791Y-1158575D02*
X1275791Y-1263337D01*
X1371029Y-1263337D02*
X1371029Y-1130003D01*
X1371029Y-1149051D02*
X1380552Y-1139527D01*
X1380552Y-1139527D02*
X1399600Y-1130003D01*
X1399600Y-1130003D02*
X1428171Y-1130003D01*
X1428171Y-1130003D02*
X1447219Y-1139527D01*
X1447219Y-1139527D02*
X1456743Y-1158575D01*
X1456743Y-1158575D02*
X1456743Y-1263337D01*
X1456743Y-1158575D02*
X1466267Y-1139527D01*
X1466267Y-1139527D02*
X1485314Y-1130003D01*
X1485314Y-1130003D02*
X1513886Y-1130003D01*
X1513886Y-1130003D02*
X1532933Y-1139527D01*
X1532933Y-1139527D02*
X1542457Y-1158575D01*
X1542457Y-1158575D02*
X1542457Y-1263337D01*
X1932933Y-1053813D02*
X1761505Y-1310956D01*
X2190076Y-1063337D02*
X2209124Y-1063337D01*
X2209124Y-1063337D02*
X2228172Y-1072861D01*
X2228172Y-1072861D02*
X2237695Y-1082384D01*
X2237695Y-1082384D02*
X2247219Y-1101432D01*
X2247219Y-1101432D02*
X2256743Y-1139527D01*
X2256743Y-1139527D02*
X2256743Y-1187146D01*
X2256743Y-1187146D02*
X2247219Y-1225242D01*
X2247219Y-1225242D02*
X2237695Y-1244289D01*
X2237695Y-1244289D02*
X2228172Y-1253813D01*
X2228172Y-1253813D02*
X2209124Y-1263337D01*
X2209124Y-1263337D02*
X2190076Y-1263337D01*
X2190076Y-1263337D02*
X2171029Y-1253813D01*
X2171029Y-1253813D02*
X2161505Y-1244289D01*
X2161505Y-1244289D02*
X2151981Y-1225242D01*
X2151981Y-1225242D02*
X2142457Y-1187146D01*
X2142457Y-1187146D02*
X2142457Y-1139527D01*
X2142457Y-1139527D02*
X2151981Y-1101432D01*
X2151981Y-1101432D02*
X2161505Y-1082384D01*
X2161505Y-1082384D02*
X2171029Y-1072861D01*
X2171029Y-1072861D02*
X2190076Y-1063337D01*
X2342457Y-1244289D02*
X2351981Y-1253813D01*
X2351981Y-1253813D02*
X2342457Y-1263337D01*
X2342457Y-1263337D02*
X2332934Y-1253813D01*
X2332934Y-1253813D02*
X2342457Y-1244289D01*
X2342457Y-1244289D02*
X2342457Y-1263337D01*
X2475791Y-1063337D02*
X2494838Y-1063337D01*
X2494838Y-1063337D02*
X2513886Y-1072861D01*
X2513886Y-1072861D02*
X2523410Y-1082384D01*
X2523410Y-1082384D02*
X2532934Y-1101432D01*
X2532934Y-1101432D02*
X2542457Y-1139527D01*
X2542457Y-1139527D02*
X2542457Y-1187146D01*
X2542457Y-1187146D02*
X2532934Y-1225242D01*
X2532934Y-1225242D02*
X2523410Y-1244289D01*
X2523410Y-1244289D02*
X2513886Y-1253813D01*
X2513886Y-1253813D02*
X2494838Y-1263337D01*
X2494838Y-1263337D02*
X2475791Y-1263337D01*
X2475791Y-1263337D02*
X2456743Y-1253813D01*
X2456743Y-1253813D02*
X2447219Y-1244289D01*
X2447219Y-1244289D02*
X2437695Y-1225242D01*
X2437695Y-1225242D02*
X2428172Y-1187146D01*
X2428172Y-1187146D02*
X2428172Y-1139527D01*
X2428172Y-1139527D02*
X2437695Y-1101432D01*
X2437695Y-1101432D02*
X2447219Y-1082384D01*
X2447219Y-1082384D02*
X2456743Y-1072861D01*
X2456743Y-1072861D02*
X2475791Y-1063337D01*
X2609124Y-1063337D02*
X2732934Y-1063337D01*
X2732934Y-1063337D02*
X2666267Y-1139527D01*
X2666267Y-1139527D02*
X2694838Y-1139527D01*
X2694838Y-1139527D02*
X2713886Y-1149051D01*
X2713886Y-1149051D02*
X2723410Y-1158575D01*
X2723410Y-1158575D02*
X2732934Y-1177623D01*
X2732934Y-1177623D02*
X2732934Y-1225242D01*
X2732934Y-1225242D02*
X2723410Y-1244289D01*
X2723410Y-1244289D02*
X2713886Y-1253813D01*
X2713886Y-1253813D02*
X2694838Y-1263337D01*
X2694838Y-1263337D02*
X2637695Y-1263337D01*
X2637695Y-1263337D02*
X2618648Y-1253813D01*
X2618648Y-1253813D02*
X2609124Y-1244289D01*
X2923410Y-1263337D02*
X2809124Y-1263337D01*
X2866267Y-1263337D02*
X2866267Y-1063337D01*
X2866267Y-1063337D02*
X2847219Y-1091908D01*
X2847219Y-1091908D02*
X2828172Y-1110956D01*
X2828172Y-1110956D02*
X2809124Y-1120480D01*
X3104362Y-1063337D02*
X3009124Y-1063337D01*
X3009124Y-1063337D02*
X2999600Y-1158575D01*
X2999600Y-1158575D02*
X3009124Y-1149051D01*
X3009124Y-1149051D02*
X3028172Y-1139527D01*
X3028172Y-1139527D02*
X3075791Y-1139527D01*
X3075791Y-1139527D02*
X3094838Y-1149051D01*
X3094838Y-1149051D02*
X3104362Y-1158575D01*
X3104362Y-1158575D02*
X3113886Y-1177623D01*
X3113886Y-1177623D02*
X3113886Y-1225242D01*
X3113886Y-1225242D02*
X3104362Y-1244289D01*
X3104362Y-1244289D02*
X3094838Y-1253813D01*
X3094838Y-1253813D02*
X3075791Y-1263337D01*
X3075791Y-1263337D02*
X3028172Y-1263337D01*
X3028172Y-1263337D02*
X3009124Y-1253813D01*
X3009124Y-1253813D02*
X2999600Y-1244289D01*
X3190076Y-1063337D02*
X3190076Y-1101432D01*
X3266267Y-1063337D02*
X3266267Y-1101432D01*
X3561505Y-1339527D02*
X3551981Y-1330003D01*
X3551981Y-1330003D02*
X3532934Y-1301432D01*
X3532934Y-1301432D02*
X3523410Y-1282384D01*
X3523410Y-1282384D02*
X3513886Y-1253813D01*
X3513886Y-1253813D02*
X3504362Y-1206194D01*
X3504362Y-1206194D02*
X3504362Y-1168099D01*
X3504362Y-1168099D02*
X3513886Y-1120480D01*
X3513886Y-1120480D02*
X3523410Y-1091908D01*
X3523410Y-1091908D02*
X3532934Y-1072861D01*
X3532934Y-1072861D02*
X3551981Y-1044289D01*
X3551981Y-1044289D02*
X3561505Y-1034765D01*
X3675791Y-1063337D02*
X3694838Y-1063337D01*
X3694838Y-1063337D02*
X3713886Y-1072861D01*
X3713886Y-1072861D02*
X3723410Y-1082384D01*
X3723410Y-1082384D02*
X3732934Y-1101432D01*
X3732934Y-1101432D02*
X3742457Y-1139527D01*
X3742457Y-1139527D02*
X3742457Y-1187146D01*
X3742457Y-1187146D02*
X3732934Y-1225242D01*
X3732934Y-1225242D02*
X3723410Y-1244289D01*
X3723410Y-1244289D02*
X3713886Y-1253813D01*
X3713886Y-1253813D02*
X3694838Y-1263337D01*
X3694838Y-1263337D02*
X3675791Y-1263337D01*
X3675791Y-1263337D02*
X3656743Y-1253813D01*
X3656743Y-1253813D02*
X3647219Y-1244289D01*
X3647219Y-1244289D02*
X3637695Y-1225242D01*
X3637695Y-1225242D02*
X3628172Y-1187146D01*
X3628172Y-1187146D02*
X3628172Y-1139527D01*
X3628172Y-1139527D02*
X3637695Y-1101432D01*
X3637695Y-1101432D02*
X3647219Y-1082384D01*
X3647219Y-1082384D02*
X3656743Y-1072861D01*
X3656743Y-1072861D02*
X3675791Y-1063337D01*
X3980553Y-1263337D02*
X3980553Y-1063337D01*
X4066267Y-1263337D02*
X4066267Y-1158575D01*
X4066267Y-1158575D02*
X4056743Y-1139527D01*
X4056743Y-1139527D02*
X4037696Y-1130003D01*
X4037696Y-1130003D02*
X4009124Y-1130003D01*
X4009124Y-1130003D02*
X3990076Y-1139527D01*
X3990076Y-1139527D02*
X3980553Y-1149051D01*
X4190076Y-1263337D02*
X4171029Y-1253813D01*
X4171029Y-1253813D02*
X4161505Y-1244289D01*
X4161505Y-1244289D02*
X4151981Y-1225242D01*
X4151981Y-1225242D02*
X4151981Y-1168099D01*
X4151981Y-1168099D02*
X4161505Y-1149051D01*
X4161505Y-1149051D02*
X4171029Y-1139527D01*
X4171029Y-1139527D02*
X4190076Y-1130003D01*
X4190076Y-1130003D02*
X4218648Y-1130003D01*
X4218648Y-1130003D02*
X4237696Y-1139527D01*
X4237696Y-1139527D02*
X4247219Y-1149051D01*
X4247219Y-1149051D02*
X4256743Y-1168099D01*
X4256743Y-1168099D02*
X4256743Y-1225242D01*
X4256743Y-1225242D02*
X4247219Y-1244289D01*
X4247219Y-1244289D02*
X4237696Y-1253813D01*
X4237696Y-1253813D02*
X4218648Y-1263337D01*
X4218648Y-1263337D02*
X4190076Y-1263337D01*
X4371029Y-1263337D02*
X4351981Y-1253813D01*
X4351981Y-1253813D02*
X4342458Y-1234765D01*
X4342458Y-1234765D02*
X4342458Y-1063337D01*
X4523410Y-1253813D02*
X4504362Y-1263337D01*
X4504362Y-1263337D02*
X4466267Y-1263337D01*
X4466267Y-1263337D02*
X4447219Y-1253813D01*
X4447219Y-1253813D02*
X4437696Y-1234765D01*
X4437696Y-1234765D02*
X4437696Y-1158575D01*
X4437696Y-1158575D02*
X4447219Y-1139527D01*
X4447219Y-1139527D02*
X4466267Y-1130003D01*
X4466267Y-1130003D02*
X4504362Y-1130003D01*
X4504362Y-1130003D02*
X4523410Y-1139527D01*
X4523410Y-1139527D02*
X4532934Y-1158575D01*
X4532934Y-1158575D02*
X4532934Y-1177623D01*
X4532934Y-1177623D02*
X4437696Y-1196670D01*
X4609124Y-1253813D02*
X4628172Y-1263337D01*
X4628172Y-1263337D02*
X4666267Y-1263337D01*
X4666267Y-1263337D02*
X4685315Y-1253813D01*
X4685315Y-1253813D02*
X4694839Y-1234765D01*
X4694839Y-1234765D02*
X4694839Y-1225242D01*
X4694839Y-1225242D02*
X4685315Y-1206194D01*
X4685315Y-1206194D02*
X4666267Y-1196670D01*
X4666267Y-1196670D02*
X4637696Y-1196670D01*
X4637696Y-1196670D02*
X4618648Y-1187146D01*
X4618648Y-1187146D02*
X4609124Y-1168099D01*
X4609124Y-1168099D02*
X4609124Y-1158575D01*
X4609124Y-1158575D02*
X4618648Y-1139527D01*
X4618648Y-1139527D02*
X4637696Y-1130003D01*
X4637696Y-1130003D02*
X4666267Y-1130003D01*
X4666267Y-1130003D02*
X4685315Y-1139527D01*
X4932934Y-1187146D02*
X5085315Y-1187146D01*
X5009124Y-1263337D02*
X5009124Y-1110956D01*
X5313886Y-1063337D02*
X5437696Y-1063337D01*
X5437696Y-1063337D02*
X5371029Y-1139527D01*
X5371029Y-1139527D02*
X5399601Y-1139527D01*
X5399601Y-1139527D02*
X5418648Y-1149051D01*
X5418648Y-1149051D02*
X5428172Y-1158575D01*
X5428172Y-1158575D02*
X5437696Y-1177623D01*
X5437696Y-1177623D02*
X5437696Y-1225242D01*
X5437696Y-1225242D02*
X5428172Y-1244289D01*
X5428172Y-1244289D02*
X5418648Y-1253813D01*
X5418648Y-1253813D02*
X5399601Y-1263337D01*
X5399601Y-1263337D02*
X5342458Y-1263337D01*
X5342458Y-1263337D02*
X5323410Y-1253813D01*
X5323410Y-1253813D02*
X5313886Y-1244289D01*
X5666267Y-1253813D02*
X5685315Y-1263337D01*
X5685315Y-1263337D02*
X5723410Y-1263337D01*
X5723410Y-1263337D02*
X5742458Y-1253813D01*
X5742458Y-1253813D02*
X5751981Y-1234765D01*
X5751981Y-1234765D02*
X5751981Y-1225242D01*
X5751981Y-1225242D02*
X5742458Y-1206194D01*
X5742458Y-1206194D02*
X5723410Y-1196670D01*
X5723410Y-1196670D02*
X5694839Y-1196670D01*
X5694839Y-1196670D02*
X5675791Y-1187146D01*
X5675791Y-1187146D02*
X5666267Y-1168099D01*
X5666267Y-1168099D02*
X5666267Y-1158575D01*
X5666267Y-1158575D02*
X5675791Y-1139527D01*
X5675791Y-1139527D02*
X5694839Y-1130003D01*
X5694839Y-1130003D02*
X5723410Y-1130003D01*
X5723410Y-1130003D02*
X5742458Y-1139527D01*
X5866267Y-1263337D02*
X5847220Y-1253813D01*
X5847220Y-1253813D02*
X5837696Y-1234765D01*
X5837696Y-1234765D02*
X5837696Y-1063337D01*
X5971029Y-1263337D02*
X5951981Y-1253813D01*
X5951981Y-1253813D02*
X5942458Y-1244289D01*
X5942458Y-1244289D02*
X5932934Y-1225242D01*
X5932934Y-1225242D02*
X5932934Y-1168099D01*
X5932934Y-1168099D02*
X5942458Y-1149051D01*
X5942458Y-1149051D02*
X5951981Y-1139527D01*
X5951981Y-1139527D02*
X5971029Y-1130003D01*
X5971029Y-1130003D02*
X5999601Y-1130003D01*
X5999601Y-1130003D02*
X6018648Y-1139527D01*
X6018648Y-1139527D02*
X6028172Y-1149051D01*
X6028172Y-1149051D02*
X6037696Y-1168099D01*
X6037696Y-1168099D02*
X6037696Y-1225242D01*
X6037696Y-1225242D02*
X6028172Y-1244289D01*
X6028172Y-1244289D02*
X6018648Y-1253813D01*
X6018648Y-1253813D02*
X5999601Y-1263337D01*
X5999601Y-1263337D02*
X5971029Y-1263337D01*
X6094839Y-1130003D02*
X6171029Y-1130003D01*
X6123410Y-1063337D02*
X6123410Y-1234765D01*
X6123410Y-1234765D02*
X6132934Y-1253813D01*
X6132934Y-1253813D02*
X6151981Y-1263337D01*
X6151981Y-1263337D02*
X6171029Y-1263337D01*
X6228172Y-1253813D02*
X6247220Y-1263337D01*
X6247220Y-1263337D02*
X6285315Y-1263337D01*
X6285315Y-1263337D02*
X6304362Y-1253813D01*
X6304362Y-1253813D02*
X6313886Y-1234765D01*
X6313886Y-1234765D02*
X6313886Y-1225242D01*
X6313886Y-1225242D02*
X6304362Y-1206194D01*
X6304362Y-1206194D02*
X6285315Y-1196670D01*
X6285315Y-1196670D02*
X6256743Y-1196670D01*
X6256743Y-1196670D02*
X6237696Y-1187146D01*
X6237696Y-1187146D02*
X6228172Y-1168099D01*
X6228172Y-1168099D02*
X6228172Y-1158575D01*
X6228172Y-1158575D02*
X6237696Y-1139527D01*
X6237696Y-1139527D02*
X6256743Y-1130003D01*
X6256743Y-1130003D02*
X6285315Y-1130003D01*
X6285315Y-1130003D02*
X6304362Y-1139527D01*
X6380553Y-1339527D02*
X6390077Y-1330003D01*
X6390077Y-1330003D02*
X6409124Y-1301432D01*
X6409124Y-1301432D02*
X6418648Y-1282384D01*
X6418648Y-1282384D02*
X6428172Y-1253813D01*
X6428172Y-1253813D02*
X6437696Y-1206194D01*
X6437696Y-1206194D02*
X6437696Y-1168099D01*
X6437696Y-1168099D02*
X6428172Y-1120480D01*
X6428172Y-1120480D02*
X6418648Y-1091908D01*
X6418648Y-1091908D02*
X6409124Y-1072861D01*
X6409124Y-1072861D02*
X6390077Y-1044289D01*
X6390077Y-1044289D02*
X6380553Y-1034765D01*
D15*
X-14312Y-1468401D02*
X-14312Y-1401225D01*
X-81488Y-1401225D01*
X-81488Y-1468401D01*
X-14312Y-1468401D01*
D11*
X285314Y-1327337D02*
X304362Y-1327337D01*
X304362Y-1327337D02*
X323410Y-1336861D01*
X323410Y-1336861D02*
X332933Y-1346384D01*
X332933Y-1346384D02*
X342457Y-1365432D01*
X342457Y-1365432D02*
X351981Y-1403527D01*
X351981Y-1403527D02*
X351981Y-1451146D01*
X351981Y-1451146D02*
X342457Y-1489241D01*
X342457Y-1489241D02*
X332933Y-1508289D01*
X332933Y-1508289D02*
X323410Y-1517813D01*
X323410Y-1517813D02*
X304362Y-1527337D01*
X304362Y-1527337D02*
X285314Y-1527337D01*
X285314Y-1527337D02*
X266267Y-1517813D01*
X266267Y-1517813D02*
X256743Y-1508289D01*
X256743Y-1508289D02*
X247219Y-1489241D01*
X247219Y-1489241D02*
X237695Y-1451146D01*
X237695Y-1451146D02*
X237695Y-1403527D01*
X237695Y-1403527D02*
X247219Y-1365432D01*
X247219Y-1365432D02*
X256743Y-1346384D01*
X256743Y-1346384D02*
X266267Y-1336861D01*
X266267Y-1336861D02*
X285314Y-1327337D01*
X437695Y-1508289D02*
X447219Y-1517813D01*
X447219Y-1517813D02*
X437695Y-1527337D01*
X437695Y-1527337D02*
X428171Y-1517813D01*
X428171Y-1517813D02*
X437695Y-1508289D01*
X437695Y-1508289D02*
X437695Y-1527337D01*
X542457Y-1527337D02*
X580552Y-1527337D01*
X580552Y-1527337D02*
X599600Y-1517813D01*
X599600Y-1517813D02*
X609124Y-1508289D01*
X609124Y-1508289D02*
X628171Y-1479718D01*
X628171Y-1479718D02*
X637695Y-1441622D01*
X637695Y-1441622D02*
X637695Y-1365432D01*
X637695Y-1365432D02*
X628171Y-1346384D01*
X628171Y-1346384D02*
X618648Y-1336861D01*
X618648Y-1336861D02*
X599600Y-1327337D01*
X599600Y-1327337D02*
X561505Y-1327337D01*
X561505Y-1327337D02*
X542457Y-1336861D01*
X542457Y-1336861D02*
X532933Y-1346384D01*
X532933Y-1346384D02*
X523409Y-1365432D01*
X523409Y-1365432D02*
X523409Y-1413051D01*
X523409Y-1413051D02*
X532933Y-1432099D01*
X532933Y-1432099D02*
X542457Y-1441622D01*
X542457Y-1441622D02*
X561505Y-1451146D01*
X561505Y-1451146D02*
X599600Y-1451146D01*
X599600Y-1451146D02*
X618648Y-1441622D01*
X618648Y-1441622D02*
X628171Y-1432099D01*
X628171Y-1432099D02*
X637695Y-1413051D01*
X818648Y-1327337D02*
X723409Y-1327337D01*
X723409Y-1327337D02*
X713886Y-1422575D01*
X713886Y-1422575D02*
X723409Y-1413051D01*
X723409Y-1413051D02*
X742457Y-1403527D01*
X742457Y-1403527D02*
X790076Y-1403527D01*
X790076Y-1403527D02*
X809124Y-1413051D01*
X809124Y-1413051D02*
X818648Y-1422575D01*
X818648Y-1422575D02*
X828171Y-1441622D01*
X828171Y-1441622D02*
X828171Y-1489241D01*
X828171Y-1489241D02*
X818648Y-1508289D01*
X818648Y-1508289D02*
X809124Y-1517813D01*
X809124Y-1517813D02*
X790076Y-1527337D01*
X790076Y-1527337D02*
X742457Y-1527337D01*
X742457Y-1527337D02*
X723409Y-1517813D01*
X723409Y-1517813D02*
X713886Y-1508289D01*
X951981Y-1327337D02*
X971029Y-1327337D01*
X971029Y-1327337D02*
X990076Y-1336861D01*
X990076Y-1336861D02*
X999600Y-1346384D01*
X999600Y-1346384D02*
X1009124Y-1365432D01*
X1009124Y-1365432D02*
X1018648Y-1403527D01*
X1018648Y-1403527D02*
X1018648Y-1451146D01*
X1018648Y-1451146D02*
X1009124Y-1489241D01*
X1009124Y-1489241D02*
X999600Y-1508289D01*
X999600Y-1508289D02*
X990076Y-1517813D01*
X990076Y-1517813D02*
X971029Y-1527337D01*
X971029Y-1527337D02*
X951981Y-1527337D01*
X951981Y-1527337D02*
X932933Y-1517813D01*
X932933Y-1517813D02*
X923409Y-1508289D01*
X923409Y-1508289D02*
X913886Y-1489241D01*
X913886Y-1489241D02*
X904362Y-1451146D01*
X904362Y-1451146D02*
X904362Y-1403527D01*
X904362Y-1403527D02*
X913886Y-1365432D01*
X913886Y-1365432D02*
X923409Y-1346384D01*
X923409Y-1346384D02*
X932933Y-1336861D01*
X932933Y-1336861D02*
X951981Y-1327337D01*
X1104362Y-1527337D02*
X1104362Y-1394003D01*
X1104362Y-1413051D02*
X1113886Y-1403527D01*
X1113886Y-1403527D02*
X1132933Y-1394003D01*
X1132933Y-1394003D02*
X1161505Y-1394003D01*
X1161505Y-1394003D02*
X1180552Y-1403527D01*
X1180552Y-1403527D02*
X1190076Y-1422575D01*
X1190076Y-1422575D02*
X1190076Y-1527337D01*
X1190076Y-1422575D02*
X1199600Y-1403527D01*
X1199600Y-1403527D02*
X1218648Y-1394003D01*
X1218648Y-1394003D02*
X1247219Y-1394003D01*
X1247219Y-1394003D02*
X1266267Y-1403527D01*
X1266267Y-1403527D02*
X1275791Y-1422575D01*
X1275791Y-1422575D02*
X1275791Y-1527337D01*
X1371029Y-1527337D02*
X1371029Y-1394003D01*
X1371029Y-1413051D02*
X1380552Y-1403527D01*
X1380552Y-1403527D02*
X1399600Y-1394003D01*
X1399600Y-1394003D02*
X1428171Y-1394003D01*
X1428171Y-1394003D02*
X1447219Y-1403527D01*
X1447219Y-1403527D02*
X1456743Y-1422575D01*
X1456743Y-1422575D02*
X1456743Y-1527337D01*
X1456743Y-1422575D02*
X1466267Y-1403527D01*
X1466267Y-1403527D02*
X1485314Y-1394003D01*
X1485314Y-1394003D02*
X1513886Y-1394003D01*
X1513886Y-1394003D02*
X1532933Y-1403527D01*
X1532933Y-1403527D02*
X1542457Y-1422575D01*
X1542457Y-1422575D02*
X1542457Y-1527337D01*
X1932933Y-1317813D02*
X1761505Y-1574956D01*
X2190076Y-1327337D02*
X2209124Y-1327337D01*
X2209124Y-1327337D02*
X2228172Y-1336861D01*
X2228172Y-1336861D02*
X2237695Y-1346384D01*
X2237695Y-1346384D02*
X2247219Y-1365432D01*
X2247219Y-1365432D02*
X2256743Y-1403527D01*
X2256743Y-1403527D02*
X2256743Y-1451146D01*
X2256743Y-1451146D02*
X2247219Y-1489241D01*
X2247219Y-1489241D02*
X2237695Y-1508289D01*
X2237695Y-1508289D02*
X2228172Y-1517813D01*
X2228172Y-1517813D02*
X2209124Y-1527337D01*
X2209124Y-1527337D02*
X2190076Y-1527337D01*
X2190076Y-1527337D02*
X2171029Y-1517813D01*
X2171029Y-1517813D02*
X2161505Y-1508289D01*
X2161505Y-1508289D02*
X2151981Y-1489241D01*
X2151981Y-1489241D02*
X2142457Y-1451146D01*
X2142457Y-1451146D02*
X2142457Y-1403527D01*
X2142457Y-1403527D02*
X2151981Y-1365432D01*
X2151981Y-1365432D02*
X2161505Y-1346384D01*
X2161505Y-1346384D02*
X2171029Y-1336861D01*
X2171029Y-1336861D02*
X2190076Y-1327337D01*
X2342457Y-1508289D02*
X2351981Y-1517813D01*
X2351981Y-1517813D02*
X2342457Y-1527337D01*
X2342457Y-1527337D02*
X2332934Y-1517813D01*
X2332934Y-1517813D02*
X2342457Y-1508289D01*
X2342457Y-1508289D02*
X2342457Y-1527337D01*
X2475791Y-1327337D02*
X2494838Y-1327337D01*
X2494838Y-1327337D02*
X2513886Y-1336861D01*
X2513886Y-1336861D02*
X2523410Y-1346384D01*
X2523410Y-1346384D02*
X2532934Y-1365432D01*
X2532934Y-1365432D02*
X2542457Y-1403527D01*
X2542457Y-1403527D02*
X2542457Y-1451146D01*
X2542457Y-1451146D02*
X2532934Y-1489241D01*
X2532934Y-1489241D02*
X2523410Y-1508289D01*
X2523410Y-1508289D02*
X2513886Y-1517813D01*
X2513886Y-1517813D02*
X2494838Y-1527337D01*
X2494838Y-1527337D02*
X2475791Y-1527337D01*
X2475791Y-1527337D02*
X2456743Y-1517813D01*
X2456743Y-1517813D02*
X2447219Y-1508289D01*
X2447219Y-1508289D02*
X2437695Y-1489241D01*
X2437695Y-1489241D02*
X2428172Y-1451146D01*
X2428172Y-1451146D02*
X2428172Y-1403527D01*
X2428172Y-1403527D02*
X2437695Y-1365432D01*
X2437695Y-1365432D02*
X2447219Y-1346384D01*
X2447219Y-1346384D02*
X2456743Y-1336861D01*
X2456743Y-1336861D02*
X2475791Y-1327337D01*
X2609124Y-1327337D02*
X2732934Y-1327337D01*
X2732934Y-1327337D02*
X2666267Y-1403527D01*
X2666267Y-1403527D02*
X2694838Y-1403527D01*
X2694838Y-1403527D02*
X2713886Y-1413051D01*
X2713886Y-1413051D02*
X2723410Y-1422575D01*
X2723410Y-1422575D02*
X2732934Y-1441622D01*
X2732934Y-1441622D02*
X2732934Y-1489241D01*
X2732934Y-1489241D02*
X2723410Y-1508289D01*
X2723410Y-1508289D02*
X2713886Y-1517813D01*
X2713886Y-1517813D02*
X2694838Y-1527337D01*
X2694838Y-1527337D02*
X2637695Y-1527337D01*
X2637695Y-1527337D02*
X2618648Y-1517813D01*
X2618648Y-1517813D02*
X2609124Y-1508289D01*
X2799600Y-1327337D02*
X2932933Y-1327337D01*
X2932933Y-1327337D02*
X2847219Y-1527337D01*
X3094838Y-1394003D02*
X3094838Y-1527337D01*
X3047219Y-1317813D02*
X2999600Y-1460670D01*
X2999600Y-1460670D02*
X3123410Y-1460670D01*
X3190076Y-1327337D02*
X3190076Y-1365432D01*
X3266267Y-1327337D02*
X3266267Y-1365432D01*
X3561505Y-1603527D02*
X3551981Y-1594003D01*
X3551981Y-1594003D02*
X3532934Y-1565432D01*
X3532934Y-1565432D02*
X3523410Y-1546384D01*
X3523410Y-1546384D02*
X3513886Y-1517813D01*
X3513886Y-1517813D02*
X3504362Y-1470194D01*
X3504362Y-1470194D02*
X3504362Y-1432099D01*
X3504362Y-1432099D02*
X3513886Y-1384480D01*
X3513886Y-1384480D02*
X3523410Y-1355908D01*
X3523410Y-1355908D02*
X3532934Y-1336861D01*
X3532934Y-1336861D02*
X3551981Y-1308289D01*
X3551981Y-1308289D02*
X3561505Y-1298765D01*
X3666267Y-1413051D02*
X3647219Y-1403527D01*
X3647219Y-1403527D02*
X3637695Y-1394003D01*
X3637695Y-1394003D02*
X3628172Y-1374956D01*
X3628172Y-1374956D02*
X3628172Y-1365432D01*
X3628172Y-1365432D02*
X3637695Y-1346384D01*
X3637695Y-1346384D02*
X3647219Y-1336861D01*
X3647219Y-1336861D02*
X3666267Y-1327337D01*
X3666267Y-1327337D02*
X3704362Y-1327337D01*
X3704362Y-1327337D02*
X3723410Y-1336861D01*
X3723410Y-1336861D02*
X3732934Y-1346384D01*
X3732934Y-1346384D02*
X3742457Y-1365432D01*
X3742457Y-1365432D02*
X3742457Y-1374956D01*
X3742457Y-1374956D02*
X3732934Y-1394003D01*
X3732934Y-1394003D02*
X3723410Y-1403527D01*
X3723410Y-1403527D02*
X3704362Y-1413051D01*
X3704362Y-1413051D02*
X3666267Y-1413051D01*
X3666267Y-1413051D02*
X3647219Y-1422575D01*
X3647219Y-1422575D02*
X3637695Y-1432099D01*
X3637695Y-1432099D02*
X3628172Y-1451146D01*
X3628172Y-1451146D02*
X3628172Y-1489241D01*
X3628172Y-1489241D02*
X3637695Y-1508289D01*
X3637695Y-1508289D02*
X3647219Y-1517813D01*
X3647219Y-1517813D02*
X3666267Y-1527337D01*
X3666267Y-1527337D02*
X3704362Y-1527337D01*
X3704362Y-1527337D02*
X3723410Y-1517813D01*
X3723410Y-1517813D02*
X3732934Y-1508289D01*
X3732934Y-1508289D02*
X3742457Y-1489241D01*
X3742457Y-1489241D02*
X3742457Y-1451146D01*
X3742457Y-1451146D02*
X3732934Y-1432099D01*
X3732934Y-1432099D02*
X3723410Y-1422575D01*
X3723410Y-1422575D02*
X3704362Y-1413051D01*
X3980553Y-1527337D02*
X3980553Y-1327337D01*
X4066267Y-1527337D02*
X4066267Y-1422575D01*
X4066267Y-1422575D02*
X4056743Y-1403527D01*
X4056743Y-1403527D02*
X4037696Y-1394003D01*
X4037696Y-1394003D02*
X4009124Y-1394003D01*
X4009124Y-1394003D02*
X3990076Y-1403527D01*
X3990076Y-1403527D02*
X3980553Y-1413051D01*
X4190076Y-1527337D02*
X4171029Y-1517813D01*
X4171029Y-1517813D02*
X4161505Y-1508289D01*
X4161505Y-1508289D02*
X4151981Y-1489241D01*
X4151981Y-1489241D02*
X4151981Y-1432099D01*
X4151981Y-1432099D02*
X4161505Y-1413051D01*
X4161505Y-1413051D02*
X4171029Y-1403527D01*
X4171029Y-1403527D02*
X4190076Y-1394003D01*
X4190076Y-1394003D02*
X4218648Y-1394003D01*
X4218648Y-1394003D02*
X4237696Y-1403527D01*
X4237696Y-1403527D02*
X4247219Y-1413051D01*
X4247219Y-1413051D02*
X4256743Y-1432099D01*
X4256743Y-1432099D02*
X4256743Y-1489241D01*
X4256743Y-1489241D02*
X4247219Y-1508289D01*
X4247219Y-1508289D02*
X4237696Y-1517813D01*
X4237696Y-1517813D02*
X4218648Y-1527337D01*
X4218648Y-1527337D02*
X4190076Y-1527337D01*
X4371029Y-1527337D02*
X4351981Y-1517813D01*
X4351981Y-1517813D02*
X4342458Y-1498765D01*
X4342458Y-1498765D02*
X4342458Y-1327337D01*
X4523410Y-1517813D02*
X4504362Y-1527337D01*
X4504362Y-1527337D02*
X4466267Y-1527337D01*
X4466267Y-1527337D02*
X4447219Y-1517813D01*
X4447219Y-1517813D02*
X4437696Y-1498765D01*
X4437696Y-1498765D02*
X4437696Y-1422575D01*
X4437696Y-1422575D02*
X4447219Y-1403527D01*
X4447219Y-1403527D02*
X4466267Y-1394003D01*
X4466267Y-1394003D02*
X4504362Y-1394003D01*
X4504362Y-1394003D02*
X4523410Y-1403527D01*
X4523410Y-1403527D02*
X4532934Y-1422575D01*
X4532934Y-1422575D02*
X4532934Y-1441622D01*
X4532934Y-1441622D02*
X4437696Y-1460670D01*
X4609124Y-1517813D02*
X4628172Y-1527337D01*
X4628172Y-1527337D02*
X4666267Y-1527337D01*
X4666267Y-1527337D02*
X4685315Y-1517813D01*
X4685315Y-1517813D02*
X4694839Y-1498765D01*
X4694839Y-1498765D02*
X4694839Y-1489241D01*
X4694839Y-1489241D02*
X4685315Y-1470194D01*
X4685315Y-1470194D02*
X4666267Y-1460670D01*
X4666267Y-1460670D02*
X4637696Y-1460670D01*
X4637696Y-1460670D02*
X4618648Y-1451146D01*
X4618648Y-1451146D02*
X4609124Y-1432099D01*
X4609124Y-1432099D02*
X4609124Y-1422575D01*
X4609124Y-1422575D02*
X4618648Y-1403527D01*
X4618648Y-1403527D02*
X4637696Y-1394003D01*
X4637696Y-1394003D02*
X4666267Y-1394003D01*
X4666267Y-1394003D02*
X4685315Y-1403527D01*
X4761505Y-1603527D02*
X4771029Y-1594003D01*
X4771029Y-1594003D02*
X4790077Y-1565432D01*
X4790077Y-1565432D02*
X4799600Y-1546384D01*
X4799600Y-1546384D02*
X4809124Y-1517813D01*
X4809124Y-1517813D02*
X4818648Y-1470194D01*
X4818648Y-1470194D02*
X4818648Y-1432099D01*
X4818648Y-1432099D02*
X4809124Y-1384480D01*
X4809124Y-1384480D02*
X4799600Y-1355908D01*
X4799600Y-1355908D02*
X4790077Y-1336861D01*
X4790077Y-1336861D02*
X4771029Y-1308289D01*
X4771029Y-1308289D02*
X4761505Y-1298765D01*
D16*
X-50400Y-1748813D02*
X-400Y-1698813D01*
X-50400Y-1648813D01*
X-100400Y-1698813D01*
X-50400Y-1748813D01*
D11*
X351981Y-1791337D02*
X237695Y-1791337D01*
X294838Y-1791337D02*
X294838Y-1591337D01*
X294838Y-1591337D02*
X275790Y-1619908D01*
X275790Y-1619908D02*
X256743Y-1638956D01*
X256743Y-1638956D02*
X237695Y-1648480D01*
X437695Y-1772289D02*
X447219Y-1781813D01*
X447219Y-1781813D02*
X437695Y-1791337D01*
X437695Y-1791337D02*
X428171Y-1781813D01*
X428171Y-1781813D02*
X437695Y-1772289D01*
X437695Y-1772289D02*
X437695Y-1791337D01*
X571029Y-1591337D02*
X590076Y-1591337D01*
X590076Y-1591337D02*
X609124Y-1600861D01*
X609124Y-1600861D02*
X618648Y-1610384D01*
X618648Y-1610384D02*
X628171Y-1629432D01*
X628171Y-1629432D02*
X637695Y-1667527D01*
X637695Y-1667527D02*
X637695Y-1715146D01*
X637695Y-1715146D02*
X628171Y-1753241D01*
X628171Y-1753241D02*
X618648Y-1772289D01*
X618648Y-1772289D02*
X609124Y-1781813D01*
X609124Y-1781813D02*
X590076Y-1791337D01*
X590076Y-1791337D02*
X571029Y-1791337D01*
X571029Y-1791337D02*
X551981Y-1781813D01*
X551981Y-1781813D02*
X542457Y-1772289D01*
X542457Y-1772289D02*
X532933Y-1753241D01*
X532933Y-1753241D02*
X523409Y-1715146D01*
X523409Y-1715146D02*
X523409Y-1667527D01*
X523409Y-1667527D02*
X532933Y-1629432D01*
X532933Y-1629432D02*
X542457Y-1610384D01*
X542457Y-1610384D02*
X551981Y-1600861D01*
X551981Y-1600861D02*
X571029Y-1591337D01*
X761505Y-1591337D02*
X780552Y-1591337D01*
X780552Y-1591337D02*
X799600Y-1600861D01*
X799600Y-1600861D02*
X809124Y-1610384D01*
X809124Y-1610384D02*
X818648Y-1629432D01*
X818648Y-1629432D02*
X828171Y-1667527D01*
X828171Y-1667527D02*
X828171Y-1715146D01*
X828171Y-1715146D02*
X818648Y-1753241D01*
X818648Y-1753241D02*
X809124Y-1772289D01*
X809124Y-1772289D02*
X799600Y-1781813D01*
X799600Y-1781813D02*
X780552Y-1791337D01*
X780552Y-1791337D02*
X761505Y-1791337D01*
X761505Y-1791337D02*
X742457Y-1781813D01*
X742457Y-1781813D02*
X732933Y-1772289D01*
X732933Y-1772289D02*
X723409Y-1753241D01*
X723409Y-1753241D02*
X713886Y-1715146D01*
X713886Y-1715146D02*
X713886Y-1667527D01*
X713886Y-1667527D02*
X723409Y-1629432D01*
X723409Y-1629432D02*
X732933Y-1610384D01*
X732933Y-1610384D02*
X742457Y-1600861D01*
X742457Y-1600861D02*
X761505Y-1591337D01*
X951981Y-1591337D02*
X971029Y-1591337D01*
X971029Y-1591337D02*
X990076Y-1600861D01*
X990076Y-1600861D02*
X999600Y-1610384D01*
X999600Y-1610384D02*
X1009124Y-1629432D01*
X1009124Y-1629432D02*
X1018648Y-1667527D01*
X1018648Y-1667527D02*
X1018648Y-1715146D01*
X1018648Y-1715146D02*
X1009124Y-1753241D01*
X1009124Y-1753241D02*
X999600Y-1772289D01*
X999600Y-1772289D02*
X990076Y-1781813D01*
X990076Y-1781813D02*
X971029Y-1791337D01*
X971029Y-1791337D02*
X951981Y-1791337D01*
X951981Y-1791337D02*
X932933Y-1781813D01*
X932933Y-1781813D02*
X923409Y-1772289D01*
X923409Y-1772289D02*
X913886Y-1753241D01*
X913886Y-1753241D02*
X904362Y-1715146D01*
X904362Y-1715146D02*
X904362Y-1667527D01*
X904362Y-1667527D02*
X913886Y-1629432D01*
X913886Y-1629432D02*
X923409Y-1610384D01*
X923409Y-1610384D02*
X932933Y-1600861D01*
X932933Y-1600861D02*
X951981Y-1591337D01*
X1104362Y-1791337D02*
X1104362Y-1658003D01*
X1104362Y-1677051D02*
X1113886Y-1667527D01*
X1113886Y-1667527D02*
X1132933Y-1658003D01*
X1132933Y-1658003D02*
X1161505Y-1658003D01*
X1161505Y-1658003D02*
X1180552Y-1667527D01*
X1180552Y-1667527D02*
X1190076Y-1686575D01*
X1190076Y-1686575D02*
X1190076Y-1791337D01*
X1190076Y-1686575D02*
X1199600Y-1667527D01*
X1199600Y-1667527D02*
X1218648Y-1658003D01*
X1218648Y-1658003D02*
X1247219Y-1658003D01*
X1247219Y-1658003D02*
X1266267Y-1667527D01*
X1266267Y-1667527D02*
X1275791Y-1686575D01*
X1275791Y-1686575D02*
X1275791Y-1791337D01*
X1371029Y-1791337D02*
X1371029Y-1658003D01*
X1371029Y-1677051D02*
X1380552Y-1667527D01*
X1380552Y-1667527D02*
X1399600Y-1658003D01*
X1399600Y-1658003D02*
X1428171Y-1658003D01*
X1428171Y-1658003D02*
X1447219Y-1667527D01*
X1447219Y-1667527D02*
X1456743Y-1686575D01*
X1456743Y-1686575D02*
X1456743Y-1791337D01*
X1456743Y-1686575D02*
X1466267Y-1667527D01*
X1466267Y-1667527D02*
X1485314Y-1658003D01*
X1485314Y-1658003D02*
X1513886Y-1658003D01*
X1513886Y-1658003D02*
X1532933Y-1667527D01*
X1532933Y-1667527D02*
X1542457Y-1686575D01*
X1542457Y-1686575D02*
X1542457Y-1791337D01*
X1932933Y-1581813D02*
X1761505Y-1838956D01*
X2190076Y-1591337D02*
X2209124Y-1591337D01*
X2209124Y-1591337D02*
X2228172Y-1600861D01*
X2228172Y-1600861D02*
X2237695Y-1610384D01*
X2237695Y-1610384D02*
X2247219Y-1629432D01*
X2247219Y-1629432D02*
X2256743Y-1667527D01*
X2256743Y-1667527D02*
X2256743Y-1715146D01*
X2256743Y-1715146D02*
X2247219Y-1753241D01*
X2247219Y-1753241D02*
X2237695Y-1772289D01*
X2237695Y-1772289D02*
X2228172Y-1781813D01*
X2228172Y-1781813D02*
X2209124Y-1791337D01*
X2209124Y-1791337D02*
X2190076Y-1791337D01*
X2190076Y-1791337D02*
X2171029Y-1781813D01*
X2171029Y-1781813D02*
X2161505Y-1772289D01*
X2161505Y-1772289D02*
X2151981Y-1753241D01*
X2151981Y-1753241D02*
X2142457Y-1715146D01*
X2142457Y-1715146D02*
X2142457Y-1667527D01*
X2142457Y-1667527D02*
X2151981Y-1629432D01*
X2151981Y-1629432D02*
X2161505Y-1610384D01*
X2161505Y-1610384D02*
X2171029Y-1600861D01*
X2171029Y-1600861D02*
X2190076Y-1591337D01*
X2342457Y-1772289D02*
X2351981Y-1781813D01*
X2351981Y-1781813D02*
X2342457Y-1791337D01*
X2342457Y-1791337D02*
X2332934Y-1781813D01*
X2332934Y-1781813D02*
X2342457Y-1772289D01*
X2342457Y-1772289D02*
X2342457Y-1791337D01*
X2475791Y-1591337D02*
X2494838Y-1591337D01*
X2494838Y-1591337D02*
X2513886Y-1600861D01*
X2513886Y-1600861D02*
X2523410Y-1610384D01*
X2523410Y-1610384D02*
X2532934Y-1629432D01*
X2532934Y-1629432D02*
X2542457Y-1667527D01*
X2542457Y-1667527D02*
X2542457Y-1715146D01*
X2542457Y-1715146D02*
X2532934Y-1753241D01*
X2532934Y-1753241D02*
X2523410Y-1772289D01*
X2523410Y-1772289D02*
X2513886Y-1781813D01*
X2513886Y-1781813D02*
X2494838Y-1791337D01*
X2494838Y-1791337D02*
X2475791Y-1791337D01*
X2475791Y-1791337D02*
X2456743Y-1781813D01*
X2456743Y-1781813D02*
X2447219Y-1772289D01*
X2447219Y-1772289D02*
X2437695Y-1753241D01*
X2437695Y-1753241D02*
X2428172Y-1715146D01*
X2428172Y-1715146D02*
X2428172Y-1667527D01*
X2428172Y-1667527D02*
X2437695Y-1629432D01*
X2437695Y-1629432D02*
X2447219Y-1610384D01*
X2447219Y-1610384D02*
X2456743Y-1600861D01*
X2456743Y-1600861D02*
X2475791Y-1591337D01*
X2609124Y-1591337D02*
X2732934Y-1591337D01*
X2732934Y-1591337D02*
X2666267Y-1667527D01*
X2666267Y-1667527D02*
X2694838Y-1667527D01*
X2694838Y-1667527D02*
X2713886Y-1677051D01*
X2713886Y-1677051D02*
X2723410Y-1686575D01*
X2723410Y-1686575D02*
X2732934Y-1705622D01*
X2732934Y-1705622D02*
X2732934Y-1753241D01*
X2732934Y-1753241D02*
X2723410Y-1772289D01*
X2723410Y-1772289D02*
X2713886Y-1781813D01*
X2713886Y-1781813D02*
X2694838Y-1791337D01*
X2694838Y-1791337D02*
X2637695Y-1791337D01*
X2637695Y-1791337D02*
X2618648Y-1781813D01*
X2618648Y-1781813D02*
X2609124Y-1772289D01*
X2828172Y-1791337D02*
X2866267Y-1791337D01*
X2866267Y-1791337D02*
X2885314Y-1781813D01*
X2885314Y-1781813D02*
X2894838Y-1772289D01*
X2894838Y-1772289D02*
X2913886Y-1743718D01*
X2913886Y-1743718D02*
X2923410Y-1705622D01*
X2923410Y-1705622D02*
X2923410Y-1629432D01*
X2923410Y-1629432D02*
X2913886Y-1610384D01*
X2913886Y-1610384D02*
X2904362Y-1600861D01*
X2904362Y-1600861D02*
X2885314Y-1591337D01*
X2885314Y-1591337D02*
X2847219Y-1591337D01*
X2847219Y-1591337D02*
X2828172Y-1600861D01*
X2828172Y-1600861D02*
X2818648Y-1610384D01*
X2818648Y-1610384D02*
X2809124Y-1629432D01*
X2809124Y-1629432D02*
X2809124Y-1677051D01*
X2809124Y-1677051D02*
X2818648Y-1696099D01*
X2818648Y-1696099D02*
X2828172Y-1705622D01*
X2828172Y-1705622D02*
X2847219Y-1715146D01*
X2847219Y-1715146D02*
X2885314Y-1715146D01*
X2885314Y-1715146D02*
X2904362Y-1705622D01*
X2904362Y-1705622D02*
X2913886Y-1696099D01*
X2913886Y-1696099D02*
X2923410Y-1677051D01*
X3094838Y-1658003D02*
X3094838Y-1791337D01*
X3047219Y-1581813D02*
X2999600Y-1724670D01*
X2999600Y-1724670D02*
X3123410Y-1724670D01*
X3190076Y-1591337D02*
X3190076Y-1629432D01*
X3266267Y-1591337D02*
X3266267Y-1629432D01*
X3561505Y-1867527D02*
X3551981Y-1858003D01*
X3551981Y-1858003D02*
X3532934Y-1829432D01*
X3532934Y-1829432D02*
X3523410Y-1810384D01*
X3523410Y-1810384D02*
X3513886Y-1781813D01*
X3513886Y-1781813D02*
X3504362Y-1734194D01*
X3504362Y-1734194D02*
X3504362Y-1696099D01*
X3504362Y-1696099D02*
X3513886Y-1648480D01*
X3513886Y-1648480D02*
X3523410Y-1619908D01*
X3523410Y-1619908D02*
X3532934Y-1600861D01*
X3532934Y-1600861D02*
X3551981Y-1572289D01*
X3551981Y-1572289D02*
X3561505Y-1562765D01*
X3742457Y-1791337D02*
X3628172Y-1791337D01*
X3685314Y-1791337D02*
X3685314Y-1591337D01*
X3685314Y-1591337D02*
X3666267Y-1619908D01*
X3666267Y-1619908D02*
X3647219Y-1638956D01*
X3647219Y-1638956D02*
X3628172Y-1648480D01*
X3818648Y-1610384D02*
X3828172Y-1600861D01*
X3828172Y-1600861D02*
X3847219Y-1591337D01*
X3847219Y-1591337D02*
X3894838Y-1591337D01*
X3894838Y-1591337D02*
X3913886Y-1600861D01*
X3913886Y-1600861D02*
X3923410Y-1610384D01*
X3923410Y-1610384D02*
X3932934Y-1629432D01*
X3932934Y-1629432D02*
X3932934Y-1648480D01*
X3932934Y-1648480D02*
X3923410Y-1677051D01*
X3923410Y-1677051D02*
X3809124Y-1791337D01*
X3809124Y-1791337D02*
X3932934Y-1791337D01*
X4171029Y-1791337D02*
X4171029Y-1591337D01*
X4256743Y-1791337D02*
X4256743Y-1686575D01*
X4256743Y-1686575D02*
X4247219Y-1667527D01*
X4247219Y-1667527D02*
X4228172Y-1658003D01*
X4228172Y-1658003D02*
X4199600Y-1658003D01*
X4199600Y-1658003D02*
X4180553Y-1667527D01*
X4180553Y-1667527D02*
X4171029Y-1677051D01*
X4380553Y-1791337D02*
X4361505Y-1781813D01*
X4361505Y-1781813D02*
X4351981Y-1772289D01*
X4351981Y-1772289D02*
X4342458Y-1753241D01*
X4342458Y-1753241D02*
X4342458Y-1696099D01*
X4342458Y-1696099D02*
X4351981Y-1677051D01*
X4351981Y-1677051D02*
X4361505Y-1667527D01*
X4361505Y-1667527D02*
X4380553Y-1658003D01*
X4380553Y-1658003D02*
X4409124Y-1658003D01*
X4409124Y-1658003D02*
X4428172Y-1667527D01*
X4428172Y-1667527D02*
X4437696Y-1677051D01*
X4437696Y-1677051D02*
X4447219Y-1696099D01*
X4447219Y-1696099D02*
X4447219Y-1753241D01*
X4447219Y-1753241D02*
X4437696Y-1772289D01*
X4437696Y-1772289D02*
X4428172Y-1781813D01*
X4428172Y-1781813D02*
X4409124Y-1791337D01*
X4409124Y-1791337D02*
X4380553Y-1791337D01*
X4561505Y-1791337D02*
X4542458Y-1781813D01*
X4542458Y-1781813D02*
X4532934Y-1762765D01*
X4532934Y-1762765D02*
X4532934Y-1591337D01*
X4713886Y-1781813D02*
X4694839Y-1791337D01*
X4694839Y-1791337D02*
X4656743Y-1791337D01*
X4656743Y-1791337D02*
X4637696Y-1781813D01*
X4637696Y-1781813D02*
X4628172Y-1762765D01*
X4628172Y-1762765D02*
X4628172Y-1686575D01*
X4628172Y-1686575D02*
X4637696Y-1667527D01*
X4637696Y-1667527D02*
X4656743Y-1658003D01*
X4656743Y-1658003D02*
X4694839Y-1658003D01*
X4694839Y-1658003D02*
X4713886Y-1667527D01*
X4713886Y-1667527D02*
X4723410Y-1686575D01*
X4723410Y-1686575D02*
X4723410Y-1705622D01*
X4723410Y-1705622D02*
X4628172Y-1724670D01*
X4799600Y-1781813D02*
X4818648Y-1791337D01*
X4818648Y-1791337D02*
X4856743Y-1791337D01*
X4856743Y-1791337D02*
X4875791Y-1781813D01*
X4875791Y-1781813D02*
X4885315Y-1762765D01*
X4885315Y-1762765D02*
X4885315Y-1753241D01*
X4885315Y-1753241D02*
X4875791Y-1734194D01*
X4875791Y-1734194D02*
X4856743Y-1724670D01*
X4856743Y-1724670D02*
X4828172Y-1724670D01*
X4828172Y-1724670D02*
X4809124Y-1715146D01*
X4809124Y-1715146D02*
X4799600Y-1696099D01*
X4799600Y-1696099D02*
X4799600Y-1686575D01*
X4799600Y-1686575D02*
X4809124Y-1667527D01*
X4809124Y-1667527D02*
X4828172Y-1658003D01*
X4828172Y-1658003D02*
X4856743Y-1658003D01*
X4856743Y-1658003D02*
X4875791Y-1667527D01*
X4951981Y-1867527D02*
X4961505Y-1858003D01*
X4961505Y-1858003D02*
X4980553Y-1829432D01*
X4980553Y-1829432D02*
X4990077Y-1810384D01*
X4990077Y-1810384D02*
X4999600Y-1781813D01*
X4999600Y-1781813D02*
X5009124Y-1734194D01*
X5009124Y-1734194D02*
X5009124Y-1696099D01*
X5009124Y-1696099D02*
X4999600Y-1648480D01*
X4999600Y-1648480D02*
X4990077Y-1619908D01*
X4990077Y-1619908D02*
X4980553Y-1600861D01*
X4980553Y-1600861D02*
X4961505Y-1572289D01*
X4961505Y-1572289D02*
X4951981Y-1562765D01*
D17*
X-102400Y-1911813D02*
X-400Y-2013813D01*
X-400Y-1911813D02*
X-102400Y-2013813D01*
X-400Y-1962813D02*
G75*
G03*
X-400Y-1962813I-51000J0D01*
G01*
D11*
X351981Y-2055337D02*
X237695Y-2055337D01*
X294838Y-2055337D02*
X294838Y-1855337D01*
X294838Y-1855337D02*
X275790Y-1883908D01*
X275790Y-1883908D02*
X256743Y-1902956D01*
X256743Y-1902956D02*
X237695Y-1912480D01*
X437695Y-2036289D02*
X447219Y-2045813D01*
X447219Y-2045813D02*
X437695Y-2055337D01*
X437695Y-2055337D02*
X428171Y-2045813D01*
X428171Y-2045813D02*
X437695Y-2036289D01*
X437695Y-2036289D02*
X437695Y-2055337D01*
X571029Y-1855337D02*
X590076Y-1855337D01*
X590076Y-1855337D02*
X609124Y-1864861D01*
X609124Y-1864861D02*
X618648Y-1874384D01*
X618648Y-1874384D02*
X628171Y-1893432D01*
X628171Y-1893432D02*
X637695Y-1931527D01*
X637695Y-1931527D02*
X637695Y-1979146D01*
X637695Y-1979146D02*
X628171Y-2017241D01*
X628171Y-2017241D02*
X618648Y-2036289D01*
X618648Y-2036289D02*
X609124Y-2045813D01*
X609124Y-2045813D02*
X590076Y-2055337D01*
X590076Y-2055337D02*
X571029Y-2055337D01*
X571029Y-2055337D02*
X551981Y-2045813D01*
X551981Y-2045813D02*
X542457Y-2036289D01*
X542457Y-2036289D02*
X532933Y-2017241D01*
X532933Y-2017241D02*
X523409Y-1979146D01*
X523409Y-1979146D02*
X523409Y-1931527D01*
X523409Y-1931527D02*
X532933Y-1893432D01*
X532933Y-1893432D02*
X542457Y-1874384D01*
X542457Y-1874384D02*
X551981Y-1864861D01*
X551981Y-1864861D02*
X571029Y-1855337D01*
X713886Y-1874384D02*
X723409Y-1864861D01*
X723409Y-1864861D02*
X742457Y-1855337D01*
X742457Y-1855337D02*
X790076Y-1855337D01*
X790076Y-1855337D02*
X809124Y-1864861D01*
X809124Y-1864861D02*
X818648Y-1874384D01*
X818648Y-1874384D02*
X828171Y-1893432D01*
X828171Y-1893432D02*
X828171Y-1912480D01*
X828171Y-1912480D02*
X818648Y-1941051D01*
X818648Y-1941051D02*
X704362Y-2055337D01*
X704362Y-2055337D02*
X828171Y-2055337D01*
X951981Y-1855337D02*
X971029Y-1855337D01*
X971029Y-1855337D02*
X990076Y-1864861D01*
X990076Y-1864861D02*
X999600Y-1874384D01*
X999600Y-1874384D02*
X1009124Y-1893432D01*
X1009124Y-1893432D02*
X1018648Y-1931527D01*
X1018648Y-1931527D02*
X1018648Y-1979146D01*
X1018648Y-1979146D02*
X1009124Y-2017241D01*
X1009124Y-2017241D02*
X999600Y-2036289D01*
X999600Y-2036289D02*
X990076Y-2045813D01*
X990076Y-2045813D02*
X971029Y-2055337D01*
X971029Y-2055337D02*
X951981Y-2055337D01*
X951981Y-2055337D02*
X932933Y-2045813D01*
X932933Y-2045813D02*
X923409Y-2036289D01*
X923409Y-2036289D02*
X913886Y-2017241D01*
X913886Y-2017241D02*
X904362Y-1979146D01*
X904362Y-1979146D02*
X904362Y-1931527D01*
X904362Y-1931527D02*
X913886Y-1893432D01*
X913886Y-1893432D02*
X923409Y-1874384D01*
X923409Y-1874384D02*
X932933Y-1864861D01*
X932933Y-1864861D02*
X951981Y-1855337D01*
X1104362Y-2055337D02*
X1104362Y-1922003D01*
X1104362Y-1941051D02*
X1113886Y-1931527D01*
X1113886Y-1931527D02*
X1132933Y-1922003D01*
X1132933Y-1922003D02*
X1161505Y-1922003D01*
X1161505Y-1922003D02*
X1180552Y-1931527D01*
X1180552Y-1931527D02*
X1190076Y-1950575D01*
X1190076Y-1950575D02*
X1190076Y-2055337D01*
X1190076Y-1950575D02*
X1199600Y-1931527D01*
X1199600Y-1931527D02*
X1218648Y-1922003D01*
X1218648Y-1922003D02*
X1247219Y-1922003D01*
X1247219Y-1922003D02*
X1266267Y-1931527D01*
X1266267Y-1931527D02*
X1275791Y-1950575D01*
X1275791Y-1950575D02*
X1275791Y-2055337D01*
X1371029Y-2055337D02*
X1371029Y-1922003D01*
X1371029Y-1941051D02*
X1380552Y-1931527D01*
X1380552Y-1931527D02*
X1399600Y-1922003D01*
X1399600Y-1922003D02*
X1428171Y-1922003D01*
X1428171Y-1922003D02*
X1447219Y-1931527D01*
X1447219Y-1931527D02*
X1456743Y-1950575D01*
X1456743Y-1950575D02*
X1456743Y-2055337D01*
X1456743Y-1950575D02*
X1466267Y-1931527D01*
X1466267Y-1931527D02*
X1485314Y-1922003D01*
X1485314Y-1922003D02*
X1513886Y-1922003D01*
X1513886Y-1922003D02*
X1532933Y-1931527D01*
X1532933Y-1931527D02*
X1542457Y-1950575D01*
X1542457Y-1950575D02*
X1542457Y-2055337D01*
X1932933Y-1845813D02*
X1761505Y-2102956D01*
X2190076Y-1855337D02*
X2209124Y-1855337D01*
X2209124Y-1855337D02*
X2228172Y-1864861D01*
X2228172Y-1864861D02*
X2237695Y-1874384D01*
X2237695Y-1874384D02*
X2247219Y-1893432D01*
X2247219Y-1893432D02*
X2256743Y-1931527D01*
X2256743Y-1931527D02*
X2256743Y-1979146D01*
X2256743Y-1979146D02*
X2247219Y-2017241D01*
X2247219Y-2017241D02*
X2237695Y-2036289D01*
X2237695Y-2036289D02*
X2228172Y-2045813D01*
X2228172Y-2045813D02*
X2209124Y-2055337D01*
X2209124Y-2055337D02*
X2190076Y-2055337D01*
X2190076Y-2055337D02*
X2171029Y-2045813D01*
X2171029Y-2045813D02*
X2161505Y-2036289D01*
X2161505Y-2036289D02*
X2151981Y-2017241D01*
X2151981Y-2017241D02*
X2142457Y-1979146D01*
X2142457Y-1979146D02*
X2142457Y-1931527D01*
X2142457Y-1931527D02*
X2151981Y-1893432D01*
X2151981Y-1893432D02*
X2161505Y-1874384D01*
X2161505Y-1874384D02*
X2171029Y-1864861D01*
X2171029Y-1864861D02*
X2190076Y-1855337D01*
X2342457Y-2036289D02*
X2351981Y-2045813D01*
X2351981Y-2045813D02*
X2342457Y-2055337D01*
X2342457Y-2055337D02*
X2332934Y-2045813D01*
X2332934Y-2045813D02*
X2342457Y-2036289D01*
X2342457Y-2036289D02*
X2342457Y-2055337D01*
X2475791Y-1855337D02*
X2494838Y-1855337D01*
X2494838Y-1855337D02*
X2513886Y-1864861D01*
X2513886Y-1864861D02*
X2523410Y-1874384D01*
X2523410Y-1874384D02*
X2532934Y-1893432D01*
X2532934Y-1893432D02*
X2542457Y-1931527D01*
X2542457Y-1931527D02*
X2542457Y-1979146D01*
X2542457Y-1979146D02*
X2532934Y-2017241D01*
X2532934Y-2017241D02*
X2523410Y-2036289D01*
X2523410Y-2036289D02*
X2513886Y-2045813D01*
X2513886Y-2045813D02*
X2494838Y-2055337D01*
X2494838Y-2055337D02*
X2475791Y-2055337D01*
X2475791Y-2055337D02*
X2456743Y-2045813D01*
X2456743Y-2045813D02*
X2447219Y-2036289D01*
X2447219Y-2036289D02*
X2437695Y-2017241D01*
X2437695Y-2017241D02*
X2428172Y-1979146D01*
X2428172Y-1979146D02*
X2428172Y-1931527D01*
X2428172Y-1931527D02*
X2437695Y-1893432D01*
X2437695Y-1893432D02*
X2447219Y-1874384D01*
X2447219Y-1874384D02*
X2456743Y-1864861D01*
X2456743Y-1864861D02*
X2475791Y-1855337D01*
X2713886Y-1922003D02*
X2713886Y-2055337D01*
X2666267Y-1845813D02*
X2618648Y-1988670D01*
X2618648Y-1988670D02*
X2742457Y-1988670D01*
X2856743Y-1855337D02*
X2875791Y-1855337D01*
X2875791Y-1855337D02*
X2894838Y-1864861D01*
X2894838Y-1864861D02*
X2904362Y-1874384D01*
X2904362Y-1874384D02*
X2913886Y-1893432D01*
X2913886Y-1893432D02*
X2923410Y-1931527D01*
X2923410Y-1931527D02*
X2923410Y-1979146D01*
X2923410Y-1979146D02*
X2913886Y-2017241D01*
X2913886Y-2017241D02*
X2904362Y-2036289D01*
X2904362Y-2036289D02*
X2894838Y-2045813D01*
X2894838Y-2045813D02*
X2875791Y-2055337D01*
X2875791Y-2055337D02*
X2856743Y-2055337D01*
X2856743Y-2055337D02*
X2837695Y-2045813D01*
X2837695Y-2045813D02*
X2828172Y-2036289D01*
X2828172Y-2036289D02*
X2818648Y-2017241D01*
X2818648Y-2017241D02*
X2809124Y-1979146D01*
X2809124Y-1979146D02*
X2809124Y-1931527D01*
X2809124Y-1931527D02*
X2818648Y-1893432D01*
X2818648Y-1893432D02*
X2828172Y-1874384D01*
X2828172Y-1874384D02*
X2837695Y-1864861D01*
X2837695Y-1864861D02*
X2856743Y-1855337D01*
X2999600Y-1874384D02*
X3009124Y-1864861D01*
X3009124Y-1864861D02*
X3028172Y-1855337D01*
X3028172Y-1855337D02*
X3075791Y-1855337D01*
X3075791Y-1855337D02*
X3094838Y-1864861D01*
X3094838Y-1864861D02*
X3104362Y-1874384D01*
X3104362Y-1874384D02*
X3113886Y-1893432D01*
X3113886Y-1893432D02*
X3113886Y-1912480D01*
X3113886Y-1912480D02*
X3104362Y-1941051D01*
X3104362Y-1941051D02*
X2990076Y-2055337D01*
X2990076Y-2055337D02*
X3113886Y-2055337D01*
X3190076Y-1855337D02*
X3190076Y-1893432D01*
X3266267Y-1855337D02*
X3266267Y-1893432D01*
X3561505Y-2131527D02*
X3551981Y-2122003D01*
X3551981Y-2122003D02*
X3532934Y-2093432D01*
X3532934Y-2093432D02*
X3523410Y-2074384D01*
X3523410Y-2074384D02*
X3513886Y-2045813D01*
X3513886Y-2045813D02*
X3504362Y-1998194D01*
X3504362Y-1998194D02*
X3504362Y-1960099D01*
X3504362Y-1960099D02*
X3513886Y-1912480D01*
X3513886Y-1912480D02*
X3523410Y-1883908D01*
X3523410Y-1883908D02*
X3532934Y-1864861D01*
X3532934Y-1864861D02*
X3551981Y-1836289D01*
X3551981Y-1836289D02*
X3561505Y-1826765D01*
X3723410Y-1922003D02*
X3723410Y-2055337D01*
X3675791Y-1845813D02*
X3628172Y-1988670D01*
X3628172Y-1988670D02*
X3751981Y-1988670D01*
X3913886Y-1922003D02*
X3913886Y-2055337D01*
X3866267Y-1845813D02*
X3818648Y-1988670D01*
X3818648Y-1988670D02*
X3942457Y-1988670D01*
X4171029Y-2055337D02*
X4171029Y-1855337D01*
X4256743Y-2055337D02*
X4256743Y-1950575D01*
X4256743Y-1950575D02*
X4247219Y-1931527D01*
X4247219Y-1931527D02*
X4228172Y-1922003D01*
X4228172Y-1922003D02*
X4199600Y-1922003D01*
X4199600Y-1922003D02*
X4180553Y-1931527D01*
X4180553Y-1931527D02*
X4171029Y-1941051D01*
X4380553Y-2055337D02*
X4361505Y-2045813D01*
X4361505Y-2045813D02*
X4351981Y-2036289D01*
X4351981Y-2036289D02*
X4342458Y-2017241D01*
X4342458Y-2017241D02*
X4342458Y-1960099D01*
X4342458Y-1960099D02*
X4351981Y-1941051D01*
X4351981Y-1941051D02*
X4361505Y-1931527D01*
X4361505Y-1931527D02*
X4380553Y-1922003D01*
X4380553Y-1922003D02*
X4409124Y-1922003D01*
X4409124Y-1922003D02*
X4428172Y-1931527D01*
X4428172Y-1931527D02*
X4437696Y-1941051D01*
X4437696Y-1941051D02*
X4447219Y-1960099D01*
X4447219Y-1960099D02*
X4447219Y-2017241D01*
X4447219Y-2017241D02*
X4437696Y-2036289D01*
X4437696Y-2036289D02*
X4428172Y-2045813D01*
X4428172Y-2045813D02*
X4409124Y-2055337D01*
X4409124Y-2055337D02*
X4380553Y-2055337D01*
X4561505Y-2055337D02*
X4542458Y-2045813D01*
X4542458Y-2045813D02*
X4532934Y-2026765D01*
X4532934Y-2026765D02*
X4532934Y-1855337D01*
X4713886Y-2045813D02*
X4694839Y-2055337D01*
X4694839Y-2055337D02*
X4656743Y-2055337D01*
X4656743Y-2055337D02*
X4637696Y-2045813D01*
X4637696Y-2045813D02*
X4628172Y-2026765D01*
X4628172Y-2026765D02*
X4628172Y-1950575D01*
X4628172Y-1950575D02*
X4637696Y-1931527D01*
X4637696Y-1931527D02*
X4656743Y-1922003D01*
X4656743Y-1922003D02*
X4694839Y-1922003D01*
X4694839Y-1922003D02*
X4713886Y-1931527D01*
X4713886Y-1931527D02*
X4723410Y-1950575D01*
X4723410Y-1950575D02*
X4723410Y-1969622D01*
X4723410Y-1969622D02*
X4628172Y-1988670D01*
X4799600Y-2045813D02*
X4818648Y-2055337D01*
X4818648Y-2055337D02*
X4856743Y-2055337D01*
X4856743Y-2055337D02*
X4875791Y-2045813D01*
X4875791Y-2045813D02*
X4885315Y-2026765D01*
X4885315Y-2026765D02*
X4885315Y-2017241D01*
X4885315Y-2017241D02*
X4875791Y-1998194D01*
X4875791Y-1998194D02*
X4856743Y-1988670D01*
X4856743Y-1988670D02*
X4828172Y-1988670D01*
X4828172Y-1988670D02*
X4809124Y-1979146D01*
X4809124Y-1979146D02*
X4799600Y-1960099D01*
X4799600Y-1960099D02*
X4799600Y-1950575D01*
X4799600Y-1950575D02*
X4809124Y-1931527D01*
X4809124Y-1931527D02*
X4828172Y-1922003D01*
X4828172Y-1922003D02*
X4856743Y-1922003D01*
X4856743Y-1922003D02*
X4875791Y-1931527D01*
X4951981Y-2131527D02*
X4961505Y-2122003D01*
X4961505Y-2122003D02*
X4980553Y-2093432D01*
X4980553Y-2093432D02*
X4990077Y-2074384D01*
X4990077Y-2074384D02*
X4999600Y-2045813D01*
X4999600Y-2045813D02*
X5009124Y-1998194D01*
X5009124Y-1998194D02*
X5009124Y-1960099D01*
X5009124Y-1960099D02*
X4999600Y-1912480D01*
X4999600Y-1912480D02*
X4990077Y-1883908D01*
X4990077Y-1883908D02*
X4980553Y-1864861D01*
X4980553Y-1864861D02*
X4961505Y-1836289D01*
X4961505Y-1836289D02*
X4951981Y-1826765D01*
D18*
X-110400Y-2171813D02*
X-400Y-2281813D01*
X-400Y-2171813D02*
X-110400Y-2281813D01*
X-55400Y-2171813D02*
X-55400Y-2281813D01*
X-110400Y-2226813D02*
X-400Y-2226813D01*
D11*
X351981Y-2319337D02*
X237695Y-2319337D01*
X294838Y-2319337D02*
X294838Y-2119337D01*
X294838Y-2119337D02*
X275790Y-2147908D01*
X275790Y-2147908D02*
X256743Y-2166956D01*
X256743Y-2166956D02*
X237695Y-2176480D01*
X437695Y-2300289D02*
X447219Y-2309813D01*
X447219Y-2309813D02*
X437695Y-2319337D01*
X437695Y-2319337D02*
X428171Y-2309813D01*
X428171Y-2309813D02*
X437695Y-2300289D01*
X437695Y-2300289D02*
X437695Y-2319337D01*
X637695Y-2319337D02*
X523409Y-2319337D01*
X580552Y-2319337D02*
X580552Y-2119337D01*
X580552Y-2119337D02*
X561505Y-2147908D01*
X561505Y-2147908D02*
X542457Y-2166956D01*
X542457Y-2166956D02*
X523409Y-2176480D01*
X761505Y-2119337D02*
X780552Y-2119337D01*
X780552Y-2119337D02*
X799600Y-2128861D01*
X799600Y-2128861D02*
X809124Y-2138384D01*
X809124Y-2138384D02*
X818648Y-2157432D01*
X818648Y-2157432D02*
X828171Y-2195527D01*
X828171Y-2195527D02*
X828171Y-2243146D01*
X828171Y-2243146D02*
X818648Y-2281242D01*
X818648Y-2281242D02*
X809124Y-2300289D01*
X809124Y-2300289D02*
X799600Y-2309813D01*
X799600Y-2309813D02*
X780552Y-2319337D01*
X780552Y-2319337D02*
X761505Y-2319337D01*
X761505Y-2319337D02*
X742457Y-2309813D01*
X742457Y-2309813D02*
X732933Y-2300289D01*
X732933Y-2300289D02*
X723409Y-2281242D01*
X723409Y-2281242D02*
X713886Y-2243146D01*
X713886Y-2243146D02*
X713886Y-2195527D01*
X713886Y-2195527D02*
X723409Y-2157432D01*
X723409Y-2157432D02*
X732933Y-2138384D01*
X732933Y-2138384D02*
X742457Y-2128861D01*
X742457Y-2128861D02*
X761505Y-2119337D01*
X951981Y-2119337D02*
X971029Y-2119337D01*
X971029Y-2119337D02*
X990076Y-2128861D01*
X990076Y-2128861D02*
X999600Y-2138384D01*
X999600Y-2138384D02*
X1009124Y-2157432D01*
X1009124Y-2157432D02*
X1018648Y-2195527D01*
X1018648Y-2195527D02*
X1018648Y-2243146D01*
X1018648Y-2243146D02*
X1009124Y-2281242D01*
X1009124Y-2281242D02*
X999600Y-2300289D01*
X999600Y-2300289D02*
X990076Y-2309813D01*
X990076Y-2309813D02*
X971029Y-2319337D01*
X971029Y-2319337D02*
X951981Y-2319337D01*
X951981Y-2319337D02*
X932933Y-2309813D01*
X932933Y-2309813D02*
X923409Y-2300289D01*
X923409Y-2300289D02*
X913886Y-2281242D01*
X913886Y-2281242D02*
X904362Y-2243146D01*
X904362Y-2243146D02*
X904362Y-2195527D01*
X904362Y-2195527D02*
X913886Y-2157432D01*
X913886Y-2157432D02*
X923409Y-2138384D01*
X923409Y-2138384D02*
X932933Y-2128861D01*
X932933Y-2128861D02*
X951981Y-2119337D01*
X1104362Y-2319337D02*
X1104362Y-2186003D01*
X1104362Y-2205051D02*
X1113886Y-2195527D01*
X1113886Y-2195527D02*
X1132933Y-2186003D01*
X1132933Y-2186003D02*
X1161505Y-2186003D01*
X1161505Y-2186003D02*
X1180552Y-2195527D01*
X1180552Y-2195527D02*
X1190076Y-2214575D01*
X1190076Y-2214575D02*
X1190076Y-2319337D01*
X1190076Y-2214575D02*
X1199600Y-2195527D01*
X1199600Y-2195527D02*
X1218648Y-2186003D01*
X1218648Y-2186003D02*
X1247219Y-2186003D01*
X1247219Y-2186003D02*
X1266267Y-2195527D01*
X1266267Y-2195527D02*
X1275791Y-2214575D01*
X1275791Y-2214575D02*
X1275791Y-2319337D01*
X1371029Y-2319337D02*
X1371029Y-2186003D01*
X1371029Y-2205051D02*
X1380552Y-2195527D01*
X1380552Y-2195527D02*
X1399600Y-2186003D01*
X1399600Y-2186003D02*
X1428171Y-2186003D01*
X1428171Y-2186003D02*
X1447219Y-2195527D01*
X1447219Y-2195527D02*
X1456743Y-2214575D01*
X1456743Y-2214575D02*
X1456743Y-2319337D01*
X1456743Y-2214575D02*
X1466267Y-2195527D01*
X1466267Y-2195527D02*
X1485314Y-2186003D01*
X1485314Y-2186003D02*
X1513886Y-2186003D01*
X1513886Y-2186003D02*
X1532933Y-2195527D01*
X1532933Y-2195527D02*
X1542457Y-2214575D01*
X1542457Y-2214575D02*
X1542457Y-2319337D01*
X1932933Y-2109813D02*
X1761505Y-2366956D01*
X2190076Y-2119337D02*
X2209124Y-2119337D01*
X2209124Y-2119337D02*
X2228172Y-2128861D01*
X2228172Y-2128861D02*
X2237695Y-2138384D01*
X2237695Y-2138384D02*
X2247219Y-2157432D01*
X2247219Y-2157432D02*
X2256743Y-2195527D01*
X2256743Y-2195527D02*
X2256743Y-2243146D01*
X2256743Y-2243146D02*
X2247219Y-2281242D01*
X2247219Y-2281242D02*
X2237695Y-2300289D01*
X2237695Y-2300289D02*
X2228172Y-2309813D01*
X2228172Y-2309813D02*
X2209124Y-2319337D01*
X2209124Y-2319337D02*
X2190076Y-2319337D01*
X2190076Y-2319337D02*
X2171029Y-2309813D01*
X2171029Y-2309813D02*
X2161505Y-2300289D01*
X2161505Y-2300289D02*
X2151981Y-2281242D01*
X2151981Y-2281242D02*
X2142457Y-2243146D01*
X2142457Y-2243146D02*
X2142457Y-2195527D01*
X2142457Y-2195527D02*
X2151981Y-2157432D01*
X2151981Y-2157432D02*
X2161505Y-2138384D01*
X2161505Y-2138384D02*
X2171029Y-2128861D01*
X2171029Y-2128861D02*
X2190076Y-2119337D01*
X2342457Y-2300289D02*
X2351981Y-2309813D01*
X2351981Y-2309813D02*
X2342457Y-2319337D01*
X2342457Y-2319337D02*
X2332934Y-2309813D01*
X2332934Y-2309813D02*
X2342457Y-2300289D01*
X2342457Y-2300289D02*
X2342457Y-2319337D01*
X2475791Y-2119337D02*
X2494838Y-2119337D01*
X2494838Y-2119337D02*
X2513886Y-2128861D01*
X2513886Y-2128861D02*
X2523410Y-2138384D01*
X2523410Y-2138384D02*
X2532934Y-2157432D01*
X2532934Y-2157432D02*
X2542457Y-2195527D01*
X2542457Y-2195527D02*
X2542457Y-2243146D01*
X2542457Y-2243146D02*
X2532934Y-2281242D01*
X2532934Y-2281242D02*
X2523410Y-2300289D01*
X2523410Y-2300289D02*
X2513886Y-2309813D01*
X2513886Y-2309813D02*
X2494838Y-2319337D01*
X2494838Y-2319337D02*
X2475791Y-2319337D01*
X2475791Y-2319337D02*
X2456743Y-2309813D01*
X2456743Y-2309813D02*
X2447219Y-2300289D01*
X2447219Y-2300289D02*
X2437695Y-2281242D01*
X2437695Y-2281242D02*
X2428172Y-2243146D01*
X2428172Y-2243146D02*
X2428172Y-2195527D01*
X2428172Y-2195527D02*
X2437695Y-2157432D01*
X2437695Y-2157432D02*
X2447219Y-2138384D01*
X2447219Y-2138384D02*
X2456743Y-2128861D01*
X2456743Y-2128861D02*
X2475791Y-2119337D01*
X2713886Y-2186003D02*
X2713886Y-2319337D01*
X2666267Y-2109813D02*
X2618648Y-2252670D01*
X2618648Y-2252670D02*
X2742457Y-2252670D01*
X2799600Y-2119337D02*
X2923410Y-2119337D01*
X2923410Y-2119337D02*
X2856743Y-2195527D01*
X2856743Y-2195527D02*
X2885314Y-2195527D01*
X2885314Y-2195527D02*
X2904362Y-2205051D01*
X2904362Y-2205051D02*
X2913886Y-2214575D01*
X2913886Y-2214575D02*
X2923410Y-2233623D01*
X2923410Y-2233623D02*
X2923410Y-2281242D01*
X2923410Y-2281242D02*
X2913886Y-2300289D01*
X2913886Y-2300289D02*
X2904362Y-2309813D01*
X2904362Y-2309813D02*
X2885314Y-2319337D01*
X2885314Y-2319337D02*
X2828172Y-2319337D01*
X2828172Y-2319337D02*
X2809124Y-2309813D01*
X2809124Y-2309813D02*
X2799600Y-2300289D01*
X2990076Y-2119337D02*
X3113886Y-2119337D01*
X3113886Y-2119337D02*
X3047219Y-2195527D01*
X3047219Y-2195527D02*
X3075791Y-2195527D01*
X3075791Y-2195527D02*
X3094838Y-2205051D01*
X3094838Y-2205051D02*
X3104362Y-2214575D01*
X3104362Y-2214575D02*
X3113886Y-2233623D01*
X3113886Y-2233623D02*
X3113886Y-2281242D01*
X3113886Y-2281242D02*
X3104362Y-2300289D01*
X3104362Y-2300289D02*
X3094838Y-2309813D01*
X3094838Y-2309813D02*
X3075791Y-2319337D01*
X3075791Y-2319337D02*
X3018648Y-2319337D01*
X3018648Y-2319337D02*
X2999600Y-2309813D01*
X2999600Y-2309813D02*
X2990076Y-2300289D01*
X3190076Y-2119337D02*
X3190076Y-2157432D01*
X3266267Y-2119337D02*
X3266267Y-2157432D01*
X3561505Y-2395527D02*
X3551981Y-2386003D01*
X3551981Y-2386003D02*
X3532934Y-2357432D01*
X3532934Y-2357432D02*
X3523410Y-2338384D01*
X3523410Y-2338384D02*
X3513886Y-2309813D01*
X3513886Y-2309813D02*
X3504362Y-2262194D01*
X3504362Y-2262194D02*
X3504362Y-2224099D01*
X3504362Y-2224099D02*
X3513886Y-2176480D01*
X3513886Y-2176480D02*
X3523410Y-2147908D01*
X3523410Y-2147908D02*
X3532934Y-2128861D01*
X3532934Y-2128861D02*
X3551981Y-2100289D01*
X3551981Y-2100289D02*
X3561505Y-2090765D01*
X3618648Y-2119337D02*
X3742457Y-2119337D01*
X3742457Y-2119337D02*
X3675791Y-2195527D01*
X3675791Y-2195527D02*
X3704362Y-2195527D01*
X3704362Y-2195527D02*
X3723410Y-2205051D01*
X3723410Y-2205051D02*
X3732934Y-2214575D01*
X3732934Y-2214575D02*
X3742457Y-2233623D01*
X3742457Y-2233623D02*
X3742457Y-2281242D01*
X3742457Y-2281242D02*
X3732934Y-2300289D01*
X3732934Y-2300289D02*
X3723410Y-2309813D01*
X3723410Y-2309813D02*
X3704362Y-2319337D01*
X3704362Y-2319337D02*
X3647219Y-2319337D01*
X3647219Y-2319337D02*
X3628172Y-2309813D01*
X3628172Y-2309813D02*
X3618648Y-2300289D01*
X3818648Y-2138384D02*
X3828172Y-2128861D01*
X3828172Y-2128861D02*
X3847219Y-2119337D01*
X3847219Y-2119337D02*
X3894838Y-2119337D01*
X3894838Y-2119337D02*
X3913886Y-2128861D01*
X3913886Y-2128861D02*
X3923410Y-2138384D01*
X3923410Y-2138384D02*
X3932934Y-2157432D01*
X3932934Y-2157432D02*
X3932934Y-2176480D01*
X3932934Y-2176480D02*
X3923410Y-2205051D01*
X3923410Y-2205051D02*
X3809124Y-2319337D01*
X3809124Y-2319337D02*
X3932934Y-2319337D01*
X4171029Y-2319337D02*
X4171029Y-2119337D01*
X4256743Y-2319337D02*
X4256743Y-2214575D01*
X4256743Y-2214575D02*
X4247219Y-2195527D01*
X4247219Y-2195527D02*
X4228172Y-2186003D01*
X4228172Y-2186003D02*
X4199600Y-2186003D01*
X4199600Y-2186003D02*
X4180553Y-2195527D01*
X4180553Y-2195527D02*
X4171029Y-2205051D01*
X4380553Y-2319337D02*
X4361505Y-2309813D01*
X4361505Y-2309813D02*
X4351981Y-2300289D01*
X4351981Y-2300289D02*
X4342458Y-2281242D01*
X4342458Y-2281242D02*
X4342458Y-2224099D01*
X4342458Y-2224099D02*
X4351981Y-2205051D01*
X4351981Y-2205051D02*
X4361505Y-2195527D01*
X4361505Y-2195527D02*
X4380553Y-2186003D01*
X4380553Y-2186003D02*
X4409124Y-2186003D01*
X4409124Y-2186003D02*
X4428172Y-2195527D01*
X4428172Y-2195527D02*
X4437696Y-2205051D01*
X4437696Y-2205051D02*
X4447219Y-2224099D01*
X4447219Y-2224099D02*
X4447219Y-2281242D01*
X4447219Y-2281242D02*
X4437696Y-2300289D01*
X4437696Y-2300289D02*
X4428172Y-2309813D01*
X4428172Y-2309813D02*
X4409124Y-2319337D01*
X4409124Y-2319337D02*
X4380553Y-2319337D01*
X4561505Y-2319337D02*
X4542458Y-2309813D01*
X4542458Y-2309813D02*
X4532934Y-2290765D01*
X4532934Y-2290765D02*
X4532934Y-2119337D01*
X4713886Y-2309813D02*
X4694839Y-2319337D01*
X4694839Y-2319337D02*
X4656743Y-2319337D01*
X4656743Y-2319337D02*
X4637696Y-2309813D01*
X4637696Y-2309813D02*
X4628172Y-2290765D01*
X4628172Y-2290765D02*
X4628172Y-2214575D01*
X4628172Y-2214575D02*
X4637696Y-2195527D01*
X4637696Y-2195527D02*
X4656743Y-2186003D01*
X4656743Y-2186003D02*
X4694839Y-2186003D01*
X4694839Y-2186003D02*
X4713886Y-2195527D01*
X4713886Y-2195527D02*
X4723410Y-2214575D01*
X4723410Y-2214575D02*
X4723410Y-2233623D01*
X4723410Y-2233623D02*
X4628172Y-2252670D01*
X4799600Y-2309813D02*
X4818648Y-2319337D01*
X4818648Y-2319337D02*
X4856743Y-2319337D01*
X4856743Y-2319337D02*
X4875791Y-2309813D01*
X4875791Y-2309813D02*
X4885315Y-2290765D01*
X4885315Y-2290765D02*
X4885315Y-2281242D01*
X4885315Y-2281242D02*
X4875791Y-2262194D01*
X4875791Y-2262194D02*
X4856743Y-2252670D01*
X4856743Y-2252670D02*
X4828172Y-2252670D01*
X4828172Y-2252670D02*
X4809124Y-2243146D01*
X4809124Y-2243146D02*
X4799600Y-2224099D01*
X4799600Y-2224099D02*
X4799600Y-2214575D01*
X4799600Y-2214575D02*
X4809124Y-2195527D01*
X4809124Y-2195527D02*
X4828172Y-2186003D01*
X4828172Y-2186003D02*
X4856743Y-2186003D01*
X4856743Y-2186003D02*
X4875791Y-2195527D01*
X4951981Y-2395527D02*
X4961505Y-2386003D01*
X4961505Y-2386003D02*
X4980553Y-2357432D01*
X4980553Y-2357432D02*
X4990077Y-2338384D01*
X4990077Y-2338384D02*
X4999600Y-2309813D01*
X4999600Y-2309813D02*
X5009124Y-2262194D01*
X5009124Y-2262194D02*
X5009124Y-2224099D01*
X5009124Y-2224099D02*
X4999600Y-2176480D01*
X4999600Y-2176480D02*
X4990077Y-2147908D01*
X4990077Y-2147908D02*
X4980553Y-2128861D01*
X4980553Y-2128861D02*
X4961505Y-2100289D01*
X4961505Y-2100289D02*
X4951981Y-2090765D01*
D19*
X-120400Y-2430813D02*
X-400Y-2550813D01*
X-400Y-2430813D02*
X-120400Y-2550813D01*
X-17973Y-2533240D02*
X-17973Y-2448386D01*
X-102827Y-2448386D01*
X-102827Y-2533240D01*
X-17973Y-2533240D01*
D11*
X351981Y-2583337D02*
X237695Y-2583337D01*
X294838Y-2583337D02*
X294838Y-2383337D01*
X294838Y-2383337D02*
X275790Y-2411908D01*
X275790Y-2411908D02*
X256743Y-2430956D01*
X256743Y-2430956D02*
X237695Y-2440480D01*
X437695Y-2564289D02*
X447219Y-2573813D01*
X447219Y-2573813D02*
X437695Y-2583337D01*
X437695Y-2583337D02*
X428171Y-2573813D01*
X428171Y-2573813D02*
X437695Y-2564289D01*
X437695Y-2564289D02*
X437695Y-2583337D01*
X523409Y-2402384D02*
X532933Y-2392861D01*
X532933Y-2392861D02*
X551981Y-2383337D01*
X551981Y-2383337D02*
X599600Y-2383337D01*
X599600Y-2383337D02*
X618648Y-2392861D01*
X618648Y-2392861D02*
X628171Y-2402384D01*
X628171Y-2402384D02*
X637695Y-2421432D01*
X637695Y-2421432D02*
X637695Y-2440480D01*
X637695Y-2440480D02*
X628171Y-2469051D01*
X628171Y-2469051D02*
X513886Y-2583337D01*
X513886Y-2583337D02*
X637695Y-2583337D01*
X761505Y-2383337D02*
X780552Y-2383337D01*
X780552Y-2383337D02*
X799600Y-2392861D01*
X799600Y-2392861D02*
X809124Y-2402384D01*
X809124Y-2402384D02*
X818648Y-2421432D01*
X818648Y-2421432D02*
X828171Y-2459527D01*
X828171Y-2459527D02*
X828171Y-2507146D01*
X828171Y-2507146D02*
X818648Y-2545242D01*
X818648Y-2545242D02*
X809124Y-2564289D01*
X809124Y-2564289D02*
X799600Y-2573813D01*
X799600Y-2573813D02*
X780552Y-2583337D01*
X780552Y-2583337D02*
X761505Y-2583337D01*
X761505Y-2583337D02*
X742457Y-2573813D01*
X742457Y-2573813D02*
X732933Y-2564289D01*
X732933Y-2564289D02*
X723409Y-2545242D01*
X723409Y-2545242D02*
X713886Y-2507146D01*
X713886Y-2507146D02*
X713886Y-2459527D01*
X713886Y-2459527D02*
X723409Y-2421432D01*
X723409Y-2421432D02*
X732933Y-2402384D01*
X732933Y-2402384D02*
X742457Y-2392861D01*
X742457Y-2392861D02*
X761505Y-2383337D01*
X951981Y-2383337D02*
X971029Y-2383337D01*
X971029Y-2383337D02*
X990076Y-2392861D01*
X990076Y-2392861D02*
X999600Y-2402384D01*
X999600Y-2402384D02*
X1009124Y-2421432D01*
X1009124Y-2421432D02*
X1018648Y-2459527D01*
X1018648Y-2459527D02*
X1018648Y-2507146D01*
X1018648Y-2507146D02*
X1009124Y-2545242D01*
X1009124Y-2545242D02*
X999600Y-2564289D01*
X999600Y-2564289D02*
X990076Y-2573813D01*
X990076Y-2573813D02*
X971029Y-2583337D01*
X971029Y-2583337D02*
X951981Y-2583337D01*
X951981Y-2583337D02*
X932933Y-2573813D01*
X932933Y-2573813D02*
X923409Y-2564289D01*
X923409Y-2564289D02*
X913886Y-2545242D01*
X913886Y-2545242D02*
X904362Y-2507146D01*
X904362Y-2507146D02*
X904362Y-2459527D01*
X904362Y-2459527D02*
X913886Y-2421432D01*
X913886Y-2421432D02*
X923409Y-2402384D01*
X923409Y-2402384D02*
X932933Y-2392861D01*
X932933Y-2392861D02*
X951981Y-2383337D01*
X1104362Y-2583337D02*
X1104362Y-2450003D01*
X1104362Y-2469051D02*
X1113886Y-2459527D01*
X1113886Y-2459527D02*
X1132933Y-2450003D01*
X1132933Y-2450003D02*
X1161505Y-2450003D01*
X1161505Y-2450003D02*
X1180552Y-2459527D01*
X1180552Y-2459527D02*
X1190076Y-2478575D01*
X1190076Y-2478575D02*
X1190076Y-2583337D01*
X1190076Y-2478575D02*
X1199600Y-2459527D01*
X1199600Y-2459527D02*
X1218648Y-2450003D01*
X1218648Y-2450003D02*
X1247219Y-2450003D01*
X1247219Y-2450003D02*
X1266267Y-2459527D01*
X1266267Y-2459527D02*
X1275791Y-2478575D01*
X1275791Y-2478575D02*
X1275791Y-2583337D01*
X1371029Y-2583337D02*
X1371029Y-2450003D01*
X1371029Y-2469051D02*
X1380552Y-2459527D01*
X1380552Y-2459527D02*
X1399600Y-2450003D01*
X1399600Y-2450003D02*
X1428171Y-2450003D01*
X1428171Y-2450003D02*
X1447219Y-2459527D01*
X1447219Y-2459527D02*
X1456743Y-2478575D01*
X1456743Y-2478575D02*
X1456743Y-2583337D01*
X1456743Y-2478575D02*
X1466267Y-2459527D01*
X1466267Y-2459527D02*
X1485314Y-2450003D01*
X1485314Y-2450003D02*
X1513886Y-2450003D01*
X1513886Y-2450003D02*
X1532933Y-2459527D01*
X1532933Y-2459527D02*
X1542457Y-2478575D01*
X1542457Y-2478575D02*
X1542457Y-2583337D01*
X1932933Y-2373813D02*
X1761505Y-2630956D01*
X2190076Y-2383337D02*
X2209124Y-2383337D01*
X2209124Y-2383337D02*
X2228172Y-2392861D01*
X2228172Y-2392861D02*
X2237695Y-2402384D01*
X2237695Y-2402384D02*
X2247219Y-2421432D01*
X2247219Y-2421432D02*
X2256743Y-2459527D01*
X2256743Y-2459527D02*
X2256743Y-2507146D01*
X2256743Y-2507146D02*
X2247219Y-2545242D01*
X2247219Y-2545242D02*
X2237695Y-2564289D01*
X2237695Y-2564289D02*
X2228172Y-2573813D01*
X2228172Y-2573813D02*
X2209124Y-2583337D01*
X2209124Y-2583337D02*
X2190076Y-2583337D01*
X2190076Y-2583337D02*
X2171029Y-2573813D01*
X2171029Y-2573813D02*
X2161505Y-2564289D01*
X2161505Y-2564289D02*
X2151981Y-2545242D01*
X2151981Y-2545242D02*
X2142457Y-2507146D01*
X2142457Y-2507146D02*
X2142457Y-2459527D01*
X2142457Y-2459527D02*
X2151981Y-2421432D01*
X2151981Y-2421432D02*
X2161505Y-2402384D01*
X2161505Y-2402384D02*
X2171029Y-2392861D01*
X2171029Y-2392861D02*
X2190076Y-2383337D01*
X2342457Y-2564289D02*
X2351981Y-2573813D01*
X2351981Y-2573813D02*
X2342457Y-2583337D01*
X2342457Y-2583337D02*
X2332934Y-2573813D01*
X2332934Y-2573813D02*
X2342457Y-2564289D01*
X2342457Y-2564289D02*
X2342457Y-2583337D01*
X2475791Y-2383337D02*
X2494838Y-2383337D01*
X2494838Y-2383337D02*
X2513886Y-2392861D01*
X2513886Y-2392861D02*
X2523410Y-2402384D01*
X2523410Y-2402384D02*
X2532934Y-2421432D01*
X2532934Y-2421432D02*
X2542457Y-2459527D01*
X2542457Y-2459527D02*
X2542457Y-2507146D01*
X2542457Y-2507146D02*
X2532934Y-2545242D01*
X2532934Y-2545242D02*
X2523410Y-2564289D01*
X2523410Y-2564289D02*
X2513886Y-2573813D01*
X2513886Y-2573813D02*
X2494838Y-2583337D01*
X2494838Y-2583337D02*
X2475791Y-2583337D01*
X2475791Y-2583337D02*
X2456743Y-2573813D01*
X2456743Y-2573813D02*
X2447219Y-2564289D01*
X2447219Y-2564289D02*
X2437695Y-2545242D01*
X2437695Y-2545242D02*
X2428172Y-2507146D01*
X2428172Y-2507146D02*
X2428172Y-2459527D01*
X2428172Y-2459527D02*
X2437695Y-2421432D01*
X2437695Y-2421432D02*
X2447219Y-2402384D01*
X2447219Y-2402384D02*
X2456743Y-2392861D01*
X2456743Y-2392861D02*
X2475791Y-2383337D01*
X2713886Y-2450003D02*
X2713886Y-2583337D01*
X2666267Y-2373813D02*
X2618648Y-2516670D01*
X2618648Y-2516670D02*
X2742457Y-2516670D01*
X2799600Y-2383337D02*
X2932933Y-2383337D01*
X2932933Y-2383337D02*
X2847219Y-2583337D01*
X2999600Y-2402384D02*
X3009124Y-2392861D01*
X3009124Y-2392861D02*
X3028172Y-2383337D01*
X3028172Y-2383337D02*
X3075791Y-2383337D01*
X3075791Y-2383337D02*
X3094838Y-2392861D01*
X3094838Y-2392861D02*
X3104362Y-2402384D01*
X3104362Y-2402384D02*
X3113886Y-2421432D01*
X3113886Y-2421432D02*
X3113886Y-2440480D01*
X3113886Y-2440480D02*
X3104362Y-2469051D01*
X3104362Y-2469051D02*
X2990076Y-2583337D01*
X2990076Y-2583337D02*
X3113886Y-2583337D01*
X3190076Y-2383337D02*
X3190076Y-2421432D01*
X3266267Y-2383337D02*
X3266267Y-2421432D01*
X3561505Y-2659527D02*
X3551981Y-2650003D01*
X3551981Y-2650003D02*
X3532934Y-2621432D01*
X3532934Y-2621432D02*
X3523410Y-2602384D01*
X3523410Y-2602384D02*
X3513886Y-2573813D01*
X3513886Y-2573813D02*
X3504362Y-2526194D01*
X3504362Y-2526194D02*
X3504362Y-2488099D01*
X3504362Y-2488099D02*
X3513886Y-2440480D01*
X3513886Y-2440480D02*
X3523410Y-2411908D01*
X3523410Y-2411908D02*
X3532934Y-2392861D01*
X3532934Y-2392861D02*
X3551981Y-2364289D01*
X3551981Y-2364289D02*
X3561505Y-2354765D01*
X3618648Y-2383337D02*
X3742457Y-2383337D01*
X3742457Y-2383337D02*
X3675791Y-2459527D01*
X3675791Y-2459527D02*
X3704362Y-2459527D01*
X3704362Y-2459527D02*
X3723410Y-2469051D01*
X3723410Y-2469051D02*
X3732934Y-2478575D01*
X3732934Y-2478575D02*
X3742457Y-2497623D01*
X3742457Y-2497623D02*
X3742457Y-2545242D01*
X3742457Y-2545242D02*
X3732934Y-2564289D01*
X3732934Y-2564289D02*
X3723410Y-2573813D01*
X3723410Y-2573813D02*
X3704362Y-2583337D01*
X3704362Y-2583337D02*
X3647219Y-2583337D01*
X3647219Y-2583337D02*
X3628172Y-2573813D01*
X3628172Y-2573813D02*
X3618648Y-2564289D01*
X3980553Y-2583337D02*
X3980553Y-2383337D01*
X4066267Y-2583337D02*
X4066267Y-2478575D01*
X4066267Y-2478575D02*
X4056743Y-2459527D01*
X4056743Y-2459527D02*
X4037696Y-2450003D01*
X4037696Y-2450003D02*
X4009124Y-2450003D01*
X4009124Y-2450003D02*
X3990076Y-2459527D01*
X3990076Y-2459527D02*
X3980553Y-2469051D01*
X4190076Y-2583337D02*
X4171029Y-2573813D01*
X4171029Y-2573813D02*
X4161505Y-2564289D01*
X4161505Y-2564289D02*
X4151981Y-2545242D01*
X4151981Y-2545242D02*
X4151981Y-2488099D01*
X4151981Y-2488099D02*
X4161505Y-2469051D01*
X4161505Y-2469051D02*
X4171029Y-2459527D01*
X4171029Y-2459527D02*
X4190076Y-2450003D01*
X4190076Y-2450003D02*
X4218648Y-2450003D01*
X4218648Y-2450003D02*
X4237696Y-2459527D01*
X4237696Y-2459527D02*
X4247219Y-2469051D01*
X4247219Y-2469051D02*
X4256743Y-2488099D01*
X4256743Y-2488099D02*
X4256743Y-2545242D01*
X4256743Y-2545242D02*
X4247219Y-2564289D01*
X4247219Y-2564289D02*
X4237696Y-2573813D01*
X4237696Y-2573813D02*
X4218648Y-2583337D01*
X4218648Y-2583337D02*
X4190076Y-2583337D01*
X4371029Y-2583337D02*
X4351981Y-2573813D01*
X4351981Y-2573813D02*
X4342458Y-2554765D01*
X4342458Y-2554765D02*
X4342458Y-2383337D01*
X4523410Y-2573813D02*
X4504362Y-2583337D01*
X4504362Y-2583337D02*
X4466267Y-2583337D01*
X4466267Y-2583337D02*
X4447219Y-2573813D01*
X4447219Y-2573813D02*
X4437696Y-2554765D01*
X4437696Y-2554765D02*
X4437696Y-2478575D01*
X4437696Y-2478575D02*
X4447219Y-2459527D01*
X4447219Y-2459527D02*
X4466267Y-2450003D01*
X4466267Y-2450003D02*
X4504362Y-2450003D01*
X4504362Y-2450003D02*
X4523410Y-2459527D01*
X4523410Y-2459527D02*
X4532934Y-2478575D01*
X4532934Y-2478575D02*
X4532934Y-2497623D01*
X4532934Y-2497623D02*
X4437696Y-2516670D01*
X4609124Y-2573813D02*
X4628172Y-2583337D01*
X4628172Y-2583337D02*
X4666267Y-2583337D01*
X4666267Y-2583337D02*
X4685315Y-2573813D01*
X4685315Y-2573813D02*
X4694839Y-2554765D01*
X4694839Y-2554765D02*
X4694839Y-2545242D01*
X4694839Y-2545242D02*
X4685315Y-2526194D01*
X4685315Y-2526194D02*
X4666267Y-2516670D01*
X4666267Y-2516670D02*
X4637696Y-2516670D01*
X4637696Y-2516670D02*
X4618648Y-2507146D01*
X4618648Y-2507146D02*
X4609124Y-2488099D01*
X4609124Y-2488099D02*
X4609124Y-2478575D01*
X4609124Y-2478575D02*
X4618648Y-2459527D01*
X4618648Y-2459527D02*
X4637696Y-2450003D01*
X4637696Y-2450003D02*
X4666267Y-2450003D01*
X4666267Y-2450003D02*
X4685315Y-2459527D01*
X4761505Y-2659527D02*
X4771029Y-2650003D01*
X4771029Y-2650003D02*
X4790077Y-2621432D01*
X4790077Y-2621432D02*
X4799600Y-2602384D01*
X4799600Y-2602384D02*
X4809124Y-2573813D01*
X4809124Y-2573813D02*
X4818648Y-2526194D01*
X4818648Y-2526194D02*
X4818648Y-2488099D01*
X4818648Y-2488099D02*
X4809124Y-2440480D01*
X4809124Y-2440480D02*
X4799600Y-2411908D01*
X4799600Y-2411908D02*
X4790077Y-2392861D01*
X4790077Y-2392861D02*
X4771029Y-2364289D01*
X4771029Y-2364289D02*
X4761505Y-2354765D01*
M02*
