%TF.GenerationSoftware,KiCad,Pcbnew,7.0.1*%
%TF.CreationDate,2024-04-15T22:24:04+03:00*%
%TF.ProjectId,ESP32 STEPPER CONTROL PCB,45535033-3220-4535-9445-505045522043,rev?*%
%TF.SameCoordinates,PX68e7780PY7bfa480*%
%TF.FileFunction,Soldermask,Top*%
%TF.FilePolarity,Negative*%
%FSLAX46Y46*%
G04 Gerber Fmt 4.6, Leading zero omitted, Abs format (unit mm)*
G04 Created by KiCad (PCBNEW 7.0.1) date 2024-04-15 22:24:04*
%MOMM*%
%LPD*%
G01*
G04 APERTURE LIST*
G04 Aperture macros list*
%AMRoundRect*
0 Rectangle with rounded corners*
0 $1 Rounding radius*
0 $2 $3 $4 $5 $6 $7 $8 $9 X,Y pos of 4 corners*
0 Add a 4 corners polygon primitive as box body*
4,1,4,$2,$3,$4,$5,$6,$7,$8,$9,$2,$3,0*
0 Add four circle primitives for the rounded corners*
1,1,$1+$1,$2,$3*
1,1,$1+$1,$4,$5*
1,1,$1+$1,$6,$7*
1,1,$1+$1,$8,$9*
0 Add four rect primitives between the rounded corners*
20,1,$1+$1,$2,$3,$4,$5,0*
20,1,$1+$1,$4,$5,$6,$7,0*
20,1,$1+$1,$6,$7,$8,$9,0*
20,1,$1+$1,$8,$9,$2,$3,0*%
G04 Aperture macros list end*
%ADD10O,1.950000X1.700000*%
%ADD11RoundRect,0.250000X-0.725000X0.600000X-0.725000X-0.600000X0.725000X-0.600000X0.725000X0.600000X0*%
%ADD12C,1.200000*%
%ADD13RoundRect,0.218750X-0.218750X-0.256250X0.218750X-0.256250X0.218750X0.256250X-0.218750X0.256250X0*%
%ADD14RoundRect,0.200000X0.200000X0.275000X-0.200000X0.275000X-0.200000X-0.275000X0.200000X-0.275000X0*%
%ADD15C,5.600000*%
%ADD16RoundRect,0.250000X-1.500000X-1.000000X1.500000X-1.000000X1.500000X1.000000X-1.500000X1.000000X0*%
%ADD17RoundRect,0.225000X-0.225000X-0.250000X0.225000X-0.250000X0.225000X0.250000X-0.225000X0.250000X0*%
%ADD18RoundRect,0.250000X0.250000X0.475000X-0.250000X0.475000X-0.250000X-0.475000X0.250000X-0.475000X0*%
%ADD19RoundRect,0.250000X0.325000X0.650000X-0.325000X0.650000X-0.325000X-0.650000X0.325000X-0.650000X0*%
%ADD20RoundRect,0.250000X-1.025000X0.787500X-1.025000X-0.787500X1.025000X-0.787500X1.025000X0.787500X0*%
%ADD21O,4.000000X1.800000*%
%ADD22O,1.800000X4.000000*%
%ADD23R,1.800000X4.400000*%
%ADD24R,1.700000X1.700000*%
%ADD25O,1.700000X1.700000*%
%ADD26RoundRect,0.250000X-1.000000X-0.650000X1.000000X-0.650000X1.000000X0.650000X-1.000000X0.650000X0*%
%ADD27RoundRect,0.250000X0.650000X-1.000000X0.650000X1.000000X-0.650000X1.000000X-0.650000X-1.000000X0*%
%ADD28RoundRect,0.102000X-0.825000X0.825000X-0.825000X-0.825000X0.825000X-0.825000X0.825000X0.825000X0*%
%ADD29C,1.854000*%
%ADD30C,1.734000*%
%ADD31RoundRect,0.102000X-0.765000X0.765000X-0.765000X-0.765000X0.765000X-0.765000X0.765000X0.765000X0*%
%ADD32R,2.900000X5.400000*%
%ADD33R,3.100000X2.600000*%
%ADD34R,0.600000X1.550000*%
%ADD35RoundRect,0.250000X0.850000X0.350000X-0.850000X0.350000X-0.850000X-0.350000X0.850000X-0.350000X0*%
%ADD36RoundRect,0.249997X2.950003X2.650003X-2.950003X2.650003X-2.950003X-2.650003X2.950003X-2.650003X0*%
%ADD37RoundRect,0.200000X-0.200000X-0.275000X0.200000X-0.275000X0.200000X0.275000X-0.200000X0.275000X0*%
%ADD38RoundRect,0.200000X0.275000X-0.200000X0.275000X0.200000X-0.275000X0.200000X-0.275000X-0.200000X0*%
%ADD39RoundRect,0.200000X-0.275000X0.200000X-0.275000X-0.200000X0.275000X-0.200000X0.275000X0.200000X0*%
%ADD40C,2.400000*%
%ADD41R,2.400000X2.400000*%
G04 APERTURE END LIST*
D10*
%TO.C,J3*%
X68825000Y54250000D03*
X68825000Y56750000D03*
X68825000Y59250000D03*
D11*
X68825000Y61750000D03*
D12*
X66825000Y63350000D03*
%TD*%
%TO.C,J5*%
X66825000Y79350000D03*
D11*
X68825000Y77750000D03*
D10*
X68825000Y75250000D03*
X68825000Y72750000D03*
X68825000Y70250000D03*
%TD*%
D13*
%TO.C,D3*%
X5287500Y86500000D03*
X3712500Y86500000D03*
%TD*%
D14*
%TO.C,R7*%
X8175000Y86500000D03*
X9825000Y86500000D03*
%TD*%
D15*
%TO.C,H3*%
X67000000Y6000000D03*
%TD*%
%TO.C,H2*%
X67000000Y86000000D03*
%TD*%
%TO.C,H1*%
X7000000Y49000000D03*
%TD*%
D16*
%TO.C,C9*%
X61250000Y64500000D03*
X54750000Y64500000D03*
%TD*%
%TO.C,C8*%
X61250000Y47500000D03*
X54750000Y47500000D03*
%TD*%
D17*
%TO.C,C1*%
X16775000Y66000000D03*
X15225000Y66000000D03*
%TD*%
D18*
%TO.C,C3*%
X9800000Y57500000D03*
X11700000Y57500000D03*
%TD*%
%TO.C,C2*%
X9800000Y55500000D03*
X11700000Y55500000D03*
%TD*%
D19*
%TO.C,C7*%
X2525000Y79000000D03*
X5475000Y79000000D03*
%TD*%
%TO.C,C6*%
X2525000Y76000000D03*
X5475000Y76000000D03*
%TD*%
%TO.C,C5*%
X2525000Y73000000D03*
X5475000Y73000000D03*
%TD*%
D20*
%TO.C,C4*%
X5000000Y63000000D03*
X5000000Y69225000D03*
%TD*%
D21*
%TO.C,J1*%
X10800000Y3200000D03*
D22*
X8000000Y8000000D03*
D23*
X13800000Y8000000D03*
%TD*%
D24*
%TO.C,J6*%
X34225000Y69975000D03*
D25*
X34225000Y72515000D03*
X36765000Y69975000D03*
X36765000Y72515000D03*
X39305000Y69975000D03*
X39305000Y72515000D03*
%TD*%
%TO.C,J4*%
X39305000Y53265000D03*
X39305000Y50725000D03*
X36765000Y53265000D03*
X36765000Y50725000D03*
X34225000Y53265000D03*
D24*
X34225000Y50725000D03*
%TD*%
D26*
%TO.C,D2*%
X27500000Y81000000D03*
X23500000Y81000000D03*
%TD*%
D27*
%TO.C,D1*%
X16000000Y63000000D03*
X16000000Y59000000D03*
%TD*%
D28*
%TO.C,U4*%
X50890000Y77600000D03*
D29*
X48350000Y77600000D03*
X45810000Y77600000D03*
X43270000Y77600000D03*
X40730000Y77600000D03*
X38190000Y77600000D03*
X35650000Y77600000D03*
X33110000Y77600000D03*
X33110000Y64900000D03*
X35650000Y64900000D03*
X38190000Y64900000D03*
X40730000Y64900000D03*
X43270000Y64900000D03*
X45810000Y64900000D03*
X48350000Y64900000D03*
X50890000Y64900000D03*
%TD*%
%TO.C,U2*%
X50890000Y45650000D03*
X48350000Y45650000D03*
X45810000Y45650000D03*
X43270000Y45650000D03*
X40730000Y45650000D03*
X38190000Y45650000D03*
X35650000Y45650000D03*
X33110000Y45650000D03*
X33110000Y58350000D03*
X35650000Y58350000D03*
X38190000Y58350000D03*
X40730000Y58350000D03*
X43270000Y58350000D03*
X45810000Y58350000D03*
X48350000Y58350000D03*
D28*
X50890000Y58350000D03*
%TD*%
D30*
%TO.C,U3*%
X2632000Y15300000D03*
X5172000Y15300000D03*
X7712000Y15300000D03*
X10252000Y15300000D03*
X12792000Y15300000D03*
X15332000Y15300000D03*
X17872000Y15300000D03*
X20412000Y15300000D03*
X22952000Y15300000D03*
X25492000Y15300000D03*
X28032000Y15300000D03*
X30572000Y15300000D03*
X33112000Y15300000D03*
X35652000Y15300000D03*
X38192000Y15300000D03*
X40732000Y15300000D03*
X43272000Y15300000D03*
X45812000Y15300000D03*
X48352000Y15300000D03*
X50892000Y15300000D03*
X53432000Y15300000D03*
X55972000Y15300000D03*
X2632000Y40700000D03*
X5172000Y40700000D03*
X7712000Y40700000D03*
X10252000Y40700000D03*
X12792000Y40700000D03*
X15332000Y40700000D03*
X17872000Y40700000D03*
X20412000Y40700000D03*
X22952000Y40700000D03*
X25492000Y40700000D03*
X28032000Y40700000D03*
X30572000Y40700000D03*
X33112000Y40700000D03*
X35652000Y40700000D03*
X38192000Y40700000D03*
X40732000Y40700000D03*
X43272000Y40700000D03*
X45812000Y40700000D03*
X48352000Y40700000D03*
X50892000Y40700000D03*
X53432000Y40700000D03*
D31*
X55972000Y40700000D03*
%TD*%
D32*
%TO.C,L1*%
X9100000Y74000000D03*
X19000000Y74000000D03*
%TD*%
D33*
%TO.C,U1*%
X11000000Y63000000D03*
D34*
X12905000Y60300000D03*
X11635000Y60300000D03*
X10365000Y60300000D03*
X9095000Y60300000D03*
X9095000Y65700000D03*
X10365000Y65700000D03*
X11635000Y65700000D03*
X12905000Y65700000D03*
%TD*%
D35*
%TO.C,Q1*%
X28040000Y5720000D03*
X28040000Y10280000D03*
D36*
X21740000Y8000000D03*
%TD*%
D37*
%TO.C,R6*%
X47675000Y80250000D03*
X49325000Y80250000D03*
%TD*%
D38*
%TO.C,R5*%
X26500000Y75825000D03*
X26500000Y74175000D03*
%TD*%
D39*
%TO.C,R4*%
X24000000Y74175000D03*
X24000000Y75825000D03*
%TD*%
D37*
%TO.C,R3*%
X49325000Y61000000D03*
X47675000Y61000000D03*
%TD*%
D14*
%TO.C,R2*%
X1675000Y81500000D03*
X3325000Y81500000D03*
%TD*%
%TO.C,R1*%
X4675000Y81500000D03*
X6325000Y81500000D03*
%TD*%
D40*
%TO.C,J2*%
X23000000Y87000000D03*
X26500000Y87000000D03*
D41*
X30000000Y87000000D03*
%TD*%
M02*
