%TF.GenerationSoftware,KiCad,Pcbnew,7.0.1*%
%TF.CreationDate,2024-04-15T22:24:04+03:00*%
%TF.ProjectId,ESP32 STEPPER CONTROL PCB,45535033-3220-4535-9445-505045522043,rev?*%
%TF.SameCoordinates,PX68e7780PY7bfa480*%
%TF.FileFunction,Legend,Top*%
%TF.FilePolarity,Positive*%
%FSLAX46Y46*%
G04 Gerber Fmt 4.6, Leading zero omitted, Abs format (unit mm)*
G04 Created by KiCad (PCBNEW 7.0.1) date 2024-04-15 22:24:04*
%MOMM*%
%LPD*%
G01*
G04 APERTURE LIST*
%ADD10C,0.150000*%
%ADD11C,0.120000*%
%ADD12C,0.127000*%
%ADD13C,0.200000*%
%ADD14C,0.100000*%
G04 APERTURE END LIST*
D10*
%TO.C,C9*%
X57833333Y69332620D02*
X57785714Y69285000D01*
X57785714Y69285000D02*
X57642857Y69237381D01*
X57642857Y69237381D02*
X57547619Y69237381D01*
X57547619Y69237381D02*
X57404762Y69285000D01*
X57404762Y69285000D02*
X57309524Y69380239D01*
X57309524Y69380239D02*
X57261905Y69475477D01*
X57261905Y69475477D02*
X57214286Y69665953D01*
X57214286Y69665953D02*
X57214286Y69808810D01*
X57214286Y69808810D02*
X57261905Y69999286D01*
X57261905Y69999286D02*
X57309524Y70094524D01*
X57309524Y70094524D02*
X57404762Y70189762D01*
X57404762Y70189762D02*
X57547619Y70237381D01*
X57547619Y70237381D02*
X57642857Y70237381D01*
X57642857Y70237381D02*
X57785714Y70189762D01*
X57785714Y70189762D02*
X57833333Y70142143D01*
X58309524Y69237381D02*
X58500000Y69237381D01*
X58500000Y69237381D02*
X58595238Y69285000D01*
X58595238Y69285000D02*
X58642857Y69332620D01*
X58642857Y69332620D02*
X58738095Y69475477D01*
X58738095Y69475477D02*
X58785714Y69665953D01*
X58785714Y69665953D02*
X58785714Y70046905D01*
X58785714Y70046905D02*
X58738095Y70142143D01*
X58738095Y70142143D02*
X58690476Y70189762D01*
X58690476Y70189762D02*
X58595238Y70237381D01*
X58595238Y70237381D02*
X58404762Y70237381D01*
X58404762Y70237381D02*
X58309524Y70189762D01*
X58309524Y70189762D02*
X58261905Y70142143D01*
X58261905Y70142143D02*
X58214286Y70046905D01*
X58214286Y70046905D02*
X58214286Y69808810D01*
X58214286Y69808810D02*
X58261905Y69713572D01*
X58261905Y69713572D02*
X58309524Y69665953D01*
X58309524Y69665953D02*
X58404762Y69618334D01*
X58404762Y69618334D02*
X58595238Y69618334D01*
X58595238Y69618334D02*
X58690476Y69665953D01*
X58690476Y69665953D02*
X58738095Y69713572D01*
X58738095Y69713572D02*
X58785714Y69808810D01*
%TO.C,C8*%
X57833333Y52332620D02*
X57785714Y52285000D01*
X57785714Y52285000D02*
X57642857Y52237381D01*
X57642857Y52237381D02*
X57547619Y52237381D01*
X57547619Y52237381D02*
X57404762Y52285000D01*
X57404762Y52285000D02*
X57309524Y52380239D01*
X57309524Y52380239D02*
X57261905Y52475477D01*
X57261905Y52475477D02*
X57214286Y52665953D01*
X57214286Y52665953D02*
X57214286Y52808810D01*
X57214286Y52808810D02*
X57261905Y52999286D01*
X57261905Y52999286D02*
X57309524Y53094524D01*
X57309524Y53094524D02*
X57404762Y53189762D01*
X57404762Y53189762D02*
X57547619Y53237381D01*
X57547619Y53237381D02*
X57642857Y53237381D01*
X57642857Y53237381D02*
X57785714Y53189762D01*
X57785714Y53189762D02*
X57833333Y53142143D01*
X58404762Y52808810D02*
X58309524Y52856429D01*
X58309524Y52856429D02*
X58261905Y52904048D01*
X58261905Y52904048D02*
X58214286Y52999286D01*
X58214286Y52999286D02*
X58214286Y53046905D01*
X58214286Y53046905D02*
X58261905Y53142143D01*
X58261905Y53142143D02*
X58309524Y53189762D01*
X58309524Y53189762D02*
X58404762Y53237381D01*
X58404762Y53237381D02*
X58595238Y53237381D01*
X58595238Y53237381D02*
X58690476Y53189762D01*
X58690476Y53189762D02*
X58738095Y53142143D01*
X58738095Y53142143D02*
X58785714Y53046905D01*
X58785714Y53046905D02*
X58785714Y52999286D01*
X58785714Y52999286D02*
X58738095Y52904048D01*
X58738095Y52904048D02*
X58690476Y52856429D01*
X58690476Y52856429D02*
X58595238Y52808810D01*
X58595238Y52808810D02*
X58404762Y52808810D01*
X58404762Y52808810D02*
X58309524Y52761191D01*
X58309524Y52761191D02*
X58261905Y52713572D01*
X58261905Y52713572D02*
X58214286Y52618334D01*
X58214286Y52618334D02*
X58214286Y52427858D01*
X58214286Y52427858D02*
X58261905Y52332620D01*
X58261905Y52332620D02*
X58309524Y52285000D01*
X58309524Y52285000D02*
X58404762Y52237381D01*
X58404762Y52237381D02*
X58595238Y52237381D01*
X58595238Y52237381D02*
X58690476Y52285000D01*
X58690476Y52285000D02*
X58738095Y52332620D01*
X58738095Y52332620D02*
X58785714Y52427858D01*
X58785714Y52427858D02*
X58785714Y52618334D01*
X58785714Y52618334D02*
X58738095Y52713572D01*
X58738095Y52713572D02*
X58690476Y52761191D01*
X58690476Y52761191D02*
X58595238Y52808810D01*
%TO.C,R6*%
X45583333Y79787381D02*
X45250000Y80263572D01*
X45011905Y79787381D02*
X45011905Y80787381D01*
X45011905Y80787381D02*
X45392857Y80787381D01*
X45392857Y80787381D02*
X45488095Y80739762D01*
X45488095Y80739762D02*
X45535714Y80692143D01*
X45535714Y80692143D02*
X45583333Y80596905D01*
X45583333Y80596905D02*
X45583333Y80454048D01*
X45583333Y80454048D02*
X45535714Y80358810D01*
X45535714Y80358810D02*
X45488095Y80311191D01*
X45488095Y80311191D02*
X45392857Y80263572D01*
X45392857Y80263572D02*
X45011905Y80263572D01*
X46440476Y80787381D02*
X46250000Y80787381D01*
X46250000Y80787381D02*
X46154762Y80739762D01*
X46154762Y80739762D02*
X46107143Y80692143D01*
X46107143Y80692143D02*
X46011905Y80549286D01*
X46011905Y80549286D02*
X45964286Y80358810D01*
X45964286Y80358810D02*
X45964286Y79977858D01*
X45964286Y79977858D02*
X46011905Y79882620D01*
X46011905Y79882620D02*
X46059524Y79835000D01*
X46059524Y79835000D02*
X46154762Y79787381D01*
X46154762Y79787381D02*
X46345238Y79787381D01*
X46345238Y79787381D02*
X46440476Y79835000D01*
X46440476Y79835000D02*
X46488095Y79882620D01*
X46488095Y79882620D02*
X46535714Y79977858D01*
X46535714Y79977858D02*
X46535714Y80215953D01*
X46535714Y80215953D02*
X46488095Y80311191D01*
X46488095Y80311191D02*
X46440476Y80358810D01*
X46440476Y80358810D02*
X46345238Y80406429D01*
X46345238Y80406429D02*
X46154762Y80406429D01*
X46154762Y80406429D02*
X46059524Y80358810D01*
X46059524Y80358810D02*
X46011905Y80311191D01*
X46011905Y80311191D02*
X45964286Y80215953D01*
%TO.C,R3*%
X45583333Y60537381D02*
X45250000Y61013572D01*
X45011905Y60537381D02*
X45011905Y61537381D01*
X45011905Y61537381D02*
X45392857Y61537381D01*
X45392857Y61537381D02*
X45488095Y61489762D01*
X45488095Y61489762D02*
X45535714Y61442143D01*
X45535714Y61442143D02*
X45583333Y61346905D01*
X45583333Y61346905D02*
X45583333Y61204048D01*
X45583333Y61204048D02*
X45535714Y61108810D01*
X45535714Y61108810D02*
X45488095Y61061191D01*
X45488095Y61061191D02*
X45392857Y61013572D01*
X45392857Y61013572D02*
X45011905Y61013572D01*
X45916667Y61537381D02*
X46535714Y61537381D01*
X46535714Y61537381D02*
X46202381Y61156429D01*
X46202381Y61156429D02*
X46345238Y61156429D01*
X46345238Y61156429D02*
X46440476Y61108810D01*
X46440476Y61108810D02*
X46488095Y61061191D01*
X46488095Y61061191D02*
X46535714Y60965953D01*
X46535714Y60965953D02*
X46535714Y60727858D01*
X46535714Y60727858D02*
X46488095Y60632620D01*
X46488095Y60632620D02*
X46440476Y60585000D01*
X46440476Y60585000D02*
X46345238Y60537381D01*
X46345238Y60537381D02*
X46059524Y60537381D01*
X46059524Y60537381D02*
X45964286Y60585000D01*
X45964286Y60585000D02*
X45916667Y60632620D01*
D11*
%TO.C,J3*%
X71285000Y51690000D02*
X71285000Y64310000D01*
X70525000Y64300000D02*
X70525000Y62500000D01*
X71275000Y53500000D02*
X70525000Y53500000D01*
X71575000Y63350000D02*
X71575000Y64600000D01*
X70525000Y61000000D02*
X70525000Y55000000D01*
X71285000Y64310000D02*
X65315000Y64310000D01*
X70525000Y62500000D02*
X71275000Y62500000D01*
X70525000Y55000000D02*
X71275000Y55000000D01*
X71275000Y62500000D02*
X71275000Y64300000D01*
X71275000Y64300000D02*
X70525000Y64300000D01*
X69025000Y51700000D02*
X69025000Y52450000D01*
X71275000Y55000000D02*
X71275000Y61000000D01*
X65315000Y64310000D02*
X65315000Y51690000D01*
X71275000Y51700000D02*
X71275000Y53500000D01*
X71275000Y61000000D02*
X70525000Y61000000D01*
X70525000Y53500000D02*
X70525000Y51700000D01*
X71575000Y64600000D02*
X70325000Y64600000D01*
X69025000Y52450000D02*
X66075000Y52450000D01*
X65315000Y51690000D02*
X71285000Y51690000D01*
X66075000Y58000000D02*
X66075000Y62490000D01*
X69025000Y64300000D02*
X69025000Y63550000D01*
X70525000Y51700000D02*
X71275000Y51700000D01*
X69025000Y63550000D02*
X67685000Y63550000D01*
X66075000Y52450000D02*
X66075000Y58000000D01*
%TO.C,J5*%
X66075000Y68450000D02*
X66075000Y74000000D01*
X69025000Y79550000D02*
X67685000Y79550000D01*
X70525000Y67700000D02*
X71275000Y67700000D01*
X69025000Y80300000D02*
X69025000Y79550000D01*
X66075000Y74000000D02*
X66075000Y78490000D01*
X65315000Y67690000D02*
X71285000Y67690000D01*
X69025000Y68450000D02*
X66075000Y68450000D01*
X71575000Y80600000D02*
X70325000Y80600000D01*
X70525000Y69500000D02*
X70525000Y67700000D01*
X71275000Y77000000D02*
X70525000Y77000000D01*
X71275000Y67700000D02*
X71275000Y69500000D01*
X65315000Y80310000D02*
X65315000Y67690000D01*
X71275000Y71000000D02*
X71275000Y77000000D01*
X69025000Y67700000D02*
X69025000Y68450000D01*
X71275000Y80300000D02*
X70525000Y80300000D01*
X71275000Y78500000D02*
X71275000Y80300000D01*
X70525000Y71000000D02*
X71275000Y71000000D01*
X70525000Y78500000D02*
X71275000Y78500000D01*
X71285000Y80310000D02*
X65315000Y80310000D01*
X70525000Y77000000D02*
X70525000Y71000000D01*
X71575000Y79350000D02*
X71575000Y80600000D01*
X71275000Y69500000D02*
X70525000Y69500000D01*
X70525000Y80300000D02*
X70525000Y78500000D01*
X71285000Y67690000D02*
X71285000Y80310000D01*
%TO.C,kibuzzard-661D7BA7*%
G36*
X17672396Y90043744D02*
G01*
X17804687Y90043744D01*
X17810861Y89948847D01*
X17829382Y89858888D01*
X17860250Y89773869D01*
X18511125Y89773869D01*
X18511125Y90143756D01*
X18376187Y90143756D01*
X18376187Y89943731D01*
X17960262Y89943731D01*
X17941212Y90038981D01*
X17968200Y90135819D01*
X18049162Y90207256D01*
X18137004Y90239888D01*
X18256596Y90259467D01*
X18407937Y90265994D01*
X18555840Y90259115D01*
X18671462Y90238477D01*
X18754806Y90204081D01*
X18830411Y90125103D01*
X18855612Y90011994D01*
X18846087Y89914759D01*
X18817512Y89813556D01*
X18960387Y89813556D01*
X18986581Y89910791D01*
X18995313Y90011994D01*
X18979614Y90142963D01*
X18932518Y90250119D01*
X18854025Y90333463D01*
X18773162Y90380343D01*
X18671859Y90413830D01*
X18550118Y90433921D01*
X18407937Y90440619D01*
X18266551Y90434418D01*
X18144016Y90415814D01*
X18040332Y90384808D01*
X17955500Y90341400D01*
X17889520Y90285589D01*
X17842391Y90217377D01*
X17814113Y90136761D01*
X17804687Y90043744D01*
X17672396Y90043744D01*
X17672396Y90440619D01*
X17672396Y90830879D01*
X19127604Y90830879D01*
X19127604Y90440619D01*
X19127604Y88159381D01*
X19127604Y87769121D01*
X17672396Y87769121D01*
X17672396Y88159381D01*
X17672396Y88576894D01*
X17804687Y88576894D01*
X17818380Y88445131D01*
X17859456Y88341944D01*
X17934267Y88263561D01*
X18049162Y88206212D01*
X18149881Y88180195D01*
X18272118Y88164585D01*
X18415875Y88159381D01*
X18564257Y88165483D01*
X18688727Y88183789D01*
X18789285Y88214299D01*
X18865931Y88257012D01*
X18937810Y88335947D01*
X18980937Y88442574D01*
X18995313Y88576894D01*
X18987375Y88701909D01*
X18963563Y88826131D01*
X17836437Y88826131D01*
X17812625Y88706672D01*
X17804687Y88576894D01*
X17672396Y88576894D01*
X17672396Y89607181D01*
X17820562Y89607181D01*
X17820562Y89432556D01*
X18661937Y89432556D01*
X18661937Y89429381D01*
X17820562Y89181731D01*
X17820562Y89003931D01*
X18979437Y89003931D01*
X18979437Y89170619D01*
X18138062Y89170619D01*
X18138062Y89175381D01*
X18979437Y89423031D01*
X18979437Y89607181D01*
X17820562Y89607181D01*
X17672396Y89607181D01*
X17672396Y90043744D01*
G37*
G36*
X18857200Y88576894D02*
G01*
X18832594Y88466959D01*
X18758775Y88391156D01*
X18676931Y88358524D01*
X18562631Y88338945D01*
X18415875Y88332419D01*
X18253774Y88338857D01*
X18129419Y88358172D01*
X18042812Y88390363D01*
X17966612Y88465967D01*
X17941212Y88576894D01*
X17955500Y88648331D01*
X18842912Y88648331D01*
X18857200Y88576894D01*
G37*
%TO.C,kibuzzard-661D7B98*%
G36*
X15972396Y90129469D02*
G01*
X16104687Y90129469D01*
X16117387Y90006596D01*
X16155487Y89911029D01*
X16218987Y89842766D01*
X16307887Y89801809D01*
X16422188Y89788156D01*
X16544822Y89805222D01*
X16642850Y89856419D01*
X16699471Y89914451D01*
X16755033Y89997530D01*
X16809537Y90105656D01*
X16856986Y90176212D01*
X16921015Y90218545D01*
X17001625Y90232656D01*
X17066712Y90221544D01*
X17115925Y90188206D01*
X17146881Y90135422D01*
X17157200Y90065969D01*
X17140134Y89942541D01*
X17088937Y89819906D01*
X17247687Y89819906D01*
X17274146Y89905278D01*
X17290021Y89994178D01*
X17295313Y90086606D01*
X17286493Y90181415D01*
X17260035Y90260526D01*
X17215937Y90323938D01*
X17120688Y90386445D01*
X16993688Y90407281D01*
X16880975Y90390811D01*
X16787312Y90341400D01*
X16732279Y90286808D01*
X16679362Y90210872D01*
X16628562Y90113594D01*
X16587684Y90045530D01*
X16541250Y90000088D01*
X16484894Y89974489D01*
X16414250Y89965956D01*
X16340233Y89977069D01*
X16286456Y90010406D01*
X16253714Y90063588D01*
X16242800Y90134231D01*
X16254265Y90227188D01*
X16288661Y90315559D01*
X16345987Y90399344D01*
X16180887Y90399344D01*
X16138554Y90317852D01*
X16113154Y90227894D01*
X16104687Y90129469D01*
X15972396Y90129469D01*
X15972396Y90407281D01*
X15972396Y90817385D01*
X17427604Y90817385D01*
X17427604Y90407281D01*
X17427604Y88192719D01*
X17427604Y87782615D01*
X15972396Y87782615D01*
X15972396Y88192719D01*
X15972396Y88462594D01*
X16104687Y88462594D01*
X16110861Y88367697D01*
X16129382Y88277738D01*
X16160250Y88192719D01*
X16811125Y88192719D01*
X16811125Y88562606D01*
X16676187Y88562606D01*
X16676187Y88362581D01*
X16260262Y88362581D01*
X16241212Y88457831D01*
X16268200Y88554669D01*
X16349162Y88626106D01*
X16437004Y88658738D01*
X16556596Y88678317D01*
X16707937Y88684844D01*
X16855840Y88677965D01*
X16971462Y88657327D01*
X17054806Y88622931D01*
X17130411Y88543953D01*
X17155612Y88430844D01*
X17146087Y88333609D01*
X17117512Y88232406D01*
X17260387Y88232406D01*
X17286581Y88329641D01*
X17295313Y88430844D01*
X17279614Y88561812D01*
X17232518Y88668969D01*
X17154025Y88752312D01*
X17073162Y88799193D01*
X16971859Y88832680D01*
X16850118Y88852771D01*
X16707937Y88859469D01*
X16566551Y88853268D01*
X16444016Y88834664D01*
X16340332Y88803658D01*
X16255500Y88760250D01*
X16189520Y88704439D01*
X16142391Y88636227D01*
X16114113Y88555611D01*
X16104687Y88462594D01*
X15972396Y88462594D01*
X15972396Y89042031D01*
X15972396Y89581781D01*
X16120562Y89581781D01*
X16120562Y89042031D01*
X16258675Y89042031D01*
X16258675Y89219831D01*
X17141325Y89219831D01*
X17141325Y89042031D01*
X17279437Y89042031D01*
X17279437Y89581781D01*
X17141325Y89581781D01*
X17141325Y89403981D01*
X16258675Y89403981D01*
X16258675Y89581781D01*
X16120562Y89581781D01*
X15972396Y89581781D01*
X15972396Y90129469D01*
G37*
%TO.C,kibuzzard-661D7B73*%
G36*
X19380333Y90414425D02*
G01*
X19380333Y90811300D01*
X20819667Y90811300D01*
X20819667Y90414425D01*
X20819667Y88185575D01*
X20819667Y87788700D01*
X19380333Y87788700D01*
X19380333Y88185575D01*
X19380333Y88444337D01*
X19380333Y88650712D01*
X19512625Y88650712D01*
X19512625Y88444337D01*
X20671500Y88185575D01*
X20671500Y88361787D01*
X19671375Y88542762D01*
X19671375Y88544350D01*
X20671500Y88725325D01*
X20671500Y88907887D01*
X19512625Y88650712D01*
X19380333Y88650712D01*
X19380333Y89053937D01*
X19380333Y89625437D01*
X19512625Y89625437D01*
X19512625Y89053937D01*
X19650737Y89053937D01*
X19650737Y89441287D01*
X19653912Y89441287D01*
X19764839Y89348171D01*
X19869019Y89268845D01*
X19966452Y89203311D01*
X20057137Y89151569D01*
X20170379Y89101739D01*
X20277271Y89071841D01*
X20377812Y89061875D01*
X20511758Y89079933D01*
X20608794Y89134106D01*
X20667730Y89222411D01*
X20687375Y89342862D01*
X20678203Y89443404D01*
X20650686Y89537596D01*
X20604825Y89625437D01*
X20455600Y89625437D01*
X20507635Y89536008D01*
X20538856Y89453987D01*
X20549263Y89379375D01*
X20506400Y89275394D01*
X20450837Y89249795D01*
X20369875Y89241262D01*
X20282886Y89249103D01*
X20190649Y89272624D01*
X20093164Y89311825D01*
X19990430Y89366707D01*
X19882448Y89437270D01*
X19769217Y89523514D01*
X19650737Y89625437D01*
X19512625Y89625437D01*
X19380333Y89625437D01*
X19380333Y89960400D01*
X19512625Y89960400D01*
X20671500Y89960400D01*
X20671500Y90136612D01*
X20509575Y90414425D01*
X20354000Y90414425D01*
X20506400Y90141375D01*
X20504812Y90138200D01*
X19512625Y90138200D01*
X19512625Y89960400D01*
X19380333Y89960400D01*
X19380333Y90138200D01*
X19380333Y90414425D01*
G37*
%TO.C,kibuzzard-661D7A91*%
G36*
X44272396Y71831025D02*
G01*
X44272396Y71986600D01*
X44420562Y71986600D01*
X44420562Y71831025D01*
X45404812Y71804038D01*
X45404812Y71799275D01*
X44690437Y71708788D01*
X44690437Y71557975D01*
X45404812Y71459550D01*
X45404812Y71457963D01*
X44420562Y71434150D01*
X44420562Y71264288D01*
X45579437Y71323025D01*
X45579437Y71523050D01*
X44841250Y71618300D01*
X44841250Y71621475D01*
X45579437Y71718313D01*
X45579437Y71926275D01*
X44420562Y71986600D01*
X44272396Y71986600D01*
X44272396Y72317329D01*
X45727604Y72317329D01*
X45727604Y71986600D01*
X45727604Y70513400D01*
X45727604Y70182671D01*
X44272396Y70182671D01*
X44272396Y70513400D01*
X44272396Y70830900D01*
X44404687Y70830900D01*
X44417586Y70732078D01*
X44456281Y70654688D01*
X44528116Y70595355D01*
X44640431Y70550706D01*
X44739297Y70529981D01*
X44859153Y70517545D01*
X45000000Y70513400D01*
X45140847Y70517545D01*
X45260703Y70529981D01*
X45359569Y70550706D01*
X45471884Y70595355D01*
X45543719Y70654688D01*
X45582414Y70732078D01*
X45595313Y70830900D01*
X45582414Y70929722D01*
X45543719Y71007113D01*
X45471884Y71066445D01*
X45359569Y71111094D01*
X45260703Y71131819D01*
X45140847Y71144255D01*
X45000000Y71148400D01*
X44859153Y71144255D01*
X44739297Y71131819D01*
X44640431Y71111094D01*
X44528116Y71066445D01*
X44456281Y71007113D01*
X44417586Y70929722D01*
X44404687Y70830900D01*
X44272396Y70830900D01*
X44272396Y71831025D01*
G37*
G36*
X45160337Y70683263D02*
G01*
X45086122Y70679691D01*
X45000000Y70678500D01*
X44887111Y70680617D01*
X44791861Y70686967D01*
X44714250Y70697550D01*
X44627731Y70719577D01*
X44574550Y70747556D01*
X44538037Y70830900D01*
X44570581Y70910275D01*
X44682500Y70959488D01*
X45160337Y70683263D01*
G37*
G36*
X45112889Y70981183D02*
G01*
X45208139Y70974833D01*
X45285750Y70964250D01*
X45372269Y70942223D01*
X45425450Y70914244D01*
X45461962Y70830900D01*
X45434181Y70756288D01*
X45339725Y70708663D01*
X44868237Y70980125D01*
X45000000Y70983300D01*
X45112889Y70981183D01*
G37*
%TO.C,kibuzzard-661D7AB9*%
G36*
X42588271Y71758794D02*
G01*
X42588271Y71914369D01*
X42720563Y71914369D01*
X42720563Y71758794D01*
X43704813Y71731806D01*
X43704813Y71727044D01*
X42990437Y71636556D01*
X42990437Y71485744D01*
X43704813Y71387319D01*
X43704813Y71385731D01*
X42720563Y71361919D01*
X42720563Y71192056D01*
X43879437Y71250794D01*
X43879437Y71450819D01*
X43141250Y71546069D01*
X43141250Y71549244D01*
X43879437Y71646081D01*
X43879437Y71854044D01*
X42720563Y71914369D01*
X42588271Y71914369D01*
X42588271Y72311244D01*
X44011729Y72311244D01*
X44011729Y71914369D01*
X44011729Y70585631D01*
X44011729Y70188756D01*
X42588271Y70188756D01*
X42588271Y70585631D01*
X42720563Y70585631D01*
X43879437Y70585631D01*
X43879437Y70761844D01*
X43717513Y71039656D01*
X43561938Y71039656D01*
X43714338Y70766606D01*
X43712750Y70763431D01*
X42720563Y70763431D01*
X42720563Y70585631D01*
X42588271Y70585631D01*
X42588271Y70763431D01*
X42588271Y71758794D01*
G37*
%TO.C,kibuzzard-661D7AAA*%
G36*
X40880333Y71815150D02*
G01*
X40880333Y71970725D01*
X41012625Y71970725D01*
X41012625Y71815150D01*
X41996875Y71788163D01*
X41996875Y71783400D01*
X41282500Y71692913D01*
X41282500Y71542100D01*
X41996875Y71443675D01*
X41996875Y71442088D01*
X41012625Y71418275D01*
X41012625Y71248413D01*
X42171500Y71307150D01*
X42171500Y71507175D01*
X41433312Y71602425D01*
X41433312Y71605600D01*
X42171500Y71702438D01*
X42171500Y71910400D01*
X41012625Y71970725D01*
X40880333Y71970725D01*
X40880333Y72301454D01*
X42319667Y72301454D01*
X42319667Y71970725D01*
X42319667Y70529275D01*
X42319667Y70198546D01*
X40880333Y70198546D01*
X40880333Y70529275D01*
X40880333Y71100775D01*
X41012625Y71100775D01*
X41012625Y70529275D01*
X41150737Y70529275D01*
X41150737Y70916625D01*
X41153912Y70916625D01*
X41264839Y70823508D01*
X41369019Y70744183D01*
X41466452Y70678649D01*
X41557137Y70626906D01*
X41670379Y70577076D01*
X41777271Y70547178D01*
X41877812Y70537212D01*
X42011758Y70555270D01*
X42108794Y70609444D01*
X42167730Y70697748D01*
X42187375Y70818200D01*
X42178203Y70918742D01*
X42150686Y71012933D01*
X42104825Y71100775D01*
X41955600Y71100775D01*
X42007635Y71011346D01*
X42038856Y70929325D01*
X42049263Y70854713D01*
X42006400Y70750731D01*
X41950837Y70725133D01*
X41869875Y70716600D01*
X41782886Y70724440D01*
X41690649Y70747961D01*
X41593164Y70787163D01*
X41490430Y70842045D01*
X41382448Y70912608D01*
X41269217Y70998851D01*
X41150737Y71100775D01*
X41012625Y71100775D01*
X40880333Y71100775D01*
X40880333Y71815150D01*
G37*
%TO.C,kibuzzard-661D7AB9*%
G36*
X42588271Y52508794D02*
G01*
X42588271Y52664369D01*
X42720563Y52664369D01*
X42720563Y52508794D01*
X43704813Y52481806D01*
X43704813Y52477044D01*
X42990437Y52386556D01*
X42990437Y52235744D01*
X43704813Y52137319D01*
X43704813Y52135731D01*
X42720563Y52111919D01*
X42720563Y51942056D01*
X43879437Y52000794D01*
X43879437Y52200819D01*
X43141250Y52296069D01*
X43141250Y52299244D01*
X43879437Y52396081D01*
X43879437Y52604044D01*
X42720563Y52664369D01*
X42588271Y52664369D01*
X42588271Y53061244D01*
X44011729Y53061244D01*
X44011729Y52664369D01*
X44011729Y51335631D01*
X44011729Y50938756D01*
X42588271Y50938756D01*
X42588271Y51335631D01*
X42720563Y51335631D01*
X43879437Y51335631D01*
X43879437Y51511844D01*
X43717513Y51789656D01*
X43561938Y51789656D01*
X43714338Y51516606D01*
X43712750Y51513431D01*
X42720563Y51513431D01*
X42720563Y51335631D01*
X42588271Y51335631D01*
X42588271Y51513431D01*
X42588271Y52508794D01*
G37*
%TO.C,kibuzzard-661D7AAA*%
G36*
X40880333Y52565150D02*
G01*
X40880333Y52720725D01*
X41012625Y52720725D01*
X41012625Y52565150D01*
X41996875Y52538163D01*
X41996875Y52533400D01*
X41282500Y52442913D01*
X41282500Y52292100D01*
X41996875Y52193675D01*
X41996875Y52192088D01*
X41012625Y52168275D01*
X41012625Y51998413D01*
X42171500Y52057150D01*
X42171500Y52257175D01*
X41433312Y52352425D01*
X41433312Y52355600D01*
X42171500Y52452438D01*
X42171500Y52660400D01*
X41012625Y52720725D01*
X40880333Y52720725D01*
X40880333Y53051454D01*
X42319667Y53051454D01*
X42319667Y52720725D01*
X42319667Y51279275D01*
X42319667Y50948546D01*
X40880333Y50948546D01*
X40880333Y51279275D01*
X40880333Y51850775D01*
X41012625Y51850775D01*
X41012625Y51279275D01*
X41150737Y51279275D01*
X41150737Y51666625D01*
X41153912Y51666625D01*
X41264839Y51573508D01*
X41369019Y51494183D01*
X41466452Y51428649D01*
X41557137Y51376906D01*
X41670379Y51327076D01*
X41777271Y51297178D01*
X41877812Y51287212D01*
X42011758Y51305270D01*
X42108794Y51359444D01*
X42167730Y51447748D01*
X42187375Y51568200D01*
X42178203Y51668742D01*
X42150686Y51762933D01*
X42104825Y51850775D01*
X41955600Y51850775D01*
X42007635Y51761346D01*
X42038856Y51679325D01*
X42049263Y51604713D01*
X42006400Y51500731D01*
X41950837Y51475133D01*
X41869875Y51466600D01*
X41782886Y51474440D01*
X41690649Y51497961D01*
X41593164Y51537163D01*
X41490430Y51592045D01*
X41382448Y51662608D01*
X41269217Y51748851D01*
X41150737Y51850775D01*
X41012625Y51850775D01*
X40880333Y51850775D01*
X40880333Y52565150D01*
G37*
%TO.C,kibuzzard-661D7A91*%
G36*
X45112889Y51731183D02*
G01*
X45208139Y51724833D01*
X45285750Y51714250D01*
X45372269Y51692223D01*
X45425450Y51664244D01*
X45461962Y51580900D01*
X45434181Y51506288D01*
X45339725Y51458663D01*
X44868237Y51730125D01*
X45000000Y51733300D01*
X45112889Y51731183D01*
G37*
G36*
X45160337Y51433263D02*
G01*
X45086122Y51429691D01*
X45000000Y51428500D01*
X44887111Y51430617D01*
X44791861Y51436967D01*
X44714250Y51447550D01*
X44627731Y51469577D01*
X44574550Y51497556D01*
X44538037Y51580900D01*
X44570581Y51660275D01*
X44682500Y51709488D01*
X45160337Y51433263D01*
G37*
G36*
X44272396Y52581025D02*
G01*
X44272396Y52736600D01*
X44420562Y52736600D01*
X44420562Y52581025D01*
X45404812Y52554038D01*
X45404812Y52549275D01*
X44690437Y52458788D01*
X44690437Y52307975D01*
X45404812Y52209550D01*
X45404812Y52207963D01*
X44420562Y52184150D01*
X44420562Y52014288D01*
X45579437Y52073025D01*
X45579437Y52273050D01*
X44841250Y52368300D01*
X44841250Y52371475D01*
X45579437Y52468313D01*
X45579437Y52676275D01*
X44420562Y52736600D01*
X44272396Y52736600D01*
X44272396Y53067329D01*
X45727604Y53067329D01*
X45727604Y52736600D01*
X45727604Y51263400D01*
X45727604Y50932671D01*
X44272396Y50932671D01*
X44272396Y51263400D01*
X44272396Y51580900D01*
X44404687Y51580900D01*
X44417586Y51482078D01*
X44456281Y51404688D01*
X44528116Y51345355D01*
X44640431Y51300706D01*
X44739297Y51279981D01*
X44859153Y51267545D01*
X45000000Y51263400D01*
X45140847Y51267545D01*
X45260703Y51279981D01*
X45359569Y51300706D01*
X45471884Y51345355D01*
X45543719Y51404688D01*
X45582414Y51482078D01*
X45595313Y51580900D01*
X45582414Y51679722D01*
X45543719Y51757113D01*
X45471884Y51816445D01*
X45359569Y51861094D01*
X45260703Y51881819D01*
X45140847Y51894255D01*
X45000000Y51898400D01*
X44859153Y51894255D01*
X44739297Y51881819D01*
X44640431Y51861094D01*
X44528116Y51816445D01*
X44456281Y51757113D01*
X44417586Y51679722D01*
X44404687Y51580900D01*
X44272396Y51580900D01*
X44272396Y52581025D01*
G37*
%TO.C,kibuzzard-661D7A6E*%
G36*
X63948394Y75738313D02*
G01*
X64012688Y75700213D01*
X64048406Y75631950D01*
X64060313Y75528763D01*
X64060313Y75466850D01*
X63655500Y75466850D01*
X63642800Y75558925D01*
X63655302Y75643459D01*
X63692806Y75703388D01*
X63757298Y75739106D01*
X63850763Y75751013D01*
X63948394Y75738313D01*
G37*
G36*
X64014077Y74159742D02*
G01*
X64094444Y74124619D01*
X64139092Y74064889D01*
X64153975Y73979363D01*
X64142863Y73887288D01*
X63655500Y73887288D01*
X63642800Y73979363D01*
X63657484Y74064889D01*
X63701538Y74124619D01*
X63778531Y74159742D01*
X63892038Y74171450D01*
X64014077Y74159742D01*
G37*
G36*
X64014077Y73365992D02*
G01*
X64094444Y73330869D01*
X64139092Y73271139D01*
X64153975Y73185613D01*
X64142863Y73093538D01*
X63655500Y73093538D01*
X63642800Y73185613D01*
X63657484Y73271139D01*
X63701538Y73330869D01*
X63778531Y73365992D01*
X63892038Y73377700D01*
X64014077Y73365992D01*
G37*
G36*
X64827604Y77468687D02*
G01*
X64827604Y75955800D01*
X64827604Y75082675D01*
X64827604Y73887288D01*
X64827604Y73093538D01*
X64827604Y72701425D01*
X64827604Y71715588D01*
X64827604Y70809125D01*
X64827604Y70531313D01*
X64827604Y70200583D01*
X63372396Y70200583D01*
X63372396Y70531313D01*
X63372396Y70851987D01*
X63504687Y70851987D01*
X63513507Y70757178D01*
X63539965Y70678068D01*
X63584063Y70614656D01*
X63679312Y70552148D01*
X63806312Y70531313D01*
X63919025Y70547783D01*
X64012688Y70597194D01*
X64067721Y70651786D01*
X64120638Y70727722D01*
X64171438Y70825000D01*
X64212316Y70893064D01*
X64258750Y70938506D01*
X64315106Y70964105D01*
X64385750Y70972638D01*
X64459767Y70961525D01*
X64513544Y70928187D01*
X64546286Y70875006D01*
X64557200Y70804363D01*
X64545735Y70711406D01*
X64511339Y70623035D01*
X64454013Y70539250D01*
X64619113Y70539250D01*
X64661446Y70620742D01*
X64686846Y70710700D01*
X64695313Y70809125D01*
X64682613Y70931997D01*
X64644513Y71027565D01*
X64581013Y71095828D01*
X64492113Y71136785D01*
X64377812Y71150437D01*
X64255178Y71133372D01*
X64157150Y71082175D01*
X64100529Y71024143D01*
X64044967Y70941064D01*
X63990463Y70832938D01*
X63943014Y70762382D01*
X63878985Y70720049D01*
X63798375Y70705937D01*
X63733288Y70717050D01*
X63684075Y70750388D01*
X63653119Y70803172D01*
X63642800Y70872625D01*
X63659866Y70996053D01*
X63711063Y71118688D01*
X63552313Y71118688D01*
X63525854Y71033315D01*
X63509979Y70944415D01*
X63504687Y70851987D01*
X63372396Y70851987D01*
X63372396Y71301250D01*
X63520563Y71301250D01*
X63658675Y71301250D01*
X63658675Y71537788D01*
X64679438Y71537788D01*
X64679438Y71715588D01*
X63658675Y71715588D01*
X63658675Y71952125D01*
X63520563Y71952125D01*
X63520563Y71301250D01*
X63372396Y71301250D01*
X63372396Y72145800D01*
X63520563Y72145800D01*
X64679438Y72145800D01*
X64679438Y72701425D01*
X64541325Y72701425D01*
X64541325Y72323600D01*
X64123813Y72323600D01*
X64123813Y72685550D01*
X63988875Y72685550D01*
X63988875Y72323600D01*
X63658675Y72323600D01*
X63658675Y72701425D01*
X63520563Y72701425D01*
X63520563Y72145800D01*
X63372396Y72145800D01*
X63372396Y73185613D01*
X63504687Y73185613D01*
X63508215Y73094243D01*
X63518799Y73004285D01*
X63536437Y72915738D01*
X64679438Y72915738D01*
X64679438Y73093538D01*
X64282563Y73093538D01*
X64290500Y73185613D01*
X64279917Y73298766D01*
X64248167Y73390576D01*
X64195250Y73461044D01*
X64119226Y73510874D01*
X64018156Y73540772D01*
X63892038Y73550738D01*
X63768124Y73541036D01*
X63669435Y73511932D01*
X63595969Y73463425D01*
X63545257Y73393751D01*
X63514830Y73301147D01*
X63504687Y73185613D01*
X63372396Y73185613D01*
X63372396Y73979363D01*
X63504687Y73979363D01*
X63508215Y73887993D01*
X63518799Y73798035D01*
X63536437Y73709488D01*
X64679438Y73709488D01*
X64679438Y73887288D01*
X64282563Y73887288D01*
X64290500Y73979363D01*
X64279917Y74092516D01*
X64248167Y74184326D01*
X64195250Y74254794D01*
X64119226Y74304624D01*
X64018156Y74334522D01*
X63892038Y74344488D01*
X63768124Y74334786D01*
X63669435Y74305682D01*
X63595969Y74257175D01*
X63545257Y74187501D01*
X63514830Y74094897D01*
X63504687Y73979363D01*
X63372396Y73979363D01*
X63372396Y74527050D01*
X63520563Y74527050D01*
X64679438Y74527050D01*
X64679438Y75082675D01*
X64541325Y75082675D01*
X64541325Y74704850D01*
X64123813Y74704850D01*
X64123813Y75066800D01*
X63988875Y75066800D01*
X63988875Y74704850D01*
X63658675Y74704850D01*
X63658675Y75082675D01*
X63520563Y75082675D01*
X63520563Y74527050D01*
X63372396Y74527050D01*
X63372396Y75558925D01*
X63504687Y75558925D01*
X63508215Y75467556D01*
X63518799Y75377597D01*
X63536437Y75289050D01*
X64679438Y75289050D01*
X64679438Y75466850D01*
X64198425Y75466850D01*
X64198425Y75528763D01*
X64229381Y75624806D01*
X64274030Y75655167D01*
X64346063Y75681163D01*
X64679438Y75773238D01*
X64679438Y75955800D01*
X64355588Y75857375D01*
X64230969Y75806575D01*
X64152388Y75746250D01*
X64149213Y75746250D01*
X64103770Y75824038D01*
X64038881Y75879600D01*
X63954545Y75912938D01*
X63850763Y75924050D01*
X63741842Y75914260D01*
X63654265Y75884892D01*
X63588031Y75835944D01*
X63541729Y75766006D01*
X63513948Y75673666D01*
X63504687Y75558925D01*
X63372396Y75558925D01*
X63372396Y77179763D01*
X63504687Y77179763D01*
X63513860Y77079221D01*
X63541376Y76985029D01*
X63587238Y76897188D01*
X63736463Y76897188D01*
X63684428Y76986617D01*
X63653207Y77068638D01*
X63642800Y77143250D01*
X63685663Y77247231D01*
X63741225Y77272830D01*
X63822188Y77281363D01*
X63909176Y77273522D01*
X64001413Y77250001D01*
X64098898Y77210800D01*
X64201632Y77155918D01*
X64309615Y77085355D01*
X64422846Y76999111D01*
X64541325Y76897188D01*
X64679438Y76897188D01*
X64679438Y77468687D01*
X64541325Y77468687D01*
X64541325Y77081338D01*
X64538150Y77081338D01*
X64427223Y77174454D01*
X64323044Y77253780D01*
X64225611Y77319314D01*
X64134925Y77371056D01*
X64021683Y77420886D01*
X63914792Y77450784D01*
X63814250Y77460750D01*
X63680305Y77442692D01*
X63583269Y77388519D01*
X63524333Y77300214D01*
X63504687Y77179763D01*
X63372396Y77179763D01*
X63372396Y77468687D01*
X63372396Y77799417D01*
X64827604Y77799417D01*
X64827604Y77468687D01*
G37*
%TO.C,kibuzzard-661D7A47*%
G36*
X63948394Y59794669D02*
G01*
X64012688Y59756569D01*
X64048406Y59688306D01*
X64060313Y59585119D01*
X64060313Y59523206D01*
X63655500Y59523206D01*
X63642800Y59615281D01*
X63655302Y59699816D01*
X63692806Y59759744D01*
X63757298Y59795463D01*
X63850763Y59807369D01*
X63948394Y59794669D01*
G37*
G36*
X64014077Y58216098D02*
G01*
X64094444Y58180975D01*
X64139092Y58121245D01*
X64153975Y58035719D01*
X64142863Y57943644D01*
X63655500Y57943644D01*
X63642800Y58035719D01*
X63657484Y58121245D01*
X63701538Y58180975D01*
X63778531Y58216098D01*
X63892038Y58227806D01*
X64014077Y58216098D01*
G37*
G36*
X64014077Y57422348D02*
G01*
X64094444Y57387225D01*
X64139092Y57327495D01*
X64153975Y57241969D01*
X64142863Y57149894D01*
X63655500Y57149894D01*
X63642800Y57241969D01*
X63657484Y57327495D01*
X63701538Y57387225D01*
X63778531Y57422348D01*
X63892038Y57434056D01*
X64014077Y57422348D01*
G37*
G36*
X64827604Y61234531D02*
G01*
X64827604Y60012156D01*
X64827604Y59139031D01*
X64827604Y57943644D01*
X64827604Y57149894D01*
X64827604Y56757781D01*
X64827604Y55771944D01*
X64827604Y54865481D01*
X64827604Y54587669D01*
X64827604Y54256940D01*
X63372396Y54256940D01*
X63372396Y54587669D01*
X63372396Y54908344D01*
X63504687Y54908344D01*
X63513507Y54813535D01*
X63539965Y54734424D01*
X63584063Y54671013D01*
X63679312Y54608505D01*
X63806312Y54587669D01*
X63919025Y54604139D01*
X64012688Y54653550D01*
X64067721Y54708142D01*
X64120638Y54784078D01*
X64171438Y54881356D01*
X64212316Y54949420D01*
X64258750Y54994862D01*
X64315106Y55020461D01*
X64385750Y55028994D01*
X64459767Y55017881D01*
X64513544Y54984544D01*
X64546286Y54931362D01*
X64557200Y54860719D01*
X64545735Y54767762D01*
X64511339Y54679391D01*
X64454013Y54595606D01*
X64619113Y54595606D01*
X64661446Y54677098D01*
X64686846Y54767056D01*
X64695313Y54865481D01*
X64682613Y54988354D01*
X64644513Y55083921D01*
X64581013Y55152184D01*
X64492113Y55193141D01*
X64377812Y55206794D01*
X64255178Y55189728D01*
X64157150Y55138531D01*
X64100529Y55080499D01*
X64044967Y54997420D01*
X63990463Y54889294D01*
X63943014Y54818738D01*
X63878985Y54776405D01*
X63798375Y54762294D01*
X63733288Y54773406D01*
X63684075Y54806744D01*
X63653119Y54859528D01*
X63642800Y54928981D01*
X63659866Y55052409D01*
X63711063Y55175044D01*
X63552313Y55175044D01*
X63525854Y55089672D01*
X63509979Y55000772D01*
X63504687Y54908344D01*
X63372396Y54908344D01*
X63372396Y55357606D01*
X63520563Y55357606D01*
X63658675Y55357606D01*
X63658675Y55594144D01*
X64679438Y55594144D01*
X64679438Y55771944D01*
X63658675Y55771944D01*
X63658675Y56008481D01*
X63520563Y56008481D01*
X63520563Y55357606D01*
X63372396Y55357606D01*
X63372396Y56202156D01*
X63520563Y56202156D01*
X64679438Y56202156D01*
X64679438Y56757781D01*
X64541325Y56757781D01*
X64541325Y56379956D01*
X64123813Y56379956D01*
X64123813Y56741906D01*
X63988875Y56741906D01*
X63988875Y56379956D01*
X63658675Y56379956D01*
X63658675Y56757781D01*
X63520563Y56757781D01*
X63520563Y56202156D01*
X63372396Y56202156D01*
X63372396Y57241969D01*
X63504687Y57241969D01*
X63508215Y57150599D01*
X63518799Y57060641D01*
X63536437Y56972094D01*
X64679438Y56972094D01*
X64679438Y57149894D01*
X64282563Y57149894D01*
X64290500Y57241969D01*
X64279917Y57355122D01*
X64248167Y57446933D01*
X64195250Y57517400D01*
X64119226Y57567230D01*
X64018156Y57597128D01*
X63892038Y57607094D01*
X63768124Y57597392D01*
X63669435Y57568288D01*
X63595969Y57519781D01*
X63545257Y57450108D01*
X63514830Y57357503D01*
X63504687Y57241969D01*
X63372396Y57241969D01*
X63372396Y58035719D01*
X63504687Y58035719D01*
X63508215Y57944349D01*
X63518799Y57854391D01*
X63536437Y57765844D01*
X64679438Y57765844D01*
X64679438Y57943644D01*
X64282563Y57943644D01*
X64290500Y58035719D01*
X64279917Y58148872D01*
X64248167Y58240683D01*
X64195250Y58311150D01*
X64119226Y58360980D01*
X64018156Y58390878D01*
X63892038Y58400844D01*
X63768124Y58391142D01*
X63669435Y58362038D01*
X63595969Y58313531D01*
X63545257Y58243858D01*
X63514830Y58151253D01*
X63504687Y58035719D01*
X63372396Y58035719D01*
X63372396Y58583406D01*
X63520563Y58583406D01*
X64679438Y58583406D01*
X64679438Y59139031D01*
X64541325Y59139031D01*
X64541325Y58761206D01*
X64123813Y58761206D01*
X64123813Y59123156D01*
X63988875Y59123156D01*
X63988875Y58761206D01*
X63658675Y58761206D01*
X63658675Y59139031D01*
X63520563Y59139031D01*
X63520563Y58583406D01*
X63372396Y58583406D01*
X63372396Y59615281D01*
X63504687Y59615281D01*
X63508215Y59523912D01*
X63518799Y59433953D01*
X63536437Y59345406D01*
X64679438Y59345406D01*
X64679438Y59523206D01*
X64198425Y59523206D01*
X64198425Y59585119D01*
X64229381Y59681163D01*
X64274030Y59711523D01*
X64346063Y59737519D01*
X64679438Y59829594D01*
X64679438Y60012156D01*
X64355588Y59913731D01*
X64230969Y59862931D01*
X64152388Y59802606D01*
X64149213Y59802606D01*
X64103770Y59880394D01*
X64038881Y59935956D01*
X63954545Y59969294D01*
X63850763Y59980406D01*
X63741842Y59970617D01*
X63654265Y59941248D01*
X63588031Y59892300D01*
X63541729Y59822362D01*
X63513948Y59730022D01*
X63504687Y59615281D01*
X63372396Y59615281D01*
X63372396Y61236119D01*
X63520563Y61236119D01*
X63682488Y60958306D01*
X63838063Y60958306D01*
X63685663Y61231356D01*
X63687250Y61234531D01*
X64679438Y61234531D01*
X64679438Y61412331D01*
X63520563Y61412331D01*
X63520563Y61236119D01*
X63372396Y61236119D01*
X63372396Y61412331D01*
X63372396Y61743060D01*
X64827604Y61743060D01*
X64827604Y61412331D01*
X64827604Y61234531D01*
G37*
%TO.C,kibuzzard-661D68F2*%
G36*
X1376197Y2182594D02*
G01*
X1452000Y2108775D01*
X1484632Y2026931D01*
X1504211Y1912631D01*
X1510738Y1765875D01*
X1504299Y1603774D01*
X1484985Y1479419D01*
X1452794Y1392812D01*
X1377189Y1316612D01*
X1266263Y1291212D01*
X1194825Y1305500D01*
X1194825Y2192912D01*
X1266263Y2207200D01*
X1376197Y2182594D01*
G37*
G36*
X7157475Y890104D02*
G01*
X5401700Y890104D01*
X4792100Y890104D01*
X3707837Y890104D01*
X2201300Y890104D01*
X1266263Y890104D01*
X1017025Y890104D01*
X686296Y890104D01*
X686296Y1186437D01*
X1017025Y1186437D01*
X1136484Y1162625D01*
X1266263Y1154687D01*
X1398025Y1168380D01*
X1501212Y1209456D01*
X1579595Y1284267D01*
X1636944Y1399162D01*
X1662961Y1499881D01*
X1678572Y1622118D01*
X1683775Y1765875D01*
X1799662Y1765875D01*
X1805938Y1622628D01*
X1824765Y1498480D01*
X1856143Y1393433D01*
X1900072Y1307484D01*
X1956552Y1240636D01*
X2025584Y1192887D01*
X2107166Y1164237D01*
X2201300Y1154687D01*
X2307266Y1164609D01*
X2402913Y1194375D01*
X2402913Y1340425D01*
X2312425Y1303516D01*
X2228288Y1291212D01*
X2150676Y1304398D01*
X2087176Y1343953D01*
X2037788Y1409878D01*
X2002510Y1502174D01*
X1981343Y1620839D01*
X1974287Y1765875D01*
X1980682Y1900239D01*
X1999864Y2010174D01*
X2031834Y2095678D01*
X2076593Y2156753D01*
X2134140Y2193398D01*
X2204475Y2205612D01*
X2240987Y2199262D01*
X2240987Y1951612D01*
X2410850Y1951612D01*
X2410850Y2011937D01*
X3431613Y2011937D01*
X3704663Y2164337D01*
X3707837Y2162750D01*
X3707837Y1170562D01*
X3885638Y1170562D01*
X4220600Y1170562D01*
X4792100Y1170562D01*
X4792100Y1308675D01*
X4404750Y1308675D01*
X4404750Y1311850D01*
X4497867Y1422777D01*
X4577192Y1526956D01*
X4642726Y1624389D01*
X4694469Y1715075D01*
X4744299Y1828317D01*
X4774197Y1935208D01*
X4784163Y2035750D01*
X4766105Y2169695D01*
X4711931Y2266731D01*
X4623627Y2325667D01*
X4600513Y2329437D01*
X4938150Y2329437D01*
X5195325Y1170562D01*
X5401700Y1170562D01*
X6617725Y1170562D01*
X7157475Y1170562D01*
X7157475Y1308675D01*
X6979675Y1308675D01*
X6979675Y2191325D01*
X7157475Y2191325D01*
X7157475Y2329437D01*
X7379725Y2329437D01*
X7379725Y1170562D01*
X7554350Y1170562D01*
X7554350Y2011937D01*
X7557525Y2011937D01*
X7805175Y1170562D01*
X7982975Y1170562D01*
X7982975Y2329437D01*
X7816288Y2329437D01*
X7816288Y1488062D01*
X7811525Y1488062D01*
X7563875Y2329437D01*
X7379725Y2329437D01*
X7157475Y2329437D01*
X6617725Y2329437D01*
X6617725Y2191325D01*
X6795525Y2191325D01*
X6795525Y1308675D01*
X6617725Y1308675D01*
X6617725Y1170562D01*
X5401700Y1170562D01*
X5660463Y2329437D01*
X5484250Y2329437D01*
X5303275Y1329312D01*
X5301688Y1329312D01*
X5120713Y2329437D01*
X4938150Y2329437D01*
X4600513Y2329437D01*
X4503175Y2345313D01*
X4402633Y2336140D01*
X4308442Y2308624D01*
X4220600Y2262762D01*
X4220600Y2113537D01*
X4310029Y2165572D01*
X4392050Y2196793D01*
X4466663Y2207200D01*
X4570644Y2164337D01*
X4596242Y2108775D01*
X4604775Y2027812D01*
X4596935Y1940824D01*
X4573414Y1848587D01*
X4534212Y1751102D01*
X4479330Y1648368D01*
X4408767Y1540385D01*
X4322524Y1427154D01*
X4220600Y1308675D01*
X4220600Y1170562D01*
X3885638Y1170562D01*
X3885638Y2329437D01*
X3709425Y2329437D01*
X3431613Y2167512D01*
X3431613Y2011937D01*
X2410850Y2011937D01*
X2410850Y2310387D01*
X2309647Y2336581D01*
X2196538Y2345313D01*
X2103520Y2336259D01*
X2022905Y2309098D01*
X1954692Y2263829D01*
X1898881Y2200453D01*
X1855473Y2118970D01*
X1824467Y2019379D01*
X1805864Y1901681D01*
X1799662Y1765875D01*
X1683775Y1765875D01*
X1677673Y1914257D01*
X1659367Y2038727D01*
X1628857Y2139285D01*
X1586144Y2215931D01*
X1507210Y2287810D01*
X1400583Y2330937D01*
X1266263Y2345313D01*
X1141247Y2337375D01*
X1017025Y2313563D01*
X1017025Y1186437D01*
X686296Y1186437D01*
X686296Y2609896D01*
X1017025Y2609896D01*
X7982975Y2609896D01*
X8313704Y2609896D01*
X8313704Y890104D01*
X7982975Y890104D01*
X7379725Y890104D01*
X7157475Y890104D01*
G37*
%TO.C,kibuzzard-661D4DC0*%
G36*
X1280333Y87644587D02*
G01*
X1280333Y87975317D01*
X2719667Y87975317D01*
X2719667Y87644587D01*
X2719667Y85355413D01*
X2719667Y85024683D01*
X1280333Y85024683D01*
X1280333Y85355413D01*
X1280333Y85614175D01*
X1280333Y85820550D01*
X1428500Y85820550D01*
X1428500Y85614175D01*
X2587375Y85355412D01*
X2587375Y85531625D01*
X1587250Y85712600D01*
X1587250Y85714187D01*
X2587375Y85895162D01*
X2587375Y86077725D01*
X1428500Y85820550D01*
X1280333Y85820550D01*
X1280333Y86557150D01*
X1412625Y86557150D01*
X1422503Y86448318D01*
X1452136Y86361006D01*
X1501525Y86295212D01*
X1573844Y86249351D01*
X1672269Y86221835D01*
X1796800Y86212662D01*
X1931103Y86222822D01*
X2035560Y86253302D01*
X2110172Y86304102D01*
X2154940Y86375222D01*
X2169862Y86466662D01*
X2159941Y86542069D01*
X2130175Y86606362D01*
X2130175Y86609537D01*
X2450850Y86598425D01*
X2450850Y86244412D01*
X2587375Y86244412D01*
X2587375Y86760350D01*
X1971425Y86776225D01*
X1971425Y86630175D01*
X2019050Y86575009D01*
X2034925Y86514287D01*
X1980156Y86420625D01*
X1906933Y86398003D01*
X1796800Y86390462D01*
X1680714Y86401178D01*
X1605506Y86433325D01*
X1564430Y86488887D01*
X1550737Y86569850D01*
X1565819Y86675816D01*
X1611063Y86784162D01*
X1460250Y86784162D01*
X1424531Y86675022D01*
X1412625Y86557150D01*
X1280333Y86557150D01*
X1280333Y87217550D01*
X1280333Y87387412D01*
X1507875Y87387412D01*
X1507875Y87217550D01*
X1841250Y87217550D01*
X1841250Y86961962D01*
X1973012Y86961962D01*
X1973012Y87217550D01*
X2301625Y87217550D01*
X2301625Y87387412D01*
X1973012Y87387412D01*
X1973012Y87644587D01*
X1841250Y87644587D01*
X1841250Y87387412D01*
X1507875Y87387412D01*
X1280333Y87387412D01*
X1280333Y87644587D01*
G37*
%TO.C,D3*%
X5300000Y87235000D02*
X3015000Y87235000D01*
X3015000Y87235000D02*
X3015000Y85765000D01*
X3015000Y85765000D02*
X5300000Y85765000D01*
%TO.C,R7*%
X9237258Y85977500D02*
X8762742Y85977500D01*
X9237258Y87022500D02*
X8762742Y87022500D01*
%TO.C,C9*%
X53740000Y67695563D02*
X53740000Y66010000D01*
X54804437Y68760000D02*
X62260000Y68760000D01*
X52500000Y67010000D02*
X53500000Y67010000D01*
X62260000Y60240000D02*
X62260000Y62990000D01*
X53740000Y67695563D02*
X54804437Y68760000D01*
X62260000Y68760000D02*
X62260000Y66010000D01*
X53000000Y67510000D02*
X53000000Y66510000D01*
X53740000Y61304437D02*
X54804437Y60240000D01*
X54804437Y60240000D02*
X62260000Y60240000D01*
X53740000Y61304437D02*
X53740000Y62990000D01*
%TO.C,C8*%
X53740000Y50695563D02*
X53740000Y49010000D01*
X54804437Y51760000D02*
X62260000Y51760000D01*
X52500000Y50010000D02*
X53500000Y50010000D01*
X62260000Y43240000D02*
X62260000Y45990000D01*
X53740000Y50695563D02*
X54804437Y51760000D01*
X62260000Y51760000D02*
X62260000Y49010000D01*
X53000000Y50510000D02*
X53000000Y49510000D01*
X53740000Y44304437D02*
X54804437Y43240000D01*
X54804437Y43240000D02*
X62260000Y43240000D01*
X53740000Y44304437D02*
X53740000Y45990000D01*
%TO.C,C1*%
X15859420Y66510000D02*
X16140580Y66510000D01*
X15859420Y65490000D02*
X16140580Y65490000D01*
%TO.C,C3*%
X11011252Y56765000D02*
X10488748Y56765000D01*
X11011252Y58235000D02*
X10488748Y58235000D01*
%TO.C,C2*%
X11011252Y54765000D02*
X10488748Y54765000D01*
X11011252Y56235000D02*
X10488748Y56235000D01*
%TO.C,C7*%
X4711252Y79910000D02*
X3288748Y79910000D01*
X4711252Y78090000D02*
X3288748Y78090000D01*
%TO.C,C6*%
X4711252Y76910000D02*
X3288748Y76910000D01*
X4711252Y75090000D02*
X3288748Y75090000D01*
%TO.C,C5*%
X4711252Y73910000D02*
X3288748Y73910000D01*
X4711252Y72090000D02*
X3288748Y72090000D01*
%TO.C,C4*%
X7260000Y70522500D02*
X2740000Y70522500D01*
X2740000Y70522500D02*
X2740000Y62462500D01*
X7260000Y62462500D02*
X7260000Y70522500D01*
%TO.C,J1*%
X14800000Y5500000D02*
X14800000Y3400000D01*
X100000Y3400000D02*
X100000Y12600000D01*
X15100000Y12900000D02*
X13500000Y12900000D01*
X15100000Y11200000D02*
X15100000Y12900000D01*
X14800000Y12600000D02*
X14800000Y10500000D01*
X14800000Y3400000D02*
X13000000Y3400000D01*
X8600000Y3400000D02*
X100000Y3400000D01*
X100000Y12600000D02*
X14800000Y12600000D01*
%TO.C,J6*%
X35495000Y71245000D02*
X32895000Y71245000D01*
X40635000Y68645000D02*
X40635000Y73845000D01*
X32895000Y73845000D02*
X40635000Y73845000D01*
X32895000Y68645000D02*
X32895000Y69975000D01*
X35495000Y68645000D02*
X40635000Y68645000D01*
X35495000Y68645000D02*
X35495000Y71245000D01*
X34225000Y68645000D02*
X32895000Y68645000D01*
X32895000Y71245000D02*
X32895000Y73845000D01*
%TO.C,J4*%
X32895000Y51995000D02*
X32895000Y54595000D01*
X34225000Y49395000D02*
X32895000Y49395000D01*
X35495000Y49395000D02*
X35495000Y51995000D01*
X35495000Y49395000D02*
X40635000Y49395000D01*
X32895000Y49395000D02*
X32895000Y50725000D01*
X32895000Y54595000D02*
X40635000Y54595000D01*
X40635000Y49395000D02*
X40635000Y54595000D01*
X35495000Y51995000D02*
X32895000Y51995000D01*
%TO.C,D2*%
X21990000Y82650000D02*
X27500000Y82650000D01*
X21990000Y82650000D02*
X21990000Y79350000D01*
X21990000Y79350000D02*
X27500000Y79350000D01*
%TO.C,D1*%
X14350000Y57490000D02*
X14350000Y63000000D01*
X14350000Y57490000D02*
X17650000Y57490000D01*
X17650000Y57490000D02*
X17650000Y63000000D01*
D12*
%TO.C,U4*%
X52160000Y78870000D02*
X52160000Y63630000D01*
X31840000Y78870000D02*
X52160000Y78870000D01*
X52160000Y63630000D02*
X31840000Y63630000D01*
X31840000Y63630000D02*
X31840000Y78870000D01*
D13*
X51100000Y79850000D02*
G75*
G03*
X51100000Y79850000I-100000J0D01*
G01*
%TO.C,U2*%
X51100000Y60600000D02*
G75*
G03*
X51100000Y60600000I-100000J0D01*
G01*
D12*
X31840000Y44380000D02*
X31840000Y59620000D01*
X52160000Y44380000D02*
X31840000Y44380000D01*
X31840000Y59620000D02*
X52160000Y59620000D01*
X52160000Y59620000D02*
X52160000Y44380000D01*
D13*
%TO.C,U3*%
X56074000Y42986000D02*
G75*
G03*
X56074000Y42986000I-100000J0D01*
G01*
D12*
X727000Y14030000D02*
X727000Y41970000D01*
X57877000Y14030000D02*
X727000Y14030000D01*
D14*
X64100000Y18983000D02*
X57877000Y18983000D01*
X64100000Y37017000D02*
X64100000Y18983000D01*
X64100000Y37017000D02*
X57877000Y37017000D01*
D12*
X727000Y41970000D02*
X57877000Y41970000D01*
X57877000Y41970000D02*
X57877000Y14030000D01*
D11*
%TO.C,L1*%
X7900000Y67850000D02*
X20200000Y67850000D01*
X7900000Y67850000D02*
X7900000Y71079000D01*
X20200000Y67850000D02*
X20200000Y71079000D01*
X20200000Y76921000D02*
X20200000Y80150000D01*
X7900000Y80150000D02*
X7900000Y76921000D01*
X20200000Y80150000D02*
X7900000Y80150000D01*
D10*
%TO.C,U1*%
X8425000Y65075000D02*
X8570000Y65075000D01*
X8425000Y65075000D02*
X8425000Y60925000D01*
X13525000Y65075000D02*
X13525000Y66475000D01*
X13575000Y65075000D02*
X13575000Y60925000D01*
X13575000Y65075000D02*
X13525000Y65075000D01*
X13575000Y60925000D02*
X13430000Y60925000D01*
X8425000Y60925000D02*
X8570000Y60925000D01*
D11*
%TO.C,Q1*%
X19890000Y4550000D02*
X26310000Y4550000D01*
X26310000Y4550000D02*
X26310000Y4820000D01*
X26310000Y4820000D02*
X29140000Y4820000D01*
X19890000Y11450000D02*
X26310000Y11450000D01*
X26310000Y11450000D02*
X26310000Y11180000D01*
X26310000Y11180000D02*
X27410000Y11180000D01*
%TO.C,R6*%
X48262742Y79727500D02*
X48737258Y79727500D01*
X48262742Y80772500D02*
X48737258Y80772500D01*
%TO.C,R5*%
X25977500Y74762742D02*
X25977500Y75237258D01*
X27022500Y74762742D02*
X27022500Y75237258D01*
%TO.C,R4*%
X24522500Y75237258D02*
X24522500Y74762742D01*
X23477500Y75237258D02*
X23477500Y74762742D01*
%TO.C,R3*%
X48262742Y61522500D02*
X48737258Y61522500D01*
X48262742Y60477500D02*
X48737258Y60477500D01*
%TO.C,R2*%
X2737258Y80977500D02*
X2262742Y80977500D01*
X2737258Y82022500D02*
X2262742Y82022500D01*
%TO.C,R1*%
X5737258Y80977500D02*
X5262742Y80977500D01*
X5737258Y82022500D02*
X5262742Y82022500D01*
%TO.C,J2*%
X24680000Y87000000D02*
G75*
G03*
X24680000Y87000000I-1680000J0D01*
G01*
X28180000Y87000000D02*
G75*
G03*
X28180000Y87000000I-1680000J0D01*
G01*
X30866000Y88440000D02*
G75*
G03*
X29971326Y88680098I-866003J-1440014D01*
G01*
X31440000Y86134000D02*
G75*
G03*
X31425358Y87889894I-1439998J866000D01*
G01*
X28575001Y87890999D02*
G75*
G03*
X28574497Y86109808I1425002J-890999D01*
G01*
X30000000Y88679999D02*
G75*
G03*
X29109736Y88424720I-3J-1679989D01*
G01*
X29134000Y85560000D02*
G75*
G03*
X30889894Y85574642I866000J1439998D01*
G01*
X21930000Y85725000D02*
X22024000Y85819000D01*
X31810000Y91100000D02*
X21190000Y91100000D01*
X27475000Y88181000D02*
X27569000Y88274000D01*
X23975000Y88181000D02*
X24069000Y88274000D01*
X24145000Y87941000D02*
X24274000Y88069000D01*
X25225000Y85931000D02*
X25354000Y86059000D01*
X32050000Y91160000D02*
X32050000Y91800000D01*
X21725000Y85931000D02*
X21854000Y86059000D01*
X31810000Y83840000D02*
X31810000Y91560000D01*
X31810000Y83840000D02*
X21190000Y83840000D01*
X21190000Y83840000D02*
X21190000Y91560000D01*
X32050000Y91800000D02*
X31650000Y91800000D01*
X27645000Y87941000D02*
X27774000Y88069000D01*
X31810000Y90000000D02*
X21190000Y90000000D01*
X25430000Y85725000D02*
X25524000Y85819000D01*
X31810000Y91560000D02*
X21190000Y91560000D01*
%TD*%
M02*
