M48
; DRILL file {KiCad 7.0.1} date Mon Apr 15 22:24:02 2024
; FORMAT={-:-/ absolute / metric / decimal}
; #@! TF.CreationDate,2024-04-15T22:24:02+03:00
; #@! TF.GenerationSoftware,Kicad,Pcbnew,7.0.1
; #@! TF.FileFunction,Plated,1,2,PTH
FMAT,2
METRIC
; #@! TA.AperFunction,Plated,PTH,ViaDrill
T1C0.250
; #@! TA.AperFunction,Plated,PTH,ComponentDrill
T2C0.300
; #@! TA.AperFunction,Plated,PTH,ComponentDrill
T3C0.800
; #@! TA.AperFunction,Plated,PTH,ComponentDrill
T4C0.950
; #@! TA.AperFunction,Plated,PTH,ComponentDrill
T5C1.000
; #@! TA.AperFunction,Plated,PTH,ComponentDrill
T6C1.020
; #@! TA.AperFunction,Plated,PTH,ComponentDrill
T7C1.100
; #@! TA.AperFunction,Plated,PTH,ComponentDrill
T8C1.200
%
G90
G05
T1
X1.25Y82.75
X1.25Y80.5
X1.25Y79.0
X1.25Y77.5
X1.25Y76.0
X1.25Y74.5
X1.25Y73.0
X1.25Y71.75
X1.25Y70.25
X1.5Y69.5
X1.5Y56.75
X1.5Y53.75
X1.5Y48.5
X1.5Y46.0
X1.5Y43.0
X2.25Y71.5
X2.75Y29.75
X2.75Y24.25
X2.75Y18.25
X3.0Y37.5
X3.0Y3.25
X3.25Y66.5
X3.25Y65.75
X3.25Y59.5
X3.5Y84.75
X3.75Y61.25
X4.0Y88.25
X4.25Y55.0
X4.5Y64.75
X4.5Y52.5
X4.75Y45.75
X4.75Y33.5
X5.0Y61.25
X5.0Y57.5
X5.25Y7.5
X5.5Y64.75
X5.5Y10.75
X5.75Y44.0
X5.75Y20.25
X6.25Y61.25
X6.25Y53.25
X6.25Y4.75
X6.5Y55.75
X7.0Y27.0
X7.1Y80.0
X7.1Y79.3
X7.1Y78.45
X7.25Y89.5
X7.25Y58.75
X8.5Y58.5
X8.5Y57.5
X8.5Y56.5
X8.5Y55.5
X8.5Y54.5
X9.75Y67.5
X10.0Y59.0
X10.0Y11.25
X10.25Y18.0
X11.0Y8.0
X11.25Y85.75
X11.75Y89.5
X11.75Y22.75
X12.25Y82.0
X12.25Y67.25
X14.25Y1.25
X15.0Y18.75
X15.5Y90.25
X15.5Y67.5
X16.25Y85.5
X16.75Y83.0
X16.75Y55.5
X16.75Y44.5
X17.25Y2.75
X17.5Y67.5
X18.75Y87.0
X18.75Y52.75
X19.0Y56.5
X19.0Y47.75
X19.0Y38.25
X19.5Y1.75
X19.75Y81.75
X20.5Y51.5
X20.5Y34.0
X20.75Y56.0
X21.5Y83.5
X21.75Y62.25
X22.5Y78.5
X22.5Y20.5
X22.5Y17.75
X22.75Y2.25
X23.0Y64.0
X23.5Y73.0
X23.5Y68.75
X23.75Y32.25
X24.25Y66.5
X24.5Y70.75
X24.75Y37.75
X25.25Y73.0
X25.75Y68.75
X26.5Y77.5
X27.0Y4.0
X27.5Y31.0
X27.5Y1.75
X27.75Y7.25
X28.25Y83.25
X28.25Y35.75
X28.25Y4.0
X28.5Y79.25
X29.75Y81.5
X30.0Y4.0
X30.25Y7.25
X30.25Y5.75
X31.75Y32.5
X32.5Y67.0
X33.0Y47.75
X33.0Y5.75
X33.0Y2.75
X34.5Y37.5
X35.0Y75.25
X35.0Y67.25
X35.25Y80.25
X35.5Y48.25
X35.75Y83.75
X36.25Y8.5
X37.0Y60.25
X37.0Y18.0
X37.25Y35.0
X37.25Y11.0
X37.25Y6.25
X37.5Y80.25
X37.5Y67.25
X37.5Y23.75
X37.75Y49.0
X38.25Y89.75
X39.0Y27.5
X39.5Y9.5
X39.75Y12.75
X41.25Y89.5
X41.5Y38.0
X41.5Y19.25
X41.75Y61.5
X42.0Y8.25
X42.75Y36.25
X43.5Y85.0
X43.5Y31.0
X44.0Y27.75
X44.0Y13.0
X44.5Y85.0
X45.0Y88.25
X45.0Y23.5
X45.0Y11.0
X45.25Y18.0
X45.5Y83.25
X45.75Y85.0
X46.25Y38.0
X47.0Y85.0
X48.0Y75.0
X48.0Y36.25
X48.75Y19.0
X49.0Y86.75
X49.0Y48.5
X49.0Y25.25
X49.25Y56.25
X49.5Y29.75
X49.75Y12.75
X50.75Y75.25
X52.0Y36.75
X52.5Y25.0
X54.5Y38.5
X54.5Y18.0
X55.0Y12.75
X55.25Y32.0
X55.75Y25.25
X55.75Y19.75
X58.25Y65.5
X58.5Y48.75
X58.5Y12.25
X59.25Y86.5
X59.25Y62.0
X59.5Y76.75
X59.5Y67.25
X59.75Y45.5
X60.0Y50.0
X60.25Y6.25
X60.5Y81.0
X61.5Y88.75
X61.5Y62.0
X62.0Y45.5
X62.25Y67.25
X62.5Y50.25
X62.75Y2.5
X63.5Y12.25
X63.75Y83.0
X63.75Y62.75
X64.0Y66.0
X64.0Y48.75
X64.0Y46.25
X64.0Y41.0
X65.5Y90.25
X66.75Y17.75
X68.0Y44.0
X68.25Y48.5
X68.25Y37.75
X69.0Y30.5
X69.25Y11.25
X69.5Y1.5
X70.25Y15.25
X71.25Y41.0
X71.5Y23.0
X71.75Y89.75
X72.75Y85.0
X73.5Y26.75
X73.75Y10.0
X73.75Y4.25
X74.0Y32.75
T2
X9.2Y63.6
X9.2Y62.4
X10.3Y63.6
X10.3Y62.4
X11.6Y63.6
X11.6Y62.4
X12.8Y63.6
X12.8Y62.4
T4
X68.825Y77.75
X68.825Y75.25
X68.825Y72.75
X68.825Y70.25
X68.825Y61.75
X68.825Y59.25
X68.825Y56.75
X68.825Y54.25
T5
X34.225Y72.515
X34.225Y69.975
X34.225Y53.265
X34.225Y50.725
X36.765Y72.515
X36.765Y69.975
X36.765Y53.265
X36.765Y50.725
X39.305Y72.515
X39.305Y69.975
X39.305Y53.265
X39.305Y50.725
T6
X2.632Y40.7
X2.632Y15.3
X5.172Y40.7
X5.172Y15.3
X7.712Y40.7
X7.712Y15.3
X10.252Y40.7
X10.252Y15.3
X12.792Y40.7
X12.792Y15.3
X15.332Y40.7
X15.332Y15.3
X17.872Y40.7
X17.872Y15.3
X20.412Y40.7
X20.412Y15.3
X22.952Y40.7
X22.952Y15.3
X25.492Y40.7
X25.492Y15.3
X28.032Y40.7
X28.032Y15.3
X30.572Y40.7
X30.572Y15.3
X33.112Y40.7
X33.112Y15.3
X35.652Y40.7
X35.652Y15.3
X38.192Y40.7
X38.192Y15.3
X40.732Y40.7
X40.732Y15.3
X43.272Y40.7
X43.272Y15.3
X45.812Y40.7
X45.812Y15.3
X48.352Y40.7
X48.352Y15.3
X50.892Y40.7
X50.892Y15.3
X53.432Y40.7
X53.432Y15.3
X55.972Y40.7
X55.972Y15.3
T7
X33.11Y77.6
X33.11Y64.9
X33.11Y58.35
X33.11Y45.65
X35.65Y77.6
X35.65Y64.9
X35.65Y58.35
X35.65Y45.65
X38.19Y77.6
X38.19Y64.9
X38.19Y58.35
X38.19Y45.65
X40.73Y77.6
X40.73Y64.9
X40.73Y58.35
X40.73Y45.65
X43.27Y77.6
X43.27Y64.9
X43.27Y58.35
X43.27Y45.65
X45.81Y77.6
X45.81Y64.9
X45.81Y58.35
X45.81Y45.65
X48.35Y77.6
X48.35Y64.9
X48.35Y58.35
X48.35Y45.65
X50.89Y77.6
X50.89Y64.9
X50.89Y58.35
X50.89Y45.65
T8
X23.0Y87.0
X26.5Y87.0
X30.0Y87.0
T3
G00X8.0Y9.1
M15
G01X8.0Y6.9
M16
G05
G00X9.7Y3.2
M15
G01X11.9Y3.2
M16
G05
G00X13.8Y9.3
M15
G01X13.8Y6.7
M16
G05
T0
M30
