%TF.GenerationSoftware,KiCad,Pcbnew,7.0.1*%
%TF.CreationDate,2024-04-15T22:24:00+03:00*%
%TF.ProjectId,ESP32 STEPPER CONTROL PCB,45535033-3220-4535-9445-505045522043,rev?*%
%TF.SameCoordinates,PX68e7780PY7bfa480*%
%TF.FileFunction,Drillmap*%
%TF.FilePolarity,Positive*%
%FSLAX45Y45*%
G04 Gerber Fmt 4.5, Leading zero omitted, Abs format (unit mm)*
G04 Created by KiCad (PCBNEW 7.0.1) date 2024-04-15 22:24:00*
%MOMM*%
%LPD*%
G01*
G04 APERTURE LIST*
%ADD10C,0.008000*%
%ADD11C,0.200000*%
%ADD12C,0.120000*%
%ADD13C,0.320000*%
G04 APERTURE END LIST*
D10*
X7581119Y3172756D02*
X7581889Y3117763D01*
X7578821Y3227368D02*
X7581119Y3172756D01*
X7575016Y3281577D02*
X7578821Y3227368D01*
X7569726Y3335363D02*
X7575016Y3281577D01*
X7562969Y3388706D02*
X7569726Y3335363D01*
X7554767Y3441585D02*
X7562969Y3388706D01*
X7545141Y3493979D02*
X7554767Y3441585D01*
X7534111Y3545868D02*
X7545141Y3493979D01*
X7521697Y3597232D02*
X7534111Y3545868D01*
X7507919Y3648049D02*
X7521697Y3597232D01*
X7492800Y3698300D02*
X7507919Y3648049D01*
X7476358Y3747963D02*
X7492800Y3698300D01*
X7458615Y3797019D02*
X7476358Y3747963D01*
X7439590Y3845446D02*
X7458615Y3797019D01*
X7419306Y3893225D02*
X7439590Y3845446D01*
X7397781Y3940334D02*
X7419306Y3893225D01*
X7375037Y3986753D02*
X7397781Y3940334D01*
X7351094Y4032462D02*
X7375037Y3986753D01*
X7325973Y4077439D02*
X7351094Y4032462D01*
X7299694Y4121665D02*
X7325973Y4077439D01*
X7272277Y4165120D02*
X7299694Y4121665D01*
X7243744Y4207781D02*
X7272277Y4165120D01*
X7214115Y4249629D02*
X7243744Y4207781D01*
X7183410Y4290644D02*
X7214115Y4249629D01*
X7151649Y4330804D02*
X7183410Y4290644D01*
X7118854Y4370090D02*
X7151649Y4330804D01*
X7085045Y4408480D02*
X7118854Y4370090D01*
X7050242Y4445955D02*
X7085045Y4408480D01*
X7014466Y4482493D02*
X7050242Y4445955D01*
X6977738Y4518074D02*
X7014466Y4482493D01*
X6940077Y4552677D02*
X6977738Y4518074D01*
X6901505Y4586283D02*
X6940077Y4552677D01*
X6968536Y4653560D02*
X6901505Y4586283D01*
X7032198Y4724064D02*
X6968536Y4653560D01*
X7092360Y4797664D02*
X7032198Y4724064D01*
X7148889Y4874228D02*
X7092360Y4797664D01*
X7201653Y4953624D02*
X7148889Y4874228D01*
X7250521Y5035719D02*
X7201653Y4953624D01*
X7295361Y5120382D02*
X7250521Y5035719D01*
X7316229Y5163635D02*
X7295361Y5120382D01*
X7336040Y5207481D02*
X7316229Y5163635D01*
X7354779Y5251902D02*
X7336040Y5207481D01*
X7372428Y5296884D02*
X7354779Y5251902D01*
X7388971Y5342408D02*
X7372428Y5296884D01*
X7404392Y5388458D02*
X7388971Y5342408D01*
X7418673Y5435018D02*
X7404392Y5388458D01*
X7431800Y5482072D02*
X7418673Y5435018D01*
X7443754Y5529603D02*
X7431800Y5482072D01*
X7454520Y5577595D02*
X7443754Y5529603D01*
X7464081Y5626030D02*
X7454520Y5577595D01*
X7472421Y5674893D02*
X7464081Y5626030D01*
X7479523Y5724166D02*
X7472421Y5674893D01*
X7485371Y5773835D02*
X7479523Y5724166D01*
X7489948Y5823881D02*
X7485371Y5773835D01*
X7493238Y5874289D02*
X7489948Y5823881D01*
X7495224Y5925042D02*
X7493238Y5874289D01*
X7495889Y5976123D02*
X7495224Y5925042D01*
X7495889Y9179467D02*
X7495889Y5976123D01*
X5781705Y9179467D02*
X7495889Y9179467D01*
X5781705Y7648283D02*
X5781705Y9179467D01*
X5780633Y7627035D02*
X5781705Y7648283D01*
X5777485Y7606404D02*
X5780633Y7627035D01*
X5772367Y7586494D02*
X5777485Y7606404D01*
X5765383Y7567410D02*
X5772367Y7586494D01*
X5756638Y7549254D02*
X5765383Y7567410D01*
X5746237Y7532132D02*
X5756638Y7549254D01*
X5734285Y7516147D02*
X5746237Y7532132D01*
X5720885Y7501403D02*
X5734285Y7516147D01*
X5706144Y7488004D02*
X5720885Y7501403D01*
X5690165Y7476054D02*
X5706144Y7488004D01*
X5673053Y7465658D02*
X5690165Y7476054D01*
X5654913Y7456918D02*
X5673053Y7465658D01*
X5635850Y7449940D02*
X5654913Y7456918D01*
X5615969Y7444826D02*
X5635850Y7449940D01*
X5595374Y7441682D02*
X5615969Y7444826D01*
X5574169Y7440611D02*
X5595374Y7441682D01*
X5552963Y7441682D02*
X5574169Y7440611D01*
X5532367Y7444826D02*
X5552963Y7441682D01*
X5512484Y7449940D02*
X5532367Y7444826D01*
X5493421Y7456918D02*
X5512484Y7449940D01*
X5475280Y7465658D02*
X5493421Y7456918D01*
X5458168Y7476054D02*
X5475280Y7465658D01*
X5442188Y7488004D02*
X5458168Y7476054D01*
X5427446Y7501403D02*
X5442188Y7488004D01*
X5414046Y7516147D02*
X5427446Y7501403D01*
X5402094Y7532132D02*
X5414046Y7516147D01*
X5391692Y7549254D02*
X5402094Y7532132D01*
X5382947Y7567410D02*
X5391692Y7549254D01*
X5375964Y7586494D02*
X5382947Y7567410D01*
X5370845Y7606404D02*
X5375964Y7586494D01*
X5367698Y7627035D02*
X5370845Y7606404D01*
X5366625Y7648283D02*
X5367698Y7627035D01*
X5366625Y7835627D02*
X5366625Y7648283D01*
X5364788Y7908290D02*
X5366625Y7835627D01*
X5359336Y7980001D02*
X5364788Y7908290D01*
X5350357Y8050670D02*
X5359336Y7980001D01*
X5337940Y8120208D02*
X5350357Y8050670D01*
X5322175Y8188528D02*
X5337940Y8120208D01*
X5303148Y8255540D02*
X5322175Y8188528D01*
X5280950Y8321155D02*
X5303148Y8255540D01*
X5255669Y8385284D02*
X5280950Y8321155D01*
X5227393Y8447840D02*
X5255669Y8385284D01*
X5196212Y8508732D02*
X5227393Y8447840D01*
X5162213Y8567872D02*
X5196212Y8508732D01*
X5125486Y8625172D02*
X5162213Y8567872D01*
X5086119Y8680542D02*
X5125486Y8625172D01*
X5044201Y8733893D02*
X5086119Y8680542D01*
X4999821Y8785138D02*
X5044201Y8733893D01*
X4953066Y8834187D02*
X4999821Y8785138D01*
X4904027Y8880951D02*
X4953066Y8834187D01*
X4852791Y8925342D02*
X4904027Y8880951D01*
X4799447Y8967270D02*
X4852791Y8925342D01*
X4744084Y9006647D02*
X4799447Y8967270D01*
X4686791Y9043385D02*
X4744084Y9006647D01*
X4627656Y9077393D02*
X4686791Y9043385D01*
X4566768Y9108584D02*
X4627656Y9077393D01*
X4504215Y9136869D02*
X4566768Y9108584D01*
X4440086Y9162159D02*
X4504215Y9136869D01*
X4374471Y9184365D02*
X4440086Y9162159D01*
X4307457Y9203398D02*
X4374471Y9184365D01*
X4239133Y9219170D02*
X4307457Y9203398D01*
X4169588Y9231592D02*
X4239133Y9219170D01*
X4098911Y9240574D02*
X4169588Y9231592D01*
X4027189Y9246029D02*
X4098911Y9240574D01*
X3954513Y9247867D02*
X4027189Y9246029D01*
X3897824Y9246749D02*
X3954513Y9247867D01*
X3841701Y9243423D02*
X3897824Y9246749D01*
X3786186Y9237932D02*
X3841701Y9243423D01*
X3731322Y9230317D02*
X3786186Y9237932D01*
X3677152Y9220621D02*
X3731322Y9230317D01*
X3623717Y9208886D02*
X3677152Y9220621D01*
X3571061Y9195154D02*
X3623717Y9208886D01*
X3519225Y9179467D02*
X3571061Y9195154D01*
X1810153Y9179467D02*
X3519225Y9179467D01*
X1722217Y9179467D02*
X1810153Y9179467D01*
X8038Y9179467D02*
X1722217Y9179467D01*
X8038Y5815723D02*
X8038Y9179467D01*
X8784Y5764003D02*
X8038Y5815723D01*
X11009Y5712653D02*
X8784Y5764003D01*
X14691Y5661695D02*
X11009Y5712653D01*
X19812Y5611147D02*
X14691Y5661695D01*
X26349Y5561032D02*
X19812Y5611147D01*
X34283Y5511369D02*
X26349Y5561032D01*
X43593Y5462179D02*
X34283Y5511369D01*
X54259Y5413482D02*
X43593Y5462179D01*
X66260Y5365298D02*
X54259Y5413482D01*
X79576Y5317649D02*
X66260Y5365298D01*
X94186Y5270554D02*
X79576Y5317649D01*
X110071Y5224035D02*
X94186Y5270554D01*
X127208Y5178110D02*
X110071Y5224035D01*
X145579Y5132802D02*
X127208Y5178110D01*
X165162Y5088130D02*
X145579Y5132802D01*
X185937Y5044115D02*
X165162Y5088130D01*
X0Y5044115D02*
X185937Y5044115D01*
X0Y3329851D02*
X0Y5044115D01*
X0Y1714243D02*
X0Y3329851D01*
X0Y0D02*
X0Y1714243D01*
X2597313Y0D02*
X0Y0D01*
X2681831Y1390D02*
X2597313Y0D01*
X2765652Y5530D02*
X2681831Y1390D01*
X2848734Y12378D02*
X2765652Y5530D01*
X2931033Y21889D02*
X2848734Y12378D01*
X3012505Y34020D02*
X2931033Y21889D01*
X3093107Y48728D02*
X3012505Y34020D01*
X3172795Y65969D02*
X3093107Y48728D01*
X3251527Y85700D02*
X3172795Y65969D01*
X3329258Y107877D02*
X3251527Y85700D01*
X3405945Y132456D02*
X3329258Y107877D01*
X3481544Y159395D02*
X3405945Y132456D01*
X3556013Y188649D02*
X3481544Y159395D01*
X3629307Y220176D02*
X3556013Y188649D01*
X3701383Y253931D02*
X3629307Y220176D01*
X3772197Y289871D02*
X3701383Y253931D01*
X3841707Y327953D02*
X3772197Y289871D01*
X3909869Y368133D02*
X3841707Y327953D01*
X3976638Y410368D02*
X3909869Y368133D01*
X4041973Y454613D02*
X3976638Y410368D01*
X4105828Y500827D02*
X4041973Y454613D01*
X4168161Y548965D02*
X4105828Y500827D01*
X4228929Y598983D02*
X4168161Y548965D01*
X4288087Y650839D02*
X4228929Y598983D01*
X4345592Y704488D02*
X4288087Y650839D01*
X4401402Y759887D02*
X4345592Y704488D01*
X4455471Y816994D02*
X4401402Y759887D01*
X4507758Y875763D02*
X4455471Y816994D01*
X4558218Y936152D02*
X4507758Y875763D01*
X4606808Y998117D02*
X4558218Y936152D01*
X4653484Y1061615D02*
X4606808Y998117D01*
X4698203Y1126602D02*
X4653484Y1061615D01*
X4740921Y1193035D02*
X4698203Y1126602D01*
X4782601Y1193035D02*
X4740921Y1193035D01*
X4782601Y1189795D02*
X4782601Y1193035D01*
X5398545Y1189795D02*
X4782601Y1189795D01*
X5422597Y1189187D02*
X5398545Y1189795D01*
X5446334Y1187381D02*
X5422597Y1189187D01*
X5492746Y1180296D02*
X5446334Y1187381D01*
X5537546Y1168775D02*
X5492746Y1180296D01*
X5580498Y1153052D02*
X5537546Y1168775D01*
X5621367Y1133362D02*
X5580498Y1153052D01*
X5659917Y1109939D02*
X5621367Y1133362D01*
X5695913Y1083019D02*
X5659917Y1109939D01*
X5729119Y1052836D02*
X5695913Y1083019D01*
X5759301Y1019624D02*
X5729119Y1052836D01*
X5786222Y983618D02*
X5759301Y1019624D01*
X5809647Y945054D02*
X5786222Y983618D01*
X5829341Y904164D02*
X5809647Y945054D01*
X5845069Y861186D02*
X5829341Y904164D01*
X5856594Y816352D02*
X5845069Y861186D01*
X5863682Y769897D02*
X5856594Y816352D01*
X5865489Y746136D02*
X5863682Y769897D01*
X5866097Y722057D02*
X5865489Y746136D01*
X5866097Y-2413D02*
X5866097Y722057D01*
X7580273Y-2413D02*
X5866097Y-2413D01*
X7580273Y722057D02*
X7580273Y-2413D01*
X7578613Y807902D02*
X7580273Y722057D01*
X7573674Y892905D02*
X7578613Y807902D01*
X7565518Y977007D02*
X7573674Y892905D01*
X7554208Y1060146D02*
X7565518Y977007D01*
X7539805Y1142259D02*
X7554208Y1060146D01*
X7522371Y1223287D02*
X7539805Y1142259D01*
X7501970Y1303167D02*
X7522371Y1223287D01*
X7478662Y1381839D02*
X7501970Y1303167D01*
X7452511Y1459240D02*
X7478662Y1381839D01*
X7423577Y1535310D02*
X7452511Y1459240D01*
X7391925Y1609987D02*
X7423577Y1535310D01*
X7357614Y1683209D02*
X7391925Y1609987D01*
X7320709Y1754916D02*
X7357614Y1683209D01*
X7281270Y1825047D02*
X7320709Y1754916D01*
X7239360Y1893538D02*
X7281270Y1825047D01*
X7195041Y1960331D02*
X7239360Y1893538D01*
X7239364Y2021597D02*
X7195041Y1960331D01*
X7281314Y2084648D02*
X7239364Y2021597D01*
X7320825Y2149416D02*
X7281314Y2084648D01*
X7357830Y2215837D02*
X7320825Y2149416D01*
X7392260Y2283844D02*
X7357830Y2215837D01*
X7424050Y2353371D02*
X7392260Y2283844D01*
X7453131Y2424353D02*
X7424050Y2353371D01*
X7479437Y2496723D02*
X7453131Y2424353D01*
X7502900Y2570416D02*
X7479437Y2496723D01*
X7523453Y2645365D02*
X7502900Y2570416D01*
X7541028Y2721506D02*
X7523453Y2645365D01*
X7555559Y2798771D02*
X7541028Y2721506D01*
X7566977Y2877095D02*
X7555559Y2798771D01*
X7575217Y2956412D02*
X7566977Y2877095D01*
X7580210Y3036657D02*
X7575217Y2956412D01*
X7581889Y3117763D02*
X7580210Y3036657D01*
D11*
D12*
X6622500Y7995000D02*
X6742500Y7875000D01*
X6742500Y7995000D02*
X6622500Y7875000D01*
X6622500Y6395000D02*
X6742500Y6275000D01*
X6742500Y6395000D02*
X6622500Y6275000D01*
D13*
X860000Y4900000D02*
G75*
G03*
X860000Y4900000I-160000J0D01*
G01*
X6860000Y8600000D02*
G75*
G03*
X6860000Y8600000I-160000J0D01*
G01*
X6860000Y600000D02*
G75*
G03*
X6860000Y600000I-160000J0D01*
G01*
D11*
X247219Y-315337D02*
X247219Y-115337D01*
X247219Y-115337D02*
X294838Y-115337D01*
X294838Y-115337D02*
X323410Y-124861D01*
X323410Y-124861D02*
X342457Y-143908D01*
X342457Y-143908D02*
X351981Y-162956D01*
X351981Y-162956D02*
X361505Y-201051D01*
X361505Y-201051D02*
X361505Y-229622D01*
X361505Y-229622D02*
X351981Y-267718D01*
X351981Y-267718D02*
X342457Y-286765D01*
X342457Y-286765D02*
X323410Y-305813D01*
X323410Y-305813D02*
X294838Y-315337D01*
X294838Y-315337D02*
X247219Y-315337D01*
X447219Y-315337D02*
X447219Y-182003D01*
X447219Y-220099D02*
X456743Y-201051D01*
X456743Y-201051D02*
X466267Y-191527D01*
X466267Y-191527D02*
X485314Y-182003D01*
X485314Y-182003D02*
X504362Y-182003D01*
X571029Y-315337D02*
X571029Y-182003D01*
X571029Y-115337D02*
X561505Y-124861D01*
X561505Y-124861D02*
X571029Y-134384D01*
X571029Y-134384D02*
X580552Y-124861D01*
X580552Y-124861D02*
X571029Y-115337D01*
X571029Y-115337D02*
X571029Y-134384D01*
X694838Y-315337D02*
X675790Y-305813D01*
X675790Y-305813D02*
X666267Y-286765D01*
X666267Y-286765D02*
X666267Y-115337D01*
X799600Y-315337D02*
X780552Y-305813D01*
X780552Y-305813D02*
X771028Y-286765D01*
X771028Y-286765D02*
X771028Y-115337D01*
X1028171Y-315337D02*
X1028171Y-115337D01*
X1028171Y-115337D02*
X1094838Y-258194D01*
X1094838Y-258194D02*
X1161505Y-115337D01*
X1161505Y-115337D02*
X1161505Y-315337D01*
X1342457Y-315337D02*
X1342457Y-210575D01*
X1342457Y-210575D02*
X1332933Y-191527D01*
X1332933Y-191527D02*
X1313886Y-182003D01*
X1313886Y-182003D02*
X1275790Y-182003D01*
X1275790Y-182003D02*
X1256743Y-191527D01*
X1342457Y-305813D02*
X1323410Y-315337D01*
X1323410Y-315337D02*
X1275790Y-315337D01*
X1275790Y-315337D02*
X1256743Y-305813D01*
X1256743Y-305813D02*
X1247219Y-286765D01*
X1247219Y-286765D02*
X1247219Y-267718D01*
X1247219Y-267718D02*
X1256743Y-248670D01*
X1256743Y-248670D02*
X1275790Y-239146D01*
X1275790Y-239146D02*
X1323410Y-239146D01*
X1323410Y-239146D02*
X1342457Y-229622D01*
X1437695Y-182003D02*
X1437695Y-382003D01*
X1437695Y-191527D02*
X1456743Y-182003D01*
X1456743Y-182003D02*
X1494838Y-182003D01*
X1494838Y-182003D02*
X1513886Y-191527D01*
X1513886Y-191527D02*
X1523409Y-201051D01*
X1523409Y-201051D02*
X1532933Y-220099D01*
X1532933Y-220099D02*
X1532933Y-277242D01*
X1532933Y-277242D02*
X1523409Y-296289D01*
X1523409Y-296289D02*
X1513886Y-305813D01*
X1513886Y-305813D02*
X1494838Y-315337D01*
X1494838Y-315337D02*
X1456743Y-315337D01*
X1456743Y-315337D02*
X1437695Y-305813D01*
X1618648Y-296289D02*
X1628171Y-305813D01*
X1628171Y-305813D02*
X1618648Y-315337D01*
X1618648Y-315337D02*
X1609124Y-305813D01*
X1609124Y-305813D02*
X1618648Y-296289D01*
X1618648Y-296289D02*
X1618648Y-315337D01*
X1618648Y-191527D02*
X1628171Y-201051D01*
X1628171Y-201051D02*
X1618648Y-210575D01*
X1618648Y-210575D02*
X1609124Y-201051D01*
X1609124Y-201051D02*
X1618648Y-191527D01*
X1618648Y-191527D02*
X1618648Y-210575D01*
D12*
X-120400Y-582813D02*
X-400Y-702813D01*
X-400Y-582813D02*
X-120400Y-702813D01*
D11*
X351981Y-735337D02*
X237695Y-735337D01*
X294838Y-735337D02*
X294838Y-535337D01*
X294838Y-535337D02*
X275790Y-563908D01*
X275790Y-563908D02*
X256743Y-582956D01*
X256743Y-582956D02*
X237695Y-592480D01*
X437695Y-716289D02*
X447219Y-725813D01*
X447219Y-725813D02*
X437695Y-735337D01*
X437695Y-735337D02*
X428171Y-725813D01*
X428171Y-725813D02*
X437695Y-716289D01*
X437695Y-716289D02*
X437695Y-735337D01*
X523409Y-554384D02*
X532933Y-544861D01*
X532933Y-544861D02*
X551981Y-535337D01*
X551981Y-535337D02*
X599600Y-535337D01*
X599600Y-535337D02*
X618648Y-544861D01*
X618648Y-544861D02*
X628171Y-554384D01*
X628171Y-554384D02*
X637695Y-573432D01*
X637695Y-573432D02*
X637695Y-592480D01*
X637695Y-592480D02*
X628171Y-621051D01*
X628171Y-621051D02*
X513886Y-735337D01*
X513886Y-735337D02*
X637695Y-735337D01*
X761505Y-535337D02*
X780552Y-535337D01*
X780552Y-535337D02*
X799600Y-544861D01*
X799600Y-544861D02*
X809124Y-554384D01*
X809124Y-554384D02*
X818648Y-573432D01*
X818648Y-573432D02*
X828171Y-611527D01*
X828171Y-611527D02*
X828171Y-659146D01*
X828171Y-659146D02*
X818648Y-697242D01*
X818648Y-697242D02*
X809124Y-716289D01*
X809124Y-716289D02*
X799600Y-725813D01*
X799600Y-725813D02*
X780552Y-735337D01*
X780552Y-735337D02*
X761505Y-735337D01*
X761505Y-735337D02*
X742457Y-725813D01*
X742457Y-725813D02*
X732933Y-716289D01*
X732933Y-716289D02*
X723409Y-697242D01*
X723409Y-697242D02*
X713886Y-659146D01*
X713886Y-659146D02*
X713886Y-611527D01*
X713886Y-611527D02*
X723409Y-573432D01*
X723409Y-573432D02*
X732933Y-554384D01*
X732933Y-554384D02*
X742457Y-544861D01*
X742457Y-544861D02*
X761505Y-535337D01*
X951981Y-535337D02*
X971029Y-535337D01*
X971029Y-535337D02*
X990076Y-544861D01*
X990076Y-544861D02*
X999600Y-554384D01*
X999600Y-554384D02*
X1009124Y-573432D01*
X1009124Y-573432D02*
X1018648Y-611527D01*
X1018648Y-611527D02*
X1018648Y-659146D01*
X1018648Y-659146D02*
X1009124Y-697242D01*
X1009124Y-697242D02*
X999600Y-716289D01*
X999600Y-716289D02*
X990076Y-725813D01*
X990076Y-725813D02*
X971029Y-735337D01*
X971029Y-735337D02*
X951981Y-735337D01*
X951981Y-735337D02*
X932933Y-725813D01*
X932933Y-725813D02*
X923409Y-716289D01*
X923409Y-716289D02*
X913886Y-697242D01*
X913886Y-697242D02*
X904362Y-659146D01*
X904362Y-659146D02*
X904362Y-611527D01*
X904362Y-611527D02*
X913886Y-573432D01*
X913886Y-573432D02*
X923409Y-554384D01*
X923409Y-554384D02*
X932933Y-544861D01*
X932933Y-544861D02*
X951981Y-535337D01*
X1104362Y-735337D02*
X1104362Y-602003D01*
X1104362Y-621051D02*
X1113886Y-611527D01*
X1113886Y-611527D02*
X1132933Y-602003D01*
X1132933Y-602003D02*
X1161505Y-602003D01*
X1161505Y-602003D02*
X1180552Y-611527D01*
X1180552Y-611527D02*
X1190076Y-630575D01*
X1190076Y-630575D02*
X1190076Y-735337D01*
X1190076Y-630575D02*
X1199600Y-611527D01*
X1199600Y-611527D02*
X1218648Y-602003D01*
X1218648Y-602003D02*
X1247219Y-602003D01*
X1247219Y-602003D02*
X1266267Y-611527D01*
X1266267Y-611527D02*
X1275791Y-630575D01*
X1275791Y-630575D02*
X1275791Y-735337D01*
X1371029Y-735337D02*
X1371029Y-602003D01*
X1371029Y-621051D02*
X1380552Y-611527D01*
X1380552Y-611527D02*
X1399600Y-602003D01*
X1399600Y-602003D02*
X1428171Y-602003D01*
X1428171Y-602003D02*
X1447219Y-611527D01*
X1447219Y-611527D02*
X1456743Y-630575D01*
X1456743Y-630575D02*
X1456743Y-735337D01*
X1456743Y-630575D02*
X1466267Y-611527D01*
X1466267Y-611527D02*
X1485314Y-602003D01*
X1485314Y-602003D02*
X1513886Y-602003D01*
X1513886Y-602003D02*
X1532933Y-611527D01*
X1532933Y-611527D02*
X1542457Y-630575D01*
X1542457Y-630575D02*
X1542457Y-735337D01*
X1932933Y-525813D02*
X1761505Y-782956D01*
X2190076Y-535337D02*
X2209124Y-535337D01*
X2209124Y-535337D02*
X2228172Y-544861D01*
X2228172Y-544861D02*
X2237695Y-554384D01*
X2237695Y-554384D02*
X2247219Y-573432D01*
X2247219Y-573432D02*
X2256743Y-611527D01*
X2256743Y-611527D02*
X2256743Y-659146D01*
X2256743Y-659146D02*
X2247219Y-697242D01*
X2247219Y-697242D02*
X2237695Y-716289D01*
X2237695Y-716289D02*
X2228172Y-725813D01*
X2228172Y-725813D02*
X2209124Y-735337D01*
X2209124Y-735337D02*
X2190076Y-735337D01*
X2190076Y-735337D02*
X2171029Y-725813D01*
X2171029Y-725813D02*
X2161505Y-716289D01*
X2161505Y-716289D02*
X2151981Y-697242D01*
X2151981Y-697242D02*
X2142457Y-659146D01*
X2142457Y-659146D02*
X2142457Y-611527D01*
X2142457Y-611527D02*
X2151981Y-573432D01*
X2151981Y-573432D02*
X2161505Y-554384D01*
X2161505Y-554384D02*
X2171029Y-544861D01*
X2171029Y-544861D02*
X2190076Y-535337D01*
X2342457Y-716289D02*
X2351981Y-725813D01*
X2351981Y-725813D02*
X2342457Y-735337D01*
X2342457Y-735337D02*
X2332934Y-725813D01*
X2332934Y-725813D02*
X2342457Y-716289D01*
X2342457Y-716289D02*
X2342457Y-735337D01*
X2475791Y-535337D02*
X2494838Y-535337D01*
X2494838Y-535337D02*
X2513886Y-544861D01*
X2513886Y-544861D02*
X2523410Y-554384D01*
X2523410Y-554384D02*
X2532934Y-573432D01*
X2532934Y-573432D02*
X2542457Y-611527D01*
X2542457Y-611527D02*
X2542457Y-659146D01*
X2542457Y-659146D02*
X2532934Y-697242D01*
X2532934Y-697242D02*
X2523410Y-716289D01*
X2523410Y-716289D02*
X2513886Y-725813D01*
X2513886Y-725813D02*
X2494838Y-735337D01*
X2494838Y-735337D02*
X2475791Y-735337D01*
X2475791Y-735337D02*
X2456743Y-725813D01*
X2456743Y-725813D02*
X2447219Y-716289D01*
X2447219Y-716289D02*
X2437695Y-697242D01*
X2437695Y-697242D02*
X2428172Y-659146D01*
X2428172Y-659146D02*
X2428172Y-611527D01*
X2428172Y-611527D02*
X2437695Y-573432D01*
X2437695Y-573432D02*
X2447219Y-554384D01*
X2447219Y-554384D02*
X2456743Y-544861D01*
X2456743Y-544861D02*
X2475791Y-535337D01*
X2713886Y-602003D02*
X2713886Y-735337D01*
X2666267Y-525813D02*
X2618648Y-668670D01*
X2618648Y-668670D02*
X2742457Y-668670D01*
X2799600Y-535337D02*
X2932933Y-535337D01*
X2932933Y-535337D02*
X2847219Y-735337D01*
X2999600Y-554384D02*
X3009124Y-544861D01*
X3009124Y-544861D02*
X3028172Y-535337D01*
X3028172Y-535337D02*
X3075791Y-535337D01*
X3075791Y-535337D02*
X3094838Y-544861D01*
X3094838Y-544861D02*
X3104362Y-554384D01*
X3104362Y-554384D02*
X3113886Y-573432D01*
X3113886Y-573432D02*
X3113886Y-592480D01*
X3113886Y-592480D02*
X3104362Y-621051D01*
X3104362Y-621051D02*
X2990076Y-735337D01*
X2990076Y-735337D02*
X3113886Y-735337D01*
X3190076Y-535337D02*
X3190076Y-573432D01*
X3266267Y-535337D02*
X3266267Y-573432D01*
X3561505Y-811527D02*
X3551981Y-802003D01*
X3551981Y-802003D02*
X3532934Y-773432D01*
X3532934Y-773432D02*
X3523410Y-754384D01*
X3523410Y-754384D02*
X3513886Y-725813D01*
X3513886Y-725813D02*
X3504362Y-678194D01*
X3504362Y-678194D02*
X3504362Y-640099D01*
X3504362Y-640099D02*
X3513886Y-592480D01*
X3513886Y-592480D02*
X3523410Y-563908D01*
X3523410Y-563908D02*
X3532934Y-544861D01*
X3532934Y-544861D02*
X3551981Y-516289D01*
X3551981Y-516289D02*
X3561505Y-506765D01*
X3628172Y-554384D02*
X3637695Y-544861D01*
X3637695Y-544861D02*
X3656743Y-535337D01*
X3656743Y-535337D02*
X3704362Y-535337D01*
X3704362Y-535337D02*
X3723410Y-544861D01*
X3723410Y-544861D02*
X3732934Y-554384D01*
X3732934Y-554384D02*
X3742457Y-573432D01*
X3742457Y-573432D02*
X3742457Y-592480D01*
X3742457Y-592480D02*
X3732934Y-621051D01*
X3732934Y-621051D02*
X3618648Y-735337D01*
X3618648Y-735337D02*
X3742457Y-735337D01*
X3980553Y-735337D02*
X3980553Y-535337D01*
X4066267Y-735337D02*
X4066267Y-630575D01*
X4066267Y-630575D02*
X4056743Y-611527D01*
X4056743Y-611527D02*
X4037696Y-602003D01*
X4037696Y-602003D02*
X4009124Y-602003D01*
X4009124Y-602003D02*
X3990076Y-611527D01*
X3990076Y-611527D02*
X3980553Y-621051D01*
X4190076Y-735337D02*
X4171029Y-725813D01*
X4171029Y-725813D02*
X4161505Y-716289D01*
X4161505Y-716289D02*
X4151981Y-697242D01*
X4151981Y-697242D02*
X4151981Y-640099D01*
X4151981Y-640099D02*
X4161505Y-621051D01*
X4161505Y-621051D02*
X4171029Y-611527D01*
X4171029Y-611527D02*
X4190076Y-602003D01*
X4190076Y-602003D02*
X4218648Y-602003D01*
X4218648Y-602003D02*
X4237696Y-611527D01*
X4237696Y-611527D02*
X4247219Y-621051D01*
X4247219Y-621051D02*
X4256743Y-640099D01*
X4256743Y-640099D02*
X4256743Y-697242D01*
X4256743Y-697242D02*
X4247219Y-716289D01*
X4247219Y-716289D02*
X4237696Y-725813D01*
X4237696Y-725813D02*
X4218648Y-735337D01*
X4218648Y-735337D02*
X4190076Y-735337D01*
X4371029Y-735337D02*
X4351981Y-725813D01*
X4351981Y-725813D02*
X4342458Y-706765D01*
X4342458Y-706765D02*
X4342458Y-535337D01*
X4523410Y-725813D02*
X4504362Y-735337D01*
X4504362Y-735337D02*
X4466267Y-735337D01*
X4466267Y-735337D02*
X4447219Y-725813D01*
X4447219Y-725813D02*
X4437696Y-706765D01*
X4437696Y-706765D02*
X4437696Y-630575D01*
X4437696Y-630575D02*
X4447219Y-611527D01*
X4447219Y-611527D02*
X4466267Y-602003D01*
X4466267Y-602003D02*
X4504362Y-602003D01*
X4504362Y-602003D02*
X4523410Y-611527D01*
X4523410Y-611527D02*
X4532934Y-630575D01*
X4532934Y-630575D02*
X4532934Y-649623D01*
X4532934Y-649623D02*
X4437696Y-668670D01*
X4609124Y-725813D02*
X4628172Y-735337D01*
X4628172Y-735337D02*
X4666267Y-735337D01*
X4666267Y-735337D02*
X4685315Y-725813D01*
X4685315Y-725813D02*
X4694839Y-706765D01*
X4694839Y-706765D02*
X4694839Y-697242D01*
X4694839Y-697242D02*
X4685315Y-678194D01*
X4685315Y-678194D02*
X4666267Y-668670D01*
X4666267Y-668670D02*
X4637696Y-668670D01*
X4637696Y-668670D02*
X4618648Y-659146D01*
X4618648Y-659146D02*
X4609124Y-640099D01*
X4609124Y-640099D02*
X4609124Y-630575D01*
X4609124Y-630575D02*
X4618648Y-611527D01*
X4618648Y-611527D02*
X4637696Y-602003D01*
X4637696Y-602003D02*
X4666267Y-602003D01*
X4666267Y-602003D02*
X4685315Y-611527D01*
X4761505Y-811527D02*
X4771029Y-802003D01*
X4771029Y-802003D02*
X4790077Y-773432D01*
X4790077Y-773432D02*
X4799600Y-754384D01*
X4799600Y-754384D02*
X4809124Y-725813D01*
X4809124Y-725813D02*
X4818648Y-678194D01*
X4818648Y-678194D02*
X4818648Y-640099D01*
X4818648Y-640099D02*
X4809124Y-592480D01*
X4809124Y-592480D02*
X4799600Y-563908D01*
X4799600Y-563908D02*
X4790077Y-544861D01*
X4790077Y-544861D02*
X4771029Y-516289D01*
X4771029Y-516289D02*
X4761505Y-506765D01*
X5123410Y-811527D02*
X5113886Y-802003D01*
X5113886Y-802003D02*
X5094839Y-773432D01*
X5094839Y-773432D02*
X5085315Y-754384D01*
X5085315Y-754384D02*
X5075791Y-725813D01*
X5075791Y-725813D02*
X5066267Y-678194D01*
X5066267Y-678194D02*
X5066267Y-640099D01*
X5066267Y-640099D02*
X5075791Y-592480D01*
X5075791Y-592480D02*
X5085315Y-563908D01*
X5085315Y-563908D02*
X5094839Y-544861D01*
X5094839Y-544861D02*
X5113886Y-516289D01*
X5113886Y-516289D02*
X5123410Y-506765D01*
X5199600Y-602003D02*
X5199600Y-735337D01*
X5199600Y-621051D02*
X5209124Y-611527D01*
X5209124Y-611527D02*
X5228172Y-602003D01*
X5228172Y-602003D02*
X5256743Y-602003D01*
X5256743Y-602003D02*
X5275791Y-611527D01*
X5275791Y-611527D02*
X5285315Y-630575D01*
X5285315Y-630575D02*
X5285315Y-735337D01*
X5409124Y-735337D02*
X5390077Y-725813D01*
X5390077Y-725813D02*
X5380553Y-716289D01*
X5380553Y-716289D02*
X5371029Y-697242D01*
X5371029Y-697242D02*
X5371029Y-640099D01*
X5371029Y-640099D02*
X5380553Y-621051D01*
X5380553Y-621051D02*
X5390077Y-611527D01*
X5390077Y-611527D02*
X5409124Y-602003D01*
X5409124Y-602003D02*
X5437696Y-602003D01*
X5437696Y-602003D02*
X5456743Y-611527D01*
X5456743Y-611527D02*
X5466267Y-621051D01*
X5466267Y-621051D02*
X5475791Y-640099D01*
X5475791Y-640099D02*
X5475791Y-697242D01*
X5475791Y-697242D02*
X5466267Y-716289D01*
X5466267Y-716289D02*
X5456743Y-725813D01*
X5456743Y-725813D02*
X5437696Y-735337D01*
X5437696Y-735337D02*
X5409124Y-735337D01*
X5532934Y-602003D02*
X5609124Y-602003D01*
X5561505Y-535337D02*
X5561505Y-706765D01*
X5561505Y-706765D02*
X5571029Y-725813D01*
X5571029Y-725813D02*
X5590077Y-735337D01*
X5590077Y-735337D02*
X5609124Y-735337D01*
X5828172Y-602003D02*
X5828172Y-802003D01*
X5828172Y-611527D02*
X5847219Y-602003D01*
X5847219Y-602003D02*
X5885315Y-602003D01*
X5885315Y-602003D02*
X5904362Y-611527D01*
X5904362Y-611527D02*
X5913886Y-621051D01*
X5913886Y-621051D02*
X5923410Y-640099D01*
X5923410Y-640099D02*
X5923410Y-697242D01*
X5923410Y-697242D02*
X5913886Y-716289D01*
X5913886Y-716289D02*
X5904362Y-725813D01*
X5904362Y-725813D02*
X5885315Y-735337D01*
X5885315Y-735337D02*
X5847219Y-735337D01*
X5847219Y-735337D02*
X5828172Y-725813D01*
X6037696Y-735337D02*
X6018648Y-725813D01*
X6018648Y-725813D02*
X6009124Y-706765D01*
X6009124Y-706765D02*
X6009124Y-535337D01*
X6199600Y-735337D02*
X6199600Y-630575D01*
X6199600Y-630575D02*
X6190077Y-611527D01*
X6190077Y-611527D02*
X6171029Y-602003D01*
X6171029Y-602003D02*
X6132934Y-602003D01*
X6132934Y-602003D02*
X6113886Y-611527D01*
X6199600Y-725813D02*
X6180553Y-735337D01*
X6180553Y-735337D02*
X6132934Y-735337D01*
X6132934Y-735337D02*
X6113886Y-725813D01*
X6113886Y-725813D02*
X6104362Y-706765D01*
X6104362Y-706765D02*
X6104362Y-687718D01*
X6104362Y-687718D02*
X6113886Y-668670D01*
X6113886Y-668670D02*
X6132934Y-659146D01*
X6132934Y-659146D02*
X6180553Y-659146D01*
X6180553Y-659146D02*
X6199600Y-649623D01*
X6266267Y-602003D02*
X6342458Y-602003D01*
X6294839Y-535337D02*
X6294839Y-706765D01*
X6294839Y-706765D02*
X6304362Y-725813D01*
X6304362Y-725813D02*
X6323410Y-735337D01*
X6323410Y-735337D02*
X6342458Y-735337D01*
X6485315Y-725813D02*
X6466267Y-735337D01*
X6466267Y-735337D02*
X6428172Y-735337D01*
X6428172Y-735337D02*
X6409124Y-725813D01*
X6409124Y-725813D02*
X6399600Y-706765D01*
X6399600Y-706765D02*
X6399600Y-630575D01*
X6399600Y-630575D02*
X6409124Y-611527D01*
X6409124Y-611527D02*
X6428172Y-602003D01*
X6428172Y-602003D02*
X6466267Y-602003D01*
X6466267Y-602003D02*
X6485315Y-611527D01*
X6485315Y-611527D02*
X6494839Y-630575D01*
X6494839Y-630575D02*
X6494839Y-649623D01*
X6494839Y-649623D02*
X6399600Y-668670D01*
X6666267Y-735337D02*
X6666267Y-535337D01*
X6666267Y-725813D02*
X6647220Y-735337D01*
X6647220Y-735337D02*
X6609124Y-735337D01*
X6609124Y-735337D02*
X6590077Y-725813D01*
X6590077Y-725813D02*
X6580553Y-716289D01*
X6580553Y-716289D02*
X6571029Y-697242D01*
X6571029Y-697242D02*
X6571029Y-640099D01*
X6571029Y-640099D02*
X6580553Y-621051D01*
X6580553Y-621051D02*
X6590077Y-611527D01*
X6590077Y-611527D02*
X6609124Y-602003D01*
X6609124Y-602003D02*
X6647220Y-602003D01*
X6647220Y-602003D02*
X6666267Y-611527D01*
X6742458Y-811527D02*
X6751981Y-802003D01*
X6751981Y-802003D02*
X6771029Y-773432D01*
X6771029Y-773432D02*
X6780553Y-754384D01*
X6780553Y-754384D02*
X6790077Y-725813D01*
X6790077Y-725813D02*
X6799600Y-678194D01*
X6799600Y-678194D02*
X6799600Y-640099D01*
X6799600Y-640099D02*
X6790077Y-592480D01*
X6790077Y-592480D02*
X6780553Y-563908D01*
X6780553Y-563908D02*
X6771029Y-544861D01*
X6771029Y-544861D02*
X6751981Y-516289D01*
X6751981Y-516289D02*
X6742458Y-506765D01*
X-400Y-906813D02*
G75*
G03*
X-400Y-906813I-100000J0D01*
G01*
X228171Y-799337D02*
X351981Y-799337D01*
X351981Y-799337D02*
X285314Y-875527D01*
X285314Y-875527D02*
X313886Y-875527D01*
X313886Y-875527D02*
X332933Y-885051D01*
X332933Y-885051D02*
X342457Y-894575D01*
X342457Y-894575D02*
X351981Y-913622D01*
X351981Y-913622D02*
X351981Y-961241D01*
X351981Y-961241D02*
X342457Y-980289D01*
X342457Y-980289D02*
X332933Y-989813D01*
X332933Y-989813D02*
X313886Y-999337D01*
X313886Y-999337D02*
X256743Y-999337D01*
X256743Y-999337D02*
X237695Y-989813D01*
X237695Y-989813D02*
X228171Y-980289D01*
X437695Y-980289D02*
X447219Y-989813D01*
X447219Y-989813D02*
X437695Y-999337D01*
X437695Y-999337D02*
X428171Y-989813D01*
X428171Y-989813D02*
X437695Y-980289D01*
X437695Y-980289D02*
X437695Y-999337D01*
X523409Y-818384D02*
X532933Y-808861D01*
X532933Y-808861D02*
X551981Y-799337D01*
X551981Y-799337D02*
X599600Y-799337D01*
X599600Y-799337D02*
X618648Y-808861D01*
X618648Y-808861D02*
X628171Y-818384D01*
X628171Y-818384D02*
X637695Y-837432D01*
X637695Y-837432D02*
X637695Y-856480D01*
X637695Y-856480D02*
X628171Y-885051D01*
X628171Y-885051D02*
X513886Y-999337D01*
X513886Y-999337D02*
X637695Y-999337D01*
X761505Y-799337D02*
X780552Y-799337D01*
X780552Y-799337D02*
X799600Y-808861D01*
X799600Y-808861D02*
X809124Y-818384D01*
X809124Y-818384D02*
X818648Y-837432D01*
X818648Y-837432D02*
X828171Y-875527D01*
X828171Y-875527D02*
X828171Y-923146D01*
X828171Y-923146D02*
X818648Y-961241D01*
X818648Y-961241D02*
X809124Y-980289D01*
X809124Y-980289D02*
X799600Y-989813D01*
X799600Y-989813D02*
X780552Y-999337D01*
X780552Y-999337D02*
X761505Y-999337D01*
X761505Y-999337D02*
X742457Y-989813D01*
X742457Y-989813D02*
X732933Y-980289D01*
X732933Y-980289D02*
X723409Y-961241D01*
X723409Y-961241D02*
X713886Y-923146D01*
X713886Y-923146D02*
X713886Y-875527D01*
X713886Y-875527D02*
X723409Y-837432D01*
X723409Y-837432D02*
X732933Y-818384D01*
X732933Y-818384D02*
X742457Y-808861D01*
X742457Y-808861D02*
X761505Y-799337D01*
X951981Y-799337D02*
X971029Y-799337D01*
X971029Y-799337D02*
X990076Y-808861D01*
X990076Y-808861D02*
X999600Y-818384D01*
X999600Y-818384D02*
X1009124Y-837432D01*
X1009124Y-837432D02*
X1018648Y-875527D01*
X1018648Y-875527D02*
X1018648Y-923146D01*
X1018648Y-923146D02*
X1009124Y-961241D01*
X1009124Y-961241D02*
X999600Y-980289D01*
X999600Y-980289D02*
X990076Y-989813D01*
X990076Y-989813D02*
X971029Y-999337D01*
X971029Y-999337D02*
X951981Y-999337D01*
X951981Y-999337D02*
X932933Y-989813D01*
X932933Y-989813D02*
X923409Y-980289D01*
X923409Y-980289D02*
X913886Y-961241D01*
X913886Y-961241D02*
X904362Y-923146D01*
X904362Y-923146D02*
X904362Y-875527D01*
X904362Y-875527D02*
X913886Y-837432D01*
X913886Y-837432D02*
X923409Y-818384D01*
X923409Y-818384D02*
X932933Y-808861D01*
X932933Y-808861D02*
X951981Y-799337D01*
X1104362Y-999337D02*
X1104362Y-866003D01*
X1104362Y-885051D02*
X1113886Y-875527D01*
X1113886Y-875527D02*
X1132933Y-866003D01*
X1132933Y-866003D02*
X1161505Y-866003D01*
X1161505Y-866003D02*
X1180552Y-875527D01*
X1180552Y-875527D02*
X1190076Y-894575D01*
X1190076Y-894575D02*
X1190076Y-999337D01*
X1190076Y-894575D02*
X1199600Y-875527D01*
X1199600Y-875527D02*
X1218648Y-866003D01*
X1218648Y-866003D02*
X1247219Y-866003D01*
X1247219Y-866003D02*
X1266267Y-875527D01*
X1266267Y-875527D02*
X1275791Y-894575D01*
X1275791Y-894575D02*
X1275791Y-999337D01*
X1371029Y-999337D02*
X1371029Y-866003D01*
X1371029Y-885051D02*
X1380552Y-875527D01*
X1380552Y-875527D02*
X1399600Y-866003D01*
X1399600Y-866003D02*
X1428171Y-866003D01*
X1428171Y-866003D02*
X1447219Y-875527D01*
X1447219Y-875527D02*
X1456743Y-894575D01*
X1456743Y-894575D02*
X1456743Y-999337D01*
X1456743Y-894575D02*
X1466267Y-875527D01*
X1466267Y-875527D02*
X1485314Y-866003D01*
X1485314Y-866003D02*
X1513886Y-866003D01*
X1513886Y-866003D02*
X1532933Y-875527D01*
X1532933Y-875527D02*
X1542457Y-894575D01*
X1542457Y-894575D02*
X1542457Y-999337D01*
X1932933Y-789813D02*
X1761505Y-1046956D01*
X2190076Y-799337D02*
X2209124Y-799337D01*
X2209124Y-799337D02*
X2228172Y-808861D01*
X2228172Y-808861D02*
X2237695Y-818384D01*
X2237695Y-818384D02*
X2247219Y-837432D01*
X2247219Y-837432D02*
X2256743Y-875527D01*
X2256743Y-875527D02*
X2256743Y-923146D01*
X2256743Y-923146D02*
X2247219Y-961241D01*
X2247219Y-961241D02*
X2237695Y-980289D01*
X2237695Y-980289D02*
X2228172Y-989813D01*
X2228172Y-989813D02*
X2209124Y-999337D01*
X2209124Y-999337D02*
X2190076Y-999337D01*
X2190076Y-999337D02*
X2171029Y-989813D01*
X2171029Y-989813D02*
X2161505Y-980289D01*
X2161505Y-980289D02*
X2151981Y-961241D01*
X2151981Y-961241D02*
X2142457Y-923146D01*
X2142457Y-923146D02*
X2142457Y-875527D01*
X2142457Y-875527D02*
X2151981Y-837432D01*
X2151981Y-837432D02*
X2161505Y-818384D01*
X2161505Y-818384D02*
X2171029Y-808861D01*
X2171029Y-808861D02*
X2190076Y-799337D01*
X2342457Y-980289D02*
X2351981Y-989813D01*
X2351981Y-989813D02*
X2342457Y-999337D01*
X2342457Y-999337D02*
X2332934Y-989813D01*
X2332934Y-989813D02*
X2342457Y-980289D01*
X2342457Y-980289D02*
X2342457Y-999337D01*
X2542457Y-999337D02*
X2428172Y-999337D01*
X2485314Y-999337D02*
X2485314Y-799337D01*
X2485314Y-799337D02*
X2466267Y-827908D01*
X2466267Y-827908D02*
X2447219Y-846956D01*
X2447219Y-846956D02*
X2428172Y-856480D01*
X2618648Y-818384D02*
X2628172Y-808861D01*
X2628172Y-808861D02*
X2647219Y-799337D01*
X2647219Y-799337D02*
X2694838Y-799337D01*
X2694838Y-799337D02*
X2713886Y-808861D01*
X2713886Y-808861D02*
X2723410Y-818384D01*
X2723410Y-818384D02*
X2732934Y-837432D01*
X2732934Y-837432D02*
X2732934Y-856480D01*
X2732934Y-856480D02*
X2723410Y-885051D01*
X2723410Y-885051D02*
X2609124Y-999337D01*
X2609124Y-999337D02*
X2732934Y-999337D01*
X2904362Y-799337D02*
X2866267Y-799337D01*
X2866267Y-799337D02*
X2847219Y-808861D01*
X2847219Y-808861D02*
X2837695Y-818384D01*
X2837695Y-818384D02*
X2818648Y-846956D01*
X2818648Y-846956D02*
X2809124Y-885051D01*
X2809124Y-885051D02*
X2809124Y-961241D01*
X2809124Y-961241D02*
X2818648Y-980289D01*
X2818648Y-980289D02*
X2828172Y-989813D01*
X2828172Y-989813D02*
X2847219Y-999337D01*
X2847219Y-999337D02*
X2885314Y-999337D01*
X2885314Y-999337D02*
X2904362Y-989813D01*
X2904362Y-989813D02*
X2913886Y-980289D01*
X2913886Y-980289D02*
X2923410Y-961241D01*
X2923410Y-961241D02*
X2923410Y-913622D01*
X2923410Y-913622D02*
X2913886Y-894575D01*
X2913886Y-894575D02*
X2904362Y-885051D01*
X2904362Y-885051D02*
X2885314Y-875527D01*
X2885314Y-875527D02*
X2847219Y-875527D01*
X2847219Y-875527D02*
X2828172Y-885051D01*
X2828172Y-885051D02*
X2818648Y-894575D01*
X2818648Y-894575D02*
X2809124Y-913622D01*
X3047219Y-799337D02*
X3066267Y-799337D01*
X3066267Y-799337D02*
X3085314Y-808861D01*
X3085314Y-808861D02*
X3094838Y-818384D01*
X3094838Y-818384D02*
X3104362Y-837432D01*
X3104362Y-837432D02*
X3113886Y-875527D01*
X3113886Y-875527D02*
X3113886Y-923146D01*
X3113886Y-923146D02*
X3104362Y-961241D01*
X3104362Y-961241D02*
X3094838Y-980289D01*
X3094838Y-980289D02*
X3085314Y-989813D01*
X3085314Y-989813D02*
X3066267Y-999337D01*
X3066267Y-999337D02*
X3047219Y-999337D01*
X3047219Y-999337D02*
X3028172Y-989813D01*
X3028172Y-989813D02*
X3018648Y-980289D01*
X3018648Y-980289D02*
X3009124Y-961241D01*
X3009124Y-961241D02*
X2999600Y-923146D01*
X2999600Y-923146D02*
X2999600Y-875527D01*
X2999600Y-875527D02*
X3009124Y-837432D01*
X3009124Y-837432D02*
X3018648Y-818384D01*
X3018648Y-818384D02*
X3028172Y-808861D01*
X3028172Y-808861D02*
X3047219Y-799337D01*
X3190076Y-799337D02*
X3190076Y-837432D01*
X3266267Y-799337D02*
X3266267Y-837432D01*
X3561505Y-1075527D02*
X3551981Y-1066003D01*
X3551981Y-1066003D02*
X3532934Y-1037432D01*
X3532934Y-1037432D02*
X3523410Y-1018384D01*
X3523410Y-1018384D02*
X3513886Y-989813D01*
X3513886Y-989813D02*
X3504362Y-942194D01*
X3504362Y-942194D02*
X3504362Y-904099D01*
X3504362Y-904099D02*
X3513886Y-856480D01*
X3513886Y-856480D02*
X3523410Y-827908D01*
X3523410Y-827908D02*
X3532934Y-808861D01*
X3532934Y-808861D02*
X3551981Y-780289D01*
X3551981Y-780289D02*
X3561505Y-770765D01*
X3618648Y-799337D02*
X3742457Y-799337D01*
X3742457Y-799337D02*
X3675791Y-875527D01*
X3675791Y-875527D02*
X3704362Y-875527D01*
X3704362Y-875527D02*
X3723410Y-885051D01*
X3723410Y-885051D02*
X3732934Y-894575D01*
X3732934Y-894575D02*
X3742457Y-913622D01*
X3742457Y-913622D02*
X3742457Y-961241D01*
X3742457Y-961241D02*
X3732934Y-980289D01*
X3732934Y-980289D02*
X3723410Y-989813D01*
X3723410Y-989813D02*
X3704362Y-999337D01*
X3704362Y-999337D02*
X3647219Y-999337D01*
X3647219Y-999337D02*
X3628172Y-989813D01*
X3628172Y-989813D02*
X3618648Y-980289D01*
X3980553Y-999337D02*
X3980553Y-799337D01*
X4066267Y-999337D02*
X4066267Y-894575D01*
X4066267Y-894575D02*
X4056743Y-875527D01*
X4056743Y-875527D02*
X4037696Y-866003D01*
X4037696Y-866003D02*
X4009124Y-866003D01*
X4009124Y-866003D02*
X3990076Y-875527D01*
X3990076Y-875527D02*
X3980553Y-885051D01*
X4190076Y-999337D02*
X4171029Y-989813D01*
X4171029Y-989813D02*
X4161505Y-980289D01*
X4161505Y-980289D02*
X4151981Y-961241D01*
X4151981Y-961241D02*
X4151981Y-904099D01*
X4151981Y-904099D02*
X4161505Y-885051D01*
X4161505Y-885051D02*
X4171029Y-875527D01*
X4171029Y-875527D02*
X4190076Y-866003D01*
X4190076Y-866003D02*
X4218648Y-866003D01*
X4218648Y-866003D02*
X4237696Y-875527D01*
X4237696Y-875527D02*
X4247219Y-885051D01*
X4247219Y-885051D02*
X4256743Y-904099D01*
X4256743Y-904099D02*
X4256743Y-961241D01*
X4256743Y-961241D02*
X4247219Y-980289D01*
X4247219Y-980289D02*
X4237696Y-989813D01*
X4237696Y-989813D02*
X4218648Y-999337D01*
X4218648Y-999337D02*
X4190076Y-999337D01*
X4371029Y-999337D02*
X4351981Y-989813D01*
X4351981Y-989813D02*
X4342458Y-970765D01*
X4342458Y-970765D02*
X4342458Y-799337D01*
X4523410Y-989813D02*
X4504362Y-999337D01*
X4504362Y-999337D02*
X4466267Y-999337D01*
X4466267Y-999337D02*
X4447219Y-989813D01*
X4447219Y-989813D02*
X4437696Y-970765D01*
X4437696Y-970765D02*
X4437696Y-894575D01*
X4437696Y-894575D02*
X4447219Y-875527D01*
X4447219Y-875527D02*
X4466267Y-866003D01*
X4466267Y-866003D02*
X4504362Y-866003D01*
X4504362Y-866003D02*
X4523410Y-875527D01*
X4523410Y-875527D02*
X4532934Y-894575D01*
X4532934Y-894575D02*
X4532934Y-913622D01*
X4532934Y-913622D02*
X4437696Y-932670D01*
X4609124Y-989813D02*
X4628172Y-999337D01*
X4628172Y-999337D02*
X4666267Y-999337D01*
X4666267Y-999337D02*
X4685315Y-989813D01*
X4685315Y-989813D02*
X4694839Y-970765D01*
X4694839Y-970765D02*
X4694839Y-961241D01*
X4694839Y-961241D02*
X4685315Y-942194D01*
X4685315Y-942194D02*
X4666267Y-932670D01*
X4666267Y-932670D02*
X4637696Y-932670D01*
X4637696Y-932670D02*
X4618648Y-923146D01*
X4618648Y-923146D02*
X4609124Y-904099D01*
X4609124Y-904099D02*
X4609124Y-894575D01*
X4609124Y-894575D02*
X4618648Y-875527D01*
X4618648Y-875527D02*
X4637696Y-866003D01*
X4637696Y-866003D02*
X4666267Y-866003D01*
X4666267Y-866003D02*
X4685315Y-875527D01*
X4761505Y-1075527D02*
X4771029Y-1066003D01*
X4771029Y-1066003D02*
X4790077Y-1037432D01*
X4790077Y-1037432D02*
X4799600Y-1018384D01*
X4799600Y-1018384D02*
X4809124Y-989813D01*
X4809124Y-989813D02*
X4818648Y-942194D01*
X4818648Y-942194D02*
X4818648Y-904099D01*
X4818648Y-904099D02*
X4809124Y-856480D01*
X4809124Y-856480D02*
X4799600Y-827908D01*
X4799600Y-827908D02*
X4790077Y-808861D01*
X4790077Y-808861D02*
X4771029Y-780289D01*
X4771029Y-780289D02*
X4761505Y-770765D01*
X5123410Y-1075527D02*
X5113886Y-1066003D01*
X5113886Y-1066003D02*
X5094839Y-1037432D01*
X5094839Y-1037432D02*
X5085315Y-1018384D01*
X5085315Y-1018384D02*
X5075791Y-989813D01*
X5075791Y-989813D02*
X5066267Y-942194D01*
X5066267Y-942194D02*
X5066267Y-904099D01*
X5066267Y-904099D02*
X5075791Y-856480D01*
X5075791Y-856480D02*
X5085315Y-827908D01*
X5085315Y-827908D02*
X5094839Y-808861D01*
X5094839Y-808861D02*
X5113886Y-780289D01*
X5113886Y-780289D02*
X5123410Y-770765D01*
X5199600Y-866003D02*
X5199600Y-999337D01*
X5199600Y-885051D02*
X5209124Y-875527D01*
X5209124Y-875527D02*
X5228172Y-866003D01*
X5228172Y-866003D02*
X5256743Y-866003D01*
X5256743Y-866003D02*
X5275791Y-875527D01*
X5275791Y-875527D02*
X5285315Y-894575D01*
X5285315Y-894575D02*
X5285315Y-999337D01*
X5409124Y-999337D02*
X5390077Y-989813D01*
X5390077Y-989813D02*
X5380553Y-980289D01*
X5380553Y-980289D02*
X5371029Y-961241D01*
X5371029Y-961241D02*
X5371029Y-904099D01*
X5371029Y-904099D02*
X5380553Y-885051D01*
X5380553Y-885051D02*
X5390077Y-875527D01*
X5390077Y-875527D02*
X5409124Y-866003D01*
X5409124Y-866003D02*
X5437696Y-866003D01*
X5437696Y-866003D02*
X5456743Y-875527D01*
X5456743Y-875527D02*
X5466267Y-885051D01*
X5466267Y-885051D02*
X5475791Y-904099D01*
X5475791Y-904099D02*
X5475791Y-961241D01*
X5475791Y-961241D02*
X5466267Y-980289D01*
X5466267Y-980289D02*
X5456743Y-989813D01*
X5456743Y-989813D02*
X5437696Y-999337D01*
X5437696Y-999337D02*
X5409124Y-999337D01*
X5532934Y-866003D02*
X5609124Y-866003D01*
X5561505Y-799337D02*
X5561505Y-970765D01*
X5561505Y-970765D02*
X5571029Y-989813D01*
X5571029Y-989813D02*
X5590077Y-999337D01*
X5590077Y-999337D02*
X5609124Y-999337D01*
X5828172Y-866003D02*
X5828172Y-1066003D01*
X5828172Y-875527D02*
X5847219Y-866003D01*
X5847219Y-866003D02*
X5885315Y-866003D01*
X5885315Y-866003D02*
X5904362Y-875527D01*
X5904362Y-875527D02*
X5913886Y-885051D01*
X5913886Y-885051D02*
X5923410Y-904099D01*
X5923410Y-904099D02*
X5923410Y-961241D01*
X5923410Y-961241D02*
X5913886Y-980289D01*
X5913886Y-980289D02*
X5904362Y-989813D01*
X5904362Y-989813D02*
X5885315Y-999337D01*
X5885315Y-999337D02*
X5847219Y-999337D01*
X5847219Y-999337D02*
X5828172Y-989813D01*
X6037696Y-999337D02*
X6018648Y-989813D01*
X6018648Y-989813D02*
X6009124Y-970765D01*
X6009124Y-970765D02*
X6009124Y-799337D01*
X6199600Y-999337D02*
X6199600Y-894575D01*
X6199600Y-894575D02*
X6190077Y-875527D01*
X6190077Y-875527D02*
X6171029Y-866003D01*
X6171029Y-866003D02*
X6132934Y-866003D01*
X6132934Y-866003D02*
X6113886Y-875527D01*
X6199600Y-989813D02*
X6180553Y-999337D01*
X6180553Y-999337D02*
X6132934Y-999337D01*
X6132934Y-999337D02*
X6113886Y-989813D01*
X6113886Y-989813D02*
X6104362Y-970765D01*
X6104362Y-970765D02*
X6104362Y-951718D01*
X6104362Y-951718D02*
X6113886Y-932670D01*
X6113886Y-932670D02*
X6132934Y-923146D01*
X6132934Y-923146D02*
X6180553Y-923146D01*
X6180553Y-923146D02*
X6199600Y-913622D01*
X6266267Y-866003D02*
X6342458Y-866003D01*
X6294839Y-799337D02*
X6294839Y-970765D01*
X6294839Y-970765D02*
X6304362Y-989813D01*
X6304362Y-989813D02*
X6323410Y-999337D01*
X6323410Y-999337D02*
X6342458Y-999337D01*
X6485315Y-989813D02*
X6466267Y-999337D01*
X6466267Y-999337D02*
X6428172Y-999337D01*
X6428172Y-999337D02*
X6409124Y-989813D01*
X6409124Y-989813D02*
X6399600Y-970765D01*
X6399600Y-970765D02*
X6399600Y-894575D01*
X6399600Y-894575D02*
X6409124Y-875527D01*
X6409124Y-875527D02*
X6428172Y-866003D01*
X6428172Y-866003D02*
X6466267Y-866003D01*
X6466267Y-866003D02*
X6485315Y-875527D01*
X6485315Y-875527D02*
X6494839Y-894575D01*
X6494839Y-894575D02*
X6494839Y-913622D01*
X6494839Y-913622D02*
X6399600Y-932670D01*
X6666267Y-999337D02*
X6666267Y-799337D01*
X6666267Y-989813D02*
X6647220Y-999337D01*
X6647220Y-999337D02*
X6609124Y-999337D01*
X6609124Y-999337D02*
X6590077Y-989813D01*
X6590077Y-989813D02*
X6580553Y-980289D01*
X6580553Y-980289D02*
X6571029Y-961241D01*
X6571029Y-961241D02*
X6571029Y-904099D01*
X6571029Y-904099D02*
X6580553Y-885051D01*
X6580553Y-885051D02*
X6590077Y-875527D01*
X6590077Y-875527D02*
X6609124Y-866003D01*
X6609124Y-866003D02*
X6647220Y-866003D01*
X6647220Y-866003D02*
X6666267Y-875527D01*
X6742458Y-1075527D02*
X6751981Y-1066003D01*
X6751981Y-1066003D02*
X6771029Y-1037432D01*
X6771029Y-1037432D02*
X6780553Y-1018384D01*
X6780553Y-1018384D02*
X6790077Y-989813D01*
X6790077Y-989813D02*
X6799600Y-942194D01*
X6799600Y-942194D02*
X6799600Y-904099D01*
X6799600Y-904099D02*
X6790077Y-856480D01*
X6790077Y-856480D02*
X6780553Y-827908D01*
X6780553Y-827908D02*
X6771029Y-808861D01*
X6771029Y-808861D02*
X6751981Y-780289D01*
X6751981Y-780289D02*
X6742458Y-770765D01*
M02*
