%TF.GenerationSoftware,KiCad,Pcbnew,7.0.1*%
%TF.CreationDate,2024-04-15T22:24:04+03:00*%
%TF.ProjectId,ESP32 STEPPER CONTROL PCB,45535033-3220-4535-9445-505045522043,rev?*%
%TF.SameCoordinates,PX68e7780PY7bfa480*%
%TF.FileFunction,Legend,Bot*%
%TF.FilePolarity,Positive*%
%FSLAX46Y46*%
G04 Gerber Fmt 4.6, Leading zero omitted, Abs format (unit mm)*
G04 Created by KiCad (PCBNEW 7.0.1) date 2024-04-15 22:24:04*
%MOMM*%
%LPD*%
G01*
G04 APERTURE LIST*
G04 APERTURE END LIST*
%TO.C,G\u002A\u002A\u002A*%
G36*
X40223388Y91468401D02*
G01*
X40795046Y91436891D01*
X41347480Y91383241D01*
X41889259Y91306523D01*
X42428953Y91205808D01*
X42705246Y91145115D01*
X43451721Y90952217D01*
X44180090Y90721884D01*
X44889851Y90454416D01*
X45580501Y90150114D01*
X46251537Y89809279D01*
X46902456Y89432212D01*
X47532756Y89019213D01*
X48141933Y88570582D01*
X48729484Y88086622D01*
X49294907Y87567631D01*
X49837699Y87013911D01*
X50101196Y86723279D01*
X50531340Y86208017D01*
X50941523Y85659772D01*
X51328837Y85083545D01*
X51690375Y84484338D01*
X52023233Y83867152D01*
X52324503Y83236990D01*
X52591278Y82598854D01*
X52752250Y82160753D01*
X52899613Y81714006D01*
X53029080Y81273638D01*
X53142133Y80832513D01*
X53240248Y80383491D01*
X53324906Y79919435D01*
X53397584Y79433205D01*
X53459761Y78917665D01*
X53493442Y78582787D01*
X53495513Y78549191D01*
X53497508Y78492884D01*
X53499432Y78413100D01*
X53501287Y78309069D01*
X53503076Y78180024D01*
X53504801Y78025196D01*
X53506466Y77843819D01*
X53508072Y77635122D01*
X53509624Y77398340D01*
X53511124Y77132702D01*
X53512574Y76837442D01*
X53513978Y76511792D01*
X53515338Y76154982D01*
X53516658Y75766246D01*
X53517939Y75344815D01*
X53519185Y74889921D01*
X53520399Y74400796D01*
X53521583Y73876673D01*
X53522740Y73316782D01*
X53523873Y72720356D01*
X53524985Y72086627D01*
X53526079Y71414827D01*
X53527157Y70704188D01*
X53528223Y69953941D01*
X53529279Y69163319D01*
X53529957Y68630983D01*
X53542077Y58939426D01*
X53590313Y58773491D01*
X53692637Y58491379D01*
X53828657Y58233587D01*
X53998765Y57999444D01*
X54115900Y57871491D01*
X54333322Y57681064D01*
X54569857Y57525868D01*
X54821761Y57406481D01*
X55085291Y57323479D01*
X55356705Y57277440D01*
X55632258Y57268941D01*
X55908208Y57298558D01*
X56180812Y57366869D01*
X56446326Y57474451D01*
X56503343Y57503409D01*
X56749134Y57656082D01*
X56968634Y57839958D01*
X57159684Y58052309D01*
X57320127Y58290405D01*
X57447806Y58551518D01*
X57533560Y58806316D01*
X57580705Y58981065D01*
X57586102Y74902935D01*
X57591500Y90824805D01*
X66028578Y90819575D01*
X74465656Y90814344D01*
X74471740Y75137131D01*
X74472122Y74140991D01*
X74472477Y73185588D01*
X74472799Y72270019D01*
X74473087Y71393383D01*
X74473337Y70554778D01*
X74473544Y69753300D01*
X74473706Y68988049D01*
X74473819Y68258120D01*
X74473879Y67562613D01*
X74473883Y66900625D01*
X74473827Y66271254D01*
X74473707Y65673597D01*
X74473520Y65106752D01*
X74473263Y64569818D01*
X74472932Y64061891D01*
X74472523Y63582069D01*
X74472033Y63129450D01*
X74471458Y62703133D01*
X74470795Y62302214D01*
X74470040Y61925791D01*
X74469189Y61572963D01*
X74468240Y61242826D01*
X74467187Y60934479D01*
X74466029Y60647019D01*
X74464760Y60379544D01*
X74463379Y60131152D01*
X74461880Y59900941D01*
X74460261Y59688008D01*
X74458518Y59491451D01*
X74456647Y59310367D01*
X74454646Y59143855D01*
X74452509Y58991012D01*
X74450235Y58850937D01*
X74447818Y58722726D01*
X74445256Y58605477D01*
X74442545Y58498288D01*
X74439682Y58400258D01*
X74436662Y58310483D01*
X74433483Y58228061D01*
X74430140Y58152091D01*
X74426631Y58081670D01*
X74422952Y58015895D01*
X74419098Y57953864D01*
X74415067Y57894675D01*
X74410855Y57837427D01*
X74406458Y57781216D01*
X74402999Y57738733D01*
X74309582Y56858239D01*
X74175582Y55985932D01*
X74001479Y55123065D01*
X73787747Y54270895D01*
X73534865Y53430675D01*
X73243309Y52603661D01*
X72913556Y51791107D01*
X72546084Y50994269D01*
X72141368Y50214400D01*
X71699886Y49452756D01*
X71222115Y48710593D01*
X70708531Y47989163D01*
X70686202Y47959359D01*
X70418707Y47609917D01*
X70158784Y47285276D01*
X69897892Y46975533D01*
X69627494Y46670784D01*
X69339049Y46361127D01*
X69058091Y46071202D01*
X68625926Y45632322D01*
X68953742Y45340668D01*
X69606546Y44732294D01*
X70227559Y44097029D01*
X70816834Y43434814D01*
X71374421Y42745590D01*
X71900373Y42029296D01*
X72144093Y41672114D01*
X72619897Y40920482D01*
X73058141Y40151115D01*
X73458523Y39364867D01*
X73820742Y38562594D01*
X74144496Y37745151D01*
X74429484Y36913393D01*
X74675405Y36068176D01*
X74881957Y35210354D01*
X75048838Y34340782D01*
X75175748Y33460316D01*
X75234675Y32904426D01*
X75275125Y32355848D01*
X75299162Y31782173D01*
X75306903Y31194500D01*
X75298468Y30603925D01*
X75273974Y30021548D01*
X75233541Y29458465D01*
X75193710Y29063197D01*
X75071476Y28174188D01*
X74909643Y27297802D01*
X74708426Y26434602D01*
X74468041Y25585147D01*
X74188705Y24750000D01*
X73870634Y23929723D01*
X73514044Y23124876D01*
X73119150Y22336022D01*
X72686170Y21563722D01*
X72215319Y20808537D01*
X71761866Y20147476D01*
X71688035Y20043893D01*
X71623279Y19952008D01*
X71571259Y19877099D01*
X71535634Y19824444D01*
X71520063Y19799323D01*
X71519672Y19798133D01*
X71530646Y19777680D01*
X71560783Y19729264D01*
X71605909Y19659406D01*
X71661851Y19574630D01*
X71683114Y19542788D01*
X72186049Y18754607D01*
X72653758Y17944855D01*
X73085574Y17115190D01*
X73480829Y16267271D01*
X73838855Y15402753D01*
X74158987Y14523296D01*
X74440555Y13630557D01*
X74682893Y12726193D01*
X74885333Y11811863D01*
X74963737Y11394786D01*
X75009806Y11126470D01*
X75051618Y10862919D01*
X75090057Y10597132D01*
X75126012Y10322104D01*
X75160368Y10030832D01*
X75194012Y9716315D01*
X75227831Y9371547D01*
X75249344Y9138770D01*
X75252588Y9088485D01*
X75255640Y9010784D01*
X75258507Y8904699D01*
X75261195Y8769263D01*
X75263713Y8603506D01*
X75266066Y8406462D01*
X75268263Y8177162D01*
X75270309Y7914640D01*
X75272213Y7617926D01*
X75273980Y7286053D01*
X75275619Y6918054D01*
X75277136Y6512959D01*
X75278539Y6069803D01*
X75279833Y5587615D01*
X75281027Y5065430D01*
X75281802Y4678156D01*
X75289743Y488197D01*
X66857560Y488197D01*
X58425376Y488197D01*
X58417937Y4292992D01*
X58416990Y4764308D01*
X58416060Y5195837D01*
X58415128Y5589427D01*
X58414172Y5946929D01*
X58413176Y6270196D01*
X58412117Y6561076D01*
X58410978Y6821421D01*
X58409739Y7053081D01*
X58408380Y7257907D01*
X58406882Y7437750D01*
X58405225Y7594460D01*
X58403391Y7729888D01*
X58401358Y7845885D01*
X58399108Y7944302D01*
X58396621Y8026988D01*
X58393879Y8095795D01*
X58390861Y8152574D01*
X58387547Y8199174D01*
X58383919Y8237447D01*
X58379957Y8269244D01*
X58375789Y8295574D01*
X58280665Y8738321D01*
X58154913Y9154017D01*
X57997337Y9545067D01*
X57806738Y9913880D01*
X57581918Y10262861D01*
X57321678Y10594418D01*
X57122905Y10812152D01*
X56935552Y10997748D01*
X56754051Y11159130D01*
X56563886Y11308404D01*
X56350541Y11457675D01*
X56342131Y11463276D01*
X56067852Y11628749D01*
X55765052Y11781268D01*
X55446133Y11915582D01*
X55123493Y12026444D01*
X54826140Y12104971D01*
X54764556Y12118502D01*
X54706267Y12130814D01*
X54649135Y12141965D01*
X54591020Y12152011D01*
X54529784Y12161011D01*
X54463287Y12169023D01*
X54389392Y12176103D01*
X54305960Y12182309D01*
X54210851Y12187699D01*
X54101927Y12192330D01*
X53977050Y12196260D01*
X53834079Y12199547D01*
X53670878Y12202247D01*
X53485306Y12204419D01*
X53275225Y12206120D01*
X53038497Y12207408D01*
X52772983Y12208339D01*
X52476543Y12208972D01*
X52147040Y12209365D01*
X51782333Y12209574D01*
X51380286Y12209657D01*
X50938758Y12209672D01*
X50934349Y12209672D01*
X50447283Y12209809D01*
X50000366Y12210218D01*
X49593729Y12210899D01*
X49227502Y12211851D01*
X48901816Y12213073D01*
X48616800Y12214564D01*
X48372586Y12216323D01*
X48169304Y12218350D01*
X48007083Y12220644D01*
X47886056Y12223203D01*
X47806351Y12226027D01*
X47768099Y12229116D01*
X47764427Y12230492D01*
X47744694Y12240301D01*
X47689739Y12247350D01*
X47605925Y12250972D01*
X47565886Y12251311D01*
X47367345Y12251311D01*
X47279853Y12110779D01*
X46902289Y11527761D01*
X46491230Y10936448D01*
X46052067Y10343438D01*
X45590188Y9755331D01*
X45110984Y9178723D01*
X44619846Y8620214D01*
X44122162Y8086402D01*
X43623322Y7583885D01*
X43431356Y7399449D01*
X42722228Y6749538D01*
X42007084Y6138450D01*
X41281989Y5563421D01*
X40543011Y5021688D01*
X39786217Y4510488D01*
X39007674Y4027056D01*
X38203450Y3568629D01*
X37369612Y3132443D01*
X37333771Y3114512D01*
X36413184Y2677588D01*
X35481575Y2280799D01*
X34538797Y1924105D01*
X33584705Y1607466D01*
X32619154Y1330841D01*
X31641995Y1094191D01*
X30653085Y897474D01*
X29652276Y740651D01*
X28639424Y623680D01*
X28162705Y582730D01*
X28095526Y577659D01*
X28028759Y572819D01*
X27961394Y568206D01*
X27892415Y563813D01*
X27820811Y559636D01*
X27745568Y555671D01*
X27665673Y551913D01*
X27580114Y548356D01*
X27487878Y544996D01*
X27387951Y541828D01*
X27279320Y538847D01*
X27160973Y536049D01*
X27031897Y533428D01*
X26891078Y530980D01*
X26737504Y528700D01*
X26570162Y526582D01*
X26388038Y524623D01*
X26190119Y522817D01*
X25975394Y521160D01*
X25742848Y519646D01*
X25491469Y518271D01*
X25220244Y517030D01*
X24928160Y515917D01*
X24614204Y514930D01*
X24277362Y514061D01*
X23916623Y513307D01*
X23530972Y512663D01*
X23119397Y512124D01*
X22680885Y511685D01*
X22214424Y511340D01*
X21718999Y511087D01*
X21193598Y510918D01*
X20637209Y510831D01*
X20048817Y510819D01*
X19427411Y510878D01*
X18771977Y511003D01*
X18081502Y511190D01*
X17354973Y511433D01*
X16591378Y511727D01*
X15789702Y512069D01*
X14948935Y512452D01*
X14068061Y512872D01*
X13599345Y513101D01*
X722377Y519426D01*
X722377Y25326065D01*
X722377Y44063770D01*
X6791312Y44063770D01*
X6791312Y41701108D01*
X6791312Y39338446D01*
X16956517Y39331605D01*
X17777593Y39331029D01*
X18557899Y39330433D01*
X19298307Y39329813D01*
X19999687Y39329167D01*
X20662908Y39328493D01*
X21288842Y39327787D01*
X21878358Y39327047D01*
X22432326Y39326270D01*
X22951618Y39325454D01*
X23437103Y39324596D01*
X23889651Y39323693D01*
X24310133Y39322742D01*
X24699419Y39321741D01*
X25058380Y39320688D01*
X25387886Y39319579D01*
X25688806Y39318411D01*
X25962012Y39317183D01*
X26208374Y39315891D01*
X26428761Y39314533D01*
X26624044Y39313106D01*
X26795094Y39311607D01*
X26942781Y39310034D01*
X27067974Y39308384D01*
X27171545Y39306654D01*
X27254364Y39304842D01*
X27317301Y39302945D01*
X27361225Y39300960D01*
X27381968Y39299436D01*
X27897209Y39243321D01*
X28379956Y39177904D01*
X28838638Y39101581D01*
X29281683Y39012745D01*
X29717519Y38909792D01*
X30154574Y38791117D01*
X30343300Y38735361D01*
X31055356Y38498506D01*
X31754973Y38222474D01*
X32439946Y37908450D01*
X33108071Y37557618D01*
X33757142Y37171164D01*
X34384954Y36750273D01*
X34989304Y36296128D01*
X35199754Y36125507D01*
X35770183Y35626983D01*
X36312458Y35098686D01*
X36825269Y34542369D01*
X37307302Y33959787D01*
X37757246Y33352691D01*
X38173789Y32722834D01*
X38555620Y32071970D01*
X38901426Y31401853D01*
X39159159Y30834600D01*
X39439572Y30125543D01*
X39680182Y29405066D01*
X39880814Y28674541D01*
X40041289Y27935338D01*
X40161431Y27188829D01*
X40241064Y26436386D01*
X40280011Y25679380D01*
X40278094Y24919183D01*
X40235138Y24157165D01*
X40150966Y23394698D01*
X40133602Y23272349D01*
X40003639Y22527070D01*
X39833557Y21791531D01*
X39624072Y21067337D01*
X39375903Y20356091D01*
X39089768Y19659395D01*
X38766382Y18978855D01*
X38406464Y18316072D01*
X38010731Y17672652D01*
X37579900Y17050196D01*
X37114689Y16450309D01*
X37042674Y16363197D01*
X36544695Y15797675D01*
X36016995Y15259714D01*
X35461542Y14750746D01*
X34880308Y14272201D01*
X34275262Y13825510D01*
X33648375Y13412105D01*
X33001617Y13033415D01*
X32336959Y12690872D01*
X31656370Y12385907D01*
X31452213Y12303080D01*
X30882681Y12091035D01*
X30311320Y11906051D01*
X29731991Y11746693D01*
X29138554Y11611528D01*
X28524869Y11499123D01*
X27884798Y11408043D01*
X27381968Y11352695D01*
X27351523Y11350643D01*
X27302709Y11348681D01*
X27234656Y11346807D01*
X27146493Y11345016D01*
X27037350Y11343308D01*
X26906356Y11341678D01*
X26752642Y11340124D01*
X26575337Y11338645D01*
X26373571Y11337236D01*
X26146473Y11335895D01*
X25893174Y11334621D01*
X25612803Y11333408D01*
X25304489Y11332257D01*
X24967362Y11331162D01*
X24600553Y11330123D01*
X24203190Y11329136D01*
X23774404Y11328198D01*
X23313324Y11327307D01*
X22819080Y11326460D01*
X22290802Y11325654D01*
X21727619Y11324887D01*
X21128661Y11324156D01*
X20493057Y11323459D01*
X19819938Y11322792D01*
X19108434Y11322153D01*
X18357673Y11321540D01*
X17566786Y11320949D01*
X16956517Y11320526D01*
X6791312Y11313685D01*
X6791312Y8951023D01*
X6791312Y6588361D01*
X16800369Y6588495D01*
X17652888Y6588552D01*
X18471761Y6588697D01*
X19256611Y6588932D01*
X20007062Y6589253D01*
X20722739Y6589662D01*
X21403265Y6590157D01*
X22048266Y6590737D01*
X22657365Y6591402D01*
X23230186Y6592150D01*
X23766353Y6592982D01*
X24265491Y6593896D01*
X24727224Y6594892D01*
X25151176Y6595968D01*
X25536971Y6597124D01*
X25884233Y6598360D01*
X26192586Y6599674D01*
X26461655Y6601066D01*
X26691064Y6602534D01*
X26880436Y6604079D01*
X27029397Y6605700D01*
X27137570Y6607395D01*
X27204579Y6609164D01*
X27215410Y6609646D01*
X28103785Y6676136D01*
X28982291Y6782845D01*
X29849927Y6929307D01*
X30705695Y7115057D01*
X31548597Y7339632D01*
X32377633Y7602564D01*
X33191804Y7903391D01*
X33990111Y8241646D01*
X34771555Y8616864D01*
X35535138Y9028582D01*
X36279861Y9476333D01*
X37004723Y9959653D01*
X37708727Y10478076D01*
X38390874Y11031139D01*
X39050164Y11618376D01*
X39685598Y12239321D01*
X39986058Y12553724D01*
X40570254Y13208996D01*
X41120364Y13887514D01*
X41635975Y14588025D01*
X42116671Y15309280D01*
X42562039Y16050027D01*
X42971665Y16809016D01*
X43345135Y17584996D01*
X43682035Y18376715D01*
X43981951Y19182924D01*
X44244469Y20002371D01*
X44469174Y20833805D01*
X44655653Y21675976D01*
X44803491Y22527632D01*
X44912275Y23387523D01*
X44981590Y24254399D01*
X45011023Y25127007D01*
X45000159Y26004098D01*
X44948584Y26884420D01*
X44899677Y27397623D01*
X44784811Y28261389D01*
X44629479Y29117267D01*
X44434355Y29963787D01*
X44200115Y30799478D01*
X43927432Y31622871D01*
X43616983Y32432495D01*
X43269443Y33226881D01*
X42885485Y34004558D01*
X42465787Y34764057D01*
X42011021Y35503907D01*
X41521864Y36222638D01*
X40998990Y36918781D01*
X40443075Y37590866D01*
X39986058Y38098407D01*
X39363904Y38734222D01*
X38717068Y39336959D01*
X38046591Y39906107D01*
X37353516Y40441155D01*
X36638886Y40941593D01*
X35903741Y41406909D01*
X35149126Y41836593D01*
X34376081Y42230134D01*
X33585649Y42587021D01*
X32778873Y42906744D01*
X31956793Y43188791D01*
X31120454Y43432652D01*
X30270896Y43637815D01*
X29409162Y43803771D01*
X28536294Y43930008D01*
X27964918Y43990388D01*
X27902750Y43995931D01*
X27841216Y44001186D01*
X27779152Y44006162D01*
X27715393Y44010866D01*
X27648774Y44015306D01*
X27578130Y44019489D01*
X27502297Y44023424D01*
X27420111Y44027117D01*
X27330406Y44030577D01*
X27232018Y44033811D01*
X27123783Y44036826D01*
X27004535Y44039631D01*
X26873109Y44042233D01*
X26829908Y44042951D01*
X42809345Y44042951D01*
X42809345Y41680269D01*
X42809345Y39317588D01*
X49945287Y39311068D01*
X50598943Y39310491D01*
X51212338Y39309976D01*
X51786850Y39309500D01*
X52323857Y39309042D01*
X52824736Y39308579D01*
X53290867Y39308087D01*
X53723627Y39307545D01*
X54124394Y39306930D01*
X54494546Y39306218D01*
X54835461Y39305388D01*
X55148518Y39304417D01*
X55435094Y39303282D01*
X55696567Y39301960D01*
X55934316Y39300430D01*
X56149719Y39298668D01*
X56344153Y39296651D01*
X56518997Y39294358D01*
X56675628Y39291765D01*
X56815425Y39288850D01*
X56939766Y39285590D01*
X57050029Y39281963D01*
X57147592Y39277946D01*
X57233833Y39273516D01*
X57310129Y39268651D01*
X57377860Y39263328D01*
X57438404Y39257524D01*
X57493137Y39251218D01*
X57543438Y39244386D01*
X57590686Y39237005D01*
X57636259Y39229053D01*
X57681533Y39220508D01*
X57727889Y39211347D01*
X57776702Y39201547D01*
X57829353Y39191085D01*
X57882787Y39180776D01*
X58445509Y39053344D01*
X58994730Y38887260D01*
X59528633Y38683790D01*
X60045401Y38444202D01*
X60543215Y38169761D01*
X61020257Y37861733D01*
X61474709Y37521386D01*
X61904754Y37149985D01*
X62308574Y36748797D01*
X62684351Y36319088D01*
X63030266Y35862125D01*
X63344502Y35379173D01*
X63347614Y35373991D01*
X63630621Y34862553D01*
X63874381Y34337408D01*
X64078660Y33799402D01*
X64243225Y33249380D01*
X64367843Y32688185D01*
X64452280Y32116662D01*
X64496304Y31535657D01*
X64503228Y31188664D01*
X64500724Y30929322D01*
X64492820Y30697893D01*
X64478518Y30480886D01*
X64456822Y30264809D01*
X64426734Y30036169D01*
X64409594Y29921725D01*
X64301085Y29354517D01*
X64152887Y28799524D01*
X63965353Y28257545D01*
X63738838Y27729380D01*
X63473696Y27215825D01*
X63170281Y26717681D01*
X62828947Y26235746D01*
X62704200Y26075574D01*
X62586002Y25934562D01*
X62442433Y25774945D01*
X62280764Y25603968D01*
X62108266Y25428880D01*
X61932207Y25256928D01*
X61759859Y25095360D01*
X61598491Y24951422D01*
X61463771Y24839036D01*
X60997916Y24493219D01*
X60511639Y24182149D01*
X60007257Y23906886D01*
X59487091Y23668489D01*
X58953458Y23468017D01*
X58408678Y23306531D01*
X57855069Y23185089D01*
X57836468Y23181739D01*
X57763576Y23168553D01*
X57697274Y23156442D01*
X57635628Y23145358D01*
X57576707Y23135253D01*
X57518579Y23126077D01*
X57459311Y23117783D01*
X57396972Y23110323D01*
X57329630Y23103647D01*
X57255352Y23097708D01*
X57172206Y23092456D01*
X57078261Y23087845D01*
X56971584Y23083824D01*
X56850243Y23080346D01*
X56712307Y23077363D01*
X56555842Y23074826D01*
X56378918Y23072686D01*
X56179601Y23070895D01*
X55955960Y23069406D01*
X55706063Y23068168D01*
X55427978Y23067135D01*
X55119773Y23066257D01*
X54779515Y23065486D01*
X54405272Y23064774D01*
X53995113Y23064073D01*
X53547106Y23063333D01*
X53078648Y23062541D01*
X49034427Y23055515D01*
X49034427Y20682675D01*
X49034427Y18309836D01*
X51361025Y18309704D01*
X51796947Y18309464D01*
X52193818Y18308752D01*
X52554222Y18307503D01*
X52880746Y18305652D01*
X53175976Y18303133D01*
X53442496Y18299880D01*
X53682893Y18295827D01*
X53899753Y18290910D01*
X54095661Y18285063D01*
X54273202Y18278221D01*
X54434963Y18270317D01*
X54583529Y18261286D01*
X54721486Y18251063D01*
X54851419Y18239583D01*
X54975914Y18226779D01*
X55072131Y18215684D01*
X55739132Y18114821D01*
X56392462Y17974804D01*
X57031304Y17795976D01*
X57654842Y17578680D01*
X58262258Y17323258D01*
X58852736Y17030053D01*
X59425460Y16699409D01*
X59979613Y16331669D01*
X60506066Y15933864D01*
X61012235Y15500629D01*
X61488075Y15039679D01*
X61932638Y14552493D01*
X62344978Y14040551D01*
X62724148Y13505334D01*
X63069203Y12948320D01*
X63379195Y12370989D01*
X63653179Y11774822D01*
X63890208Y11161298D01*
X64089335Y10531897D01*
X64179729Y10190164D01*
X64244426Y9917484D01*
X64299913Y9658843D01*
X64346899Y9407974D01*
X64386097Y9158607D01*
X64418217Y8904473D01*
X64443969Y8639305D01*
X64464066Y8356833D01*
X64479218Y8050788D01*
X64490135Y7714902D01*
X64496717Y7395123D01*
X64510106Y6567541D01*
X66869807Y6567541D01*
X69229508Y6567541D01*
X69229311Y7186926D01*
X69225773Y7651038D01*
X69215150Y8081618D01*
X69196965Y8486246D01*
X69170744Y8872500D01*
X69136008Y9247962D01*
X69092282Y9620210D01*
X69062814Y9836229D01*
X68929979Y10618612D01*
X68756927Y11391192D01*
X68544205Y12152650D01*
X68292361Y12901669D01*
X68001943Y13636932D01*
X67673499Y14357121D01*
X67307577Y15060917D01*
X66904725Y15747003D01*
X66465490Y16414061D01*
X66141252Y16862869D01*
X65691182Y17432810D01*
X65207177Y17988406D01*
X64694725Y18524132D01*
X64159312Y19034467D01*
X63606423Y19513888D01*
X63144588Y19879522D01*
X63058567Y19945730D01*
X62985817Y20003619D01*
X62932187Y20048386D01*
X62903524Y20075228D01*
X62900328Y20080141D01*
X62916989Y20097194D01*
X62961280Y20128901D01*
X63024664Y20169286D01*
X63045754Y20181978D01*
X63506034Y20472866D01*
X63969196Y20799291D01*
X64429246Y21156110D01*
X64880187Y21538178D01*
X65316024Y21940352D01*
X65730763Y22357487D01*
X66118407Y22784438D01*
X66226267Y22910983D01*
X66683478Y23487290D01*
X67104110Y24083382D01*
X67487966Y24698796D01*
X67834852Y25333067D01*
X68144572Y25985731D01*
X68416930Y26656326D01*
X68651731Y27344386D01*
X68848780Y28049449D01*
X69007881Y28771051D01*
X69128839Y29508727D01*
X69178572Y29916803D01*
X69190281Y30051782D01*
X69200556Y30220894D01*
X69209285Y30416655D01*
X69216354Y30631582D01*
X69221648Y30858188D01*
X69225056Y31088990D01*
X69226464Y31316503D01*
X69225757Y31533242D01*
X69222823Y31731723D01*
X69217549Y31904461D01*
X69210636Y32032736D01*
X69138022Y32776642D01*
X69026207Y33506901D01*
X68875331Y34223120D01*
X68685536Y34924907D01*
X68456960Y35611868D01*
X68189744Y36283611D01*
X67884029Y36939744D01*
X67539955Y37579874D01*
X67157662Y38203609D01*
X66838048Y38671475D01*
X66585690Y39012614D01*
X66326428Y39338388D01*
X66052110Y39658429D01*
X65754585Y39982372D01*
X65545498Y40198968D01*
X65012736Y40712644D01*
X64458797Y41190472D01*
X63883554Y41632532D01*
X63286880Y42038902D01*
X62668646Y42409663D01*
X62028726Y42744894D01*
X61366991Y43044674D01*
X60683314Y43309082D01*
X60387856Y43410178D01*
X59760057Y43599638D01*
X59129447Y43754827D01*
X58489014Y43877110D01*
X57831743Y43967853D01*
X57247787Y44021699D01*
X57196805Y44023833D01*
X57104610Y44025861D01*
X56971627Y44027781D01*
X56798281Y44029592D01*
X56584998Y44031293D01*
X56332204Y44032882D01*
X56040325Y44034359D01*
X55709786Y44035723D01*
X55341012Y44036971D01*
X54934430Y44038103D01*
X54490464Y44039118D01*
X54009541Y44040014D01*
X53492086Y44040790D01*
X52938525Y44041446D01*
X52349283Y44041978D01*
X51724785Y44042388D01*
X51065459Y44042672D01*
X50371728Y44042831D01*
X49882828Y44042866D01*
X42809345Y44042951D01*
X26829908Y44042951D01*
X26728342Y44044639D01*
X26569069Y44046857D01*
X26394125Y44048896D01*
X26202344Y44050762D01*
X25992564Y44052463D01*
X25763618Y44054007D01*
X25514343Y44055402D01*
X25243573Y44056654D01*
X24950144Y44057773D01*
X24632891Y44058764D01*
X24290650Y44059637D01*
X23922255Y44060398D01*
X23526543Y44061056D01*
X23102349Y44061618D01*
X22648507Y44062091D01*
X22163854Y44062483D01*
X21647224Y44062803D01*
X21097453Y44063057D01*
X20513377Y44063252D01*
X19893830Y44063398D01*
X19237647Y44063501D01*
X18543666Y44063570D01*
X17810719Y44063611D01*
X17037644Y44063632D01*
X16800369Y44063636D01*
X6791312Y44063770D01*
X722377Y44063770D01*
X722377Y50132705D01*
X1632455Y50138128D01*
X2542532Y50143551D01*
X2447964Y50346325D01*
X2107056Y51122362D01*
X1807032Y51901582D01*
X1547138Y52686677D01*
X1326623Y53480338D01*
X1144734Y54285255D01*
X1000717Y55104119D01*
X900284Y55878934D01*
X894690Y55929954D01*
X889321Y55978049D01*
X884172Y56024094D01*
X879238Y56068965D01*
X874515Y56113537D01*
X869998Y56158685D01*
X865683Y56205282D01*
X861564Y56254206D01*
X857638Y56306330D01*
X853900Y56362530D01*
X850344Y56423680D01*
X846968Y56490656D01*
X843765Y56564332D01*
X840732Y56645585D01*
X837864Y56735287D01*
X835155Y56834315D01*
X832603Y56943544D01*
X830202Y57063848D01*
X827946Y57196103D01*
X825833Y57341184D01*
X823858Y57499965D01*
X822014Y57673322D01*
X820299Y57862129D01*
X818708Y58067261D01*
X817235Y58289595D01*
X815877Y58530004D01*
X814628Y58789363D01*
X813485Y59068548D01*
X812442Y59368433D01*
X811495Y59689895D01*
X810640Y60033806D01*
X809871Y60401043D01*
X809184Y60792481D01*
X808576Y61208994D01*
X808040Y61651458D01*
X807572Y62120747D01*
X807169Y62617737D01*
X806825Y63143302D01*
X806535Y63698318D01*
X806295Y64283660D01*
X806101Y64900202D01*
X805948Y65548819D01*
X805831Y66230387D01*
X805746Y66945781D01*
X805688Y67695875D01*
X805653Y68481544D01*
X805635Y69303665D01*
X805631Y70163110D01*
X805635Y71060756D01*
X805644Y71997478D01*
X805653Y72974150D01*
X805656Y73919180D01*
X805656Y84745410D01*
X6874590Y84745410D01*
X6874687Y71072090D01*
X6874727Y70016753D01*
X6874833Y69003015D01*
X6875003Y68030834D01*
X6875239Y67100170D01*
X6875541Y66210983D01*
X6875907Y65363231D01*
X6876339Y64556874D01*
X6876837Y63791871D01*
X6877400Y63068182D01*
X6878030Y62385764D01*
X6878724Y61744579D01*
X6879485Y61144585D01*
X6880311Y60585741D01*
X6881204Y60068006D01*
X6882162Y59591340D01*
X6883186Y59155702D01*
X6884277Y58761052D01*
X6885434Y58407347D01*
X6886657Y58094549D01*
X6887946Y57822616D01*
X6889302Y57591507D01*
X6890724Y57401181D01*
X6892212Y57251598D01*
X6893767Y57142717D01*
X6895389Y57074498D01*
X6896248Y57055246D01*
X6959711Y56365091D01*
X7063006Y55686186D01*
X7205869Y55019352D01*
X7388034Y54365412D01*
X7609235Y53725186D01*
X7869208Y53099497D01*
X8167685Y52489166D01*
X8504402Y51895015D01*
X8629238Y51694180D01*
X9001877Y51146172D01*
X9408131Y50619999D01*
X9845686Y50117696D01*
X10312226Y49641296D01*
X10805436Y49192832D01*
X11322999Y48774337D01*
X11862600Y48387846D01*
X12421924Y48035391D01*
X12998655Y47719006D01*
X13350449Y47548093D01*
X13910613Y47305139D01*
X14469243Y47096273D01*
X15032385Y46919920D01*
X15606080Y46774505D01*
X16196374Y46658455D01*
X16809309Y46570195D01*
X17294836Y46520663D01*
X17401138Y46514329D01*
X17541892Y46510032D01*
X17709971Y46507662D01*
X17898242Y46507110D01*
X18099577Y46508266D01*
X18306844Y46511020D01*
X18512914Y46515262D01*
X18710656Y46520884D01*
X18892940Y46527774D01*
X19052636Y46535823D01*
X19182613Y46544921D01*
X19241476Y46550625D01*
X19880271Y46637314D01*
X20492312Y46751817D01*
X21083189Y46895728D01*
X21658497Y47070642D01*
X22144894Y47249180D01*
X31795738Y47249180D01*
X34158771Y47249180D01*
X36521804Y47249180D01*
X36522411Y62390287D01*
X36522473Y63290634D01*
X36522587Y64171531D01*
X36522751Y65032206D01*
X36522964Y65871882D01*
X36523226Y66689785D01*
X36523535Y67485141D01*
X36523890Y68257176D01*
X36524290Y69005114D01*
X36524735Y69728181D01*
X36525223Y70425603D01*
X36525753Y71096604D01*
X36526325Y71740411D01*
X36526937Y72356249D01*
X36527588Y72943343D01*
X36528278Y73500918D01*
X36529005Y74028201D01*
X36529769Y74524416D01*
X36530567Y74988789D01*
X36531401Y75420545D01*
X36532267Y75818911D01*
X36533166Y76183110D01*
X36534097Y76512369D01*
X36535058Y76805913D01*
X36536048Y77062968D01*
X36537067Y77282759D01*
X36538113Y77464511D01*
X36539185Y77607450D01*
X36540283Y77710801D01*
X36541406Y77773790D01*
X36542147Y77792701D01*
X36578797Y78110323D01*
X36642012Y78404766D01*
X36734800Y78687188D01*
X36858325Y78965056D01*
X37037987Y79279754D01*
X37248022Y79566549D01*
X37486834Y79824216D01*
X37752829Y80051537D01*
X38044412Y80247288D01*
X38359990Y80410249D01*
X38697966Y80539198D01*
X39027498Y80626780D01*
X39183644Y80651926D01*
X39367922Y80668262D01*
X39567743Y80675683D01*
X39770519Y80674085D01*
X39963662Y80663362D01*
X40134584Y80643409D01*
X40175656Y80636357D01*
X40524742Y80550848D01*
X40855840Y80428905D01*
X41166940Y80272545D01*
X41456035Y80083784D01*
X41721115Y79864640D01*
X41960172Y79617129D01*
X42171199Y79343267D01*
X42352185Y79045072D01*
X42501124Y78724560D01*
X42616006Y78383748D01*
X42676928Y78124754D01*
X42679921Y78108259D01*
X42682759Y78089681D01*
X42685446Y78067891D01*
X42687989Y78041757D01*
X42690393Y78010150D01*
X42692664Y77971939D01*
X42694808Y77925994D01*
X42696830Y77871184D01*
X42698735Y77806379D01*
X42700531Y77730449D01*
X42702222Y77642263D01*
X42703814Y77540691D01*
X42705313Y77424603D01*
X42706724Y77292868D01*
X42708054Y77144355D01*
X42709307Y76977936D01*
X42710490Y76792478D01*
X42711608Y76586853D01*
X42712667Y76359929D01*
X42713672Y76110575D01*
X42714630Y75837663D01*
X42715546Y75540061D01*
X42716426Y75216639D01*
X42717275Y74866267D01*
X42718099Y74487814D01*
X42718903Y74080150D01*
X42719694Y73642145D01*
X42720478Y73172668D01*
X42721259Y72670589D01*
X42722044Y72134777D01*
X42722837Y71564103D01*
X42723646Y70957435D01*
X42724475Y70313644D01*
X42725331Y69631599D01*
X42726219Y68910170D01*
X42727139Y68152131D01*
X42738955Y58377295D01*
X42783241Y58002541D01*
X42870957Y57359686D01*
X42979134Y56748229D01*
X43109459Y56162400D01*
X43263624Y55596429D01*
X43443316Y55044546D01*
X43650226Y54500980D01*
X43886044Y53959961D01*
X44090783Y53536721D01*
X44409953Y52938962D01*
X44749348Y52373663D01*
X45113263Y51834814D01*
X45505989Y51316405D01*
X45931822Y50812425D01*
X46379584Y50332677D01*
X46909043Y49819854D01*
X47461787Y49341368D01*
X48037211Y48897599D01*
X48634708Y48488928D01*
X49253675Y48115737D01*
X49893505Y47778406D01*
X50553595Y47477316D01*
X51233338Y47212850D01*
X51457465Y47135156D01*
X51937312Y46982931D01*
X52409590Y46852496D01*
X52881864Y46742453D01*
X53361697Y46651403D01*
X53856655Y46577946D01*
X54374302Y46520683D01*
X54922203Y46478216D01*
X55051312Y46470507D01*
X55150090Y46467132D01*
X55282735Y46465862D01*
X55441537Y46466508D01*
X55618788Y46468880D01*
X55806778Y46472788D01*
X55997798Y46478043D01*
X56184138Y46484455D01*
X56358090Y46491834D01*
X56511944Y46499990D01*
X56637991Y46508735D01*
X56651748Y46509889D01*
X57373468Y46592458D01*
X58084083Y46714527D01*
X58782289Y46875125D01*
X59466780Y47073281D01*
X60136251Y47308025D01*
X60789397Y47578386D01*
X61424912Y47883394D01*
X62041492Y48222077D01*
X62637830Y48593467D01*
X63212622Y48996591D01*
X63764562Y49430481D01*
X64292346Y49894164D01*
X64794667Y50386670D01*
X65270221Y50907030D01*
X65717702Y51454271D01*
X66135806Y52027425D01*
X66523226Y52625520D01*
X66878657Y53247585D01*
X67200795Y53892651D01*
X67488334Y54559747D01*
X67492716Y54570770D01*
X67676499Y55061352D01*
X67837408Y55551428D01*
X67976960Y56047515D01*
X68096669Y56556126D01*
X68198053Y57083777D01*
X68282628Y57636983D01*
X68351909Y58222259D01*
X68359174Y58294016D01*
X68360956Y58321677D01*
X68362671Y58368633D01*
X68364318Y58435624D01*
X68365902Y58523391D01*
X68367422Y58632672D01*
X68368881Y58764208D01*
X68370280Y58918738D01*
X68371622Y59097003D01*
X68372908Y59299741D01*
X68374140Y59527692D01*
X68375319Y59781597D01*
X68376447Y60062195D01*
X68377527Y60370226D01*
X68378559Y60706428D01*
X68379546Y61071544D01*
X68380489Y61466311D01*
X68381390Y61891469D01*
X68382251Y62347759D01*
X68383073Y62835920D01*
X68383858Y63356692D01*
X68384608Y63910814D01*
X68385326Y64499027D01*
X68386011Y65122070D01*
X68386667Y65780682D01*
X68387295Y66475604D01*
X68387896Y67207575D01*
X68388473Y67977335D01*
X68389027Y68785623D01*
X68389560Y69633180D01*
X68390074Y70520745D01*
X68390570Y71449058D01*
X68390670Y71644631D01*
X68397301Y84745410D01*
X66033979Y84745410D01*
X63670656Y84745410D01*
X63670559Y71956926D01*
X63670517Y70941545D01*
X63670407Y69967710D01*
X63670229Y69035328D01*
X63669982Y68144307D01*
X63669666Y67294553D01*
X63669281Y66485974D01*
X63668828Y65718477D01*
X63668305Y64991968D01*
X63667713Y64306355D01*
X63667051Y63661545D01*
X63666320Y63057445D01*
X63665519Y62493962D01*
X63664648Y61971003D01*
X63663708Y61488475D01*
X63662696Y61046285D01*
X63661615Y60644341D01*
X63660463Y60282549D01*
X63659240Y59960816D01*
X63657946Y59679049D01*
X63656582Y59437156D01*
X63655146Y59235044D01*
X63653639Y59072619D01*
X63652061Y58949789D01*
X63650410Y58866461D01*
X63648849Y58824918D01*
X63591591Y58238113D01*
X63494837Y57663516D01*
X63359281Y57102457D01*
X63185621Y56556267D01*
X62974554Y56026279D01*
X62726775Y55513822D01*
X62442981Y55020228D01*
X62123869Y54546827D01*
X61770135Y54094952D01*
X61382476Y53665932D01*
X60961588Y53261099D01*
X60560569Y52922974D01*
X60101984Y52585873D01*
X59622970Y52284209D01*
X59125652Y52018421D01*
X58612160Y51788948D01*
X58084621Y51596227D01*
X57545163Y51440697D01*
X56995915Y51322796D01*
X56439003Y51242963D01*
X55876557Y51201636D01*
X55310704Y51199254D01*
X54743571Y51236254D01*
X54177288Y51313076D01*
X53613981Y51430156D01*
X53479427Y51464305D01*
X52935831Y51628538D01*
X52405862Y51831254D01*
X51891708Y52070896D01*
X51395559Y52345911D01*
X50919603Y52654741D01*
X50466028Y52995833D01*
X50037025Y53367631D01*
X49634781Y53768579D01*
X49261487Y54197122D01*
X48919329Y54651705D01*
X48848708Y54754672D01*
X48538189Y55251166D01*
X48265629Y55762818D01*
X48031620Y56288180D01*
X47836753Y56825804D01*
X47681618Y57374241D01*
X47577985Y57867213D01*
X47569229Y57915502D01*
X47560936Y57959390D01*
X47553093Y58000033D01*
X47545685Y58038586D01*
X47538700Y58076207D01*
X47532122Y58114050D01*
X47525939Y58153272D01*
X47520137Y58195030D01*
X47514701Y58240479D01*
X47509619Y58290776D01*
X47504875Y58347076D01*
X47500457Y58410536D01*
X47496351Y58482311D01*
X47492542Y58563559D01*
X47489018Y58655434D01*
X47485764Y58759093D01*
X47482766Y58875693D01*
X47480011Y59006388D01*
X47477485Y59152336D01*
X47475174Y59314693D01*
X47473064Y59494614D01*
X47471142Y59693256D01*
X47469394Y59911774D01*
X47467806Y60151326D01*
X47466364Y60413066D01*
X47465054Y60698152D01*
X47463863Y61007738D01*
X47462776Y61342982D01*
X47461781Y61705040D01*
X47460863Y62095066D01*
X47460009Y62514219D01*
X47459204Y62963653D01*
X47458435Y63444524D01*
X47457688Y63957990D01*
X47456949Y64505206D01*
X47456205Y65087328D01*
X47455442Y65705511D01*
X47454645Y66360914D01*
X47453802Y67054690D01*
X47452898Y67787998D01*
X47452098Y68422787D01*
X47451134Y69189591D01*
X47450242Y69915912D01*
X47449407Y70602906D01*
X47448617Y71251728D01*
X47447858Y71863535D01*
X47447116Y72439482D01*
X47446376Y72980725D01*
X47445626Y73488420D01*
X47444851Y73963724D01*
X47444037Y74407792D01*
X47443172Y74821779D01*
X47442240Y75206843D01*
X47441229Y75564138D01*
X47440124Y75894821D01*
X47438912Y76200048D01*
X47437579Y76480975D01*
X47436111Y76738757D01*
X47434494Y76974550D01*
X47432714Y77189511D01*
X47430759Y77384795D01*
X47428613Y77561558D01*
X47426263Y77720957D01*
X47423696Y77864146D01*
X47420897Y77992283D01*
X47417853Y78106523D01*
X47414550Y78208021D01*
X47410974Y78297934D01*
X47407112Y78377418D01*
X47402949Y78447628D01*
X47398472Y78509721D01*
X47393667Y78564853D01*
X47388520Y78614179D01*
X47383018Y78658855D01*
X47377146Y78700037D01*
X47370891Y78738882D01*
X47364239Y78776544D01*
X47357176Y78814181D01*
X47349689Y78852948D01*
X47341764Y78894000D01*
X47333387Y78938494D01*
X47326170Y78978361D01*
X47208422Y79524637D01*
X47051505Y80059173D01*
X46856731Y80579974D01*
X46625413Y81085049D01*
X46358863Y81572404D01*
X46058395Y82040046D01*
X45725320Y82485984D01*
X45360952Y82908223D01*
X44966603Y83304772D01*
X44543586Y83673638D01*
X44093213Y84012827D01*
X43942153Y84115689D01*
X43457467Y84412757D01*
X42954979Y84672210D01*
X42434929Y84893958D01*
X41897555Y85077914D01*
X41343096Y85223991D01*
X40771792Y85332099D01*
X40550410Y85363197D01*
X40421443Y85375966D01*
X40259795Y85386256D01*
X40073807Y85394013D01*
X39871817Y85399186D01*
X39662167Y85401720D01*
X39453195Y85401563D01*
X39253243Y85398663D01*
X39070651Y85392967D01*
X38913758Y85384421D01*
X38801558Y85374267D01*
X38219597Y85285925D01*
X37654451Y85159923D01*
X37106887Y84996634D01*
X36577674Y84796433D01*
X36067579Y84559694D01*
X35577369Y84286791D01*
X35107811Y83978097D01*
X34659674Y83633987D01*
X34233725Y83254834D01*
X34023222Y83045976D01*
X33635056Y82617557D01*
X33283020Y82168651D01*
X32967487Y81700110D01*
X32688832Y81212786D01*
X32447431Y80707533D01*
X32243656Y80185204D01*
X32077883Y79646652D01*
X31950487Y79092730D01*
X31861841Y78524290D01*
X31816655Y78020656D01*
X31815255Y77976100D01*
X31813899Y77890234D01*
X31812590Y77763388D01*
X31811326Y77595890D01*
X31810108Y77388070D01*
X31808938Y77140258D01*
X31807814Y76852782D01*
X31806739Y76525972D01*
X31805711Y76160158D01*
X31804732Y75755667D01*
X31803802Y75312831D01*
X31802922Y74831978D01*
X31802092Y74313438D01*
X31801311Y73757539D01*
X31800582Y73164611D01*
X31799904Y72534984D01*
X31799278Y71868987D01*
X31798703Y71166949D01*
X31798182Y70429199D01*
X31797713Y69656067D01*
X31797297Y68847883D01*
X31796936Y68004974D01*
X31796629Y67127671D01*
X31796376Y66216304D01*
X31796179Y65271200D01*
X31796037Y64292691D01*
X31795952Y63281104D01*
X31795924Y62463156D01*
X31795738Y47249180D01*
X22144894Y47249180D01*
X22223826Y47278153D01*
X22784770Y47519855D01*
X23000582Y47622283D01*
X23562379Y47913530D01*
X24093267Y48226362D01*
X24599085Y48564899D01*
X25085675Y48933263D01*
X25558876Y49335574D01*
X25953380Y49705786D01*
X26428267Y50199245D01*
X26869886Y50716841D01*
X27277515Y51257149D01*
X27650428Y51818747D01*
X27987903Y52400210D01*
X28289215Y53000114D01*
X28553641Y53617037D01*
X28780458Y54249554D01*
X28968940Y54896241D01*
X29118365Y55555675D01*
X29213162Y56118361D01*
X29220564Y56169096D01*
X29227636Y56215606D01*
X29234387Y56258857D01*
X29240826Y56299817D01*
X29246958Y56339452D01*
X29252794Y56378727D01*
X29258339Y56418610D01*
X29263603Y56460066D01*
X29268593Y56504064D01*
X29273317Y56551567D01*
X29277782Y56603545D01*
X29281997Y56660962D01*
X29285970Y56724785D01*
X29289707Y56795981D01*
X29293218Y56875516D01*
X29296509Y56964357D01*
X29299589Y57063469D01*
X29302466Y57173821D01*
X29305147Y57296377D01*
X29307640Y57432104D01*
X29309953Y57581970D01*
X29312095Y57746940D01*
X29314071Y57927981D01*
X29315892Y58126059D01*
X29317564Y58342141D01*
X29319095Y58577193D01*
X29320493Y58832181D01*
X29321766Y59108073D01*
X29322922Y59405834D01*
X29323968Y59726432D01*
X29324913Y60070832D01*
X29325764Y60440001D01*
X29326529Y60834905D01*
X29327215Y61256511D01*
X29327832Y61705786D01*
X29328386Y62183695D01*
X29328886Y62691206D01*
X29329339Y63229284D01*
X29329753Y63798897D01*
X29330136Y64401010D01*
X29330496Y65036590D01*
X29330840Y65706604D01*
X29331177Y66412018D01*
X29331514Y67153799D01*
X29331859Y67932912D01*
X29332220Y68750325D01*
X29332605Y69607003D01*
X29333022Y70503914D01*
X29333224Y70926352D01*
X29339921Y84745410D01*
X26966026Y84745410D01*
X24592131Y84745410D01*
X24592106Y71020041D01*
X24592116Y70105554D01*
X24592144Y69231749D01*
X24592181Y68397668D01*
X24592220Y67602352D01*
X24592252Y66844845D01*
X24592269Y66124189D01*
X24592263Y65439425D01*
X24592225Y64789595D01*
X24592148Y64173743D01*
X24592023Y63590911D01*
X24591842Y63040140D01*
X24591597Y62520472D01*
X24591279Y62030951D01*
X24590881Y61570618D01*
X24590394Y61138515D01*
X24589810Y60733685D01*
X24589121Y60355170D01*
X24588318Y60002012D01*
X24587394Y59673253D01*
X24586340Y59367936D01*
X24585148Y59085102D01*
X24583810Y58823795D01*
X24582317Y58583055D01*
X24580662Y58361926D01*
X24578835Y58159450D01*
X24576830Y57974669D01*
X24574638Y57806625D01*
X24572250Y57654360D01*
X24569658Y57516916D01*
X24566855Y57393337D01*
X24563832Y57282663D01*
X24560580Y57183938D01*
X24557092Y57096202D01*
X24553359Y57018500D01*
X24549374Y56949872D01*
X24545127Y56889362D01*
X24540611Y56836011D01*
X24535818Y56788861D01*
X24530739Y56746955D01*
X24525366Y56709335D01*
X24519692Y56675044D01*
X24513706Y56643122D01*
X24507403Y56612614D01*
X24500773Y56582560D01*
X24493807Y56552003D01*
X24486499Y56519985D01*
X24478840Y56485549D01*
X24470821Y56447737D01*
X24467161Y56429707D01*
X24389242Y56085283D01*
X24295580Y55758386D01*
X24182019Y55436933D01*
X24044401Y55108839D01*
X23926643Y54858770D01*
X23678307Y54398536D01*
X23397471Y53963900D01*
X23085322Y53555983D01*
X22743044Y53175905D01*
X22371822Y52824785D01*
X21972843Y52503744D01*
X21547291Y52213901D01*
X21096350Y51956378D01*
X20621208Y51732293D01*
X20615574Y51729901D01*
X20145515Y51552969D01*
X19660943Y51414042D01*
X19164946Y51313389D01*
X18660617Y51251279D01*
X18151045Y51227981D01*
X17639319Y51243765D01*
X17128531Y51298901D01*
X16659836Y51385111D01*
X16363747Y51460821D01*
X16049730Y51559451D01*
X15730819Y51676078D01*
X15420049Y51805778D01*
X15130455Y51943630D01*
X15004672Y52010219D01*
X14553600Y52280568D01*
X14132399Y52579659D01*
X13739808Y52908581D01*
X13374562Y53268427D01*
X13035400Y53660287D01*
X12913116Y53817787D01*
X12614826Y54247472D01*
X12354269Y54694579D01*
X12131777Y55158227D01*
X11947682Y55637534D01*
X11802319Y56131616D01*
X11696018Y56639593D01*
X11629113Y57160581D01*
X11622357Y57241580D01*
X11620708Y57281808D01*
X11619127Y57359190D01*
X11617613Y57473904D01*
X11616165Y57626127D01*
X11614784Y57816036D01*
X11613469Y58043808D01*
X11612221Y58309621D01*
X11611038Y58613652D01*
X11609920Y58956079D01*
X11608867Y59337078D01*
X11607880Y59756827D01*
X11606957Y60215503D01*
X11606098Y60713285D01*
X11605303Y61250348D01*
X11604572Y61826870D01*
X11603904Y62443029D01*
X11603300Y63099001D01*
X11602759Y63794965D01*
X11602280Y64531097D01*
X11601863Y65307575D01*
X11601509Y66124577D01*
X11601216Y66982278D01*
X11600985Y67880857D01*
X11600816Y68820491D01*
X11600707Y69801358D01*
X11600659Y70823634D01*
X11600656Y71133506D01*
X11600656Y84745410D01*
X9237623Y84745410D01*
X6874590Y84745410D01*
X805656Y84745410D01*
X805656Y90814344D01*
X18127623Y90824829D01*
X35449590Y90835313D01*
X35616148Y90894088D01*
X35758061Y90940161D01*
X35933697Y90990709D01*
X36135606Y91043982D01*
X36356340Y91098233D01*
X36588449Y91151712D01*
X36824485Y91202671D01*
X37056999Y91249361D01*
X37278541Y91290034D01*
X37365000Y91304651D01*
X37727628Y91359910D01*
X38075770Y91403563D01*
X38420076Y91436432D01*
X38771196Y91459337D01*
X39139779Y91473099D01*
X39536475Y91478537D01*
X39623935Y91478698D01*
X40223388Y91468401D01*
G37*
%TD*%
M02*
